%TF.GenerationSoftware,KiCad,Pcbnew,(5.1.6-0)*%
%TF.CreationDate,2024-01-05T21:58:38-08:00*%
%TF.ProjectId,input_buffer_bal_XLR_SMD_1206,696e7075-745f-4627-9566-6665725f6261,rev?*%
%TF.SameCoordinates,Original*%
%TF.FileFunction,Paste,Top*%
%TF.FilePolarity,Positive*%
%FSLAX46Y46*%
G04 Gerber Fmt 4.6, Leading zero omitted, Abs format (unit mm)*
G04 Created by KiCad (PCBNEW (5.1.6-0)) date 2024-01-05 21:58:38*
%MOMM*%
%LPD*%
G01*
G04 APERTURE LIST*
G04 APERTURE END LIST*
%TO.C,U2*%
G36*
G01*
X146500000Y-119495000D02*
X146500000Y-119195000D01*
G75*
G02*
X146650000Y-119045000I150000J0D01*
G01*
X148300000Y-119045000D01*
G75*
G02*
X148450000Y-119195000I0J-150000D01*
G01*
X148450000Y-119495000D01*
G75*
G02*
X148300000Y-119645000I-150000J0D01*
G01*
X146650000Y-119645000D01*
G75*
G02*
X146500000Y-119495000I0J150000D01*
G01*
G37*
G36*
G01*
X146500000Y-120765000D02*
X146500000Y-120465000D01*
G75*
G02*
X146650000Y-120315000I150000J0D01*
G01*
X148300000Y-120315000D01*
G75*
G02*
X148450000Y-120465000I0J-150000D01*
G01*
X148450000Y-120765000D01*
G75*
G02*
X148300000Y-120915000I-150000J0D01*
G01*
X146650000Y-120915000D01*
G75*
G02*
X146500000Y-120765000I0J150000D01*
G01*
G37*
G36*
G01*
X146500000Y-122035000D02*
X146500000Y-121735000D01*
G75*
G02*
X146650000Y-121585000I150000J0D01*
G01*
X148300000Y-121585000D01*
G75*
G02*
X148450000Y-121735000I0J-150000D01*
G01*
X148450000Y-122035000D01*
G75*
G02*
X148300000Y-122185000I-150000J0D01*
G01*
X146650000Y-122185000D01*
G75*
G02*
X146500000Y-122035000I0J150000D01*
G01*
G37*
G36*
G01*
X146500000Y-123305000D02*
X146500000Y-123005000D01*
G75*
G02*
X146650000Y-122855000I150000J0D01*
G01*
X148300000Y-122855000D01*
G75*
G02*
X148450000Y-123005000I0J-150000D01*
G01*
X148450000Y-123305000D01*
G75*
G02*
X148300000Y-123455000I-150000J0D01*
G01*
X146650000Y-123455000D01*
G75*
G02*
X146500000Y-123305000I0J150000D01*
G01*
G37*
G36*
G01*
X141550000Y-123305000D02*
X141550000Y-123005000D01*
G75*
G02*
X141700000Y-122855000I150000J0D01*
G01*
X143350000Y-122855000D01*
G75*
G02*
X143500000Y-123005000I0J-150000D01*
G01*
X143500000Y-123305000D01*
G75*
G02*
X143350000Y-123455000I-150000J0D01*
G01*
X141700000Y-123455000D01*
G75*
G02*
X141550000Y-123305000I0J150000D01*
G01*
G37*
G36*
G01*
X141550000Y-122035000D02*
X141550000Y-121735000D01*
G75*
G02*
X141700000Y-121585000I150000J0D01*
G01*
X143350000Y-121585000D01*
G75*
G02*
X143500000Y-121735000I0J-150000D01*
G01*
X143500000Y-122035000D01*
G75*
G02*
X143350000Y-122185000I-150000J0D01*
G01*
X141700000Y-122185000D01*
G75*
G02*
X141550000Y-122035000I0J150000D01*
G01*
G37*
G36*
G01*
X141550000Y-120765000D02*
X141550000Y-120465000D01*
G75*
G02*
X141700000Y-120315000I150000J0D01*
G01*
X143350000Y-120315000D01*
G75*
G02*
X143500000Y-120465000I0J-150000D01*
G01*
X143500000Y-120765000D01*
G75*
G02*
X143350000Y-120915000I-150000J0D01*
G01*
X141700000Y-120915000D01*
G75*
G02*
X141550000Y-120765000I0J150000D01*
G01*
G37*
G36*
G01*
X141550000Y-119495000D02*
X141550000Y-119195000D01*
G75*
G02*
X141700000Y-119045000I150000J0D01*
G01*
X143350000Y-119045000D01*
G75*
G02*
X143500000Y-119195000I0J-150000D01*
G01*
X143500000Y-119495000D01*
G75*
G02*
X143350000Y-119645000I-150000J0D01*
G01*
X141700000Y-119645000D01*
G75*
G02*
X141550000Y-119495000I0J150000D01*
G01*
G37*
%TD*%
%TO.C,R18*%
G36*
G01*
X146775000Y-110875000D02*
X146775000Y-109625000D01*
G75*
G02*
X147025000Y-109375000I250000J0D01*
G01*
X147775000Y-109375000D01*
G75*
G02*
X148025000Y-109625000I0J-250000D01*
G01*
X148025000Y-110875000D01*
G75*
G02*
X147775000Y-111125000I-250000J0D01*
G01*
X147025000Y-111125000D01*
G75*
G02*
X146775000Y-110875000I0J250000D01*
G01*
G37*
G36*
G01*
X143975000Y-110875000D02*
X143975000Y-109625000D01*
G75*
G02*
X144225000Y-109375000I250000J0D01*
G01*
X144975000Y-109375000D01*
G75*
G02*
X145225000Y-109625000I0J-250000D01*
G01*
X145225000Y-110875000D01*
G75*
G02*
X144975000Y-111125000I-250000J0D01*
G01*
X144225000Y-111125000D01*
G75*
G02*
X143975000Y-110875000I0J250000D01*
G01*
G37*
%TD*%
%TO.C,R17*%
G36*
G01*
X106775000Y-110875000D02*
X106775000Y-109625000D01*
G75*
G02*
X107025000Y-109375000I250000J0D01*
G01*
X107775000Y-109375000D01*
G75*
G02*
X108025000Y-109625000I0J-250000D01*
G01*
X108025000Y-110875000D01*
G75*
G02*
X107775000Y-111125000I-250000J0D01*
G01*
X107025000Y-111125000D01*
G75*
G02*
X106775000Y-110875000I0J250000D01*
G01*
G37*
G36*
G01*
X103975000Y-110875000D02*
X103975000Y-109625000D01*
G75*
G02*
X104225000Y-109375000I250000J0D01*
G01*
X104975000Y-109375000D01*
G75*
G02*
X105225000Y-109625000I0J-250000D01*
G01*
X105225000Y-110875000D01*
G75*
G02*
X104975000Y-111125000I-250000J0D01*
G01*
X104225000Y-111125000D01*
G75*
G02*
X103975000Y-110875000I0J250000D01*
G01*
G37*
%TD*%
%TO.C,R16*%
G36*
G01*
X146775000Y-113875000D02*
X146775000Y-112625000D01*
G75*
G02*
X147025000Y-112375000I250000J0D01*
G01*
X147775000Y-112375000D01*
G75*
G02*
X148025000Y-112625000I0J-250000D01*
G01*
X148025000Y-113875000D01*
G75*
G02*
X147775000Y-114125000I-250000J0D01*
G01*
X147025000Y-114125000D01*
G75*
G02*
X146775000Y-113875000I0J250000D01*
G01*
G37*
G36*
G01*
X143975000Y-113875000D02*
X143975000Y-112625000D01*
G75*
G02*
X144225000Y-112375000I250000J0D01*
G01*
X144975000Y-112375000D01*
G75*
G02*
X145225000Y-112625000I0J-250000D01*
G01*
X145225000Y-113875000D01*
G75*
G02*
X144975000Y-114125000I-250000J0D01*
G01*
X144225000Y-114125000D01*
G75*
G02*
X143975000Y-113875000I0J250000D01*
G01*
G37*
%TD*%
%TO.C,R15*%
G36*
G01*
X106775000Y-113875000D02*
X106775000Y-112625000D01*
G75*
G02*
X107025000Y-112375000I250000J0D01*
G01*
X107775000Y-112375000D01*
G75*
G02*
X108025000Y-112625000I0J-250000D01*
G01*
X108025000Y-113875000D01*
G75*
G02*
X107775000Y-114125000I-250000J0D01*
G01*
X107025000Y-114125000D01*
G75*
G02*
X106775000Y-113875000I0J250000D01*
G01*
G37*
G36*
G01*
X103975000Y-113875000D02*
X103975000Y-112625000D01*
G75*
G02*
X104225000Y-112375000I250000J0D01*
G01*
X104975000Y-112375000D01*
G75*
G02*
X105225000Y-112625000I0J-250000D01*
G01*
X105225000Y-113875000D01*
G75*
G02*
X104975000Y-114125000I-250000J0D01*
G01*
X104225000Y-114125000D01*
G75*
G02*
X103975000Y-113875000I0J250000D01*
G01*
G37*
%TD*%
%TO.C,R14*%
G36*
G01*
X154025000Y-121375000D02*
X154025000Y-120125000D01*
G75*
G02*
X154275000Y-119875000I250000J0D01*
G01*
X155025000Y-119875000D01*
G75*
G02*
X155275000Y-120125000I0J-250000D01*
G01*
X155275000Y-121375000D01*
G75*
G02*
X155025000Y-121625000I-250000J0D01*
G01*
X154275000Y-121625000D01*
G75*
G02*
X154025000Y-121375000I0J250000D01*
G01*
G37*
G36*
G01*
X151225000Y-121375000D02*
X151225000Y-120125000D01*
G75*
G02*
X151475000Y-119875000I250000J0D01*
G01*
X152225000Y-119875000D01*
G75*
G02*
X152475000Y-120125000I0J-250000D01*
G01*
X152475000Y-121375000D01*
G75*
G02*
X152225000Y-121625000I-250000J0D01*
G01*
X151475000Y-121625000D01*
G75*
G02*
X151225000Y-121375000I0J250000D01*
G01*
G37*
%TD*%
%TO.C,R13*%
G36*
G01*
X135975000Y-120125000D02*
X135975000Y-121375000D01*
G75*
G02*
X135725000Y-121625000I-250000J0D01*
G01*
X134975000Y-121625000D01*
G75*
G02*
X134725000Y-121375000I0J250000D01*
G01*
X134725000Y-120125000D01*
G75*
G02*
X134975000Y-119875000I250000J0D01*
G01*
X135725000Y-119875000D01*
G75*
G02*
X135975000Y-120125000I0J-250000D01*
G01*
G37*
G36*
G01*
X138775000Y-120125000D02*
X138775000Y-121375000D01*
G75*
G02*
X138525000Y-121625000I-250000J0D01*
G01*
X137775000Y-121625000D01*
G75*
G02*
X137525000Y-121375000I0J250000D01*
G01*
X137525000Y-120125000D01*
G75*
G02*
X137775000Y-119875000I250000J0D01*
G01*
X138525000Y-119875000D01*
G75*
G02*
X138775000Y-120125000I0J-250000D01*
G01*
G37*
%TD*%
%TO.C,R12*%
G36*
G01*
X114025000Y-121375000D02*
X114025000Y-120125000D01*
G75*
G02*
X114275000Y-119875000I250000J0D01*
G01*
X115025000Y-119875000D01*
G75*
G02*
X115275000Y-120125000I0J-250000D01*
G01*
X115275000Y-121375000D01*
G75*
G02*
X115025000Y-121625000I-250000J0D01*
G01*
X114275000Y-121625000D01*
G75*
G02*
X114025000Y-121375000I0J250000D01*
G01*
G37*
G36*
G01*
X111225000Y-121375000D02*
X111225000Y-120125000D01*
G75*
G02*
X111475000Y-119875000I250000J0D01*
G01*
X112225000Y-119875000D01*
G75*
G02*
X112475000Y-120125000I0J-250000D01*
G01*
X112475000Y-121375000D01*
G75*
G02*
X112225000Y-121625000I-250000J0D01*
G01*
X111475000Y-121625000D01*
G75*
G02*
X111225000Y-121375000I0J250000D01*
G01*
G37*
%TD*%
%TO.C,R11*%
G36*
G01*
X95975000Y-120125000D02*
X95975000Y-121375000D01*
G75*
G02*
X95725000Y-121625000I-250000J0D01*
G01*
X94975000Y-121625000D01*
G75*
G02*
X94725000Y-121375000I0J250000D01*
G01*
X94725000Y-120125000D01*
G75*
G02*
X94975000Y-119875000I250000J0D01*
G01*
X95725000Y-119875000D01*
G75*
G02*
X95975000Y-120125000I0J-250000D01*
G01*
G37*
G36*
G01*
X98775000Y-120125000D02*
X98775000Y-121375000D01*
G75*
G02*
X98525000Y-121625000I-250000J0D01*
G01*
X97775000Y-121625000D01*
G75*
G02*
X97525000Y-121375000I0J250000D01*
G01*
X97525000Y-120125000D01*
G75*
G02*
X97775000Y-119875000I250000J0D01*
G01*
X98525000Y-119875000D01*
G75*
G02*
X98775000Y-120125000I0J-250000D01*
G01*
G37*
%TD*%
%TO.C,R10*%
G36*
G01*
X148875000Y-130975000D02*
X147625000Y-130975000D01*
G75*
G02*
X147375000Y-130725000I0J250000D01*
G01*
X147375000Y-129975000D01*
G75*
G02*
X147625000Y-129725000I250000J0D01*
G01*
X148875000Y-129725000D01*
G75*
G02*
X149125000Y-129975000I0J-250000D01*
G01*
X149125000Y-130725000D01*
G75*
G02*
X148875000Y-130975000I-250000J0D01*
G01*
G37*
G36*
G01*
X148875000Y-133775000D02*
X147625000Y-133775000D01*
G75*
G02*
X147375000Y-133525000I0J250000D01*
G01*
X147375000Y-132775000D01*
G75*
G02*
X147625000Y-132525000I250000J0D01*
G01*
X148875000Y-132525000D01*
G75*
G02*
X149125000Y-132775000I0J-250000D01*
G01*
X149125000Y-133525000D01*
G75*
G02*
X148875000Y-133775000I-250000J0D01*
G01*
G37*
%TD*%
%TO.C,R9*%
G36*
G01*
X141125000Y-132525000D02*
X142375000Y-132525000D01*
G75*
G02*
X142625000Y-132775000I0J-250000D01*
G01*
X142625000Y-133525000D01*
G75*
G02*
X142375000Y-133775000I-250000J0D01*
G01*
X141125000Y-133775000D01*
G75*
G02*
X140875000Y-133525000I0J250000D01*
G01*
X140875000Y-132775000D01*
G75*
G02*
X141125000Y-132525000I250000J0D01*
G01*
G37*
G36*
G01*
X141125000Y-129725000D02*
X142375000Y-129725000D01*
G75*
G02*
X142625000Y-129975000I0J-250000D01*
G01*
X142625000Y-130725000D01*
G75*
G02*
X142375000Y-130975000I-250000J0D01*
G01*
X141125000Y-130975000D01*
G75*
G02*
X140875000Y-130725000I0J250000D01*
G01*
X140875000Y-129975000D01*
G75*
G02*
X141125000Y-129725000I250000J0D01*
G01*
G37*
%TD*%
%TO.C,R6*%
G36*
G01*
X145625000Y-130975000D02*
X144375000Y-130975000D01*
G75*
G02*
X144125000Y-130725000I0J250000D01*
G01*
X144125000Y-129975000D01*
G75*
G02*
X144375000Y-129725000I250000J0D01*
G01*
X145625000Y-129725000D01*
G75*
G02*
X145875000Y-129975000I0J-250000D01*
G01*
X145875000Y-130725000D01*
G75*
G02*
X145625000Y-130975000I-250000J0D01*
G01*
G37*
G36*
G01*
X145625000Y-133775000D02*
X144375000Y-133775000D01*
G75*
G02*
X144125000Y-133525000I0J250000D01*
G01*
X144125000Y-132775000D01*
G75*
G02*
X144375000Y-132525000I250000J0D01*
G01*
X145625000Y-132525000D01*
G75*
G02*
X145875000Y-132775000I0J-250000D01*
G01*
X145875000Y-133525000D01*
G75*
G02*
X145625000Y-133775000I-250000J0D01*
G01*
G37*
%TD*%
%TO.C,R4*%
G36*
G01*
X154025000Y-127375000D02*
X154025000Y-126125000D01*
G75*
G02*
X154275000Y-125875000I250000J0D01*
G01*
X155025000Y-125875000D01*
G75*
G02*
X155275000Y-126125000I0J-250000D01*
G01*
X155275000Y-127375000D01*
G75*
G02*
X155025000Y-127625000I-250000J0D01*
G01*
X154275000Y-127625000D01*
G75*
G02*
X154025000Y-127375000I0J250000D01*
G01*
G37*
G36*
G01*
X151225000Y-127375000D02*
X151225000Y-126125000D01*
G75*
G02*
X151475000Y-125875000I250000J0D01*
G01*
X152225000Y-125875000D01*
G75*
G02*
X152475000Y-126125000I0J-250000D01*
G01*
X152475000Y-127375000D01*
G75*
G02*
X152225000Y-127625000I-250000J0D01*
G01*
X151475000Y-127625000D01*
G75*
G02*
X151225000Y-127375000I0J250000D01*
G01*
G37*
%TD*%
%TO.C,R3*%
G36*
G01*
X135975000Y-126125000D02*
X135975000Y-127375000D01*
G75*
G02*
X135725000Y-127625000I-250000J0D01*
G01*
X134975000Y-127625000D01*
G75*
G02*
X134725000Y-127375000I0J250000D01*
G01*
X134725000Y-126125000D01*
G75*
G02*
X134975000Y-125875000I250000J0D01*
G01*
X135725000Y-125875000D01*
G75*
G02*
X135975000Y-126125000I0J-250000D01*
G01*
G37*
G36*
G01*
X138775000Y-126125000D02*
X138775000Y-127375000D01*
G75*
G02*
X138525000Y-127625000I-250000J0D01*
G01*
X137775000Y-127625000D01*
G75*
G02*
X137525000Y-127375000I0J250000D01*
G01*
X137525000Y-126125000D01*
G75*
G02*
X137775000Y-125875000I250000J0D01*
G01*
X138525000Y-125875000D01*
G75*
G02*
X138775000Y-126125000I0J-250000D01*
G01*
G37*
%TD*%
%TO.C,C6*%
G36*
G01*
X152475000Y-123125000D02*
X152475000Y-124375000D01*
G75*
G02*
X152225000Y-124625000I-250000J0D01*
G01*
X151300000Y-124625000D01*
G75*
G02*
X151050000Y-124375000I0J250000D01*
G01*
X151050000Y-123125000D01*
G75*
G02*
X151300000Y-122875000I250000J0D01*
G01*
X152225000Y-122875000D01*
G75*
G02*
X152475000Y-123125000I0J-250000D01*
G01*
G37*
G36*
G01*
X155450000Y-123125000D02*
X155450000Y-124375000D01*
G75*
G02*
X155200000Y-124625000I-250000J0D01*
G01*
X154275000Y-124625000D01*
G75*
G02*
X154025000Y-124375000I0J250000D01*
G01*
X154025000Y-123125000D01*
G75*
G02*
X154275000Y-122875000I250000J0D01*
G01*
X155200000Y-122875000D01*
G75*
G02*
X155450000Y-123125000I0J-250000D01*
G01*
G37*
%TD*%
%TO.C,C5*%
G36*
G01*
X135975000Y-123125000D02*
X135975000Y-124375000D01*
G75*
G02*
X135725000Y-124625000I-250000J0D01*
G01*
X134800000Y-124625000D01*
G75*
G02*
X134550000Y-124375000I0J250000D01*
G01*
X134550000Y-123125000D01*
G75*
G02*
X134800000Y-122875000I250000J0D01*
G01*
X135725000Y-122875000D01*
G75*
G02*
X135975000Y-123125000I0J-250000D01*
G01*
G37*
G36*
G01*
X138950000Y-123125000D02*
X138950000Y-124375000D01*
G75*
G02*
X138700000Y-124625000I-250000J0D01*
G01*
X137775000Y-124625000D01*
G75*
G02*
X137525000Y-124375000I0J250000D01*
G01*
X137525000Y-123125000D01*
G75*
G02*
X137775000Y-122875000I250000J0D01*
G01*
X138700000Y-122875000D01*
G75*
G02*
X138950000Y-123125000I0J-250000D01*
G01*
G37*
%TD*%
%TO.C,C4*%
G36*
G01*
X112475000Y-123125000D02*
X112475000Y-124375000D01*
G75*
G02*
X112225000Y-124625000I-250000J0D01*
G01*
X111300000Y-124625000D01*
G75*
G02*
X111050000Y-124375000I0J250000D01*
G01*
X111050000Y-123125000D01*
G75*
G02*
X111300000Y-122875000I250000J0D01*
G01*
X112225000Y-122875000D01*
G75*
G02*
X112475000Y-123125000I0J-250000D01*
G01*
G37*
G36*
G01*
X115450000Y-123125000D02*
X115450000Y-124375000D01*
G75*
G02*
X115200000Y-124625000I-250000J0D01*
G01*
X114275000Y-124625000D01*
G75*
G02*
X114025000Y-124375000I0J250000D01*
G01*
X114025000Y-123125000D01*
G75*
G02*
X114275000Y-122875000I250000J0D01*
G01*
X115200000Y-122875000D01*
G75*
G02*
X115450000Y-123125000I0J-250000D01*
G01*
G37*
%TD*%
%TO.C,C3*%
G36*
G01*
X95975000Y-123125000D02*
X95975000Y-124375000D01*
G75*
G02*
X95725000Y-124625000I-250000J0D01*
G01*
X94800000Y-124625000D01*
G75*
G02*
X94550000Y-124375000I0J250000D01*
G01*
X94550000Y-123125000D01*
G75*
G02*
X94800000Y-122875000I250000J0D01*
G01*
X95725000Y-122875000D01*
G75*
G02*
X95975000Y-123125000I0J-250000D01*
G01*
G37*
G36*
G01*
X98950000Y-123125000D02*
X98950000Y-124375000D01*
G75*
G02*
X98700000Y-124625000I-250000J0D01*
G01*
X97775000Y-124625000D01*
G75*
G02*
X97525000Y-124375000I0J250000D01*
G01*
X97525000Y-123125000D01*
G75*
G02*
X97775000Y-122875000I250000J0D01*
G01*
X98700000Y-122875000D01*
G75*
G02*
X98950000Y-123125000I0J-250000D01*
G01*
G37*
%TD*%
%TO.C,C8*%
G36*
G01*
X143225000Y-125625000D02*
X143225000Y-126875000D01*
G75*
G02*
X142975000Y-127125000I-250000J0D01*
G01*
X142050000Y-127125000D01*
G75*
G02*
X141800000Y-126875000I0J250000D01*
G01*
X141800000Y-125625000D01*
G75*
G02*
X142050000Y-125375000I250000J0D01*
G01*
X142975000Y-125375000D01*
G75*
G02*
X143225000Y-125625000I0J-250000D01*
G01*
G37*
G36*
G01*
X146200000Y-125625000D02*
X146200000Y-126875000D01*
G75*
G02*
X145950000Y-127125000I-250000J0D01*
G01*
X145025000Y-127125000D01*
G75*
G02*
X144775000Y-126875000I0J250000D01*
G01*
X144775000Y-125625000D01*
G75*
G02*
X145025000Y-125375000I250000J0D01*
G01*
X145950000Y-125375000D01*
G75*
G02*
X146200000Y-125625000I0J-250000D01*
G01*
G37*
%TD*%
%TO.C,C7*%
G36*
G01*
X103225000Y-125625000D02*
X103225000Y-126875000D01*
G75*
G02*
X102975000Y-127125000I-250000J0D01*
G01*
X102050000Y-127125000D01*
G75*
G02*
X101800000Y-126875000I0J250000D01*
G01*
X101800000Y-125625000D01*
G75*
G02*
X102050000Y-125375000I250000J0D01*
G01*
X102975000Y-125375000D01*
G75*
G02*
X103225000Y-125625000I0J-250000D01*
G01*
G37*
G36*
G01*
X106200000Y-125625000D02*
X106200000Y-126875000D01*
G75*
G02*
X105950000Y-127125000I-250000J0D01*
G01*
X105025000Y-127125000D01*
G75*
G02*
X104775000Y-126875000I0J250000D01*
G01*
X104775000Y-125625000D01*
G75*
G02*
X105025000Y-125375000I250000J0D01*
G01*
X105950000Y-125375000D01*
G75*
G02*
X106200000Y-125625000I0J-250000D01*
G01*
G37*
%TD*%
%TO.C,C2*%
G36*
G01*
X145225000Y-115625000D02*
X145225000Y-116875000D01*
G75*
G02*
X144975000Y-117125000I-250000J0D01*
G01*
X144050000Y-117125000D01*
G75*
G02*
X143800000Y-116875000I0J250000D01*
G01*
X143800000Y-115625000D01*
G75*
G02*
X144050000Y-115375000I250000J0D01*
G01*
X144975000Y-115375000D01*
G75*
G02*
X145225000Y-115625000I0J-250000D01*
G01*
G37*
G36*
G01*
X148200000Y-115625000D02*
X148200000Y-116875000D01*
G75*
G02*
X147950000Y-117125000I-250000J0D01*
G01*
X147025000Y-117125000D01*
G75*
G02*
X146775000Y-116875000I0J250000D01*
G01*
X146775000Y-115625000D01*
G75*
G02*
X147025000Y-115375000I250000J0D01*
G01*
X147950000Y-115375000D01*
G75*
G02*
X148200000Y-115625000I0J-250000D01*
G01*
G37*
%TD*%
%TO.C,C1*%
G36*
G01*
X105225000Y-115625000D02*
X105225000Y-116875000D01*
G75*
G02*
X104975000Y-117125000I-250000J0D01*
G01*
X104050000Y-117125000D01*
G75*
G02*
X103800000Y-116875000I0J250000D01*
G01*
X103800000Y-115625000D01*
G75*
G02*
X104050000Y-115375000I250000J0D01*
G01*
X104975000Y-115375000D01*
G75*
G02*
X105225000Y-115625000I0J-250000D01*
G01*
G37*
G36*
G01*
X108200000Y-115625000D02*
X108200000Y-116875000D01*
G75*
G02*
X107950000Y-117125000I-250000J0D01*
G01*
X107025000Y-117125000D01*
G75*
G02*
X106775000Y-116875000I0J250000D01*
G01*
X106775000Y-115625000D01*
G75*
G02*
X107025000Y-115375000I250000J0D01*
G01*
X107950000Y-115375000D01*
G75*
G02*
X108200000Y-115625000I0J-250000D01*
G01*
G37*
%TD*%
%TO.C,U1*%
G36*
G01*
X106500000Y-119495000D02*
X106500000Y-119195000D01*
G75*
G02*
X106650000Y-119045000I150000J0D01*
G01*
X108300000Y-119045000D01*
G75*
G02*
X108450000Y-119195000I0J-150000D01*
G01*
X108450000Y-119495000D01*
G75*
G02*
X108300000Y-119645000I-150000J0D01*
G01*
X106650000Y-119645000D01*
G75*
G02*
X106500000Y-119495000I0J150000D01*
G01*
G37*
G36*
G01*
X106500000Y-120765000D02*
X106500000Y-120465000D01*
G75*
G02*
X106650000Y-120315000I150000J0D01*
G01*
X108300000Y-120315000D01*
G75*
G02*
X108450000Y-120465000I0J-150000D01*
G01*
X108450000Y-120765000D01*
G75*
G02*
X108300000Y-120915000I-150000J0D01*
G01*
X106650000Y-120915000D01*
G75*
G02*
X106500000Y-120765000I0J150000D01*
G01*
G37*
G36*
G01*
X106500000Y-122035000D02*
X106500000Y-121735000D01*
G75*
G02*
X106650000Y-121585000I150000J0D01*
G01*
X108300000Y-121585000D01*
G75*
G02*
X108450000Y-121735000I0J-150000D01*
G01*
X108450000Y-122035000D01*
G75*
G02*
X108300000Y-122185000I-150000J0D01*
G01*
X106650000Y-122185000D01*
G75*
G02*
X106500000Y-122035000I0J150000D01*
G01*
G37*
G36*
G01*
X106500000Y-123305000D02*
X106500000Y-123005000D01*
G75*
G02*
X106650000Y-122855000I150000J0D01*
G01*
X108300000Y-122855000D01*
G75*
G02*
X108450000Y-123005000I0J-150000D01*
G01*
X108450000Y-123305000D01*
G75*
G02*
X108300000Y-123455000I-150000J0D01*
G01*
X106650000Y-123455000D01*
G75*
G02*
X106500000Y-123305000I0J150000D01*
G01*
G37*
G36*
G01*
X101550000Y-123305000D02*
X101550000Y-123005000D01*
G75*
G02*
X101700000Y-122855000I150000J0D01*
G01*
X103350000Y-122855000D01*
G75*
G02*
X103500000Y-123005000I0J-150000D01*
G01*
X103500000Y-123305000D01*
G75*
G02*
X103350000Y-123455000I-150000J0D01*
G01*
X101700000Y-123455000D01*
G75*
G02*
X101550000Y-123305000I0J150000D01*
G01*
G37*
G36*
G01*
X101550000Y-122035000D02*
X101550000Y-121735000D01*
G75*
G02*
X101700000Y-121585000I150000J0D01*
G01*
X103350000Y-121585000D01*
G75*
G02*
X103500000Y-121735000I0J-150000D01*
G01*
X103500000Y-122035000D01*
G75*
G02*
X103350000Y-122185000I-150000J0D01*
G01*
X101700000Y-122185000D01*
G75*
G02*
X101550000Y-122035000I0J150000D01*
G01*
G37*
G36*
G01*
X101550000Y-120765000D02*
X101550000Y-120465000D01*
G75*
G02*
X101700000Y-120315000I150000J0D01*
G01*
X103350000Y-120315000D01*
G75*
G02*
X103500000Y-120465000I0J-150000D01*
G01*
X103500000Y-120765000D01*
G75*
G02*
X103350000Y-120915000I-150000J0D01*
G01*
X101700000Y-120915000D01*
G75*
G02*
X101550000Y-120765000I0J150000D01*
G01*
G37*
G36*
G01*
X101550000Y-119495000D02*
X101550000Y-119195000D01*
G75*
G02*
X101700000Y-119045000I150000J0D01*
G01*
X103350000Y-119045000D01*
G75*
G02*
X103500000Y-119195000I0J-150000D01*
G01*
X103500000Y-119495000D01*
G75*
G02*
X103350000Y-119645000I-150000J0D01*
G01*
X101700000Y-119645000D01*
G75*
G02*
X101550000Y-119495000I0J150000D01*
G01*
G37*
%TD*%
%TO.C,R8*%
G36*
G01*
X108875000Y-130975000D02*
X107625000Y-130975000D01*
G75*
G02*
X107375000Y-130725000I0J250000D01*
G01*
X107375000Y-129975000D01*
G75*
G02*
X107625000Y-129725000I250000J0D01*
G01*
X108875000Y-129725000D01*
G75*
G02*
X109125000Y-129975000I0J-250000D01*
G01*
X109125000Y-130725000D01*
G75*
G02*
X108875000Y-130975000I-250000J0D01*
G01*
G37*
G36*
G01*
X108875000Y-133775000D02*
X107625000Y-133775000D01*
G75*
G02*
X107375000Y-133525000I0J250000D01*
G01*
X107375000Y-132775000D01*
G75*
G02*
X107625000Y-132525000I250000J0D01*
G01*
X108875000Y-132525000D01*
G75*
G02*
X109125000Y-132775000I0J-250000D01*
G01*
X109125000Y-133525000D01*
G75*
G02*
X108875000Y-133775000I-250000J0D01*
G01*
G37*
%TD*%
%TO.C,R7*%
G36*
G01*
X101125000Y-132525000D02*
X102375000Y-132525000D01*
G75*
G02*
X102625000Y-132775000I0J-250000D01*
G01*
X102625000Y-133525000D01*
G75*
G02*
X102375000Y-133775000I-250000J0D01*
G01*
X101125000Y-133775000D01*
G75*
G02*
X100875000Y-133525000I0J250000D01*
G01*
X100875000Y-132775000D01*
G75*
G02*
X101125000Y-132525000I250000J0D01*
G01*
G37*
G36*
G01*
X101125000Y-129725000D02*
X102375000Y-129725000D01*
G75*
G02*
X102625000Y-129975000I0J-250000D01*
G01*
X102625000Y-130725000D01*
G75*
G02*
X102375000Y-130975000I-250000J0D01*
G01*
X101125000Y-130975000D01*
G75*
G02*
X100875000Y-130725000I0J250000D01*
G01*
X100875000Y-129975000D01*
G75*
G02*
X101125000Y-129725000I250000J0D01*
G01*
G37*
%TD*%
%TO.C,R5*%
G36*
G01*
X105625000Y-130975000D02*
X104375000Y-130975000D01*
G75*
G02*
X104125000Y-130725000I0J250000D01*
G01*
X104125000Y-129975000D01*
G75*
G02*
X104375000Y-129725000I250000J0D01*
G01*
X105625000Y-129725000D01*
G75*
G02*
X105875000Y-129975000I0J-250000D01*
G01*
X105875000Y-130725000D01*
G75*
G02*
X105625000Y-130975000I-250000J0D01*
G01*
G37*
G36*
G01*
X105625000Y-133775000D02*
X104375000Y-133775000D01*
G75*
G02*
X104125000Y-133525000I0J250000D01*
G01*
X104125000Y-132775000D01*
G75*
G02*
X104375000Y-132525000I250000J0D01*
G01*
X105625000Y-132525000D01*
G75*
G02*
X105875000Y-132775000I0J-250000D01*
G01*
X105875000Y-133525000D01*
G75*
G02*
X105625000Y-133775000I-250000J0D01*
G01*
G37*
%TD*%
%TO.C,R2*%
G36*
G01*
X114025000Y-127375000D02*
X114025000Y-126125000D01*
G75*
G02*
X114275000Y-125875000I250000J0D01*
G01*
X115025000Y-125875000D01*
G75*
G02*
X115275000Y-126125000I0J-250000D01*
G01*
X115275000Y-127375000D01*
G75*
G02*
X115025000Y-127625000I-250000J0D01*
G01*
X114275000Y-127625000D01*
G75*
G02*
X114025000Y-127375000I0J250000D01*
G01*
G37*
G36*
G01*
X111225000Y-127375000D02*
X111225000Y-126125000D01*
G75*
G02*
X111475000Y-125875000I250000J0D01*
G01*
X112225000Y-125875000D01*
G75*
G02*
X112475000Y-126125000I0J-250000D01*
G01*
X112475000Y-127375000D01*
G75*
G02*
X112225000Y-127625000I-250000J0D01*
G01*
X111475000Y-127625000D01*
G75*
G02*
X111225000Y-127375000I0J250000D01*
G01*
G37*
%TD*%
%TO.C,R1*%
G36*
G01*
X95975000Y-126125000D02*
X95975000Y-127375000D01*
G75*
G02*
X95725000Y-127625000I-250000J0D01*
G01*
X94975000Y-127625000D01*
G75*
G02*
X94725000Y-127375000I0J250000D01*
G01*
X94725000Y-126125000D01*
G75*
G02*
X94975000Y-125875000I250000J0D01*
G01*
X95725000Y-125875000D01*
G75*
G02*
X95975000Y-126125000I0J-250000D01*
G01*
G37*
G36*
G01*
X98775000Y-126125000D02*
X98775000Y-127375000D01*
G75*
G02*
X98525000Y-127625000I-250000J0D01*
G01*
X97775000Y-127625000D01*
G75*
G02*
X97525000Y-127375000I0J250000D01*
G01*
X97525000Y-126125000D01*
G75*
G02*
X97775000Y-125875000I250000J0D01*
G01*
X98525000Y-125875000D01*
G75*
G02*
X98775000Y-126125000I0J-250000D01*
G01*
G37*
%TD*%
M02*
