%TF.GenerationSoftware,KiCad,Pcbnew,(5.1.6-0)*%
%TF.CreationDate,2023-05-06T12:45:12-07:00*%
%TF.ProjectId,input_buffer_bal_XLR_SMD_1206,696e7075-745f-4627-9566-6665725f6261,rev?*%
%TF.SameCoordinates,Original*%
%TF.FileFunction,Soldermask,Top*%
%TF.FilePolarity,Negative*%
%FSLAX46Y46*%
G04 Gerber Fmt 4.6, Leading zero omitted, Abs format (unit mm)*
G04 Created by KiCad (PCBNEW (5.1.6-0)) date 2023-05-06 12:45:12*
%MOMM*%
%LPD*%
G01*
G04 APERTURE LIST*
%ADD10R,1.200000X1.200000*%
%ADD11C,0.900000*%
%ADD12C,7.100000*%
%ADD13C,3.000000*%
%ADD14C,1.700000*%
%ADD15C,3.500000*%
%ADD16C,2.100000*%
G04 APERTURE END LIST*
%TO.C,C8*%
G36*
G01*
X144775000Y-121592544D02*
X144775000Y-122907456D01*
G75*
G02*
X144507456Y-123175000I-267544J0D01*
G01*
X143517544Y-123175000D01*
G75*
G02*
X143250000Y-122907456I0J267544D01*
G01*
X143250000Y-121592544D01*
G75*
G02*
X143517544Y-121325000I267544J0D01*
G01*
X144507456Y-121325000D01*
G75*
G02*
X144775000Y-121592544I0J-267544D01*
G01*
G37*
G36*
G01*
X147750000Y-121592544D02*
X147750000Y-122907456D01*
G75*
G02*
X147482456Y-123175000I-267544J0D01*
G01*
X146492544Y-123175000D01*
G75*
G02*
X146225000Y-122907456I0J267544D01*
G01*
X146225000Y-121592544D01*
G75*
G02*
X146492544Y-121325000I267544J0D01*
G01*
X147482456Y-121325000D01*
G75*
G02*
X147750000Y-121592544I0J-267544D01*
G01*
G37*
%TD*%
%TO.C,C7*%
G36*
G01*
X128775000Y-121592544D02*
X128775000Y-122907456D01*
G75*
G02*
X128507456Y-123175000I-267544J0D01*
G01*
X127517544Y-123175000D01*
G75*
G02*
X127250000Y-122907456I0J267544D01*
G01*
X127250000Y-121592544D01*
G75*
G02*
X127517544Y-121325000I267544J0D01*
G01*
X128507456Y-121325000D01*
G75*
G02*
X128775000Y-121592544I0J-267544D01*
G01*
G37*
G36*
G01*
X131750000Y-121592544D02*
X131750000Y-122907456D01*
G75*
G02*
X131482456Y-123175000I-267544J0D01*
G01*
X130492544Y-123175000D01*
G75*
G02*
X130225000Y-122907456I0J267544D01*
G01*
X130225000Y-121592544D01*
G75*
G02*
X130492544Y-121325000I267544J0D01*
G01*
X131482456Y-121325000D01*
G75*
G02*
X131750000Y-121592544I0J-267544D01*
G01*
G37*
%TD*%
%TO.C,C6*%
G36*
G01*
X112275000Y-121592544D02*
X112275000Y-122907456D01*
G75*
G02*
X112007456Y-123175000I-267544J0D01*
G01*
X111017544Y-123175000D01*
G75*
G02*
X110750000Y-122907456I0J267544D01*
G01*
X110750000Y-121592544D01*
G75*
G02*
X111017544Y-121325000I267544J0D01*
G01*
X112007456Y-121325000D01*
G75*
G02*
X112275000Y-121592544I0J-267544D01*
G01*
G37*
G36*
G01*
X115250000Y-121592544D02*
X115250000Y-122907456D01*
G75*
G02*
X114982456Y-123175000I-267544J0D01*
G01*
X113992544Y-123175000D01*
G75*
G02*
X113725000Y-122907456I0J267544D01*
G01*
X113725000Y-121592544D01*
G75*
G02*
X113992544Y-121325000I267544J0D01*
G01*
X114982456Y-121325000D01*
G75*
G02*
X115250000Y-121592544I0J-267544D01*
G01*
G37*
%TD*%
%TO.C,C5*%
G36*
G01*
X96275000Y-121592544D02*
X96275000Y-122907456D01*
G75*
G02*
X96007456Y-123175000I-267544J0D01*
G01*
X95017544Y-123175000D01*
G75*
G02*
X94750000Y-122907456I0J267544D01*
G01*
X94750000Y-121592544D01*
G75*
G02*
X95017544Y-121325000I267544J0D01*
G01*
X96007456Y-121325000D01*
G75*
G02*
X96275000Y-121592544I0J-267544D01*
G01*
G37*
G36*
G01*
X99250000Y-121592544D02*
X99250000Y-122907456D01*
G75*
G02*
X98982456Y-123175000I-267544J0D01*
G01*
X97992544Y-123175000D01*
G75*
G02*
X97725000Y-122907456I0J267544D01*
G01*
X97725000Y-121592544D01*
G75*
G02*
X97992544Y-121325000I267544J0D01*
G01*
X98982456Y-121325000D01*
G75*
G02*
X99250000Y-121592544I0J-267544D01*
G01*
G37*
%TD*%
%TO.C,C4*%
G36*
G01*
X135775000Y-125092544D02*
X135775000Y-126407456D01*
G75*
G02*
X135507456Y-126675000I-267544J0D01*
G01*
X134517544Y-126675000D01*
G75*
G02*
X134250000Y-126407456I0J267544D01*
G01*
X134250000Y-125092544D01*
G75*
G02*
X134517544Y-124825000I267544J0D01*
G01*
X135507456Y-124825000D01*
G75*
G02*
X135775000Y-125092544I0J-267544D01*
G01*
G37*
G36*
G01*
X138750000Y-125092544D02*
X138750000Y-126407456D01*
G75*
G02*
X138482456Y-126675000I-267544J0D01*
G01*
X137492544Y-126675000D01*
G75*
G02*
X137225000Y-126407456I0J267544D01*
G01*
X137225000Y-125092544D01*
G75*
G02*
X137492544Y-124825000I267544J0D01*
G01*
X138482456Y-124825000D01*
G75*
G02*
X138750000Y-125092544I0J-267544D01*
G01*
G37*
%TD*%
%TO.C,C3*%
G36*
G01*
X103275000Y-125092544D02*
X103275000Y-126407456D01*
G75*
G02*
X103007456Y-126675000I-267544J0D01*
G01*
X102017544Y-126675000D01*
G75*
G02*
X101750000Y-126407456I0J267544D01*
G01*
X101750000Y-125092544D01*
G75*
G02*
X102017544Y-124825000I267544J0D01*
G01*
X103007456Y-124825000D01*
G75*
G02*
X103275000Y-125092544I0J-267544D01*
G01*
G37*
G36*
G01*
X106250000Y-125092544D02*
X106250000Y-126407456D01*
G75*
G02*
X105982456Y-126675000I-267544J0D01*
G01*
X104992544Y-126675000D01*
G75*
G02*
X104725000Y-126407456I0J267544D01*
G01*
X104725000Y-125092544D01*
G75*
G02*
X104992544Y-124825000I267544J0D01*
G01*
X105982456Y-124825000D01*
G75*
G02*
X106250000Y-125092544I0J-267544D01*
G01*
G37*
%TD*%
%TO.C,C2*%
G36*
G01*
X137775000Y-116592544D02*
X137775000Y-117907456D01*
G75*
G02*
X137507456Y-118175000I-267544J0D01*
G01*
X136517544Y-118175000D01*
G75*
G02*
X136250000Y-117907456I0J267544D01*
G01*
X136250000Y-116592544D01*
G75*
G02*
X136517544Y-116325000I267544J0D01*
G01*
X137507456Y-116325000D01*
G75*
G02*
X137775000Y-116592544I0J-267544D01*
G01*
G37*
G36*
G01*
X140750000Y-116592544D02*
X140750000Y-117907456D01*
G75*
G02*
X140482456Y-118175000I-267544J0D01*
G01*
X139492544Y-118175000D01*
G75*
G02*
X139225000Y-117907456I0J267544D01*
G01*
X139225000Y-116592544D01*
G75*
G02*
X139492544Y-116325000I267544J0D01*
G01*
X140482456Y-116325000D01*
G75*
G02*
X140750000Y-116592544I0J-267544D01*
G01*
G37*
%TD*%
%TO.C,C1*%
G36*
G01*
X105275000Y-116592544D02*
X105275000Y-117907456D01*
G75*
G02*
X105007456Y-118175000I-267544J0D01*
G01*
X104017544Y-118175000D01*
G75*
G02*
X103750000Y-117907456I0J267544D01*
G01*
X103750000Y-116592544D01*
G75*
G02*
X104017544Y-116325000I267544J0D01*
G01*
X105007456Y-116325000D01*
G75*
G02*
X105275000Y-116592544I0J-267544D01*
G01*
G37*
G36*
G01*
X108250000Y-116592544D02*
X108250000Y-117907456D01*
G75*
G02*
X107982456Y-118175000I-267544J0D01*
G01*
X106992544Y-118175000D01*
G75*
G02*
X106725000Y-117907456I0J267544D01*
G01*
X106725000Y-116592544D01*
G75*
G02*
X106992544Y-116325000I267544J0D01*
G01*
X107982456Y-116325000D01*
G75*
G02*
X108250000Y-116592544I0J-267544D01*
G01*
G37*
%TD*%
D10*
%TO.C,D4*%
X146900000Y-128250000D03*
X144100000Y-128250000D03*
%TD*%
%TO.C,D3*%
X130900000Y-128250000D03*
X128100000Y-128250000D03*
%TD*%
%TO.C,D2*%
X114400000Y-128250000D03*
X111600000Y-128250000D03*
%TD*%
%TO.C,D1*%
X98400000Y-128250000D03*
X95600000Y-128250000D03*
%TD*%
%TO.C,U2*%
G36*
G01*
X138950000Y-119770000D02*
X138950000Y-119420000D01*
G75*
G02*
X139125000Y-119245000I175000J0D01*
G01*
X140825000Y-119245000D01*
G75*
G02*
X141000000Y-119420000I0J-175000D01*
G01*
X141000000Y-119770000D01*
G75*
G02*
X140825000Y-119945000I-175000J0D01*
G01*
X139125000Y-119945000D01*
G75*
G02*
X138950000Y-119770000I0J175000D01*
G01*
G37*
G36*
G01*
X138950000Y-121040000D02*
X138950000Y-120690000D01*
G75*
G02*
X139125000Y-120515000I175000J0D01*
G01*
X140825000Y-120515000D01*
G75*
G02*
X141000000Y-120690000I0J-175000D01*
G01*
X141000000Y-121040000D01*
G75*
G02*
X140825000Y-121215000I-175000J0D01*
G01*
X139125000Y-121215000D01*
G75*
G02*
X138950000Y-121040000I0J175000D01*
G01*
G37*
G36*
G01*
X138950000Y-122310000D02*
X138950000Y-121960000D01*
G75*
G02*
X139125000Y-121785000I175000J0D01*
G01*
X140825000Y-121785000D01*
G75*
G02*
X141000000Y-121960000I0J-175000D01*
G01*
X141000000Y-122310000D01*
G75*
G02*
X140825000Y-122485000I-175000J0D01*
G01*
X139125000Y-122485000D01*
G75*
G02*
X138950000Y-122310000I0J175000D01*
G01*
G37*
G36*
G01*
X138950000Y-123580000D02*
X138950000Y-123230000D01*
G75*
G02*
X139125000Y-123055000I175000J0D01*
G01*
X140825000Y-123055000D01*
G75*
G02*
X141000000Y-123230000I0J-175000D01*
G01*
X141000000Y-123580000D01*
G75*
G02*
X140825000Y-123755000I-175000J0D01*
G01*
X139125000Y-123755000D01*
G75*
G02*
X138950000Y-123580000I0J175000D01*
G01*
G37*
G36*
G01*
X134000000Y-123580000D02*
X134000000Y-123230000D01*
G75*
G02*
X134175000Y-123055000I175000J0D01*
G01*
X135875000Y-123055000D01*
G75*
G02*
X136050000Y-123230000I0J-175000D01*
G01*
X136050000Y-123580000D01*
G75*
G02*
X135875000Y-123755000I-175000J0D01*
G01*
X134175000Y-123755000D01*
G75*
G02*
X134000000Y-123580000I0J175000D01*
G01*
G37*
G36*
G01*
X134000000Y-122310000D02*
X134000000Y-121960000D01*
G75*
G02*
X134175000Y-121785000I175000J0D01*
G01*
X135875000Y-121785000D01*
G75*
G02*
X136050000Y-121960000I0J-175000D01*
G01*
X136050000Y-122310000D01*
G75*
G02*
X135875000Y-122485000I-175000J0D01*
G01*
X134175000Y-122485000D01*
G75*
G02*
X134000000Y-122310000I0J175000D01*
G01*
G37*
G36*
G01*
X134000000Y-121040000D02*
X134000000Y-120690000D01*
G75*
G02*
X134175000Y-120515000I175000J0D01*
G01*
X135875000Y-120515000D01*
G75*
G02*
X136050000Y-120690000I0J-175000D01*
G01*
X136050000Y-121040000D01*
G75*
G02*
X135875000Y-121215000I-175000J0D01*
G01*
X134175000Y-121215000D01*
G75*
G02*
X134000000Y-121040000I0J175000D01*
G01*
G37*
G36*
G01*
X134000000Y-119770000D02*
X134000000Y-119420000D01*
G75*
G02*
X134175000Y-119245000I175000J0D01*
G01*
X135875000Y-119245000D01*
G75*
G02*
X136050000Y-119420000I0J-175000D01*
G01*
X136050000Y-119770000D01*
G75*
G02*
X135875000Y-119945000I-175000J0D01*
G01*
X134175000Y-119945000D01*
G75*
G02*
X134000000Y-119770000I0J175000D01*
G01*
G37*
%TD*%
%TO.C,U1*%
G36*
G01*
X106450000Y-119770000D02*
X106450000Y-119420000D01*
G75*
G02*
X106625000Y-119245000I175000J0D01*
G01*
X108325000Y-119245000D01*
G75*
G02*
X108500000Y-119420000I0J-175000D01*
G01*
X108500000Y-119770000D01*
G75*
G02*
X108325000Y-119945000I-175000J0D01*
G01*
X106625000Y-119945000D01*
G75*
G02*
X106450000Y-119770000I0J175000D01*
G01*
G37*
G36*
G01*
X106450000Y-121040000D02*
X106450000Y-120690000D01*
G75*
G02*
X106625000Y-120515000I175000J0D01*
G01*
X108325000Y-120515000D01*
G75*
G02*
X108500000Y-120690000I0J-175000D01*
G01*
X108500000Y-121040000D01*
G75*
G02*
X108325000Y-121215000I-175000J0D01*
G01*
X106625000Y-121215000D01*
G75*
G02*
X106450000Y-121040000I0J175000D01*
G01*
G37*
G36*
G01*
X106450000Y-122310000D02*
X106450000Y-121960000D01*
G75*
G02*
X106625000Y-121785000I175000J0D01*
G01*
X108325000Y-121785000D01*
G75*
G02*
X108500000Y-121960000I0J-175000D01*
G01*
X108500000Y-122310000D01*
G75*
G02*
X108325000Y-122485000I-175000J0D01*
G01*
X106625000Y-122485000D01*
G75*
G02*
X106450000Y-122310000I0J175000D01*
G01*
G37*
G36*
G01*
X106450000Y-123580000D02*
X106450000Y-123230000D01*
G75*
G02*
X106625000Y-123055000I175000J0D01*
G01*
X108325000Y-123055000D01*
G75*
G02*
X108500000Y-123230000I0J-175000D01*
G01*
X108500000Y-123580000D01*
G75*
G02*
X108325000Y-123755000I-175000J0D01*
G01*
X106625000Y-123755000D01*
G75*
G02*
X106450000Y-123580000I0J175000D01*
G01*
G37*
G36*
G01*
X101500000Y-123580000D02*
X101500000Y-123230000D01*
G75*
G02*
X101675000Y-123055000I175000J0D01*
G01*
X103375000Y-123055000D01*
G75*
G02*
X103550000Y-123230000I0J-175000D01*
G01*
X103550000Y-123580000D01*
G75*
G02*
X103375000Y-123755000I-175000J0D01*
G01*
X101675000Y-123755000D01*
G75*
G02*
X101500000Y-123580000I0J175000D01*
G01*
G37*
G36*
G01*
X101500000Y-122310000D02*
X101500000Y-121960000D01*
G75*
G02*
X101675000Y-121785000I175000J0D01*
G01*
X103375000Y-121785000D01*
G75*
G02*
X103550000Y-121960000I0J-175000D01*
G01*
X103550000Y-122310000D01*
G75*
G02*
X103375000Y-122485000I-175000J0D01*
G01*
X101675000Y-122485000D01*
G75*
G02*
X101500000Y-122310000I0J175000D01*
G01*
G37*
G36*
G01*
X101500000Y-121040000D02*
X101500000Y-120690000D01*
G75*
G02*
X101675000Y-120515000I175000J0D01*
G01*
X103375000Y-120515000D01*
G75*
G02*
X103550000Y-120690000I0J-175000D01*
G01*
X103550000Y-121040000D01*
G75*
G02*
X103375000Y-121215000I-175000J0D01*
G01*
X101675000Y-121215000D01*
G75*
G02*
X101500000Y-121040000I0J175000D01*
G01*
G37*
G36*
G01*
X101500000Y-119770000D02*
X101500000Y-119420000D01*
G75*
G02*
X101675000Y-119245000I175000J0D01*
G01*
X103375000Y-119245000D01*
G75*
G02*
X103550000Y-119420000I0J-175000D01*
G01*
X103550000Y-119770000D01*
G75*
G02*
X103375000Y-119945000I-175000J0D01*
G01*
X101675000Y-119945000D01*
G75*
G02*
X101500000Y-119770000I0J175000D01*
G01*
G37*
%TD*%
%TO.C,R10*%
G36*
G01*
X141155000Y-130775000D02*
X139845000Y-130775000D01*
G75*
G02*
X139575000Y-130505000I0J270000D01*
G01*
X139575000Y-129695000D01*
G75*
G02*
X139845000Y-129425000I270000J0D01*
G01*
X141155000Y-129425000D01*
G75*
G02*
X141425000Y-129695000I0J-270000D01*
G01*
X141425000Y-130505000D01*
G75*
G02*
X141155000Y-130775000I-270000J0D01*
G01*
G37*
G36*
G01*
X141155000Y-133575000D02*
X139845000Y-133575000D01*
G75*
G02*
X139575000Y-133305000I0J270000D01*
G01*
X139575000Y-132495000D01*
G75*
G02*
X139845000Y-132225000I270000J0D01*
G01*
X141155000Y-132225000D01*
G75*
G02*
X141425000Y-132495000I0J-270000D01*
G01*
X141425000Y-133305000D01*
G75*
G02*
X141155000Y-133575000I-270000J0D01*
G01*
G37*
%TD*%
%TO.C,R9*%
G36*
G01*
X133845000Y-132225000D02*
X135155000Y-132225000D01*
G75*
G02*
X135425000Y-132495000I0J-270000D01*
G01*
X135425000Y-133305000D01*
G75*
G02*
X135155000Y-133575000I-270000J0D01*
G01*
X133845000Y-133575000D01*
G75*
G02*
X133575000Y-133305000I0J270000D01*
G01*
X133575000Y-132495000D01*
G75*
G02*
X133845000Y-132225000I270000J0D01*
G01*
G37*
G36*
G01*
X133845000Y-129425000D02*
X135155000Y-129425000D01*
G75*
G02*
X135425000Y-129695000I0J-270000D01*
G01*
X135425000Y-130505000D01*
G75*
G02*
X135155000Y-130775000I-270000J0D01*
G01*
X133845000Y-130775000D01*
G75*
G02*
X133575000Y-130505000I0J270000D01*
G01*
X133575000Y-129695000D01*
G75*
G02*
X133845000Y-129425000I270000J0D01*
G01*
G37*
%TD*%
%TO.C,R8*%
G36*
G01*
X108655000Y-130775000D02*
X107345000Y-130775000D01*
G75*
G02*
X107075000Y-130505000I0J270000D01*
G01*
X107075000Y-129695000D01*
G75*
G02*
X107345000Y-129425000I270000J0D01*
G01*
X108655000Y-129425000D01*
G75*
G02*
X108925000Y-129695000I0J-270000D01*
G01*
X108925000Y-130505000D01*
G75*
G02*
X108655000Y-130775000I-270000J0D01*
G01*
G37*
G36*
G01*
X108655000Y-133575000D02*
X107345000Y-133575000D01*
G75*
G02*
X107075000Y-133305000I0J270000D01*
G01*
X107075000Y-132495000D01*
G75*
G02*
X107345000Y-132225000I270000J0D01*
G01*
X108655000Y-132225000D01*
G75*
G02*
X108925000Y-132495000I0J-270000D01*
G01*
X108925000Y-133305000D01*
G75*
G02*
X108655000Y-133575000I-270000J0D01*
G01*
G37*
%TD*%
%TO.C,R7*%
G36*
G01*
X101345000Y-132225000D02*
X102655000Y-132225000D01*
G75*
G02*
X102925000Y-132495000I0J-270000D01*
G01*
X102925000Y-133305000D01*
G75*
G02*
X102655000Y-133575000I-270000J0D01*
G01*
X101345000Y-133575000D01*
G75*
G02*
X101075000Y-133305000I0J270000D01*
G01*
X101075000Y-132495000D01*
G75*
G02*
X101345000Y-132225000I270000J0D01*
G01*
G37*
G36*
G01*
X101345000Y-129425000D02*
X102655000Y-129425000D01*
G75*
G02*
X102925000Y-129695000I0J-270000D01*
G01*
X102925000Y-130505000D01*
G75*
G02*
X102655000Y-130775000I-270000J0D01*
G01*
X101345000Y-130775000D01*
G75*
G02*
X101075000Y-130505000I0J270000D01*
G01*
X101075000Y-129695000D01*
G75*
G02*
X101345000Y-129425000I270000J0D01*
G01*
G37*
%TD*%
%TO.C,R6*%
G36*
G01*
X138155000Y-130775000D02*
X136845000Y-130775000D01*
G75*
G02*
X136575000Y-130505000I0J270000D01*
G01*
X136575000Y-129695000D01*
G75*
G02*
X136845000Y-129425000I270000J0D01*
G01*
X138155000Y-129425000D01*
G75*
G02*
X138425000Y-129695000I0J-270000D01*
G01*
X138425000Y-130505000D01*
G75*
G02*
X138155000Y-130775000I-270000J0D01*
G01*
G37*
G36*
G01*
X138155000Y-133575000D02*
X136845000Y-133575000D01*
G75*
G02*
X136575000Y-133305000I0J270000D01*
G01*
X136575000Y-132495000D01*
G75*
G02*
X136845000Y-132225000I270000J0D01*
G01*
X138155000Y-132225000D01*
G75*
G02*
X138425000Y-132495000I0J-270000D01*
G01*
X138425000Y-133305000D01*
G75*
G02*
X138155000Y-133575000I-270000J0D01*
G01*
G37*
%TD*%
%TO.C,R5*%
G36*
G01*
X105655000Y-130775000D02*
X104345000Y-130775000D01*
G75*
G02*
X104075000Y-130505000I0J270000D01*
G01*
X104075000Y-129695000D01*
G75*
G02*
X104345000Y-129425000I270000J0D01*
G01*
X105655000Y-129425000D01*
G75*
G02*
X105925000Y-129695000I0J-270000D01*
G01*
X105925000Y-130505000D01*
G75*
G02*
X105655000Y-130775000I-270000J0D01*
G01*
G37*
G36*
G01*
X105655000Y-133575000D02*
X104345000Y-133575000D01*
G75*
G02*
X104075000Y-133305000I0J270000D01*
G01*
X104075000Y-132495000D01*
G75*
G02*
X104345000Y-132225000I270000J0D01*
G01*
X105655000Y-132225000D01*
G75*
G02*
X105925000Y-132495000I0J-270000D01*
G01*
X105925000Y-133305000D01*
G75*
G02*
X105655000Y-133575000I-270000J0D01*
G01*
G37*
%TD*%
%TO.C,R4*%
G36*
G01*
X146225000Y-125905000D02*
X146225000Y-124595000D01*
G75*
G02*
X146495000Y-124325000I270000J0D01*
G01*
X147305000Y-124325000D01*
G75*
G02*
X147575000Y-124595000I0J-270000D01*
G01*
X147575000Y-125905000D01*
G75*
G02*
X147305000Y-126175000I-270000J0D01*
G01*
X146495000Y-126175000D01*
G75*
G02*
X146225000Y-125905000I0J270000D01*
G01*
G37*
G36*
G01*
X143425000Y-125905000D02*
X143425000Y-124595000D01*
G75*
G02*
X143695000Y-124325000I270000J0D01*
G01*
X144505000Y-124325000D01*
G75*
G02*
X144775000Y-124595000I0J-270000D01*
G01*
X144775000Y-125905000D01*
G75*
G02*
X144505000Y-126175000I-270000J0D01*
G01*
X143695000Y-126175000D01*
G75*
G02*
X143425000Y-125905000I0J270000D01*
G01*
G37*
%TD*%
%TO.C,R3*%
G36*
G01*
X128775000Y-124595000D02*
X128775000Y-125905000D01*
G75*
G02*
X128505000Y-126175000I-270000J0D01*
G01*
X127695000Y-126175000D01*
G75*
G02*
X127425000Y-125905000I0J270000D01*
G01*
X127425000Y-124595000D01*
G75*
G02*
X127695000Y-124325000I270000J0D01*
G01*
X128505000Y-124325000D01*
G75*
G02*
X128775000Y-124595000I0J-270000D01*
G01*
G37*
G36*
G01*
X131575000Y-124595000D02*
X131575000Y-125905000D01*
G75*
G02*
X131305000Y-126175000I-270000J0D01*
G01*
X130495000Y-126175000D01*
G75*
G02*
X130225000Y-125905000I0J270000D01*
G01*
X130225000Y-124595000D01*
G75*
G02*
X130495000Y-124325000I270000J0D01*
G01*
X131305000Y-124325000D01*
G75*
G02*
X131575000Y-124595000I0J-270000D01*
G01*
G37*
%TD*%
%TO.C,R2*%
G36*
G01*
X113725000Y-125905000D02*
X113725000Y-124595000D01*
G75*
G02*
X113995000Y-124325000I270000J0D01*
G01*
X114805000Y-124325000D01*
G75*
G02*
X115075000Y-124595000I0J-270000D01*
G01*
X115075000Y-125905000D01*
G75*
G02*
X114805000Y-126175000I-270000J0D01*
G01*
X113995000Y-126175000D01*
G75*
G02*
X113725000Y-125905000I0J270000D01*
G01*
G37*
G36*
G01*
X110925000Y-125905000D02*
X110925000Y-124595000D01*
G75*
G02*
X111195000Y-124325000I270000J0D01*
G01*
X112005000Y-124325000D01*
G75*
G02*
X112275000Y-124595000I0J-270000D01*
G01*
X112275000Y-125905000D01*
G75*
G02*
X112005000Y-126175000I-270000J0D01*
G01*
X111195000Y-126175000D01*
G75*
G02*
X110925000Y-125905000I0J270000D01*
G01*
G37*
%TD*%
%TO.C,R1*%
G36*
G01*
X96275000Y-124595000D02*
X96275000Y-125905000D01*
G75*
G02*
X96005000Y-126175000I-270000J0D01*
G01*
X95195000Y-126175000D01*
G75*
G02*
X94925000Y-125905000I0J270000D01*
G01*
X94925000Y-124595000D01*
G75*
G02*
X95195000Y-124325000I270000J0D01*
G01*
X96005000Y-124325000D01*
G75*
G02*
X96275000Y-124595000I0J-270000D01*
G01*
G37*
G36*
G01*
X99075000Y-124595000D02*
X99075000Y-125905000D01*
G75*
G02*
X98805000Y-126175000I-270000J0D01*
G01*
X97995000Y-126175000D01*
G75*
G02*
X97725000Y-125905000I0J270000D01*
G01*
X97725000Y-124595000D01*
G75*
G02*
X97995000Y-124325000I270000J0D01*
G01*
X98805000Y-124325000D01*
G75*
G02*
X99075000Y-124595000I0J-270000D01*
G01*
G37*
%TD*%
D11*
%TO.C,H2*%
X150606155Y-106893845D03*
X148750000Y-106125000D03*
X146893845Y-106893845D03*
X146125000Y-108750000D03*
X146893845Y-110606155D03*
X148750000Y-111375000D03*
X150606155Y-110606155D03*
X151375000Y-108750000D03*
D12*
X148750000Y-108750000D03*
%TD*%
D11*
%TO.C,H1*%
X95606155Y-106893845D03*
X93750000Y-106125000D03*
X91893845Y-106893845D03*
X91125000Y-108750000D03*
X91893845Y-110606155D03*
X93750000Y-111375000D03*
X95606155Y-110606155D03*
X96375000Y-108750000D03*
D12*
X93750000Y-108750000D03*
%TD*%
D13*
%TO.C,J2*%
X147000000Y-148010000D03*
D14*
X134940000Y-146100000D03*
X142560000Y-151180000D03*
D13*
X138750000Y-137840000D03*
D15*
X134940000Y-141655000D03*
X142560000Y-142290000D03*
%TD*%
D13*
%TO.C,J1*%
X112000000Y-148010000D03*
D14*
X99940000Y-146100000D03*
X107560000Y-151180000D03*
D13*
X103750000Y-137840000D03*
D15*
X99940000Y-141655000D03*
X107560000Y-142290000D03*
%TD*%
D16*
%TO.C,J5*%
X134000000Y-109250000D03*
X137500000Y-109250000D03*
X141000000Y-109250000D03*
%TD*%
%TO.C,J4*%
X101500000Y-109250000D03*
X105000000Y-109250000D03*
X108500000Y-109250000D03*
%TD*%
%TO.C,J3*%
X117750000Y-109250000D03*
X121250000Y-109250000D03*
X124750000Y-109250000D03*
%TD*%
M02*
