%TF.GenerationSoftware,KiCad,Pcbnew,(5.1.6-0)*%
%TF.CreationDate,2024-01-05T22:26:57-08:00*%
%TF.ProjectId,input_buffer_bal_XLR,696e7075-745f-4627-9566-6665725f6261,rev?*%
%TF.SameCoordinates,Original*%
%TF.FileFunction,Legend,Top*%
%TF.FilePolarity,Positive*%
%FSLAX46Y46*%
G04 Gerber Fmt 4.6, Leading zero omitted, Abs format (unit mm)*
G04 Created by KiCad (PCBNEW (5.1.6-0)) date 2024-01-05 22:26:57*
%MOMM*%
%LPD*%
G01*
G04 APERTURE LIST*
%ADD10C,0.120000*%
%ADD11C,0.150000*%
G04 APERTURE END LIST*
D10*
X101250000Y-152750000D02*
X101250000Y-154250000D01*
D11*
X118309523Y-162722380D02*
X118976190Y-162722380D01*
X118547619Y-163722380D01*
X119833333Y-162722380D02*
X119357142Y-162722380D01*
X119309523Y-163198571D01*
X119357142Y-163150952D01*
X119452380Y-163103333D01*
X119690476Y-163103333D01*
X119785714Y-163150952D01*
X119833333Y-163198571D01*
X119880952Y-163293809D01*
X119880952Y-163531904D01*
X119833333Y-163627142D01*
X119785714Y-163674761D01*
X119690476Y-163722380D01*
X119452380Y-163722380D01*
X119357142Y-163674761D01*
X119309523Y-163627142D01*
X120309523Y-163627142D02*
X120357142Y-163674761D01*
X120309523Y-163722380D01*
X120261904Y-163674761D01*
X120309523Y-163627142D01*
X120309523Y-163722380D01*
X120976190Y-162722380D02*
X121071428Y-162722380D01*
X121166666Y-162770000D01*
X121214285Y-162817619D01*
X121261904Y-162912857D01*
X121309523Y-163103333D01*
X121309523Y-163341428D01*
X121261904Y-163531904D01*
X121214285Y-163627142D01*
X121166666Y-163674761D01*
X121071428Y-163722380D01*
X120976190Y-163722380D01*
X120880952Y-163674761D01*
X120833333Y-163627142D01*
X120785714Y-163531904D01*
X120738095Y-163341428D01*
X120738095Y-163103333D01*
X120785714Y-162912857D01*
X120833333Y-162817619D01*
X120880952Y-162770000D01*
X120976190Y-162722380D01*
X121928571Y-162722380D02*
X122023809Y-162722380D01*
X122119047Y-162770000D01*
X122166666Y-162817619D01*
X122214285Y-162912857D01*
X122261904Y-163103333D01*
X122261904Y-163341428D01*
X122214285Y-163531904D01*
X122166666Y-163627142D01*
X122119047Y-163674761D01*
X122023809Y-163722380D01*
X121928571Y-163722380D01*
X121833333Y-163674761D01*
X121785714Y-163627142D01*
X121738095Y-163531904D01*
X121690476Y-163341428D01*
X121690476Y-163103333D01*
X121738095Y-162912857D01*
X121785714Y-162817619D01*
X121833333Y-162770000D01*
X121928571Y-162722380D01*
X122880952Y-162722380D02*
X122976190Y-162722380D01*
X123071428Y-162770000D01*
X123119047Y-162817619D01*
X123166666Y-162912857D01*
X123214285Y-163103333D01*
X123214285Y-163341428D01*
X123166666Y-163531904D01*
X123119047Y-163627142D01*
X123071428Y-163674761D01*
X122976190Y-163722380D01*
X122880952Y-163722380D01*
X122785714Y-163674761D01*
X122738095Y-163627142D01*
X122690476Y-163531904D01*
X122642857Y-163341428D01*
X122642857Y-163103333D01*
X122690476Y-162912857D01*
X122738095Y-162817619D01*
X122785714Y-162770000D01*
X122880952Y-162722380D01*
X124404761Y-163722380D02*
X124404761Y-163055714D01*
X124404761Y-163150952D02*
X124452380Y-163103333D01*
X124547619Y-163055714D01*
X124690476Y-163055714D01*
X124785714Y-163103333D01*
X124833333Y-163198571D01*
X124833333Y-163722380D01*
X124833333Y-163198571D02*
X124880952Y-163103333D01*
X124976190Y-163055714D01*
X125119047Y-163055714D01*
X125214285Y-163103333D01*
X125261904Y-163198571D01*
X125261904Y-163722380D01*
X125738095Y-163722380D02*
X125738095Y-163055714D01*
X125738095Y-163150952D02*
X125785714Y-163103333D01*
X125880952Y-163055714D01*
X126023809Y-163055714D01*
X126119047Y-163103333D01*
X126166666Y-163198571D01*
X126166666Y-163722380D01*
X126166666Y-163198571D02*
X126214285Y-163103333D01*
X126309523Y-163055714D01*
X126452380Y-163055714D01*
X126547619Y-163103333D01*
X126595238Y-163198571D01*
X126595238Y-163722380D01*
D10*
X85000000Y-162000000D02*
X160000000Y-162000000D01*
X85000000Y-157000000D02*
X85000000Y-162586421D01*
X160000000Y-157000000D02*
X160000000Y-162586421D01*
X160000000Y-162000000D02*
X158873496Y-162586421D01*
X160000000Y-162000000D02*
X158873496Y-161413579D01*
X85000000Y-162000000D02*
X86126504Y-162586421D01*
X85000000Y-162000000D02*
X86126504Y-161413579D01*
D11*
X117583333Y-152555714D02*
X117583333Y-153222380D01*
X117345238Y-152174761D02*
X117107142Y-152889047D01*
X117726190Y-152889047D01*
X118297619Y-152222380D02*
X118392857Y-152222380D01*
X118488095Y-152270000D01*
X118535714Y-152317619D01*
X118583333Y-152412857D01*
X118630952Y-152603333D01*
X118630952Y-152841428D01*
X118583333Y-153031904D01*
X118535714Y-153127142D01*
X118488095Y-153174761D01*
X118392857Y-153222380D01*
X118297619Y-153222380D01*
X118202380Y-153174761D01*
X118154761Y-153127142D01*
X118107142Y-153031904D01*
X118059523Y-152841428D01*
X118059523Y-152603333D01*
X118107142Y-152412857D01*
X118154761Y-152317619D01*
X118202380Y-152270000D01*
X118297619Y-152222380D01*
X119059523Y-153127142D02*
X119107142Y-153174761D01*
X119059523Y-153222380D01*
X119011904Y-153174761D01*
X119059523Y-153127142D01*
X119059523Y-153222380D01*
X119726190Y-152222380D02*
X119821428Y-152222380D01*
X119916666Y-152270000D01*
X119964285Y-152317619D01*
X120011904Y-152412857D01*
X120059523Y-152603333D01*
X120059523Y-152841428D01*
X120011904Y-153031904D01*
X119964285Y-153127142D01*
X119916666Y-153174761D01*
X119821428Y-153222380D01*
X119726190Y-153222380D01*
X119630952Y-153174761D01*
X119583333Y-153127142D01*
X119535714Y-153031904D01*
X119488095Y-152841428D01*
X119488095Y-152603333D01*
X119535714Y-152412857D01*
X119583333Y-152317619D01*
X119630952Y-152270000D01*
X119726190Y-152222380D01*
X120678571Y-152222380D02*
X120773809Y-152222380D01*
X120869047Y-152270000D01*
X120916666Y-152317619D01*
X120964285Y-152412857D01*
X121011904Y-152603333D01*
X121011904Y-152841428D01*
X120964285Y-153031904D01*
X120916666Y-153127142D01*
X120869047Y-153174761D01*
X120773809Y-153222380D01*
X120678571Y-153222380D01*
X120583333Y-153174761D01*
X120535714Y-153127142D01*
X120488095Y-153031904D01*
X120440476Y-152841428D01*
X120440476Y-152603333D01*
X120488095Y-152412857D01*
X120535714Y-152317619D01*
X120583333Y-152270000D01*
X120678571Y-152222380D01*
X121630952Y-152222380D02*
X121726190Y-152222380D01*
X121821428Y-152270000D01*
X121869047Y-152317619D01*
X121916666Y-152412857D01*
X121964285Y-152603333D01*
X121964285Y-152841428D01*
X121916666Y-153031904D01*
X121869047Y-153127142D01*
X121821428Y-153174761D01*
X121726190Y-153222380D01*
X121630952Y-153222380D01*
X121535714Y-153174761D01*
X121488095Y-153127142D01*
X121440476Y-153031904D01*
X121392857Y-152841428D01*
X121392857Y-152603333D01*
X121440476Y-152412857D01*
X121488095Y-152317619D01*
X121535714Y-152270000D01*
X121630952Y-152222380D01*
X123154761Y-153222380D02*
X123154761Y-152555714D01*
X123154761Y-152650952D02*
X123202380Y-152603333D01*
X123297619Y-152555714D01*
X123440476Y-152555714D01*
X123535714Y-152603333D01*
X123583333Y-152698571D01*
X123583333Y-153222380D01*
X123583333Y-152698571D02*
X123630952Y-152603333D01*
X123726190Y-152555714D01*
X123869047Y-152555714D01*
X123964285Y-152603333D01*
X124011904Y-152698571D01*
X124011904Y-153222380D01*
X124488095Y-153222380D02*
X124488095Y-152555714D01*
X124488095Y-152650952D02*
X124535714Y-152603333D01*
X124630952Y-152555714D01*
X124773809Y-152555714D01*
X124869047Y-152603333D01*
X124916666Y-152698571D01*
X124916666Y-153222380D01*
X124916666Y-152698571D02*
X124964285Y-152603333D01*
X125059523Y-152555714D01*
X125202380Y-152555714D01*
X125297619Y-152603333D01*
X125345238Y-152698571D01*
X125345238Y-153222380D01*
D10*
X101250000Y-151500000D02*
X141250000Y-151500000D01*
X101250000Y-145250000D02*
X101250000Y-152086421D01*
X141250000Y-145250000D02*
X141250000Y-152086421D01*
X141250000Y-151500000D02*
X140123496Y-152086421D01*
X141250000Y-151500000D02*
X140123496Y-150913579D01*
X101250000Y-151500000D02*
X102376504Y-152086421D01*
X101250000Y-151500000D02*
X102376504Y-150913579D01*
X141250000Y-152750000D02*
X141250000Y-154250000D01*
D11*
X117988095Y-110821428D02*
X118750000Y-110821428D01*
X119750000Y-111202380D02*
X119178571Y-111202380D01*
X119464285Y-111202380D02*
X119464285Y-110202380D01*
X119369047Y-110345238D01*
X119273809Y-110440476D01*
X119178571Y-110488095D01*
X120654761Y-110202380D02*
X120178571Y-110202380D01*
X120130952Y-110678571D01*
X120178571Y-110630952D01*
X120273809Y-110583333D01*
X120511904Y-110583333D01*
X120607142Y-110630952D01*
X120654761Y-110678571D01*
X120702380Y-110773809D01*
X120702380Y-111011904D01*
X120654761Y-111107142D01*
X120607142Y-111154761D01*
X120511904Y-111202380D01*
X120273809Y-111202380D01*
X120178571Y-111154761D01*
X120130952Y-111107142D01*
X120988095Y-110202380D02*
X121321428Y-111202380D01*
X121654761Y-110202380D01*
X122988095Y-110821428D02*
X123750000Y-110821428D01*
X123369047Y-111202380D02*
X123369047Y-110440476D01*
X124750000Y-111202380D02*
X124178571Y-111202380D01*
X124464285Y-111202380D02*
X124464285Y-110202380D01*
X124369047Y-110345238D01*
X124273809Y-110440476D01*
X124178571Y-110488095D01*
X125654761Y-110202380D02*
X125178571Y-110202380D01*
X125130952Y-110678571D01*
X125178571Y-110630952D01*
X125273809Y-110583333D01*
X125511904Y-110583333D01*
X125607142Y-110630952D01*
X125654761Y-110678571D01*
X125702380Y-110773809D01*
X125702380Y-111011904D01*
X125654761Y-111107142D01*
X125607142Y-111154761D01*
X125511904Y-111202380D01*
X125273809Y-111202380D01*
X125178571Y-111154761D01*
X125130952Y-111107142D01*
X125988095Y-110202380D02*
X126321428Y-111202380D01*
X126654761Y-110202380D01*
X108630952Y-110452380D02*
X108821428Y-110452380D01*
X108916666Y-110500000D01*
X109011904Y-110595238D01*
X109059523Y-110785714D01*
X109059523Y-111119047D01*
X109011904Y-111309523D01*
X108916666Y-111404761D01*
X108821428Y-111452380D01*
X108630952Y-111452380D01*
X108535714Y-111404761D01*
X108440476Y-111309523D01*
X108392857Y-111119047D01*
X108392857Y-110785714D01*
X108440476Y-110595238D01*
X108535714Y-110500000D01*
X108630952Y-110452380D01*
X109488095Y-110452380D02*
X109488095Y-111261904D01*
X109535714Y-111357142D01*
X109583333Y-111404761D01*
X109678571Y-111452380D01*
X109869047Y-111452380D01*
X109964285Y-111404761D01*
X110011904Y-111357142D01*
X110059523Y-111261904D01*
X110059523Y-110452380D01*
X110392857Y-110452380D02*
X110964285Y-110452380D01*
X110678571Y-111452380D02*
X110678571Y-110452380D01*
X111297619Y-111071428D02*
X112059523Y-111071428D01*
X144130952Y-110202380D02*
X144321428Y-110202380D01*
X144416666Y-110250000D01*
X144511904Y-110345238D01*
X144559523Y-110535714D01*
X144559523Y-110869047D01*
X144511904Y-111059523D01*
X144416666Y-111154761D01*
X144321428Y-111202380D01*
X144130952Y-111202380D01*
X144035714Y-111154761D01*
X143940476Y-111059523D01*
X143892857Y-110869047D01*
X143892857Y-110535714D01*
X143940476Y-110345238D01*
X144035714Y-110250000D01*
X144130952Y-110202380D01*
X144988095Y-110202380D02*
X144988095Y-111011904D01*
X145035714Y-111107142D01*
X145083333Y-111154761D01*
X145178571Y-111202380D01*
X145369047Y-111202380D01*
X145464285Y-111154761D01*
X145511904Y-111107142D01*
X145559523Y-111011904D01*
X145559523Y-110202380D01*
X145892857Y-110202380D02*
X146464285Y-110202380D01*
X146178571Y-111202380D02*
X146178571Y-110202380D01*
X146797619Y-110821428D02*
X147559523Y-110821428D01*
X139130952Y-110202380D02*
X139321428Y-110202380D01*
X139416666Y-110250000D01*
X139511904Y-110345238D01*
X139559523Y-110535714D01*
X139559523Y-110869047D01*
X139511904Y-111059523D01*
X139416666Y-111154761D01*
X139321428Y-111202380D01*
X139130952Y-111202380D01*
X139035714Y-111154761D01*
X138940476Y-111059523D01*
X138892857Y-110869047D01*
X138892857Y-110535714D01*
X138940476Y-110345238D01*
X139035714Y-110250000D01*
X139130952Y-110202380D01*
X139988095Y-110202380D02*
X139988095Y-111011904D01*
X140035714Y-111107142D01*
X140083333Y-111154761D01*
X140178571Y-111202380D01*
X140369047Y-111202380D01*
X140464285Y-111154761D01*
X140511904Y-111107142D01*
X140559523Y-111011904D01*
X140559523Y-110202380D01*
X140892857Y-110202380D02*
X141464285Y-110202380D01*
X141178571Y-111202380D02*
X141178571Y-110202380D01*
X141797619Y-110821428D02*
X142559523Y-110821428D01*
X142178571Y-111202380D02*
X142178571Y-110440476D01*
X103630952Y-110452380D02*
X103821428Y-110452380D01*
X103916666Y-110500000D01*
X104011904Y-110595238D01*
X104059523Y-110785714D01*
X104059523Y-111119047D01*
X104011904Y-111309523D01*
X103916666Y-111404761D01*
X103821428Y-111452380D01*
X103630952Y-111452380D01*
X103535714Y-111404761D01*
X103440476Y-111309523D01*
X103392857Y-111119047D01*
X103392857Y-110785714D01*
X103440476Y-110595238D01*
X103535714Y-110500000D01*
X103630952Y-110452380D01*
X104488095Y-110452380D02*
X104488095Y-111261904D01*
X104535714Y-111357142D01*
X104583333Y-111404761D01*
X104678571Y-111452380D01*
X104869047Y-111452380D01*
X104964285Y-111404761D01*
X105011904Y-111357142D01*
X105059523Y-111261904D01*
X105059523Y-110452380D01*
X105392857Y-110452380D02*
X105964285Y-110452380D01*
X105678571Y-111452380D02*
X105678571Y-110452380D01*
X106297619Y-111071428D02*
X107059523Y-111071428D01*
X106678571Y-111452380D02*
X106678571Y-110690476D01*
X134988095Y-110250000D02*
X134892857Y-110202380D01*
X134750000Y-110202380D01*
X134607142Y-110250000D01*
X134511904Y-110345238D01*
X134464285Y-110440476D01*
X134416666Y-110630952D01*
X134416666Y-110773809D01*
X134464285Y-110964285D01*
X134511904Y-111059523D01*
X134607142Y-111154761D01*
X134750000Y-111202380D01*
X134845238Y-111202380D01*
X134988095Y-111154761D01*
X135035714Y-111107142D01*
X135035714Y-110773809D01*
X134845238Y-110773809D01*
X135464285Y-111202380D02*
X135464285Y-110202380D01*
X136035714Y-111202380D01*
X136035714Y-110202380D01*
X136511904Y-111202380D02*
X136511904Y-110202380D01*
X136750000Y-110202380D01*
X136892857Y-110250000D01*
X136988095Y-110345238D01*
X137035714Y-110440476D01*
X137083333Y-110630952D01*
X137083333Y-110773809D01*
X137035714Y-110964285D01*
X136988095Y-111059523D01*
X136892857Y-111154761D01*
X136750000Y-111202380D01*
X136511904Y-111202380D01*
X99238095Y-110500000D02*
X99142857Y-110452380D01*
X99000000Y-110452380D01*
X98857142Y-110500000D01*
X98761904Y-110595238D01*
X98714285Y-110690476D01*
X98666666Y-110880952D01*
X98666666Y-111023809D01*
X98714285Y-111214285D01*
X98761904Y-111309523D01*
X98857142Y-111404761D01*
X99000000Y-111452380D01*
X99095238Y-111452380D01*
X99238095Y-111404761D01*
X99285714Y-111357142D01*
X99285714Y-111023809D01*
X99095238Y-111023809D01*
X99714285Y-111452380D02*
X99714285Y-110452380D01*
X100285714Y-111452380D01*
X100285714Y-110452380D01*
X100761904Y-111452380D02*
X100761904Y-110452380D01*
X101000000Y-110452380D01*
X101142857Y-110500000D01*
X101238095Y-110595238D01*
X101285714Y-110690476D01*
X101333333Y-110880952D01*
X101333333Y-111023809D01*
X101285714Y-111214285D01*
X101238095Y-111309523D01*
X101142857Y-111404761D01*
X101000000Y-111452380D01*
X100761904Y-111452380D01*
D10*
%TO.C,J3*%
X118250000Y-109750000D02*
X118250000Y-102750000D01*
X126750000Y-109750000D02*
X126750000Y-102750000D01*
X118250000Y-102750000D02*
X126750000Y-102750000D01*
X118250000Y-109750000D02*
X126750000Y-109750000D01*
X122000000Y-106250000D02*
G75*
G03*
X122000000Y-106250000I-1250000J0D01*
G01*
X125500000Y-106250000D02*
G75*
G03*
X125500000Y-106250000I-1250000J0D01*
G01*
X124750000Y-104500000D02*
X123750000Y-104500000D01*
X123750000Y-104500000D02*
X123750000Y-102750000D01*
X124750000Y-104500000D02*
X124750000Y-102750000D01*
X121250000Y-102750000D02*
X121250000Y-104500000D01*
X121250000Y-104500000D02*
X120250000Y-104500000D01*
X120250000Y-104500000D02*
X120250000Y-102750000D01*
%TO.C,U2*%
X135043553Y-118440000D02*
G75*
G03*
X135043553Y-118440000I-353553J0D01*
G01*
X142650000Y-117110000D02*
X141000000Y-117110000D01*
X142650000Y-127390000D02*
X142650000Y-117110000D01*
X137350000Y-127390000D02*
X142650000Y-127390000D01*
X137350000Y-117110000D02*
X137350000Y-127390000D01*
X139000000Y-117110000D02*
X137350000Y-117110000D01*
X141000000Y-117110000D02*
G75*
G02*
X139000000Y-117110000I-1000000J0D01*
G01*
%TO.C,C8*%
X152630000Y-127470000D02*
X152630000Y-120030000D01*
X157370000Y-127470000D02*
X157370000Y-120030000D01*
X152630000Y-127470000D02*
X157370000Y-127470000D01*
X152630000Y-120030000D02*
X157370000Y-120030000D01*
%TO.C,C7*%
X127620000Y-119780000D02*
X127620000Y-127220000D01*
X122880000Y-119780000D02*
X122880000Y-127220000D01*
X127620000Y-119780000D02*
X122880000Y-119780000D01*
X127620000Y-127220000D02*
X122880000Y-127220000D01*
%TO.C,C6*%
X117380000Y-127220000D02*
X117380000Y-119780000D01*
X122120000Y-127220000D02*
X122120000Y-119780000D01*
X117380000Y-127220000D02*
X122120000Y-127220000D01*
X117380000Y-119780000D02*
X122120000Y-119780000D01*
%TO.C,C5*%
X92370000Y-119780000D02*
X92370000Y-127220000D01*
X87630000Y-119780000D02*
X87630000Y-127220000D01*
X92370000Y-119780000D02*
X87630000Y-119780000D01*
X92370000Y-127220000D02*
X87630000Y-127220000D01*
%TO.C,R6*%
X136730000Y-131380000D02*
X136730000Y-134120000D01*
X136730000Y-134120000D02*
X143270000Y-134120000D01*
X143270000Y-134120000D02*
X143270000Y-131380000D01*
X143270000Y-131380000D02*
X136730000Y-131380000D01*
X135960000Y-132750000D02*
X136730000Y-132750000D01*
X144040000Y-132750000D02*
X143270000Y-132750000D01*
%TO.C,U1*%
X100043553Y-118440000D02*
G75*
G03*
X100043553Y-118440000I-353553J0D01*
G01*
X107650000Y-117110000D02*
X106000000Y-117110000D01*
X107650000Y-127390000D02*
X107650000Y-117110000D01*
X102350000Y-127390000D02*
X107650000Y-127390000D01*
X102350000Y-117110000D02*
X102350000Y-127390000D01*
X104000000Y-117110000D02*
X102350000Y-117110000D01*
X106000000Y-117110000D02*
G75*
G02*
X104000000Y-117110000I-1000000J0D01*
G01*
%TO.C,R10*%
X146130000Y-126770000D02*
X148870000Y-126770000D01*
X148870000Y-126770000D02*
X148870000Y-120230000D01*
X148870000Y-120230000D02*
X146130000Y-120230000D01*
X146130000Y-120230000D02*
X146130000Y-126770000D01*
X147500000Y-127540000D02*
X147500000Y-126770000D01*
X147500000Y-119460000D02*
X147500000Y-120230000D01*
%TO.C,R9*%
X134120000Y-120230000D02*
X131380000Y-120230000D01*
X131380000Y-120230000D02*
X131380000Y-126770000D01*
X131380000Y-126770000D02*
X134120000Y-126770000D01*
X134120000Y-126770000D02*
X134120000Y-120230000D01*
X132750000Y-119460000D02*
X132750000Y-120230000D01*
X132750000Y-127540000D02*
X132750000Y-126770000D01*
%TO.C,R8*%
X110880000Y-126770000D02*
X113620000Y-126770000D01*
X113620000Y-126770000D02*
X113620000Y-120230000D01*
X113620000Y-120230000D02*
X110880000Y-120230000D01*
X110880000Y-120230000D02*
X110880000Y-126770000D01*
X112250000Y-127540000D02*
X112250000Y-126770000D01*
X112250000Y-119460000D02*
X112250000Y-120230000D01*
%TO.C,R7*%
X98870000Y-120230000D02*
X96130000Y-120230000D01*
X96130000Y-120230000D02*
X96130000Y-126770000D01*
X96130000Y-126770000D02*
X98870000Y-126770000D01*
X98870000Y-126770000D02*
X98870000Y-120230000D01*
X97500000Y-119460000D02*
X97500000Y-120230000D01*
X97500000Y-127540000D02*
X97500000Y-126770000D01*
%TO.C,R5*%
X101730000Y-131380000D02*
X101730000Y-134120000D01*
X101730000Y-134120000D02*
X108270000Y-134120000D01*
X108270000Y-134120000D02*
X108270000Y-131380000D01*
X108270000Y-131380000D02*
X101730000Y-131380000D01*
X100960000Y-132750000D02*
X101730000Y-132750000D01*
X109040000Y-132750000D02*
X108270000Y-132750000D01*
%TO.C,R4*%
X152120000Y-120230000D02*
X149380000Y-120230000D01*
X149380000Y-120230000D02*
X149380000Y-126770000D01*
X149380000Y-126770000D02*
X152120000Y-126770000D01*
X152120000Y-126770000D02*
X152120000Y-120230000D01*
X150750000Y-119460000D02*
X150750000Y-120230000D01*
X150750000Y-127540000D02*
X150750000Y-126770000D01*
%TO.C,R3*%
X130870000Y-120230000D02*
X128130000Y-120230000D01*
X128130000Y-120230000D02*
X128130000Y-126770000D01*
X128130000Y-126770000D02*
X130870000Y-126770000D01*
X130870000Y-126770000D02*
X130870000Y-120230000D01*
X129500000Y-119460000D02*
X129500000Y-120230000D01*
X129500000Y-127540000D02*
X129500000Y-126770000D01*
%TO.C,R2*%
X116870000Y-120230000D02*
X114130000Y-120230000D01*
X114130000Y-120230000D02*
X114130000Y-126770000D01*
X114130000Y-126770000D02*
X116870000Y-126770000D01*
X116870000Y-126770000D02*
X116870000Y-120230000D01*
X115500000Y-119460000D02*
X115500000Y-120230000D01*
X115500000Y-127540000D02*
X115500000Y-126770000D01*
%TO.C,R1*%
X95620000Y-120230000D02*
X92880000Y-120230000D01*
X92880000Y-120230000D02*
X92880000Y-126770000D01*
X92880000Y-126770000D02*
X95620000Y-126770000D01*
X95620000Y-126770000D02*
X95620000Y-120230000D01*
X94250000Y-119460000D02*
X94250000Y-120230000D01*
X94250000Y-127540000D02*
X94250000Y-126770000D01*
%TO.C,J2*%
X152120000Y-142620000D02*
X149370000Y-142620000D01*
X130380000Y-148120000D02*
X130380000Y-142620000D01*
X133130000Y-142620000D02*
X130380000Y-142620000D01*
X149370000Y-142620000D02*
X149370000Y-135120000D01*
X152120000Y-148120000D02*
X152120000Y-142620000D01*
X149370000Y-135120000D02*
X133130000Y-135120000D01*
X133130000Y-142620000D02*
X133130000Y-135120000D01*
X152370000Y-157560000D02*
X130130000Y-157560000D01*
X153870000Y-154860000D02*
X152370000Y-154860000D01*
X130130000Y-154860000D02*
X128630000Y-154860000D01*
X130130000Y-154860000D02*
X130130000Y-157560000D01*
X152370000Y-154860000D02*
X152370000Y-157560000D01*
X128630000Y-148120000D02*
X130380000Y-148120000D01*
X152120000Y-148120000D02*
X153870000Y-148120000D01*
X153870000Y-154860000D02*
X153870000Y-148120000D01*
X128630000Y-154860000D02*
X128630000Y-148120000D01*
%TO.C,J1*%
X112120000Y-142620000D02*
X109370000Y-142620000D01*
X90380000Y-148120000D02*
X90380000Y-142620000D01*
X93130000Y-142620000D02*
X90380000Y-142620000D01*
X109370000Y-142620000D02*
X109370000Y-135120000D01*
X112120000Y-148120000D02*
X112120000Y-142620000D01*
X109370000Y-135120000D02*
X93130000Y-135120000D01*
X93130000Y-142620000D02*
X93130000Y-135120000D01*
X112370000Y-157560000D02*
X90130000Y-157560000D01*
X113870000Y-154860000D02*
X112370000Y-154860000D01*
X90130000Y-154860000D02*
X88630000Y-154860000D01*
X90130000Y-154860000D02*
X90130000Y-157560000D01*
X112370000Y-154860000D02*
X112370000Y-157560000D01*
X88630000Y-148120000D02*
X90380000Y-148120000D01*
X112120000Y-148120000D02*
X113870000Y-148120000D01*
X113870000Y-154860000D02*
X113870000Y-148120000D01*
X88630000Y-154860000D02*
X88630000Y-148120000D01*
%TO.C,C4*%
X137980000Y-128455000D02*
X137980000Y-127830000D01*
X137980000Y-130670000D02*
X137980000Y-130045000D01*
X142020000Y-128455000D02*
X142020000Y-127830000D01*
X142020000Y-130670000D02*
X142020000Y-130045000D01*
X142020000Y-127830000D02*
X137980000Y-127830000D01*
X142020000Y-130670000D02*
X137980000Y-130670000D01*
%TO.C,C3*%
X102980000Y-128455000D02*
X102980000Y-127830000D01*
X102980000Y-130670000D02*
X102980000Y-130045000D01*
X107020000Y-128455000D02*
X107020000Y-127830000D01*
X107020000Y-130670000D02*
X107020000Y-130045000D01*
X107020000Y-127830000D02*
X102980000Y-127830000D01*
X107020000Y-130670000D02*
X102980000Y-130670000D01*
%TO.C,C2*%
X137980000Y-114455000D02*
X137980000Y-113830000D01*
X137980000Y-116670000D02*
X137980000Y-116045000D01*
X142020000Y-114455000D02*
X142020000Y-113830000D01*
X142020000Y-116670000D02*
X142020000Y-116045000D01*
X142020000Y-113830000D02*
X137980000Y-113830000D01*
X142020000Y-116670000D02*
X137980000Y-116670000D01*
%TO.C,C1*%
X102980000Y-114455000D02*
X102980000Y-113830000D01*
X102980000Y-116670000D02*
X102980000Y-116045000D01*
X107020000Y-114455000D02*
X107020000Y-113830000D01*
X107020000Y-116670000D02*
X107020000Y-116045000D01*
X107020000Y-113830000D02*
X102980000Y-113830000D01*
X107020000Y-116670000D02*
X102980000Y-116670000D01*
%TO.C,J5*%
X136250000Y-104500000D02*
X136250000Y-102750000D01*
X137250000Y-104500000D02*
X136250000Y-104500000D01*
X137250000Y-102750000D02*
X137250000Y-104500000D01*
X139750000Y-104500000D02*
X139750000Y-102750000D01*
X140750000Y-104500000D02*
X139750000Y-104500000D01*
X140750000Y-102750000D02*
X140750000Y-104500000D01*
X144250000Y-104500000D02*
X144250000Y-102750000D01*
X143250000Y-104500000D02*
X143250000Y-102750000D01*
X144250000Y-104500000D02*
X143250000Y-104500000D01*
X145000000Y-106250000D02*
G75*
G03*
X145000000Y-106250000I-1250000J0D01*
G01*
X141500000Y-106250000D02*
G75*
G03*
X141500000Y-106250000I-1250000J0D01*
G01*
X138000000Y-106250000D02*
G75*
G03*
X138000000Y-106250000I-1250000J0D01*
G01*
X134250000Y-109750000D02*
X146250000Y-109750000D01*
X134250000Y-102750000D02*
X146250000Y-102750000D01*
X146250000Y-109750000D02*
X146250000Y-102750000D01*
X134250000Y-109750000D02*
X134250000Y-102750000D01*
%TO.C,J4*%
X100750000Y-104500000D02*
X100750000Y-102750000D01*
X101750000Y-104500000D02*
X100750000Y-104500000D01*
X101750000Y-102750000D02*
X101750000Y-104500000D01*
X104250000Y-104500000D02*
X104250000Y-102750000D01*
X105250000Y-104500000D02*
X104250000Y-104500000D01*
X105250000Y-102750000D02*
X105250000Y-104500000D01*
X108750000Y-104500000D02*
X108750000Y-102750000D01*
X107750000Y-104500000D02*
X107750000Y-102750000D01*
X108750000Y-104500000D02*
X107750000Y-104500000D01*
X109500000Y-106250000D02*
G75*
G03*
X109500000Y-106250000I-1250000J0D01*
G01*
X106000000Y-106250000D02*
G75*
G03*
X106000000Y-106250000I-1250000J0D01*
G01*
X102500000Y-106250000D02*
G75*
G03*
X102500000Y-106250000I-1250000J0D01*
G01*
X98750000Y-109750000D02*
X110750000Y-109750000D01*
X98750000Y-102750000D02*
X110750000Y-102750000D01*
X110750000Y-109750000D02*
X110750000Y-102750000D01*
X98750000Y-109750000D02*
X98750000Y-102750000D01*
%TO.C,U2*%
D11*
X135738095Y-115452380D02*
X135738095Y-116261904D01*
X135785714Y-116357142D01*
X135833333Y-116404761D01*
X135928571Y-116452380D01*
X136119047Y-116452380D01*
X136214285Y-116404761D01*
X136261904Y-116357142D01*
X136309523Y-116261904D01*
X136309523Y-115452380D01*
X136738095Y-115547619D02*
X136785714Y-115500000D01*
X136880952Y-115452380D01*
X137119047Y-115452380D01*
X137214285Y-115500000D01*
X137261904Y-115547619D01*
X137309523Y-115642857D01*
X137309523Y-115738095D01*
X137261904Y-115880952D01*
X136690476Y-116452380D01*
X137309523Y-116452380D01*
%TO.C,C8*%
X155357142Y-129166666D02*
X155404761Y-129214285D01*
X155452380Y-129357142D01*
X155452380Y-129452380D01*
X155404761Y-129595238D01*
X155309523Y-129690476D01*
X155214285Y-129738095D01*
X155023809Y-129785714D01*
X154880952Y-129785714D01*
X154690476Y-129738095D01*
X154595238Y-129690476D01*
X154500000Y-129595238D01*
X154452380Y-129452380D01*
X154452380Y-129357142D01*
X154500000Y-129214285D01*
X154547619Y-129166666D01*
X154880952Y-128595238D02*
X154833333Y-128690476D01*
X154785714Y-128738095D01*
X154690476Y-128785714D01*
X154642857Y-128785714D01*
X154547619Y-128738095D01*
X154500000Y-128690476D01*
X154452380Y-128595238D01*
X154452380Y-128404761D01*
X154500000Y-128309523D01*
X154547619Y-128261904D01*
X154642857Y-128214285D01*
X154690476Y-128214285D01*
X154785714Y-128261904D01*
X154833333Y-128309523D01*
X154880952Y-128404761D01*
X154880952Y-128595238D01*
X154928571Y-128690476D01*
X154976190Y-128738095D01*
X155071428Y-128785714D01*
X155261904Y-128785714D01*
X155357142Y-128738095D01*
X155404761Y-128690476D01*
X155452380Y-128595238D01*
X155452380Y-128404761D01*
X155404761Y-128309523D01*
X155357142Y-128261904D01*
X155261904Y-128214285D01*
X155071428Y-128214285D01*
X154976190Y-128261904D01*
X154928571Y-128309523D01*
X154880952Y-128404761D01*
%TO.C,C7*%
X125607142Y-128916666D02*
X125654761Y-128964285D01*
X125702380Y-129107142D01*
X125702380Y-129202380D01*
X125654761Y-129345238D01*
X125559523Y-129440476D01*
X125464285Y-129488095D01*
X125273809Y-129535714D01*
X125130952Y-129535714D01*
X124940476Y-129488095D01*
X124845238Y-129440476D01*
X124750000Y-129345238D01*
X124702380Y-129202380D01*
X124702380Y-129107142D01*
X124750000Y-128964285D01*
X124797619Y-128916666D01*
X124702380Y-128583333D02*
X124702380Y-127916666D01*
X125702380Y-128345238D01*
%TO.C,C6*%
X120107142Y-128916666D02*
X120154761Y-128964285D01*
X120202380Y-129107142D01*
X120202380Y-129202380D01*
X120154761Y-129345238D01*
X120059523Y-129440476D01*
X119964285Y-129488095D01*
X119773809Y-129535714D01*
X119630952Y-129535714D01*
X119440476Y-129488095D01*
X119345238Y-129440476D01*
X119250000Y-129345238D01*
X119202380Y-129202380D01*
X119202380Y-129107142D01*
X119250000Y-128964285D01*
X119297619Y-128916666D01*
X119202380Y-128059523D02*
X119202380Y-128250000D01*
X119250000Y-128345238D01*
X119297619Y-128392857D01*
X119440476Y-128488095D01*
X119630952Y-128535714D01*
X120011904Y-128535714D01*
X120107142Y-128488095D01*
X120154761Y-128440476D01*
X120202380Y-128345238D01*
X120202380Y-128154761D01*
X120154761Y-128059523D01*
X120107142Y-128011904D01*
X120011904Y-127964285D01*
X119773809Y-127964285D01*
X119678571Y-128011904D01*
X119630952Y-128059523D01*
X119583333Y-128154761D01*
X119583333Y-128345238D01*
X119630952Y-128440476D01*
X119678571Y-128488095D01*
X119773809Y-128535714D01*
%TO.C,C5*%
X90357142Y-128916666D02*
X90404761Y-128964285D01*
X90452380Y-129107142D01*
X90452380Y-129202380D01*
X90404761Y-129345238D01*
X90309523Y-129440476D01*
X90214285Y-129488095D01*
X90023809Y-129535714D01*
X89880952Y-129535714D01*
X89690476Y-129488095D01*
X89595238Y-129440476D01*
X89500000Y-129345238D01*
X89452380Y-129202380D01*
X89452380Y-129107142D01*
X89500000Y-128964285D01*
X89547619Y-128916666D01*
X89452380Y-128011904D02*
X89452380Y-128488095D01*
X89928571Y-128535714D01*
X89880952Y-128488095D01*
X89833333Y-128392857D01*
X89833333Y-128154761D01*
X89880952Y-128059523D01*
X89928571Y-128011904D01*
X90023809Y-127964285D01*
X90261904Y-127964285D01*
X90357142Y-128011904D01*
X90404761Y-128059523D01*
X90452380Y-128154761D01*
X90452380Y-128392857D01*
X90404761Y-128488095D01*
X90357142Y-128535714D01*
%TO.C,R6*%
X132083333Y-134202380D02*
X131750000Y-133726190D01*
X131511904Y-134202380D02*
X131511904Y-133202380D01*
X131892857Y-133202380D01*
X131988095Y-133250000D01*
X132035714Y-133297619D01*
X132083333Y-133392857D01*
X132083333Y-133535714D01*
X132035714Y-133630952D01*
X131988095Y-133678571D01*
X131892857Y-133726190D01*
X131511904Y-133726190D01*
X132940476Y-133202380D02*
X132750000Y-133202380D01*
X132654761Y-133250000D01*
X132607142Y-133297619D01*
X132511904Y-133440476D01*
X132464285Y-133630952D01*
X132464285Y-134011904D01*
X132511904Y-134107142D01*
X132559523Y-134154761D01*
X132654761Y-134202380D01*
X132845238Y-134202380D01*
X132940476Y-134154761D01*
X132988095Y-134107142D01*
X133035714Y-134011904D01*
X133035714Y-133773809D01*
X132988095Y-133678571D01*
X132940476Y-133630952D01*
X132845238Y-133583333D01*
X132654761Y-133583333D01*
X132559523Y-133630952D01*
X132511904Y-133678571D01*
X132464285Y-133773809D01*
%TO.C,U1*%
X100488095Y-115562380D02*
X100488095Y-116371904D01*
X100535714Y-116467142D01*
X100583333Y-116514761D01*
X100678571Y-116562380D01*
X100869047Y-116562380D01*
X100964285Y-116514761D01*
X101011904Y-116467142D01*
X101059523Y-116371904D01*
X101059523Y-115562380D01*
X102059523Y-116562380D02*
X101488095Y-116562380D01*
X101773809Y-116562380D02*
X101773809Y-115562380D01*
X101678571Y-115705238D01*
X101583333Y-115800476D01*
X101488095Y-115848095D01*
%TO.C,R10*%
X147952380Y-132142857D02*
X147476190Y-132476190D01*
X147952380Y-132714285D02*
X146952380Y-132714285D01*
X146952380Y-132333333D01*
X147000000Y-132238095D01*
X147047619Y-132190476D01*
X147142857Y-132142857D01*
X147285714Y-132142857D01*
X147380952Y-132190476D01*
X147428571Y-132238095D01*
X147476190Y-132333333D01*
X147476190Y-132714285D01*
X147952380Y-131190476D02*
X147952380Y-131761904D01*
X147952380Y-131476190D02*
X146952380Y-131476190D01*
X147095238Y-131571428D01*
X147190476Y-131666666D01*
X147238095Y-131761904D01*
X146952380Y-130571428D02*
X146952380Y-130476190D01*
X147000000Y-130380952D01*
X147047619Y-130333333D01*
X147142857Y-130285714D01*
X147333333Y-130238095D01*
X147571428Y-130238095D01*
X147761904Y-130285714D01*
X147857142Y-130333333D01*
X147904761Y-130380952D01*
X147952380Y-130476190D01*
X147952380Y-130571428D01*
X147904761Y-130666666D01*
X147857142Y-130714285D01*
X147761904Y-130761904D01*
X147571428Y-130809523D01*
X147333333Y-130809523D01*
X147142857Y-130761904D01*
X147047619Y-130714285D01*
X147000000Y-130666666D01*
X146952380Y-130571428D01*
%TO.C,R9*%
X133202380Y-131166666D02*
X132726190Y-131500000D01*
X133202380Y-131738095D02*
X132202380Y-131738095D01*
X132202380Y-131357142D01*
X132250000Y-131261904D01*
X132297619Y-131214285D01*
X132392857Y-131166666D01*
X132535714Y-131166666D01*
X132630952Y-131214285D01*
X132678571Y-131261904D01*
X132726190Y-131357142D01*
X132726190Y-131738095D01*
X133202380Y-130690476D02*
X133202380Y-130500000D01*
X133154761Y-130404761D01*
X133107142Y-130357142D01*
X132964285Y-130261904D01*
X132773809Y-130214285D01*
X132392857Y-130214285D01*
X132297619Y-130261904D01*
X132250000Y-130309523D01*
X132202380Y-130404761D01*
X132202380Y-130595238D01*
X132250000Y-130690476D01*
X132297619Y-130738095D01*
X132392857Y-130785714D01*
X132630952Y-130785714D01*
X132726190Y-130738095D01*
X132773809Y-130690476D01*
X132821428Y-130595238D01*
X132821428Y-130404761D01*
X132773809Y-130309523D01*
X132726190Y-130261904D01*
X132630952Y-130214285D01*
%TO.C,R8*%
X112702380Y-131166666D02*
X112226190Y-131500000D01*
X112702380Y-131738095D02*
X111702380Y-131738095D01*
X111702380Y-131357142D01*
X111750000Y-131261904D01*
X111797619Y-131214285D01*
X111892857Y-131166666D01*
X112035714Y-131166666D01*
X112130952Y-131214285D01*
X112178571Y-131261904D01*
X112226190Y-131357142D01*
X112226190Y-131738095D01*
X112130952Y-130595238D02*
X112083333Y-130690476D01*
X112035714Y-130738095D01*
X111940476Y-130785714D01*
X111892857Y-130785714D01*
X111797619Y-130738095D01*
X111750000Y-130690476D01*
X111702380Y-130595238D01*
X111702380Y-130404761D01*
X111750000Y-130309523D01*
X111797619Y-130261904D01*
X111892857Y-130214285D01*
X111940476Y-130214285D01*
X112035714Y-130261904D01*
X112083333Y-130309523D01*
X112130952Y-130404761D01*
X112130952Y-130595238D01*
X112178571Y-130690476D01*
X112226190Y-130738095D01*
X112321428Y-130785714D01*
X112511904Y-130785714D01*
X112607142Y-130738095D01*
X112654761Y-130690476D01*
X112702380Y-130595238D01*
X112702380Y-130404761D01*
X112654761Y-130309523D01*
X112607142Y-130261904D01*
X112511904Y-130214285D01*
X112321428Y-130214285D01*
X112226190Y-130261904D01*
X112178571Y-130309523D01*
X112130952Y-130404761D01*
%TO.C,R7*%
X97952380Y-131166666D02*
X97476190Y-131500000D01*
X97952380Y-131738095D02*
X96952380Y-131738095D01*
X96952380Y-131357142D01*
X97000000Y-131261904D01*
X97047619Y-131214285D01*
X97142857Y-131166666D01*
X97285714Y-131166666D01*
X97380952Y-131214285D01*
X97428571Y-131261904D01*
X97476190Y-131357142D01*
X97476190Y-131738095D01*
X96952380Y-130833333D02*
X96952380Y-130166666D01*
X97952380Y-130595238D01*
%TO.C,R5*%
X112083333Y-134202380D02*
X111750000Y-133726190D01*
X111511904Y-134202380D02*
X111511904Y-133202380D01*
X111892857Y-133202380D01*
X111988095Y-133250000D01*
X112035714Y-133297619D01*
X112083333Y-133392857D01*
X112083333Y-133535714D01*
X112035714Y-133630952D01*
X111988095Y-133678571D01*
X111892857Y-133726190D01*
X111511904Y-133726190D01*
X112988095Y-133202380D02*
X112511904Y-133202380D01*
X112464285Y-133678571D01*
X112511904Y-133630952D01*
X112607142Y-133583333D01*
X112845238Y-133583333D01*
X112940476Y-133630952D01*
X112988095Y-133678571D01*
X113035714Y-133773809D01*
X113035714Y-134011904D01*
X112988095Y-134107142D01*
X112940476Y-134154761D01*
X112845238Y-134202380D01*
X112607142Y-134202380D01*
X112511904Y-134154761D01*
X112464285Y-134107142D01*
%TO.C,R4*%
X151202380Y-131416666D02*
X150726190Y-131750000D01*
X151202380Y-131988095D02*
X150202380Y-131988095D01*
X150202380Y-131607142D01*
X150250000Y-131511904D01*
X150297619Y-131464285D01*
X150392857Y-131416666D01*
X150535714Y-131416666D01*
X150630952Y-131464285D01*
X150678571Y-131511904D01*
X150726190Y-131607142D01*
X150726190Y-131988095D01*
X150535714Y-130559523D02*
X151202380Y-130559523D01*
X150154761Y-130797619D02*
X150869047Y-131035714D01*
X150869047Y-130416666D01*
%TO.C,R3*%
X129952380Y-131166666D02*
X129476190Y-131500000D01*
X129952380Y-131738095D02*
X128952380Y-131738095D01*
X128952380Y-131357142D01*
X129000000Y-131261904D01*
X129047619Y-131214285D01*
X129142857Y-131166666D01*
X129285714Y-131166666D01*
X129380952Y-131214285D01*
X129428571Y-131261904D01*
X129476190Y-131357142D01*
X129476190Y-131738095D01*
X128952380Y-130833333D02*
X128952380Y-130214285D01*
X129333333Y-130547619D01*
X129333333Y-130404761D01*
X129380952Y-130309523D01*
X129428571Y-130261904D01*
X129523809Y-130214285D01*
X129761904Y-130214285D01*
X129857142Y-130261904D01*
X129904761Y-130309523D01*
X129952380Y-130404761D01*
X129952380Y-130690476D01*
X129904761Y-130785714D01*
X129857142Y-130833333D01*
%TO.C,R2*%
X115952380Y-131166666D02*
X115476190Y-131500000D01*
X115952380Y-131738095D02*
X114952380Y-131738095D01*
X114952380Y-131357142D01*
X115000000Y-131261904D01*
X115047619Y-131214285D01*
X115142857Y-131166666D01*
X115285714Y-131166666D01*
X115380952Y-131214285D01*
X115428571Y-131261904D01*
X115476190Y-131357142D01*
X115476190Y-131738095D01*
X115047619Y-130785714D02*
X115000000Y-130738095D01*
X114952380Y-130642857D01*
X114952380Y-130404761D01*
X115000000Y-130309523D01*
X115047619Y-130261904D01*
X115142857Y-130214285D01*
X115238095Y-130214285D01*
X115380952Y-130261904D01*
X115952380Y-130833333D01*
X115952380Y-130214285D01*
%TO.C,R1*%
X94702380Y-131166666D02*
X94226190Y-131500000D01*
X94702380Y-131738095D02*
X93702380Y-131738095D01*
X93702380Y-131357142D01*
X93750000Y-131261904D01*
X93797619Y-131214285D01*
X93892857Y-131166666D01*
X94035714Y-131166666D01*
X94130952Y-131214285D01*
X94178571Y-131261904D01*
X94226190Y-131357142D01*
X94226190Y-131738095D01*
X94702380Y-130214285D02*
X94702380Y-130785714D01*
X94702380Y-130500000D02*
X93702380Y-130500000D01*
X93845238Y-130595238D01*
X93940476Y-130690476D01*
X93988095Y-130785714D01*
%TO.C,J2*%
X140702380Y-143583333D02*
X141416666Y-143583333D01*
X141559523Y-143630952D01*
X141654761Y-143726190D01*
X141702380Y-143869047D01*
X141702380Y-143964285D01*
X140797619Y-143154761D02*
X140750000Y-143107142D01*
X140702380Y-143011904D01*
X140702380Y-142773809D01*
X140750000Y-142678571D01*
X140797619Y-142630952D01*
X140892857Y-142583333D01*
X140988095Y-142583333D01*
X141130952Y-142630952D01*
X141702380Y-143202380D01*
X141702380Y-142583333D01*
%TO.C,J1*%
X100702380Y-142833333D02*
X101416666Y-142833333D01*
X101559523Y-142880952D01*
X101654761Y-142976190D01*
X101702380Y-143119047D01*
X101702380Y-143214285D01*
X101702380Y-141833333D02*
X101702380Y-142404761D01*
X101702380Y-142119047D02*
X100702380Y-142119047D01*
X100845238Y-142214285D01*
X100940476Y-142309523D01*
X100988095Y-142404761D01*
%TO.C,C4*%
X136083333Y-129607142D02*
X136035714Y-129654761D01*
X135892857Y-129702380D01*
X135797619Y-129702380D01*
X135654761Y-129654761D01*
X135559523Y-129559523D01*
X135511904Y-129464285D01*
X135464285Y-129273809D01*
X135464285Y-129130952D01*
X135511904Y-128940476D01*
X135559523Y-128845238D01*
X135654761Y-128750000D01*
X135797619Y-128702380D01*
X135892857Y-128702380D01*
X136035714Y-128750000D01*
X136083333Y-128797619D01*
X136940476Y-129035714D02*
X136940476Y-129702380D01*
X136702380Y-128654761D02*
X136464285Y-129369047D01*
X137083333Y-129369047D01*
%TO.C,C3*%
X101083333Y-129607142D02*
X101035714Y-129654761D01*
X100892857Y-129702380D01*
X100797619Y-129702380D01*
X100654761Y-129654761D01*
X100559523Y-129559523D01*
X100511904Y-129464285D01*
X100464285Y-129273809D01*
X100464285Y-129130952D01*
X100511904Y-128940476D01*
X100559523Y-128845238D01*
X100654761Y-128750000D01*
X100797619Y-128702380D01*
X100892857Y-128702380D01*
X101035714Y-128750000D01*
X101083333Y-128797619D01*
X101416666Y-128702380D02*
X102035714Y-128702380D01*
X101702380Y-129083333D01*
X101845238Y-129083333D01*
X101940476Y-129130952D01*
X101988095Y-129178571D01*
X102035714Y-129273809D01*
X102035714Y-129511904D01*
X101988095Y-129607142D01*
X101940476Y-129654761D01*
X101845238Y-129702380D01*
X101559523Y-129702380D01*
X101464285Y-129654761D01*
X101416666Y-129607142D01*
%TO.C,C2*%
X143333333Y-115607142D02*
X143285714Y-115654761D01*
X143142857Y-115702380D01*
X143047619Y-115702380D01*
X142904761Y-115654761D01*
X142809523Y-115559523D01*
X142761904Y-115464285D01*
X142714285Y-115273809D01*
X142714285Y-115130952D01*
X142761904Y-114940476D01*
X142809523Y-114845238D01*
X142904761Y-114750000D01*
X143047619Y-114702380D01*
X143142857Y-114702380D01*
X143285714Y-114750000D01*
X143333333Y-114797619D01*
X143714285Y-114797619D02*
X143761904Y-114750000D01*
X143857142Y-114702380D01*
X144095238Y-114702380D01*
X144190476Y-114750000D01*
X144238095Y-114797619D01*
X144285714Y-114892857D01*
X144285714Y-114988095D01*
X144238095Y-115130952D01*
X143666666Y-115702380D01*
X144285714Y-115702380D01*
%TO.C,C1*%
X108333333Y-115607142D02*
X108285714Y-115654761D01*
X108142857Y-115702380D01*
X108047619Y-115702380D01*
X107904761Y-115654761D01*
X107809523Y-115559523D01*
X107761904Y-115464285D01*
X107714285Y-115273809D01*
X107714285Y-115130952D01*
X107761904Y-114940476D01*
X107809523Y-114845238D01*
X107904761Y-114750000D01*
X108047619Y-114702380D01*
X108142857Y-114702380D01*
X108285714Y-114750000D01*
X108333333Y-114797619D01*
X109285714Y-115702380D02*
X108714285Y-115702380D01*
X109000000Y-115702380D02*
X109000000Y-114702380D01*
X108904761Y-114845238D01*
X108809523Y-114940476D01*
X108714285Y-114988095D01*
%TO.C,J5*%
X139916666Y-108202380D02*
X139916666Y-108916666D01*
X139869047Y-109059523D01*
X139773809Y-109154761D01*
X139630952Y-109202380D01*
X139535714Y-109202380D01*
X140869047Y-108202380D02*
X140392857Y-108202380D01*
X140345238Y-108678571D01*
X140392857Y-108630952D01*
X140488095Y-108583333D01*
X140726190Y-108583333D01*
X140821428Y-108630952D01*
X140869047Y-108678571D01*
X140916666Y-108773809D01*
X140916666Y-109011904D01*
X140869047Y-109107142D01*
X140821428Y-109154761D01*
X140726190Y-109202380D01*
X140488095Y-109202380D01*
X140392857Y-109154761D01*
X140345238Y-109107142D01*
%TO.C,J4*%
X104416666Y-108202380D02*
X104416666Y-108916666D01*
X104369047Y-109059523D01*
X104273809Y-109154761D01*
X104130952Y-109202380D01*
X104035714Y-109202380D01*
X105321428Y-108535714D02*
X105321428Y-109202380D01*
X105083333Y-108154761D02*
X104845238Y-108869047D01*
X105464285Y-108869047D01*
%TD*%
M02*
