M48
; DRILL file {KiCad (5.1.6-0)} date Friday, January 05, 2024 at 09:58:39 PM
; FORMAT={-:-/ absolute / inch / decimal}
; #@! TF.CreationDate,2024-01-05T21:58:39-08:00
; #@! TF.GenerationSoftware,Kicad,Pcbnew,(5.1.6-0)
; #@! TF.FileFunction,Plated,1,2,PTH
FMAT,2
INCH
T1C0.0118
T2C0.0197
T3C0.0394
T4C0.0472
T5C0.0630
T6C0.1378
%
G90
G05
T1
X3.6083Y-4.5863
X3.6083Y-4.8225
X3.6083Y-5.0588
X3.6083Y-5.295
X3.6083Y-5.5312
X3.6083Y-5.7674
X3.6083Y-6.0036
X3.622Y-4.2913
X3.6909Y-4.872
X3.7008Y-5.2362
X3.7106Y-5.128
X3.7224Y-5.1772
X3.7264Y-4.4682
X3.7264Y-5.4131
X3.7264Y-5.6493
X3.7264Y-5.8855
X3.7658Y-4.6651
X3.7854Y-5.1772
X3.8052Y-4.3107
X3.8052Y-5.0981
X3.8052Y-6.043
X3.8091Y-5.2264
X3.8445Y-5.295
X3.8445Y-5.5312
X3.8445Y-5.7674
X3.8704Y-5.1355
X3.9075Y-5.1772
X3.915Y-5.0909
X3.9173Y-5.0394
X3.9233Y-5.9249
X3.9626Y-5.4131
X3.9665Y-4.9016
X4.002Y-4.6257
X4.0414Y-4.2714
X4.0414Y-5.0588
X4.0414Y-5.6887
X4.0414Y-6.043
X4.0808Y-3.9958
X4.0808Y-5.295
X4.1142Y-4.6457
X4.1201Y-5.5312
X4.1201Y-5.8462
X4.1339Y-4.7736
X4.1339Y-5.0689
X4.1535Y-4.9016
X4.2382Y-4.9013
X4.2382Y-5.3737
X4.2382Y-5.7281
X4.2717Y-5.0098
X4.2776Y-4.1926
X4.2776Y-6.043
X4.3012Y-4.626
X4.317Y-4.3895
X4.3504Y-4.5276
X4.3504Y-4.685
X4.3563Y-3.9958
X4.3563Y-5.0588
X4.3563Y-5.4918
X4.3563Y-5.8855
X4.372Y-4.5768
X4.3957Y-5.2556
X4.435Y-4.5768
X4.4351Y-4.2714
X4.4351Y-5.6493
X4.4488Y-4.5276
X4.4745Y-6.0036
X4.5138Y-4.0745
X4.5138Y-4.6651
X4.5138Y-5.3737
X4.5532Y-4.3895
X4.5532Y-5.0981
X4.5768Y-4.872
X4.5926Y-5.5312
X4.5926Y-5.7674
X4.6319Y-4.1926
X4.6319Y-4.7832
X4.6319Y-5.2556
X4.6713Y-3.9958
X4.6713Y-4.5863
X4.6713Y-4.98
X4.6713Y-5.9249
X4.7107Y-5.4131
X4.7107Y-5.6493
X4.75Y-4.3107
X4.75Y-5.1375
X4.7894Y-4.7044
X4.7894Y-5.8068
X4.7894Y-6.043
X4.8288Y-4.4682
X4.8288Y-4.9013
X4.8288Y-5.295
X4.8288Y-5.5312
X4.8524Y-4.2323
X4.9075Y-3.9958
X4.9075Y-5.0588
X4.9075Y-5.6887
X4.9075Y-5.9249
X4.9138Y-4.2248
X4.9469Y-4.3501
X4.9469Y-4.5863
X4.9469Y-5.4131
X4.9583Y-4.2693
X4.9863Y-4.7832
X4.9863Y-5.2162
X5.0098Y-4.2421
X5.0256Y-5.5706
X5.0256Y-5.8068
X5.0256Y-6.043
X5.1044Y-4.0351
X5.1044Y-4.4288
X5.1044Y-4.6651
X5.1044Y-4.9013
X5.1044Y-5.3344
X5.1437Y-5.6887
X5.1437Y-5.9249
X5.1831Y-4.2714
X5.1831Y-5.4918
X5.2225Y-4.5469
X5.2225Y-4.7832
X5.2225Y-5.0194
X5.2619Y-4.1139
X5.2619Y-5.2556
X5.2619Y-5.8068
X5.2619Y-6.043
X5.2657Y-4.872
X5.2854Y-5.1181
X5.2972Y-5.1673
X5.3012Y-4.3895
X5.3012Y-5.6099
X5.3406Y-4.6651
X5.3602Y-5.1673
X5.38Y-3.9958
X5.38Y-4.232
X5.38Y-5.1181
X5.38Y-5.9249
X5.3839Y-5.2264
X5.4193Y-5.3344
X5.4193Y-5.7281
X5.4452Y-5.1355
X5.4724Y-5.1772
X5.4898Y-5.0909
X5.4921Y-5.0394
X5.4981Y-6.043
X5.5374Y-5.4525
X5.5374Y-5.8462
X5.5413Y-4.9016
X5.5768Y-4.2714
X5.5768Y-4.6257
X5.6162Y-5.0588
X5.6162Y-5.295
X5.6162Y-5.6887
X5.6556Y-3.9958
X5.6556Y-5.9643
X5.689Y-4.6457
X5.6949Y-5.5312
X5.7087Y-4.7736
X5.7087Y-5.0689
X5.7283Y-4.9016
X5.7343Y-4.1926
X5.7343Y-5.8068
X5.813Y-4.9013
X5.813Y-5.3344
X5.813Y-6.043
X5.8366Y-5.0197
X5.8661Y-4.5177
X5.8918Y-4.2714
X5.8918Y-5.7281
X5.8957Y-4.6752
X5.9177Y-4.5351
X5.9311Y-5.0588
X5.9311Y-5.4918
X5.935Y-4.439
X5.935Y-4.5965
X5.9622Y-4.4905
X5.9705Y-5.2556
X5.9705Y-5.9643
X6.0099Y-4.5177
X6.0493Y-4.3501
X6.0493Y-5.6099
X6.0886Y-5.3737
X6.128Y-4.6651
X6.128Y-5.0981
X6.128Y-6.043
X6.1516Y-4.872
X6.1674Y-4.4682
X6.1674Y-5.7281
X6.2067Y-4.2714
X6.2067Y-4.8225
X6.2067Y-5.2556
X6.2067Y-5.4918
X6.2461Y-5.8855
T2
X6.0482Y-4.0846
X6.0785Y-4.0116
X6.0785Y-4.1577
X6.1516Y-3.9813
X6.1516Y-4.188
X6.2247Y-4.0116
X6.2247Y-4.1577
X6.2549Y-4.0846
X3.5876Y-4.0846
X3.6179Y-4.0116
X3.6179Y-4.1577
X3.6909Y-3.9813
X3.6909Y-4.188
X3.764Y-4.0116
X3.764Y-4.1577
X3.7943Y-4.0846
T3
X4.8524Y-4.0748
X4.9902Y-4.0748
X5.5709Y-4.0748
X5.7087Y-4.0748
X5.8465Y-4.0748
X3.937Y-4.3602
X3.937Y-4.4602
X3.937Y-4.5602
X3.9961Y-4.0748
X4.1339Y-4.0748
X4.2717Y-4.0748
X5.5118Y-4.3602
X5.5118Y-4.4602
X5.5118Y-4.5602
T4
X4.1339Y-5.4268
X4.4587Y-5.8272
X5.7087Y-5.4268
X6.0335Y-5.8272
T5
X3.9839Y-5.577
X4.2839Y-5.602
X5.5587Y-5.577
X5.8587Y-5.602
T6
X6.1516Y-4.0846
X3.6909Y-4.0846
T0
M30
