%TF.GenerationSoftware,KiCad,Pcbnew,(5.1.6-0)*%
%TF.CreationDate,2024-01-20T12:46:16-08:00*%
%TF.ProjectId,input_buffer_bal_XLR_SMD_1206,696e7075-745f-4627-9566-6665725f6261,rev?*%
%TF.SameCoordinates,Original*%
%TF.FileFunction,Soldermask,Bot*%
%TF.FilePolarity,Negative*%
%FSLAX46Y46*%
G04 Gerber Fmt 4.6, Leading zero omitted, Abs format (unit mm)*
G04 Created by KiCad (PCBNEW (5.1.6-0)) date 2024-01-20 12:46:16*
%MOMM*%
%LPD*%
G01*
G04 APERTURE LIST*
%ADD10O,1.800000X1.400000*%
%ADD11O,2.100000X1.700000*%
%ADD12R,1.800000X1.400000*%
%ADD13C,1.600000*%
%ADD14C,2.100000*%
%ADD15C,3.000000*%
%ADD16C,1.700000*%
%ADD17C,3.500000*%
%ADD18C,0.900000*%
%ADD19C,7.100000*%
G04 APERTURE END LIST*
D10*
%TO.C,SW1*%
X132500000Y-132000000D03*
X129500000Y-132000000D03*
X126500000Y-132000000D03*
X123500000Y-132000000D03*
X120500000Y-132000000D03*
X132500000Y-128000000D03*
X129500000Y-128000000D03*
X126500000Y-128000000D03*
X123500000Y-128000000D03*
X120500000Y-128000000D03*
D11*
X114500000Y-134700000D03*
X135500000Y-134700000D03*
X135500000Y-125300000D03*
X114500000Y-125300000D03*
D10*
X117500000Y-128000000D03*
D12*
X117500000Y-132000000D03*
%TD*%
D13*
%TO.C,SW3*%
X156190000Y-111270000D03*
X156190000Y-108730000D03*
X163810000Y-111270000D03*
X163810000Y-108730000D03*
%TD*%
%TO.C,SW2*%
X93810000Y-108730000D03*
X93810000Y-111270000D03*
X86190000Y-108730000D03*
X86190000Y-111270000D03*
%TD*%
D14*
%TO.C,J6*%
X139000000Y-105000000D03*
X142500000Y-105000000D03*
X146000000Y-105000000D03*
%TD*%
%TO.C,J5*%
X104000000Y-105000000D03*
X107500000Y-105000000D03*
X111000000Y-105000000D03*
%TD*%
D15*
%TO.C,J3*%
X168250000Y-148260000D03*
D16*
X156190000Y-146350000D03*
X163810000Y-151430000D03*
D15*
X160000000Y-138090000D03*
D17*
X156190000Y-141905000D03*
X163810000Y-142540000D03*
%TD*%
D14*
%TO.C,J1*%
X123250000Y-105000000D03*
X126750000Y-105000000D03*
%TD*%
D18*
%TO.C,H2*%
X172856155Y-102143845D03*
X171000000Y-101375000D03*
X169143845Y-102143845D03*
X168375000Y-104000000D03*
X169143845Y-105856155D03*
X171000000Y-106625000D03*
X172856155Y-105856155D03*
X173625000Y-104000000D03*
D19*
X171000000Y-104000000D03*
%TD*%
D18*
%TO.C,H1*%
X80856155Y-102143845D03*
X79000000Y-101375000D03*
X77143845Y-102143845D03*
X76375000Y-104000000D03*
X77143845Y-105856155D03*
X79000000Y-106625000D03*
X80856155Y-105856155D03*
X81625000Y-104000000D03*
D19*
X79000000Y-104000000D03*
%TD*%
D15*
%TO.C,J2*%
X98250000Y-148260000D03*
D16*
X86190000Y-146350000D03*
X93810000Y-151430000D03*
D15*
X90000000Y-138090000D03*
D17*
X86190000Y-141905000D03*
X93810000Y-142540000D03*
%TD*%
M02*
