%TF.GenerationSoftware,KiCad,Pcbnew,(5.1.6-0)*%
%TF.CreationDate,2024-01-20T13:00:52-08:00*%
%TF.ProjectId,input_buffer_bal_XLR_SMD_1206,696e7075-745f-4627-9566-6665725f6261,rev?*%
%TF.SameCoordinates,Original*%
%TF.FileFunction,Soldermask,Top*%
%TF.FilePolarity,Negative*%
%FSLAX46Y46*%
G04 Gerber Fmt 4.6, Leading zero omitted, Abs format (unit mm)*
G04 Created by KiCad (PCBNEW (5.1.6-0)) date 2024-01-20 13:00:52*
%MOMM*%
%LPD*%
G01*
G04 APERTURE LIST*
%ADD10O,1.800000X1.400000*%
%ADD11O,2.100000X1.700000*%
%ADD12R,1.800000X1.400000*%
%ADD13C,1.600000*%
%ADD14C,2.100000*%
%ADD15C,3.000000*%
%ADD16C,1.700000*%
%ADD17C,3.500000*%
%ADD18C,0.900000*%
%ADD19C,7.100000*%
G04 APERTURE END LIST*
D10*
%TO.C,SW1*%
X132500000Y-132000000D03*
X129500000Y-132000000D03*
X126500000Y-132000000D03*
X123500000Y-132000000D03*
X120500000Y-132000000D03*
X132500000Y-128000000D03*
X129500000Y-128000000D03*
X126500000Y-128000000D03*
X123500000Y-128000000D03*
X120500000Y-128000000D03*
D11*
X114500000Y-134700000D03*
X135500000Y-134700000D03*
X135500000Y-125300000D03*
X114500000Y-125300000D03*
D10*
X117500000Y-128000000D03*
D12*
X117500000Y-132000000D03*
%TD*%
D13*
%TO.C,SW3*%
X156190000Y-111270000D03*
X156190000Y-108730000D03*
X163810000Y-111270000D03*
X163810000Y-108730000D03*
%TD*%
%TO.C,SW2*%
X93810000Y-108730000D03*
X93810000Y-111270000D03*
X86190000Y-108730000D03*
X86190000Y-111270000D03*
%TD*%
%TO.C,R18*%
G36*
G01*
X148405000Y-118775000D02*
X147095000Y-118775000D01*
G75*
G02*
X146825000Y-118505000I0J270000D01*
G01*
X146825000Y-117695000D01*
G75*
G02*
X147095000Y-117425000I270000J0D01*
G01*
X148405000Y-117425000D01*
G75*
G02*
X148675000Y-117695000I0J-270000D01*
G01*
X148675000Y-118505000D01*
G75*
G02*
X148405000Y-118775000I-270000J0D01*
G01*
G37*
G36*
G01*
X148405000Y-121575000D02*
X147095000Y-121575000D01*
G75*
G02*
X146825000Y-121305000I0J270000D01*
G01*
X146825000Y-120495000D01*
G75*
G02*
X147095000Y-120225000I270000J0D01*
G01*
X148405000Y-120225000D01*
G75*
G02*
X148675000Y-120495000I0J-270000D01*
G01*
X148675000Y-121305000D01*
G75*
G02*
X148405000Y-121575000I-270000J0D01*
G01*
G37*
%TD*%
%TO.C,R17*%
G36*
G01*
X151405000Y-118775000D02*
X150095000Y-118775000D01*
G75*
G02*
X149825000Y-118505000I0J270000D01*
G01*
X149825000Y-117695000D01*
G75*
G02*
X150095000Y-117425000I270000J0D01*
G01*
X151405000Y-117425000D01*
G75*
G02*
X151675000Y-117695000I0J-270000D01*
G01*
X151675000Y-118505000D01*
G75*
G02*
X151405000Y-118775000I-270000J0D01*
G01*
G37*
G36*
G01*
X151405000Y-121575000D02*
X150095000Y-121575000D01*
G75*
G02*
X149825000Y-121305000I0J270000D01*
G01*
X149825000Y-120495000D01*
G75*
G02*
X150095000Y-120225000I270000J0D01*
G01*
X151405000Y-120225000D01*
G75*
G02*
X151675000Y-120495000I0J-270000D01*
G01*
X151675000Y-121305000D01*
G75*
G02*
X151405000Y-121575000I-270000J0D01*
G01*
G37*
%TD*%
%TO.C,R16*%
G36*
G01*
X99905000Y-120025000D02*
X98595000Y-120025000D01*
G75*
G02*
X98325000Y-119755000I0J270000D01*
G01*
X98325000Y-118945000D01*
G75*
G02*
X98595000Y-118675000I270000J0D01*
G01*
X99905000Y-118675000D01*
G75*
G02*
X100175000Y-118945000I0J-270000D01*
G01*
X100175000Y-119755000D01*
G75*
G02*
X99905000Y-120025000I-270000J0D01*
G01*
G37*
G36*
G01*
X99905000Y-122825000D02*
X98595000Y-122825000D01*
G75*
G02*
X98325000Y-122555000I0J270000D01*
G01*
X98325000Y-121745000D01*
G75*
G02*
X98595000Y-121475000I270000J0D01*
G01*
X99905000Y-121475000D01*
G75*
G02*
X100175000Y-121745000I0J-270000D01*
G01*
X100175000Y-122555000D01*
G75*
G02*
X99905000Y-122825000I-270000J0D01*
G01*
G37*
%TD*%
%TO.C,R15*%
G36*
G01*
X102905000Y-120025000D02*
X101595000Y-120025000D01*
G75*
G02*
X101325000Y-119755000I0J270000D01*
G01*
X101325000Y-118945000D01*
G75*
G02*
X101595000Y-118675000I270000J0D01*
G01*
X102905000Y-118675000D01*
G75*
G02*
X103175000Y-118945000I0J-270000D01*
G01*
X103175000Y-119755000D01*
G75*
G02*
X102905000Y-120025000I-270000J0D01*
G01*
G37*
G36*
G01*
X102905000Y-122825000D02*
X101595000Y-122825000D01*
G75*
G02*
X101325000Y-122555000I0J270000D01*
G01*
X101325000Y-121745000D01*
G75*
G02*
X101595000Y-121475000I270000J0D01*
G01*
X102905000Y-121475000D01*
G75*
G02*
X103175000Y-121745000I0J-270000D01*
G01*
X103175000Y-122555000D01*
G75*
G02*
X102905000Y-122825000I-270000J0D01*
G01*
G37*
%TD*%
D14*
%TO.C,J6*%
X139000000Y-105000000D03*
X142500000Y-105000000D03*
X146000000Y-105000000D03*
%TD*%
%TO.C,U2*%
G36*
G01*
X161450000Y-119020000D02*
X161450000Y-118670000D01*
G75*
G02*
X161625000Y-118495000I175000J0D01*
G01*
X163325000Y-118495000D01*
G75*
G02*
X163500000Y-118670000I0J-175000D01*
G01*
X163500000Y-119020000D01*
G75*
G02*
X163325000Y-119195000I-175000J0D01*
G01*
X161625000Y-119195000D01*
G75*
G02*
X161450000Y-119020000I0J175000D01*
G01*
G37*
G36*
G01*
X161450000Y-120290000D02*
X161450000Y-119940000D01*
G75*
G02*
X161625000Y-119765000I175000J0D01*
G01*
X163325000Y-119765000D01*
G75*
G02*
X163500000Y-119940000I0J-175000D01*
G01*
X163500000Y-120290000D01*
G75*
G02*
X163325000Y-120465000I-175000J0D01*
G01*
X161625000Y-120465000D01*
G75*
G02*
X161450000Y-120290000I0J175000D01*
G01*
G37*
G36*
G01*
X161450000Y-121560000D02*
X161450000Y-121210000D01*
G75*
G02*
X161625000Y-121035000I175000J0D01*
G01*
X163325000Y-121035000D01*
G75*
G02*
X163500000Y-121210000I0J-175000D01*
G01*
X163500000Y-121560000D01*
G75*
G02*
X163325000Y-121735000I-175000J0D01*
G01*
X161625000Y-121735000D01*
G75*
G02*
X161450000Y-121560000I0J175000D01*
G01*
G37*
G36*
G01*
X161450000Y-122830000D02*
X161450000Y-122480000D01*
G75*
G02*
X161625000Y-122305000I175000J0D01*
G01*
X163325000Y-122305000D01*
G75*
G02*
X163500000Y-122480000I0J-175000D01*
G01*
X163500000Y-122830000D01*
G75*
G02*
X163325000Y-123005000I-175000J0D01*
G01*
X161625000Y-123005000D01*
G75*
G02*
X161450000Y-122830000I0J175000D01*
G01*
G37*
G36*
G01*
X156500000Y-122830000D02*
X156500000Y-122480000D01*
G75*
G02*
X156675000Y-122305000I175000J0D01*
G01*
X158375000Y-122305000D01*
G75*
G02*
X158550000Y-122480000I0J-175000D01*
G01*
X158550000Y-122830000D01*
G75*
G02*
X158375000Y-123005000I-175000J0D01*
G01*
X156675000Y-123005000D01*
G75*
G02*
X156500000Y-122830000I0J175000D01*
G01*
G37*
G36*
G01*
X156500000Y-121560000D02*
X156500000Y-121210000D01*
G75*
G02*
X156675000Y-121035000I175000J0D01*
G01*
X158375000Y-121035000D01*
G75*
G02*
X158550000Y-121210000I0J-175000D01*
G01*
X158550000Y-121560000D01*
G75*
G02*
X158375000Y-121735000I-175000J0D01*
G01*
X156675000Y-121735000D01*
G75*
G02*
X156500000Y-121560000I0J175000D01*
G01*
G37*
G36*
G01*
X156500000Y-120290000D02*
X156500000Y-119940000D01*
G75*
G02*
X156675000Y-119765000I175000J0D01*
G01*
X158375000Y-119765000D01*
G75*
G02*
X158550000Y-119940000I0J-175000D01*
G01*
X158550000Y-120290000D01*
G75*
G02*
X158375000Y-120465000I-175000J0D01*
G01*
X156675000Y-120465000D01*
G75*
G02*
X156500000Y-120290000I0J175000D01*
G01*
G37*
G36*
G01*
X156500000Y-119020000D02*
X156500000Y-118670000D01*
G75*
G02*
X156675000Y-118495000I175000J0D01*
G01*
X158375000Y-118495000D01*
G75*
G02*
X158550000Y-118670000I0J-175000D01*
G01*
X158550000Y-119020000D01*
G75*
G02*
X158375000Y-119195000I-175000J0D01*
G01*
X156675000Y-119195000D01*
G75*
G02*
X156500000Y-119020000I0J175000D01*
G01*
G37*
%TD*%
%TO.C,R14*%
G36*
G01*
X153095000Y-120225000D02*
X154405000Y-120225000D01*
G75*
G02*
X154675000Y-120495000I0J-270000D01*
G01*
X154675000Y-121305000D01*
G75*
G02*
X154405000Y-121575000I-270000J0D01*
G01*
X153095000Y-121575000D01*
G75*
G02*
X152825000Y-121305000I0J270000D01*
G01*
X152825000Y-120495000D01*
G75*
G02*
X153095000Y-120225000I270000J0D01*
G01*
G37*
G36*
G01*
X153095000Y-117425000D02*
X154405000Y-117425000D01*
G75*
G02*
X154675000Y-117695000I0J-270000D01*
G01*
X154675000Y-118505000D01*
G75*
G02*
X154405000Y-118775000I-270000J0D01*
G01*
X153095000Y-118775000D01*
G75*
G02*
X152825000Y-118505000I0J270000D01*
G01*
X152825000Y-117695000D01*
G75*
G02*
X153095000Y-117425000I270000J0D01*
G01*
G37*
%TD*%
%TO.C,R13*%
G36*
G01*
X165595000Y-121475000D02*
X166905000Y-121475000D01*
G75*
G02*
X167175000Y-121745000I0J-270000D01*
G01*
X167175000Y-122555000D01*
G75*
G02*
X166905000Y-122825000I-270000J0D01*
G01*
X165595000Y-122825000D01*
G75*
G02*
X165325000Y-122555000I0J270000D01*
G01*
X165325000Y-121745000D01*
G75*
G02*
X165595000Y-121475000I270000J0D01*
G01*
G37*
G36*
G01*
X165595000Y-118675000D02*
X166905000Y-118675000D01*
G75*
G02*
X167175000Y-118945000I0J-270000D01*
G01*
X167175000Y-119755000D01*
G75*
G02*
X166905000Y-120025000I-270000J0D01*
G01*
X165595000Y-120025000D01*
G75*
G02*
X165325000Y-119755000I0J270000D01*
G01*
X165325000Y-118945000D01*
G75*
G02*
X165595000Y-118675000I270000J0D01*
G01*
G37*
%TD*%
%TO.C,R12*%
G36*
G01*
X95595000Y-121475000D02*
X96905000Y-121475000D01*
G75*
G02*
X97175000Y-121745000I0J-270000D01*
G01*
X97175000Y-122555000D01*
G75*
G02*
X96905000Y-122825000I-270000J0D01*
G01*
X95595000Y-122825000D01*
G75*
G02*
X95325000Y-122555000I0J270000D01*
G01*
X95325000Y-121745000D01*
G75*
G02*
X95595000Y-121475000I270000J0D01*
G01*
G37*
G36*
G01*
X95595000Y-118675000D02*
X96905000Y-118675000D01*
G75*
G02*
X97175000Y-118945000I0J-270000D01*
G01*
X97175000Y-119755000D01*
G75*
G02*
X96905000Y-120025000I-270000J0D01*
G01*
X95595000Y-120025000D01*
G75*
G02*
X95325000Y-119755000I0J270000D01*
G01*
X95325000Y-118945000D01*
G75*
G02*
X95595000Y-118675000I270000J0D01*
G01*
G37*
%TD*%
%TO.C,R11*%
G36*
G01*
X83095000Y-120225000D02*
X84405000Y-120225000D01*
G75*
G02*
X84675000Y-120495000I0J-270000D01*
G01*
X84675000Y-121305000D01*
G75*
G02*
X84405000Y-121575000I-270000J0D01*
G01*
X83095000Y-121575000D01*
G75*
G02*
X82825000Y-121305000I0J270000D01*
G01*
X82825000Y-120495000D01*
G75*
G02*
X83095000Y-120225000I270000J0D01*
G01*
G37*
G36*
G01*
X83095000Y-117425000D02*
X84405000Y-117425000D01*
G75*
G02*
X84675000Y-117695000I0J-270000D01*
G01*
X84675000Y-118505000D01*
G75*
G02*
X84405000Y-118775000I-270000J0D01*
G01*
X83095000Y-118775000D01*
G75*
G02*
X82825000Y-118505000I0J270000D01*
G01*
X82825000Y-117695000D01*
G75*
G02*
X83095000Y-117425000I270000J0D01*
G01*
G37*
%TD*%
%TO.C,R10*%
G36*
G01*
X157405000Y-130525000D02*
X156095000Y-130525000D01*
G75*
G02*
X155825000Y-130255000I0J270000D01*
G01*
X155825000Y-129445000D01*
G75*
G02*
X156095000Y-129175000I270000J0D01*
G01*
X157405000Y-129175000D01*
G75*
G02*
X157675000Y-129445000I0J-270000D01*
G01*
X157675000Y-130255000D01*
G75*
G02*
X157405000Y-130525000I-270000J0D01*
G01*
G37*
G36*
G01*
X157405000Y-133325000D02*
X156095000Y-133325000D01*
G75*
G02*
X155825000Y-133055000I0J270000D01*
G01*
X155825000Y-132245000D01*
G75*
G02*
X156095000Y-131975000I270000J0D01*
G01*
X157405000Y-131975000D01*
G75*
G02*
X157675000Y-132245000I0J-270000D01*
G01*
X157675000Y-133055000D01*
G75*
G02*
X157405000Y-133325000I-270000J0D01*
G01*
G37*
%TD*%
%TO.C,R9*%
G36*
G01*
X162595000Y-131975000D02*
X163905000Y-131975000D01*
G75*
G02*
X164175000Y-132245000I0J-270000D01*
G01*
X164175000Y-133055000D01*
G75*
G02*
X163905000Y-133325000I-270000J0D01*
G01*
X162595000Y-133325000D01*
G75*
G02*
X162325000Y-133055000I0J270000D01*
G01*
X162325000Y-132245000D01*
G75*
G02*
X162595000Y-131975000I270000J0D01*
G01*
G37*
G36*
G01*
X162595000Y-129175000D02*
X163905000Y-129175000D01*
G75*
G02*
X164175000Y-129445000I0J-270000D01*
G01*
X164175000Y-130255000D01*
G75*
G02*
X163905000Y-130525000I-270000J0D01*
G01*
X162595000Y-130525000D01*
G75*
G02*
X162325000Y-130255000I0J270000D01*
G01*
X162325000Y-129445000D01*
G75*
G02*
X162595000Y-129175000I270000J0D01*
G01*
G37*
%TD*%
%TO.C,R6*%
G36*
G01*
X160655000Y-130525000D02*
X159345000Y-130525000D01*
G75*
G02*
X159075000Y-130255000I0J270000D01*
G01*
X159075000Y-129445000D01*
G75*
G02*
X159345000Y-129175000I270000J0D01*
G01*
X160655000Y-129175000D01*
G75*
G02*
X160925000Y-129445000I0J-270000D01*
G01*
X160925000Y-130255000D01*
G75*
G02*
X160655000Y-130525000I-270000J0D01*
G01*
G37*
G36*
G01*
X160655000Y-133325000D02*
X159345000Y-133325000D01*
G75*
G02*
X159075000Y-133055000I0J270000D01*
G01*
X159075000Y-132245000D01*
G75*
G02*
X159345000Y-131975000I270000J0D01*
G01*
X160655000Y-131975000D01*
G75*
G02*
X160925000Y-132245000I0J-270000D01*
G01*
X160925000Y-133055000D01*
G75*
G02*
X160655000Y-133325000I-270000J0D01*
G01*
G37*
%TD*%
%TO.C,R4*%
G36*
G01*
X150775000Y-128095000D02*
X150775000Y-129405000D01*
G75*
G02*
X150505000Y-129675000I-270000J0D01*
G01*
X149695000Y-129675000D01*
G75*
G02*
X149425000Y-129405000I0J270000D01*
G01*
X149425000Y-128095000D01*
G75*
G02*
X149695000Y-127825000I270000J0D01*
G01*
X150505000Y-127825000D01*
G75*
G02*
X150775000Y-128095000I0J-270000D01*
G01*
G37*
G36*
G01*
X153575000Y-128095000D02*
X153575000Y-129405000D01*
G75*
G02*
X153305000Y-129675000I-270000J0D01*
G01*
X152495000Y-129675000D01*
G75*
G02*
X152225000Y-129405000I0J270000D01*
G01*
X152225000Y-128095000D01*
G75*
G02*
X152495000Y-127825000I270000J0D01*
G01*
X153305000Y-127825000D01*
G75*
G02*
X153575000Y-128095000I0J-270000D01*
G01*
G37*
%TD*%
%TO.C,R3*%
G36*
G01*
X168975000Y-129405000D02*
X168975000Y-128095000D01*
G75*
G02*
X169245000Y-127825000I270000J0D01*
G01*
X170055000Y-127825000D01*
G75*
G02*
X170325000Y-128095000I0J-270000D01*
G01*
X170325000Y-129405000D01*
G75*
G02*
X170055000Y-129675000I-270000J0D01*
G01*
X169245000Y-129675000D01*
G75*
G02*
X168975000Y-129405000I0J270000D01*
G01*
G37*
G36*
G01*
X166175000Y-129405000D02*
X166175000Y-128095000D01*
G75*
G02*
X166445000Y-127825000I270000J0D01*
G01*
X167255000Y-127825000D01*
G75*
G02*
X167525000Y-128095000I0J-270000D01*
G01*
X167525000Y-129405000D01*
G75*
G02*
X167255000Y-129675000I-270000J0D01*
G01*
X166445000Y-129675000D01*
G75*
G02*
X166175000Y-129405000I0J270000D01*
G01*
G37*
%TD*%
%TO.C,J5*%
X104000000Y-105000000D03*
X107500000Y-105000000D03*
X111000000Y-105000000D03*
%TD*%
D15*
%TO.C,J3*%
X168250000Y-148260000D03*
D16*
X156190000Y-146350000D03*
X163810000Y-151430000D03*
D15*
X160000000Y-138090000D03*
D17*
X156190000Y-141905000D03*
X163810000Y-142540000D03*
%TD*%
%TO.C,C8*%
G36*
G01*
X152225000Y-126407456D02*
X152225000Y-125092544D01*
G75*
G02*
X152492544Y-124825000I267544J0D01*
G01*
X153482456Y-124825000D01*
G75*
G02*
X153750000Y-125092544I0J-267544D01*
G01*
X153750000Y-126407456D01*
G75*
G02*
X153482456Y-126675000I-267544J0D01*
G01*
X152492544Y-126675000D01*
G75*
G02*
X152225000Y-126407456I0J267544D01*
G01*
G37*
G36*
G01*
X149250000Y-126407456D02*
X149250000Y-125092544D01*
G75*
G02*
X149517544Y-124825000I267544J0D01*
G01*
X150507456Y-124825000D01*
G75*
G02*
X150775000Y-125092544I0J-267544D01*
G01*
X150775000Y-126407456D01*
G75*
G02*
X150507456Y-126675000I-267544J0D01*
G01*
X149517544Y-126675000D01*
G75*
G02*
X149250000Y-126407456I0J267544D01*
G01*
G37*
%TD*%
%TO.C,C7*%
G36*
G01*
X168975000Y-126407456D02*
X168975000Y-125092544D01*
G75*
G02*
X169242544Y-124825000I267544J0D01*
G01*
X170232456Y-124825000D01*
G75*
G02*
X170500000Y-125092544I0J-267544D01*
G01*
X170500000Y-126407456D01*
G75*
G02*
X170232456Y-126675000I-267544J0D01*
G01*
X169242544Y-126675000D01*
G75*
G02*
X168975000Y-126407456I0J267544D01*
G01*
G37*
G36*
G01*
X166000000Y-126407456D02*
X166000000Y-125092544D01*
G75*
G02*
X166267544Y-124825000I267544J0D01*
G01*
X167257456Y-124825000D01*
G75*
G02*
X167525000Y-125092544I0J-267544D01*
G01*
X167525000Y-126407456D01*
G75*
G02*
X167257456Y-126675000I-267544J0D01*
G01*
X166267544Y-126675000D01*
G75*
G02*
X166000000Y-126407456I0J267544D01*
G01*
G37*
%TD*%
D14*
%TO.C,J1*%
X123250000Y-105000000D03*
X126750000Y-105000000D03*
%TD*%
%TO.C,C6*%
G36*
G01*
X97525000Y-125092544D02*
X97525000Y-126407456D01*
G75*
G02*
X97257456Y-126675000I-267544J0D01*
G01*
X96267544Y-126675000D01*
G75*
G02*
X96000000Y-126407456I0J267544D01*
G01*
X96000000Y-125092544D01*
G75*
G02*
X96267544Y-124825000I267544J0D01*
G01*
X97257456Y-124825000D01*
G75*
G02*
X97525000Y-125092544I0J-267544D01*
G01*
G37*
G36*
G01*
X100500000Y-125092544D02*
X100500000Y-126407456D01*
G75*
G02*
X100232456Y-126675000I-267544J0D01*
G01*
X99242544Y-126675000D01*
G75*
G02*
X98975000Y-126407456I0J267544D01*
G01*
X98975000Y-125092544D01*
G75*
G02*
X99242544Y-124825000I267544J0D01*
G01*
X100232456Y-124825000D01*
G75*
G02*
X100500000Y-125092544I0J-267544D01*
G01*
G37*
%TD*%
%TO.C,C5*%
G36*
G01*
X81025000Y-125092544D02*
X81025000Y-126407456D01*
G75*
G02*
X80757456Y-126675000I-267544J0D01*
G01*
X79767544Y-126675000D01*
G75*
G02*
X79500000Y-126407456I0J267544D01*
G01*
X79500000Y-125092544D01*
G75*
G02*
X79767544Y-124825000I267544J0D01*
G01*
X80757456Y-124825000D01*
G75*
G02*
X81025000Y-125092544I0J-267544D01*
G01*
G37*
G36*
G01*
X84000000Y-125092544D02*
X84000000Y-126407456D01*
G75*
G02*
X83732456Y-126675000I-267544J0D01*
G01*
X82742544Y-126675000D01*
G75*
G02*
X82475000Y-126407456I0J267544D01*
G01*
X82475000Y-125092544D01*
G75*
G02*
X82742544Y-124825000I267544J0D01*
G01*
X83732456Y-124825000D01*
G75*
G02*
X84000000Y-125092544I0J-267544D01*
G01*
G37*
%TD*%
%TO.C,C4*%
G36*
G01*
X158275000Y-125092544D02*
X158275000Y-126407456D01*
G75*
G02*
X158007456Y-126675000I-267544J0D01*
G01*
X157017544Y-126675000D01*
G75*
G02*
X156750000Y-126407456I0J267544D01*
G01*
X156750000Y-125092544D01*
G75*
G02*
X157017544Y-124825000I267544J0D01*
G01*
X158007456Y-124825000D01*
G75*
G02*
X158275000Y-125092544I0J-267544D01*
G01*
G37*
G36*
G01*
X161250000Y-125092544D02*
X161250000Y-126407456D01*
G75*
G02*
X160982456Y-126675000I-267544J0D01*
G01*
X159992544Y-126675000D01*
G75*
G02*
X159725000Y-126407456I0J267544D01*
G01*
X159725000Y-125092544D01*
G75*
G02*
X159992544Y-124825000I267544J0D01*
G01*
X160982456Y-124825000D01*
G75*
G02*
X161250000Y-125092544I0J-267544D01*
G01*
G37*
%TD*%
%TO.C,C3*%
G36*
G01*
X88275000Y-125092544D02*
X88275000Y-126407456D01*
G75*
G02*
X88007456Y-126675000I-267544J0D01*
G01*
X87017544Y-126675000D01*
G75*
G02*
X86750000Y-126407456I0J267544D01*
G01*
X86750000Y-125092544D01*
G75*
G02*
X87017544Y-124825000I267544J0D01*
G01*
X88007456Y-124825000D01*
G75*
G02*
X88275000Y-125092544I0J-267544D01*
G01*
G37*
G36*
G01*
X91250000Y-125092544D02*
X91250000Y-126407456D01*
G75*
G02*
X90982456Y-126675000I-267544J0D01*
G01*
X89992544Y-126675000D01*
G75*
G02*
X89725000Y-126407456I0J267544D01*
G01*
X89725000Y-125092544D01*
G75*
G02*
X89992544Y-124825000I267544J0D01*
G01*
X90982456Y-124825000D01*
G75*
G02*
X91250000Y-125092544I0J-267544D01*
G01*
G37*
%TD*%
%TO.C,C2*%
G36*
G01*
X160275000Y-115092544D02*
X160275000Y-116407456D01*
G75*
G02*
X160007456Y-116675000I-267544J0D01*
G01*
X159017544Y-116675000D01*
G75*
G02*
X158750000Y-116407456I0J267544D01*
G01*
X158750000Y-115092544D01*
G75*
G02*
X159017544Y-114825000I267544J0D01*
G01*
X160007456Y-114825000D01*
G75*
G02*
X160275000Y-115092544I0J-267544D01*
G01*
G37*
G36*
G01*
X163250000Y-115092544D02*
X163250000Y-116407456D01*
G75*
G02*
X162982456Y-116675000I-267544J0D01*
G01*
X161992544Y-116675000D01*
G75*
G02*
X161725000Y-116407456I0J267544D01*
G01*
X161725000Y-115092544D01*
G75*
G02*
X161992544Y-114825000I267544J0D01*
G01*
X162982456Y-114825000D01*
G75*
G02*
X163250000Y-115092544I0J-267544D01*
G01*
G37*
%TD*%
%TO.C,C1*%
G36*
G01*
X90275000Y-115092544D02*
X90275000Y-116407456D01*
G75*
G02*
X90007456Y-116675000I-267544J0D01*
G01*
X89017544Y-116675000D01*
G75*
G02*
X88750000Y-116407456I0J267544D01*
G01*
X88750000Y-115092544D01*
G75*
G02*
X89017544Y-114825000I267544J0D01*
G01*
X90007456Y-114825000D01*
G75*
G02*
X90275000Y-115092544I0J-267544D01*
G01*
G37*
G36*
G01*
X93250000Y-115092544D02*
X93250000Y-116407456D01*
G75*
G02*
X92982456Y-116675000I-267544J0D01*
G01*
X91992544Y-116675000D01*
G75*
G02*
X91725000Y-116407456I0J267544D01*
G01*
X91725000Y-115092544D01*
G75*
G02*
X91992544Y-114825000I267544J0D01*
G01*
X92982456Y-114825000D01*
G75*
G02*
X93250000Y-115092544I0J-267544D01*
G01*
G37*
%TD*%
%TO.C,U1*%
G36*
G01*
X91450000Y-119020000D02*
X91450000Y-118670000D01*
G75*
G02*
X91625000Y-118495000I175000J0D01*
G01*
X93325000Y-118495000D01*
G75*
G02*
X93500000Y-118670000I0J-175000D01*
G01*
X93500000Y-119020000D01*
G75*
G02*
X93325000Y-119195000I-175000J0D01*
G01*
X91625000Y-119195000D01*
G75*
G02*
X91450000Y-119020000I0J175000D01*
G01*
G37*
G36*
G01*
X91450000Y-120290000D02*
X91450000Y-119940000D01*
G75*
G02*
X91625000Y-119765000I175000J0D01*
G01*
X93325000Y-119765000D01*
G75*
G02*
X93500000Y-119940000I0J-175000D01*
G01*
X93500000Y-120290000D01*
G75*
G02*
X93325000Y-120465000I-175000J0D01*
G01*
X91625000Y-120465000D01*
G75*
G02*
X91450000Y-120290000I0J175000D01*
G01*
G37*
G36*
G01*
X91450000Y-121560000D02*
X91450000Y-121210000D01*
G75*
G02*
X91625000Y-121035000I175000J0D01*
G01*
X93325000Y-121035000D01*
G75*
G02*
X93500000Y-121210000I0J-175000D01*
G01*
X93500000Y-121560000D01*
G75*
G02*
X93325000Y-121735000I-175000J0D01*
G01*
X91625000Y-121735000D01*
G75*
G02*
X91450000Y-121560000I0J175000D01*
G01*
G37*
G36*
G01*
X91450000Y-122830000D02*
X91450000Y-122480000D01*
G75*
G02*
X91625000Y-122305000I175000J0D01*
G01*
X93325000Y-122305000D01*
G75*
G02*
X93500000Y-122480000I0J-175000D01*
G01*
X93500000Y-122830000D01*
G75*
G02*
X93325000Y-123005000I-175000J0D01*
G01*
X91625000Y-123005000D01*
G75*
G02*
X91450000Y-122830000I0J175000D01*
G01*
G37*
G36*
G01*
X86500000Y-122830000D02*
X86500000Y-122480000D01*
G75*
G02*
X86675000Y-122305000I175000J0D01*
G01*
X88375000Y-122305000D01*
G75*
G02*
X88550000Y-122480000I0J-175000D01*
G01*
X88550000Y-122830000D01*
G75*
G02*
X88375000Y-123005000I-175000J0D01*
G01*
X86675000Y-123005000D01*
G75*
G02*
X86500000Y-122830000I0J175000D01*
G01*
G37*
G36*
G01*
X86500000Y-121560000D02*
X86500000Y-121210000D01*
G75*
G02*
X86675000Y-121035000I175000J0D01*
G01*
X88375000Y-121035000D01*
G75*
G02*
X88550000Y-121210000I0J-175000D01*
G01*
X88550000Y-121560000D01*
G75*
G02*
X88375000Y-121735000I-175000J0D01*
G01*
X86675000Y-121735000D01*
G75*
G02*
X86500000Y-121560000I0J175000D01*
G01*
G37*
G36*
G01*
X86500000Y-120290000D02*
X86500000Y-119940000D01*
G75*
G02*
X86675000Y-119765000I175000J0D01*
G01*
X88375000Y-119765000D01*
G75*
G02*
X88550000Y-119940000I0J-175000D01*
G01*
X88550000Y-120290000D01*
G75*
G02*
X88375000Y-120465000I-175000J0D01*
G01*
X86675000Y-120465000D01*
G75*
G02*
X86500000Y-120290000I0J175000D01*
G01*
G37*
G36*
G01*
X86500000Y-119020000D02*
X86500000Y-118670000D01*
G75*
G02*
X86675000Y-118495000I175000J0D01*
G01*
X88375000Y-118495000D01*
G75*
G02*
X88550000Y-118670000I0J-175000D01*
G01*
X88550000Y-119020000D01*
G75*
G02*
X88375000Y-119195000I-175000J0D01*
G01*
X86675000Y-119195000D01*
G75*
G02*
X86500000Y-119020000I0J175000D01*
G01*
G37*
%TD*%
%TO.C,R8*%
G36*
G01*
X93905000Y-130525000D02*
X92595000Y-130525000D01*
G75*
G02*
X92325000Y-130255000I0J270000D01*
G01*
X92325000Y-129445000D01*
G75*
G02*
X92595000Y-129175000I270000J0D01*
G01*
X93905000Y-129175000D01*
G75*
G02*
X94175000Y-129445000I0J-270000D01*
G01*
X94175000Y-130255000D01*
G75*
G02*
X93905000Y-130525000I-270000J0D01*
G01*
G37*
G36*
G01*
X93905000Y-133325000D02*
X92595000Y-133325000D01*
G75*
G02*
X92325000Y-133055000I0J270000D01*
G01*
X92325000Y-132245000D01*
G75*
G02*
X92595000Y-131975000I270000J0D01*
G01*
X93905000Y-131975000D01*
G75*
G02*
X94175000Y-132245000I0J-270000D01*
G01*
X94175000Y-133055000D01*
G75*
G02*
X93905000Y-133325000I-270000J0D01*
G01*
G37*
%TD*%
%TO.C,R7*%
G36*
G01*
X86095000Y-131975000D02*
X87405000Y-131975000D01*
G75*
G02*
X87675000Y-132245000I0J-270000D01*
G01*
X87675000Y-133055000D01*
G75*
G02*
X87405000Y-133325000I-270000J0D01*
G01*
X86095000Y-133325000D01*
G75*
G02*
X85825000Y-133055000I0J270000D01*
G01*
X85825000Y-132245000D01*
G75*
G02*
X86095000Y-131975000I270000J0D01*
G01*
G37*
G36*
G01*
X86095000Y-129175000D02*
X87405000Y-129175000D01*
G75*
G02*
X87675000Y-129445000I0J-270000D01*
G01*
X87675000Y-130255000D01*
G75*
G02*
X87405000Y-130525000I-270000J0D01*
G01*
X86095000Y-130525000D01*
G75*
G02*
X85825000Y-130255000I0J270000D01*
G01*
X85825000Y-129445000D01*
G75*
G02*
X86095000Y-129175000I270000J0D01*
G01*
G37*
%TD*%
%TO.C,R5*%
G36*
G01*
X90655000Y-130525000D02*
X89345000Y-130525000D01*
G75*
G02*
X89075000Y-130255000I0J270000D01*
G01*
X89075000Y-129445000D01*
G75*
G02*
X89345000Y-129175000I270000J0D01*
G01*
X90655000Y-129175000D01*
G75*
G02*
X90925000Y-129445000I0J-270000D01*
G01*
X90925000Y-130255000D01*
G75*
G02*
X90655000Y-130525000I-270000J0D01*
G01*
G37*
G36*
G01*
X90655000Y-133325000D02*
X89345000Y-133325000D01*
G75*
G02*
X89075000Y-133055000I0J270000D01*
G01*
X89075000Y-132245000D01*
G75*
G02*
X89345000Y-131975000I270000J0D01*
G01*
X90655000Y-131975000D01*
G75*
G02*
X90925000Y-132245000I0J-270000D01*
G01*
X90925000Y-133055000D01*
G75*
G02*
X90655000Y-133325000I-270000J0D01*
G01*
G37*
%TD*%
%TO.C,R2*%
G36*
G01*
X98975000Y-129405000D02*
X98975000Y-128095000D01*
G75*
G02*
X99245000Y-127825000I270000J0D01*
G01*
X100055000Y-127825000D01*
G75*
G02*
X100325000Y-128095000I0J-270000D01*
G01*
X100325000Y-129405000D01*
G75*
G02*
X100055000Y-129675000I-270000J0D01*
G01*
X99245000Y-129675000D01*
G75*
G02*
X98975000Y-129405000I0J270000D01*
G01*
G37*
G36*
G01*
X96175000Y-129405000D02*
X96175000Y-128095000D01*
G75*
G02*
X96445000Y-127825000I270000J0D01*
G01*
X97255000Y-127825000D01*
G75*
G02*
X97525000Y-128095000I0J-270000D01*
G01*
X97525000Y-129405000D01*
G75*
G02*
X97255000Y-129675000I-270000J0D01*
G01*
X96445000Y-129675000D01*
G75*
G02*
X96175000Y-129405000I0J270000D01*
G01*
G37*
%TD*%
%TO.C,R1*%
G36*
G01*
X81025000Y-128095000D02*
X81025000Y-129405000D01*
G75*
G02*
X80755000Y-129675000I-270000J0D01*
G01*
X79945000Y-129675000D01*
G75*
G02*
X79675000Y-129405000I0J270000D01*
G01*
X79675000Y-128095000D01*
G75*
G02*
X79945000Y-127825000I270000J0D01*
G01*
X80755000Y-127825000D01*
G75*
G02*
X81025000Y-128095000I0J-270000D01*
G01*
G37*
G36*
G01*
X83825000Y-128095000D02*
X83825000Y-129405000D01*
G75*
G02*
X83555000Y-129675000I-270000J0D01*
G01*
X82745000Y-129675000D01*
G75*
G02*
X82475000Y-129405000I0J270000D01*
G01*
X82475000Y-128095000D01*
G75*
G02*
X82745000Y-127825000I270000J0D01*
G01*
X83555000Y-127825000D01*
G75*
G02*
X83825000Y-128095000I0J-270000D01*
G01*
G37*
%TD*%
D18*
%TO.C,H2*%
X172856155Y-102143845D03*
X171000000Y-101375000D03*
X169143845Y-102143845D03*
X168375000Y-104000000D03*
X169143845Y-105856155D03*
X171000000Y-106625000D03*
X172856155Y-105856155D03*
X173625000Y-104000000D03*
D19*
X171000000Y-104000000D03*
%TD*%
D18*
%TO.C,H1*%
X80856155Y-102143845D03*
X79000000Y-101375000D03*
X77143845Y-102143845D03*
X76375000Y-104000000D03*
X77143845Y-105856155D03*
X79000000Y-106625000D03*
X80856155Y-105856155D03*
X81625000Y-104000000D03*
D19*
X79000000Y-104000000D03*
%TD*%
D15*
%TO.C,J2*%
X98250000Y-148260000D03*
D16*
X86190000Y-146350000D03*
X93810000Y-151430000D03*
D15*
X90000000Y-138090000D03*
D17*
X86190000Y-141905000D03*
X93810000Y-142540000D03*
%TD*%
M02*
