%TF.GenerationSoftware,KiCad,Pcbnew,(5.1.6-0)*%
%TF.CreationDate,2024-01-05T21:51:17-08:00*%
%TF.ProjectId,input_buffer_bal_XLR_SMD_1206,696e7075-745f-4627-9566-6665725f6261,rev?*%
%TF.SameCoordinates,Original*%
%TF.FileFunction,Copper,L2,Bot*%
%TF.FilePolarity,Positive*%
%FSLAX46Y46*%
G04 Gerber Fmt 4.6, Leading zero omitted, Abs format (unit mm)*
G04 Created by KiCad (PCBNEW (5.1.6-0)) date 2024-01-05 21:51:17*
%MOMM*%
%LPD*%
G01*
G04 APERTURE LIST*
%TA.AperFunction,ComponentPad*%
%ADD10C,2.000000*%
%TD*%
%TA.AperFunction,ComponentPad*%
%ADD11O,1.700000X1.700000*%
%TD*%
%TA.AperFunction,ComponentPad*%
%ADD12R,1.700000X1.700000*%
%TD*%
%TA.AperFunction,ComponentPad*%
%ADD13C,2.900000*%
%TD*%
%TA.AperFunction,ComponentPad*%
%ADD14C,3.400000*%
%TD*%
%TA.AperFunction,ComponentPad*%
%ADD15C,0.800000*%
%TD*%
%TA.AperFunction,ComponentPad*%
%ADD16C,7.000000*%
%TD*%
%TA.AperFunction,ViaPad*%
%ADD17C,0.700000*%
%TD*%
%TA.AperFunction,Conductor*%
%ADD18C,0.300000*%
%TD*%
G04 APERTURE END LIST*
D10*
%TO.P,J7,3*%
%TO.N,GND*%
X141500000Y-103500000D03*
%TO.P,J7,2*%
%TO.N,Net-(J5-Pad2)*%
X145000000Y-103500000D03*
%TO.P,J7,1*%
%TO.N,Net-(J7-Pad1)*%
X148500000Y-103500000D03*
%TD*%
%TO.P,J6,3*%
%TO.N,GND*%
X101500000Y-103500000D03*
%TO.P,J6,2*%
%TO.N,Net-(J4-Pad2)*%
X105000000Y-103500000D03*
%TO.P,J6,1*%
%TO.N,Net-(J6-Pad1)*%
X108500000Y-103500000D03*
%TD*%
D11*
%TO.P,J5,3*%
%TO.N,Net-(J5-Pad3)*%
X140000000Y-115830000D03*
%TO.P,J5,2*%
%TO.N,Net-(J5-Pad2)*%
X140000000Y-113290000D03*
D12*
%TO.P,J5,1*%
%TO.N,Net-(J5-Pad1)*%
X140000000Y-110750000D03*
%TD*%
D11*
%TO.P,J4,3*%
%TO.N,Net-(J4-Pad3)*%
X100000000Y-115830000D03*
%TO.P,J4,2*%
%TO.N,Net-(J4-Pad2)*%
X100000000Y-113290000D03*
D12*
%TO.P,J4,1*%
%TO.N,Net-(J4-Pad1)*%
X100000000Y-110750000D03*
%TD*%
D13*
%TO.P,J2,G*%
%TO.N,GND*%
X153250000Y-148010000D03*
%TO.P,J2,3*%
%TO.N,Net-(J2-Pad3)*%
X145000000Y-137840000D03*
D14*
%TO.P,J2,2*%
%TO.N,Net-(J2-Pad2)*%
X141190000Y-141655000D03*
%TO.P,J2,1*%
%TO.N,GND*%
X148810000Y-142290000D03*
%TD*%
D10*
%TO.P,J3,2*%
%TO.N,-15V*%
X123250000Y-103500000D03*
%TO.P,J3,1*%
%TO.N,+15V*%
X126750000Y-103500000D03*
%TD*%
D15*
%TO.P,H2,1*%
%TO.N,N/C*%
X158106155Y-101893845D03*
X156250000Y-101125000D03*
X154393845Y-101893845D03*
X153625000Y-103750000D03*
X154393845Y-105606155D03*
X156250000Y-106375000D03*
X158106155Y-105606155D03*
X158875000Y-103750000D03*
D16*
X156250000Y-103750000D03*
%TD*%
D15*
%TO.P,H1,1*%
%TO.N,N/C*%
X95606155Y-101893845D03*
X93750000Y-101125000D03*
X91893845Y-101893845D03*
X91125000Y-103750000D03*
X91893845Y-105606155D03*
X93750000Y-106375000D03*
X95606155Y-105606155D03*
X96375000Y-103750000D03*
D16*
X93750000Y-103750000D03*
%TD*%
D13*
%TO.P,J1,G*%
%TO.N,GND*%
X113250000Y-148010000D03*
%TO.P,J1,3*%
%TO.N,Net-(J1-Pad3)*%
X105000000Y-137840000D03*
D14*
%TO.P,J1,2*%
%TO.N,Net-(J1-Pad2)*%
X101190000Y-141655000D03*
%TO.P,J1,1*%
%TO.N,GND*%
X108810000Y-142290000D03*
%TD*%
D17*
%TO.N,GND*%
X104500000Y-118000000D03*
X116250000Y-123750000D03*
X105000000Y-128750000D03*
X93750000Y-123750000D03*
X105500000Y-124500000D03*
X133750000Y-123750000D03*
X156250000Y-123750000D03*
X145500000Y-124500000D03*
X145000000Y-128750000D03*
X144500000Y-118000000D03*
X92000000Y-109000000D03*
X100750000Y-124500000D03*
X109250000Y-117500000D03*
X110500000Y-119000000D03*
X140750000Y-124500000D03*
X139500000Y-128000000D03*
X150750000Y-116750000D03*
X149750000Y-118750000D03*
X91651191Y-116492500D03*
X91651191Y-122492500D03*
X91651191Y-128492500D03*
X91651191Y-134492500D03*
X91651191Y-140492500D03*
X91651191Y-146492500D03*
X91651191Y-152492500D03*
X94651191Y-113492500D03*
X94651191Y-137492500D03*
X94651191Y-143492500D03*
X94651191Y-149492500D03*
X95651191Y-118492500D03*
X96651191Y-109492500D03*
X96651191Y-129492500D03*
X96651191Y-153492500D03*
X97651191Y-134492500D03*
X97651191Y-140492500D03*
X97651191Y-146492500D03*
X99651191Y-150492500D03*
X100651191Y-137492500D03*
X101651191Y-117492500D03*
X102651191Y-108492500D03*
X102651191Y-128492500D03*
X102651191Y-144492500D03*
X102651191Y-153492500D03*
X103651191Y-101492500D03*
X103651191Y-134492500D03*
X105000000Y-121250000D03*
X104651191Y-140492500D03*
X104651191Y-148492500D03*
X107651191Y-124492500D03*
X107651191Y-136492500D03*
X107651191Y-145492500D03*
X108651191Y-106492500D03*
X108651191Y-153492500D03*
X109651191Y-111492500D03*
X110651191Y-101492500D03*
X110651191Y-128492500D03*
X110651191Y-139492500D03*
X110651191Y-149492500D03*
X111651191Y-133492500D03*
X112651191Y-108492500D03*
X113000000Y-115000000D03*
X112651191Y-143492500D03*
X113651191Y-152492500D03*
X114651191Y-103492500D03*
X114651191Y-118492500D03*
X114651191Y-136492500D03*
X115651191Y-111492500D03*
X115651191Y-129492500D03*
X116651191Y-140492500D03*
X116651191Y-146492500D03*
X117651191Y-106492500D03*
X117651191Y-121492500D03*
X117651191Y-133492500D03*
X118651191Y-101492500D03*
X118651191Y-116492500D03*
X118651191Y-126492500D03*
X118651191Y-150492500D03*
X119651191Y-137492500D03*
X119651191Y-143492500D03*
X120651191Y-109492500D03*
X120651191Y-130492500D03*
X121651191Y-119492500D03*
X121651191Y-147492500D03*
X121651191Y-153492500D03*
X122651191Y-113492500D03*
X122651191Y-124492500D03*
X122651191Y-134492500D03*
X122651191Y-140492500D03*
X124651191Y-101492500D03*
X124651191Y-128492500D03*
X124651191Y-144492500D03*
X124651191Y-150492500D03*
X125651191Y-110492500D03*
X125651191Y-116492500D03*
X125651191Y-137492500D03*
X126651191Y-121492500D03*
X126651191Y-132492500D03*
X127250000Y-107750000D03*
X127651191Y-141492500D03*
X127651191Y-147492500D03*
X127651191Y-153492500D03*
X129651191Y-102492500D03*
X129651191Y-112492500D03*
X129651191Y-118492500D03*
X129651191Y-124492500D03*
X129651191Y-135492500D03*
X130651191Y-144492500D03*
X130651191Y-150492500D03*
X131651191Y-108492500D03*
X131651191Y-139492500D03*
X132651191Y-115492500D03*
X132651191Y-121492500D03*
X132651191Y-127492500D03*
X133651191Y-104492500D03*
X133651191Y-133492500D03*
X133651191Y-147492500D03*
X133651191Y-153492500D03*
X134651191Y-111492500D03*
X134651191Y-142492500D03*
X135651191Y-118492500D03*
X136651191Y-101492500D03*
X136651191Y-107492500D03*
X136651191Y-130000000D03*
X136651191Y-150492500D03*
X137651191Y-135492500D03*
X137651191Y-145492500D03*
X139651191Y-153492500D03*
X140651191Y-138492500D03*
X140651191Y-148492500D03*
X141651191Y-108492500D03*
X141651191Y-117492500D03*
X142651191Y-128492500D03*
X142651191Y-134492500D03*
X142651191Y-144492500D03*
X143651191Y-101492500D03*
X143651191Y-151492500D03*
X145000000Y-121250000D03*
X144651191Y-140492500D03*
X145651191Y-106492500D03*
X145651191Y-147492500D03*
X147651191Y-124492500D03*
X147651191Y-135492500D03*
X147651191Y-153492500D03*
X149651191Y-108492500D03*
X149651191Y-145492500D03*
X150651191Y-128492500D03*
X150651191Y-139492500D03*
X151651191Y-133492500D03*
X151651191Y-151492500D03*
X152651191Y-114750000D03*
X153651191Y-110492500D03*
X153651191Y-142492500D03*
X154651191Y-136492500D03*
X155651191Y-118492500D03*
X155651191Y-129492500D03*
X155651191Y-153492500D03*
X156651191Y-113492500D03*
X156651191Y-145492500D03*
X157651191Y-108492500D03*
X157651191Y-122492500D03*
X157651191Y-133492500D03*
X157651191Y-139492500D03*
X158651191Y-149492500D03*
X99250000Y-131500000D03*
X94000000Y-133000000D03*
X136750000Y-132750000D03*
X134250000Y-130000000D03*
X150750000Y-112750000D03*
X110500000Y-115000000D03*
X149000000Y-114750000D03*
X99500000Y-128000000D03*
X96750000Y-132750000D03*
X94250000Y-130250000D03*
X139000000Y-131500000D03*
X123250000Y-107500000D03*
X108500000Y-127250000D03*
X148250000Y-127500000D03*
%TO.N,+15V*%
X111050000Y-116250000D03*
X112650000Y-116250000D03*
X150309314Y-115190686D03*
X151440686Y-114059314D03*
%TO.N,-15V*%
X99440686Y-129309314D03*
X98309314Y-130440686D03*
X96150000Y-131500000D03*
X94550000Y-131500000D03*
X139440686Y-129309314D03*
X138309314Y-130440686D03*
X136150000Y-131250000D03*
X134550000Y-131250000D03*
X124809314Y-107309314D03*
X125940686Y-108440686D03*
%TD*%
D18*
%TO.N,+15V*%
X111050000Y-116250000D02*
X112650000Y-116250000D01*
X150309314Y-115190686D02*
X151440686Y-114059314D01*
%TO.N,-15V*%
X99440686Y-129309314D02*
X98309314Y-130440686D01*
X96150000Y-131500000D02*
X94550000Y-131500000D01*
X139440686Y-129309314D02*
X138309314Y-130440686D01*
X136150000Y-131250000D02*
X134550000Y-131250000D01*
X124809314Y-107309314D02*
X125940686Y-108440686D01*
%TD*%
%TO.N,GND*%
G36*
X153732022Y-100681835D02*
G01*
X153181835Y-101232022D01*
X152749556Y-101878974D01*
X152451797Y-102597828D01*
X152300000Y-103360959D01*
X152300000Y-104139041D01*
X152451797Y-104902172D01*
X152749556Y-105621026D01*
X153181835Y-106267978D01*
X153732022Y-106818165D01*
X154378974Y-107250444D01*
X155097828Y-107548203D01*
X155860959Y-107700000D01*
X156639041Y-107700000D01*
X157402172Y-107548203D01*
X158121026Y-107250444D01*
X158767978Y-106818165D01*
X159318165Y-106267978D01*
X159525001Y-105958426D01*
X159525000Y-152226769D01*
X159484200Y-152642881D01*
X159370099Y-153020801D01*
X159184769Y-153369356D01*
X158935263Y-153675281D01*
X158631093Y-153926912D01*
X158283834Y-154114674D01*
X157906727Y-154231408D01*
X157491978Y-154275000D01*
X92523231Y-154275000D01*
X92107119Y-154234200D01*
X91729199Y-154120099D01*
X91380644Y-153934769D01*
X91074719Y-153685263D01*
X90823088Y-153381093D01*
X90635326Y-153033834D01*
X90518592Y-152656727D01*
X90475000Y-152241978D01*
X90475000Y-151056886D01*
X107560000Y-151056886D01*
X107560000Y-151303114D01*
X107608037Y-151544611D01*
X107702265Y-151772097D01*
X107839062Y-151976828D01*
X108013172Y-152150938D01*
X108217903Y-152287735D01*
X108445389Y-152381963D01*
X108686886Y-152430000D01*
X108933114Y-152430000D01*
X109174611Y-152381963D01*
X109402097Y-152287735D01*
X109606828Y-152150938D01*
X109780938Y-151976828D01*
X109917735Y-151772097D01*
X110011963Y-151544611D01*
X110060000Y-151303114D01*
X110060000Y-151056886D01*
X147560000Y-151056886D01*
X147560000Y-151303114D01*
X147608037Y-151544611D01*
X147702265Y-151772097D01*
X147839062Y-151976828D01*
X148013172Y-152150938D01*
X148217903Y-152287735D01*
X148445389Y-152381963D01*
X148686886Y-152430000D01*
X148933114Y-152430000D01*
X149174611Y-152381963D01*
X149402097Y-152287735D01*
X149606828Y-152150938D01*
X149780938Y-151976828D01*
X149917735Y-151772097D01*
X150011963Y-151544611D01*
X150060000Y-151303114D01*
X150060000Y-151056886D01*
X150011963Y-150815389D01*
X149917735Y-150587903D01*
X149780938Y-150383172D01*
X149606828Y-150209062D01*
X149402097Y-150072265D01*
X149174611Y-149978037D01*
X148933114Y-149930000D01*
X148686886Y-149930000D01*
X148445389Y-149978037D01*
X148217903Y-150072265D01*
X148013172Y-150209062D01*
X147839062Y-150383172D01*
X147702265Y-150587903D01*
X147608037Y-150815389D01*
X147560000Y-151056886D01*
X110060000Y-151056886D01*
X110011963Y-150815389D01*
X109917735Y-150587903D01*
X109780938Y-150383172D01*
X109606828Y-150209062D01*
X109402097Y-150072265D01*
X109174611Y-149978037D01*
X108933114Y-149930000D01*
X108686886Y-149930000D01*
X108445389Y-149978037D01*
X108217903Y-150072265D01*
X108013172Y-150209062D01*
X107839062Y-150383172D01*
X107702265Y-150587903D01*
X107608037Y-150815389D01*
X107560000Y-151056886D01*
X90475000Y-151056886D01*
X90475000Y-149456098D01*
X111945323Y-149456098D01*
X112091974Y-149774016D01*
X112458368Y-149966040D01*
X112855183Y-150082896D01*
X113267171Y-150120090D01*
X113678500Y-150076196D01*
X114073361Y-149952898D01*
X114408026Y-149774016D01*
X114554677Y-149456098D01*
X151945323Y-149456098D01*
X152091974Y-149774016D01*
X152458368Y-149966040D01*
X152855183Y-150082896D01*
X153267171Y-150120090D01*
X153678500Y-150076196D01*
X154073361Y-149952898D01*
X154408026Y-149774016D01*
X154554677Y-149456098D01*
X153250000Y-148151421D01*
X151945323Y-149456098D01*
X114554677Y-149456098D01*
X113250000Y-148151421D01*
X111945323Y-149456098D01*
X90475000Y-149456098D01*
X90475000Y-148027171D01*
X111139910Y-148027171D01*
X111183804Y-148438500D01*
X111307102Y-148833361D01*
X111485984Y-149168026D01*
X111803902Y-149314677D01*
X113108579Y-148010000D01*
X113391421Y-148010000D01*
X114696098Y-149314677D01*
X115014016Y-149168026D01*
X115206040Y-148801632D01*
X115322896Y-148404817D01*
X115356989Y-148027171D01*
X151139910Y-148027171D01*
X151183804Y-148438500D01*
X151307102Y-148833361D01*
X151485984Y-149168026D01*
X151803902Y-149314677D01*
X153108579Y-148010000D01*
X153391421Y-148010000D01*
X154696098Y-149314677D01*
X155014016Y-149168026D01*
X155206040Y-148801632D01*
X155322896Y-148404817D01*
X155360090Y-147992829D01*
X155316196Y-147581500D01*
X155192898Y-147186639D01*
X155014016Y-146851974D01*
X154696098Y-146705323D01*
X153391421Y-148010000D01*
X153108579Y-148010000D01*
X151803902Y-146705323D01*
X151485984Y-146851974D01*
X151293960Y-147218368D01*
X151177104Y-147615183D01*
X151139910Y-148027171D01*
X115356989Y-148027171D01*
X115360090Y-147992829D01*
X115316196Y-147581500D01*
X115192898Y-147186639D01*
X115014016Y-146851974D01*
X114696098Y-146705323D01*
X113391421Y-148010000D01*
X113108579Y-148010000D01*
X111803902Y-146705323D01*
X111485984Y-146851974D01*
X111293960Y-147218368D01*
X111177104Y-147615183D01*
X111139910Y-148027171D01*
X90475000Y-148027171D01*
X90475000Y-145976886D01*
X99940000Y-145976886D01*
X99940000Y-146223114D01*
X99988037Y-146464611D01*
X100082265Y-146692097D01*
X100219062Y-146896828D01*
X100393172Y-147070938D01*
X100597903Y-147207735D01*
X100825389Y-147301963D01*
X101066886Y-147350000D01*
X101313114Y-147350000D01*
X101554611Y-147301963D01*
X101782097Y-147207735D01*
X101986828Y-147070938D01*
X102160938Y-146896828D01*
X102297735Y-146692097D01*
X102350835Y-146563902D01*
X111945323Y-146563902D01*
X113250000Y-147868579D01*
X114554677Y-146563902D01*
X114408026Y-146245984D01*
X114041632Y-146053960D01*
X113779908Y-145976886D01*
X139940000Y-145976886D01*
X139940000Y-146223114D01*
X139988037Y-146464611D01*
X140082265Y-146692097D01*
X140219062Y-146896828D01*
X140393172Y-147070938D01*
X140597903Y-147207735D01*
X140825389Y-147301963D01*
X141066886Y-147350000D01*
X141313114Y-147350000D01*
X141554611Y-147301963D01*
X141782097Y-147207735D01*
X141986828Y-147070938D01*
X142160938Y-146896828D01*
X142297735Y-146692097D01*
X142350835Y-146563902D01*
X151945323Y-146563902D01*
X153250000Y-147868579D01*
X154554677Y-146563902D01*
X154408026Y-146245984D01*
X154041632Y-146053960D01*
X153644817Y-145937104D01*
X153232829Y-145899910D01*
X152821500Y-145943804D01*
X152426639Y-146067102D01*
X152091974Y-146245984D01*
X151945323Y-146563902D01*
X142350835Y-146563902D01*
X142391963Y-146464611D01*
X142440000Y-146223114D01*
X142440000Y-145976886D01*
X142391963Y-145735389D01*
X142297735Y-145507903D01*
X142160938Y-145303172D01*
X141986828Y-145129062D01*
X141782097Y-144992265D01*
X141554611Y-144898037D01*
X141313114Y-144850000D01*
X141066886Y-144850000D01*
X140825389Y-144898037D01*
X140597903Y-144992265D01*
X140393172Y-145129062D01*
X140219062Y-145303172D01*
X140082265Y-145507903D01*
X139988037Y-145735389D01*
X139940000Y-145976886D01*
X113779908Y-145976886D01*
X113644817Y-145937104D01*
X113232829Y-145899910D01*
X112821500Y-145943804D01*
X112426639Y-146067102D01*
X112091974Y-146245984D01*
X111945323Y-146563902D01*
X102350835Y-146563902D01*
X102391963Y-146464611D01*
X102440000Y-146223114D01*
X102440000Y-145976886D01*
X102391963Y-145735389D01*
X102297735Y-145507903D01*
X102160938Y-145303172D01*
X101986828Y-145129062D01*
X101782097Y-144992265D01*
X101554611Y-144898037D01*
X101313114Y-144850000D01*
X101066886Y-144850000D01*
X100825389Y-144898037D01*
X100597903Y-144992265D01*
X100393172Y-145129062D01*
X100219062Y-145303172D01*
X100082265Y-145507903D01*
X99988037Y-145735389D01*
X99940000Y-145976886D01*
X90475000Y-145976886D01*
X90475000Y-143913939D01*
X107327483Y-143913939D01*
X107504168Y-144257454D01*
X107913089Y-144474405D01*
X108356479Y-144607410D01*
X108817298Y-144651360D01*
X109277836Y-144604563D01*
X109720395Y-144468819D01*
X110115832Y-144257454D01*
X110292517Y-143913939D01*
X147327483Y-143913939D01*
X147504168Y-144257454D01*
X147913089Y-144474405D01*
X148356479Y-144607410D01*
X148817298Y-144651360D01*
X149277836Y-144604563D01*
X149720395Y-144468819D01*
X150115832Y-144257454D01*
X150292517Y-143913939D01*
X148810000Y-142431421D01*
X147327483Y-143913939D01*
X110292517Y-143913939D01*
X108810000Y-142431421D01*
X107327483Y-143913939D01*
X90475000Y-143913939D01*
X90475000Y-141443243D01*
X99040000Y-141443243D01*
X99040000Y-141866757D01*
X99122623Y-142282132D01*
X99284695Y-142673407D01*
X99519986Y-143025545D01*
X99819455Y-143325014D01*
X100171593Y-143560305D01*
X100562868Y-143722377D01*
X100978243Y-143805000D01*
X101401757Y-143805000D01*
X101817132Y-143722377D01*
X102208407Y-143560305D01*
X102560545Y-143325014D01*
X102860014Y-143025545D01*
X103095305Y-142673407D01*
X103251095Y-142297298D01*
X106448640Y-142297298D01*
X106495437Y-142757836D01*
X106631181Y-143200395D01*
X106842546Y-143595832D01*
X107186061Y-143772517D01*
X108668579Y-142290000D01*
X108951421Y-142290000D01*
X110433939Y-143772517D01*
X110777454Y-143595832D01*
X110994405Y-143186911D01*
X111127410Y-142743521D01*
X111171360Y-142282702D01*
X111124563Y-141822164D01*
X111008339Y-141443243D01*
X139040000Y-141443243D01*
X139040000Y-141866757D01*
X139122623Y-142282132D01*
X139284695Y-142673407D01*
X139519986Y-143025545D01*
X139819455Y-143325014D01*
X140171593Y-143560305D01*
X140562868Y-143722377D01*
X140978243Y-143805000D01*
X141401757Y-143805000D01*
X141817132Y-143722377D01*
X142208407Y-143560305D01*
X142560545Y-143325014D01*
X142860014Y-143025545D01*
X143095305Y-142673407D01*
X143251095Y-142297298D01*
X146448640Y-142297298D01*
X146495437Y-142757836D01*
X146631181Y-143200395D01*
X146842546Y-143595832D01*
X147186061Y-143772517D01*
X148668579Y-142290000D01*
X148951421Y-142290000D01*
X150433939Y-143772517D01*
X150777454Y-143595832D01*
X150994405Y-143186911D01*
X151127410Y-142743521D01*
X151171360Y-142282702D01*
X151124563Y-141822164D01*
X150988819Y-141379605D01*
X150777454Y-140984168D01*
X150433939Y-140807483D01*
X148951421Y-142290000D01*
X148668579Y-142290000D01*
X147186061Y-140807483D01*
X146842546Y-140984168D01*
X146625595Y-141393089D01*
X146492590Y-141836479D01*
X146448640Y-142297298D01*
X143251095Y-142297298D01*
X143257377Y-142282132D01*
X143340000Y-141866757D01*
X143340000Y-141443243D01*
X143257377Y-141027868D01*
X143107512Y-140666061D01*
X147327483Y-140666061D01*
X148810000Y-142148579D01*
X150292517Y-140666061D01*
X150115832Y-140322546D01*
X149706911Y-140105595D01*
X149263521Y-139972590D01*
X148802702Y-139928640D01*
X148342164Y-139975437D01*
X147899605Y-140111181D01*
X147504168Y-140322546D01*
X147327483Y-140666061D01*
X143107512Y-140666061D01*
X143095305Y-140636593D01*
X142860014Y-140284455D01*
X142560545Y-139984986D01*
X142208407Y-139749695D01*
X141817132Y-139587623D01*
X141401757Y-139505000D01*
X140978243Y-139505000D01*
X140562868Y-139587623D01*
X140171593Y-139749695D01*
X139819455Y-139984986D01*
X139519986Y-140284455D01*
X139284695Y-140636593D01*
X139122623Y-141027868D01*
X139040000Y-141443243D01*
X111008339Y-141443243D01*
X110988819Y-141379605D01*
X110777454Y-140984168D01*
X110433939Y-140807483D01*
X108951421Y-142290000D01*
X108668579Y-142290000D01*
X107186061Y-140807483D01*
X106842546Y-140984168D01*
X106625595Y-141393089D01*
X106492590Y-141836479D01*
X106448640Y-142297298D01*
X103251095Y-142297298D01*
X103257377Y-142282132D01*
X103340000Y-141866757D01*
X103340000Y-141443243D01*
X103257377Y-141027868D01*
X103107512Y-140666061D01*
X107327483Y-140666061D01*
X108810000Y-142148579D01*
X110292517Y-140666061D01*
X110115832Y-140322546D01*
X109706911Y-140105595D01*
X109263521Y-139972590D01*
X108802702Y-139928640D01*
X108342164Y-139975437D01*
X107899605Y-140111181D01*
X107504168Y-140322546D01*
X107327483Y-140666061D01*
X103107512Y-140666061D01*
X103095305Y-140636593D01*
X102860014Y-140284455D01*
X102560545Y-139984986D01*
X102208407Y-139749695D01*
X101817132Y-139587623D01*
X101401757Y-139505000D01*
X100978243Y-139505000D01*
X100562868Y-139587623D01*
X100171593Y-139749695D01*
X99819455Y-139984986D01*
X99519986Y-140284455D01*
X99284695Y-140636593D01*
X99122623Y-141027868D01*
X99040000Y-141443243D01*
X90475000Y-141443243D01*
X90475000Y-137652866D01*
X103100000Y-137652866D01*
X103100000Y-138027134D01*
X103173016Y-138394209D01*
X103316242Y-138739987D01*
X103524174Y-139051179D01*
X103788821Y-139315826D01*
X104100013Y-139523758D01*
X104445791Y-139666984D01*
X104812866Y-139740000D01*
X105187134Y-139740000D01*
X105554209Y-139666984D01*
X105899987Y-139523758D01*
X106211179Y-139315826D01*
X106475826Y-139051179D01*
X106683758Y-138739987D01*
X106826984Y-138394209D01*
X106900000Y-138027134D01*
X106900000Y-137652866D01*
X143100000Y-137652866D01*
X143100000Y-138027134D01*
X143173016Y-138394209D01*
X143316242Y-138739987D01*
X143524174Y-139051179D01*
X143788821Y-139315826D01*
X144100013Y-139523758D01*
X144445791Y-139666984D01*
X144812866Y-139740000D01*
X145187134Y-139740000D01*
X145554209Y-139666984D01*
X145899987Y-139523758D01*
X146211179Y-139315826D01*
X146475826Y-139051179D01*
X146683758Y-138739987D01*
X146826984Y-138394209D01*
X146900000Y-138027134D01*
X146900000Y-137652866D01*
X146826984Y-137285791D01*
X146683758Y-136940013D01*
X146475826Y-136628821D01*
X146211179Y-136364174D01*
X145899987Y-136156242D01*
X145554209Y-136013016D01*
X145187134Y-135940000D01*
X144812866Y-135940000D01*
X144445791Y-136013016D01*
X144100013Y-136156242D01*
X143788821Y-136364174D01*
X143524174Y-136628821D01*
X143316242Y-136940013D01*
X143173016Y-137285791D01*
X143100000Y-137652866D01*
X106900000Y-137652866D01*
X106826984Y-137285791D01*
X106683758Y-136940013D01*
X106475826Y-136628821D01*
X106211179Y-136364174D01*
X105899987Y-136156242D01*
X105554209Y-136013016D01*
X105187134Y-135940000D01*
X104812866Y-135940000D01*
X104445791Y-136013016D01*
X104100013Y-136156242D01*
X103788821Y-136364174D01*
X103524174Y-136628821D01*
X103316242Y-136940013D01*
X103173016Y-137285791D01*
X103100000Y-137652866D01*
X90475000Y-137652866D01*
X90475000Y-131421207D01*
X93750000Y-131421207D01*
X93750000Y-131578793D01*
X93780743Y-131733351D01*
X93841049Y-131878942D01*
X93928599Y-132009970D01*
X94040030Y-132121401D01*
X94171058Y-132208951D01*
X94316649Y-132269257D01*
X94471207Y-132300000D01*
X94628793Y-132300000D01*
X94783351Y-132269257D01*
X94928942Y-132208951D01*
X95059970Y-132121401D01*
X95081371Y-132100000D01*
X95618629Y-132100000D01*
X95640030Y-132121401D01*
X95771058Y-132208951D01*
X95916649Y-132269257D01*
X96071207Y-132300000D01*
X96228793Y-132300000D01*
X96383351Y-132269257D01*
X96528942Y-132208951D01*
X96659970Y-132121401D01*
X96771401Y-132009970D01*
X96858951Y-131878942D01*
X96919257Y-131733351D01*
X96950000Y-131578793D01*
X96950000Y-131421207D01*
X96919257Y-131266649D01*
X96858951Y-131121058D01*
X96771401Y-130990030D01*
X96659970Y-130878599D01*
X96528942Y-130791049D01*
X96383351Y-130730743D01*
X96228793Y-130700000D01*
X96071207Y-130700000D01*
X95916649Y-130730743D01*
X95771058Y-130791049D01*
X95640030Y-130878599D01*
X95618629Y-130900000D01*
X95081371Y-130900000D01*
X95059970Y-130878599D01*
X94928942Y-130791049D01*
X94783351Y-130730743D01*
X94628793Y-130700000D01*
X94471207Y-130700000D01*
X94316649Y-130730743D01*
X94171058Y-130791049D01*
X94040030Y-130878599D01*
X93928599Y-130990030D01*
X93841049Y-131121058D01*
X93780743Y-131266649D01*
X93750000Y-131421207D01*
X90475000Y-131421207D01*
X90475000Y-130361893D01*
X97509314Y-130361893D01*
X97509314Y-130519479D01*
X97540057Y-130674037D01*
X97600363Y-130819628D01*
X97687913Y-130950656D01*
X97799344Y-131062087D01*
X97930372Y-131149637D01*
X98075963Y-131209943D01*
X98230521Y-131240686D01*
X98388107Y-131240686D01*
X98542665Y-131209943D01*
X98636181Y-131171207D01*
X133750000Y-131171207D01*
X133750000Y-131328793D01*
X133780743Y-131483351D01*
X133841049Y-131628942D01*
X133928599Y-131759970D01*
X134040030Y-131871401D01*
X134171058Y-131958951D01*
X134316649Y-132019257D01*
X134471207Y-132050000D01*
X134628793Y-132050000D01*
X134783351Y-132019257D01*
X134928942Y-131958951D01*
X135059970Y-131871401D01*
X135081371Y-131850000D01*
X135618629Y-131850000D01*
X135640030Y-131871401D01*
X135771058Y-131958951D01*
X135916649Y-132019257D01*
X136071207Y-132050000D01*
X136228793Y-132050000D01*
X136383351Y-132019257D01*
X136528942Y-131958951D01*
X136659970Y-131871401D01*
X136771401Y-131759970D01*
X136858951Y-131628942D01*
X136919257Y-131483351D01*
X136950000Y-131328793D01*
X136950000Y-131171207D01*
X136919257Y-131016649D01*
X136858951Y-130871058D01*
X136771401Y-130740030D01*
X136659970Y-130628599D01*
X136528942Y-130541049D01*
X136383351Y-130480743D01*
X136228793Y-130450000D01*
X136071207Y-130450000D01*
X135916649Y-130480743D01*
X135771058Y-130541049D01*
X135640030Y-130628599D01*
X135618629Y-130650000D01*
X135081371Y-130650000D01*
X135059970Y-130628599D01*
X134928942Y-130541049D01*
X134783351Y-130480743D01*
X134628793Y-130450000D01*
X134471207Y-130450000D01*
X134316649Y-130480743D01*
X134171058Y-130541049D01*
X134040030Y-130628599D01*
X133928599Y-130740030D01*
X133841049Y-130871058D01*
X133780743Y-131016649D01*
X133750000Y-131171207D01*
X98636181Y-131171207D01*
X98688256Y-131149637D01*
X98819284Y-131062087D01*
X98930715Y-130950656D01*
X99018265Y-130819628D01*
X99078571Y-130674037D01*
X99109314Y-130519479D01*
X99109314Y-130489213D01*
X99236634Y-130361893D01*
X137509314Y-130361893D01*
X137509314Y-130519479D01*
X137540057Y-130674037D01*
X137600363Y-130819628D01*
X137687913Y-130950656D01*
X137799344Y-131062087D01*
X137930372Y-131149637D01*
X138075963Y-131209943D01*
X138230521Y-131240686D01*
X138388107Y-131240686D01*
X138542665Y-131209943D01*
X138688256Y-131149637D01*
X138819284Y-131062087D01*
X138930715Y-130950656D01*
X139018265Y-130819628D01*
X139078571Y-130674037D01*
X139109314Y-130519479D01*
X139109314Y-130489213D01*
X139489214Y-130109314D01*
X139519479Y-130109314D01*
X139674037Y-130078571D01*
X139819628Y-130018265D01*
X139950656Y-129930715D01*
X140062087Y-129819284D01*
X140149637Y-129688256D01*
X140209943Y-129542665D01*
X140240686Y-129388107D01*
X140240686Y-129230521D01*
X140209943Y-129075963D01*
X140149637Y-128930372D01*
X140062087Y-128799344D01*
X139950656Y-128687913D01*
X139819628Y-128600363D01*
X139674037Y-128540057D01*
X139519479Y-128509314D01*
X139361893Y-128509314D01*
X139207335Y-128540057D01*
X139061744Y-128600363D01*
X138930716Y-128687913D01*
X138819285Y-128799344D01*
X138731735Y-128930372D01*
X138671429Y-129075963D01*
X138640686Y-129230521D01*
X138640686Y-129260786D01*
X138260787Y-129640686D01*
X138230521Y-129640686D01*
X138075963Y-129671429D01*
X137930372Y-129731735D01*
X137799344Y-129819285D01*
X137687913Y-129930716D01*
X137600363Y-130061744D01*
X137540057Y-130207335D01*
X137509314Y-130361893D01*
X99236634Y-130361893D01*
X99489214Y-130109314D01*
X99519479Y-130109314D01*
X99674037Y-130078571D01*
X99819628Y-130018265D01*
X99950656Y-129930715D01*
X100062087Y-129819284D01*
X100149637Y-129688256D01*
X100209943Y-129542665D01*
X100240686Y-129388107D01*
X100240686Y-129230521D01*
X100209943Y-129075963D01*
X100149637Y-128930372D01*
X100062087Y-128799344D01*
X99950656Y-128687913D01*
X99819628Y-128600363D01*
X99674037Y-128540057D01*
X99519479Y-128509314D01*
X99361893Y-128509314D01*
X99207335Y-128540057D01*
X99061744Y-128600363D01*
X98930716Y-128687913D01*
X98819285Y-128799344D01*
X98731735Y-128930372D01*
X98671429Y-129075963D01*
X98640686Y-129230521D01*
X98640686Y-129260786D01*
X98260787Y-129640686D01*
X98230521Y-129640686D01*
X98075963Y-129671429D01*
X97930372Y-129731735D01*
X97799344Y-129819285D01*
X97687913Y-129930716D01*
X97600363Y-130061744D01*
X97540057Y-130207335D01*
X97509314Y-130361893D01*
X90475000Y-130361893D01*
X90475000Y-109900000D01*
X98697823Y-109900000D01*
X98697823Y-111600000D01*
X98706511Y-111688215D01*
X98732243Y-111773041D01*
X98774029Y-111851216D01*
X98830263Y-111919737D01*
X98898784Y-111975971D01*
X98976959Y-112017757D01*
X99061785Y-112043489D01*
X99150000Y-112052177D01*
X99591305Y-112052177D01*
X99384219Y-112137955D01*
X99171298Y-112280224D01*
X98990224Y-112461298D01*
X98847955Y-112674219D01*
X98749958Y-112910804D01*
X98700000Y-113161961D01*
X98700000Y-113418039D01*
X98749958Y-113669196D01*
X98847955Y-113905781D01*
X98990224Y-114118702D01*
X99171298Y-114299776D01*
X99384219Y-114442045D01*
X99620804Y-114540042D01*
X99721140Y-114560000D01*
X99620804Y-114579958D01*
X99384219Y-114677955D01*
X99171298Y-114820224D01*
X98990224Y-115001298D01*
X98847955Y-115214219D01*
X98749958Y-115450804D01*
X98700000Y-115701961D01*
X98700000Y-115958039D01*
X98749958Y-116209196D01*
X98847955Y-116445781D01*
X98990224Y-116658702D01*
X99171298Y-116839776D01*
X99384219Y-116982045D01*
X99620804Y-117080042D01*
X99871961Y-117130000D01*
X100128039Y-117130000D01*
X100379196Y-117080042D01*
X100615781Y-116982045D01*
X100828702Y-116839776D01*
X101009776Y-116658702D01*
X101152045Y-116445781D01*
X101250042Y-116209196D01*
X101257598Y-116171207D01*
X110250000Y-116171207D01*
X110250000Y-116328793D01*
X110280743Y-116483351D01*
X110341049Y-116628942D01*
X110428599Y-116759970D01*
X110540030Y-116871401D01*
X110671058Y-116958951D01*
X110816649Y-117019257D01*
X110971207Y-117050000D01*
X111128793Y-117050000D01*
X111283351Y-117019257D01*
X111428942Y-116958951D01*
X111559970Y-116871401D01*
X111581371Y-116850000D01*
X112118629Y-116850000D01*
X112140030Y-116871401D01*
X112271058Y-116958951D01*
X112416649Y-117019257D01*
X112571207Y-117050000D01*
X112728793Y-117050000D01*
X112883351Y-117019257D01*
X113028942Y-116958951D01*
X113159970Y-116871401D01*
X113271401Y-116759970D01*
X113358951Y-116628942D01*
X113419257Y-116483351D01*
X113450000Y-116328793D01*
X113450000Y-116171207D01*
X113419257Y-116016649D01*
X113358951Y-115871058D01*
X113271401Y-115740030D01*
X113159970Y-115628599D01*
X113028942Y-115541049D01*
X112883351Y-115480743D01*
X112728793Y-115450000D01*
X112571207Y-115450000D01*
X112416649Y-115480743D01*
X112271058Y-115541049D01*
X112140030Y-115628599D01*
X112118629Y-115650000D01*
X111581371Y-115650000D01*
X111559970Y-115628599D01*
X111428942Y-115541049D01*
X111283351Y-115480743D01*
X111128793Y-115450000D01*
X110971207Y-115450000D01*
X110816649Y-115480743D01*
X110671058Y-115541049D01*
X110540030Y-115628599D01*
X110428599Y-115740030D01*
X110341049Y-115871058D01*
X110280743Y-116016649D01*
X110250000Y-116171207D01*
X101257598Y-116171207D01*
X101300000Y-115958039D01*
X101300000Y-115701961D01*
X101250042Y-115450804D01*
X101152045Y-115214219D01*
X101009776Y-115001298D01*
X100828702Y-114820224D01*
X100615781Y-114677955D01*
X100379196Y-114579958D01*
X100278860Y-114560000D01*
X100379196Y-114540042D01*
X100615781Y-114442045D01*
X100828702Y-114299776D01*
X101009776Y-114118702D01*
X101152045Y-113905781D01*
X101250042Y-113669196D01*
X101300000Y-113418039D01*
X101300000Y-113161961D01*
X101250042Y-112910804D01*
X101152045Y-112674219D01*
X101009776Y-112461298D01*
X100828702Y-112280224D01*
X100615781Y-112137955D01*
X100408695Y-112052177D01*
X100850000Y-112052177D01*
X100938215Y-112043489D01*
X101023041Y-112017757D01*
X101101216Y-111975971D01*
X101169737Y-111919737D01*
X101225971Y-111851216D01*
X101267757Y-111773041D01*
X101293489Y-111688215D01*
X101302177Y-111600000D01*
X101302177Y-109900000D01*
X138697823Y-109900000D01*
X138697823Y-111600000D01*
X138706511Y-111688215D01*
X138732243Y-111773041D01*
X138774029Y-111851216D01*
X138830263Y-111919737D01*
X138898784Y-111975971D01*
X138976959Y-112017757D01*
X139061785Y-112043489D01*
X139150000Y-112052177D01*
X139591305Y-112052177D01*
X139384219Y-112137955D01*
X139171298Y-112280224D01*
X138990224Y-112461298D01*
X138847955Y-112674219D01*
X138749958Y-112910804D01*
X138700000Y-113161961D01*
X138700000Y-113418039D01*
X138749958Y-113669196D01*
X138847955Y-113905781D01*
X138990224Y-114118702D01*
X139171298Y-114299776D01*
X139384219Y-114442045D01*
X139620804Y-114540042D01*
X139721140Y-114560000D01*
X139620804Y-114579958D01*
X139384219Y-114677955D01*
X139171298Y-114820224D01*
X138990224Y-115001298D01*
X138847955Y-115214219D01*
X138749958Y-115450804D01*
X138700000Y-115701961D01*
X138700000Y-115958039D01*
X138749958Y-116209196D01*
X138847955Y-116445781D01*
X138990224Y-116658702D01*
X139171298Y-116839776D01*
X139384219Y-116982045D01*
X139620804Y-117080042D01*
X139871961Y-117130000D01*
X140128039Y-117130000D01*
X140379196Y-117080042D01*
X140615781Y-116982045D01*
X140828702Y-116839776D01*
X141009776Y-116658702D01*
X141152045Y-116445781D01*
X141250042Y-116209196D01*
X141300000Y-115958039D01*
X141300000Y-115701961D01*
X141250042Y-115450804D01*
X141152045Y-115214219D01*
X141083674Y-115111893D01*
X149509314Y-115111893D01*
X149509314Y-115269479D01*
X149540057Y-115424037D01*
X149600363Y-115569628D01*
X149687913Y-115700656D01*
X149799344Y-115812087D01*
X149930372Y-115899637D01*
X150075963Y-115959943D01*
X150230521Y-115990686D01*
X150388107Y-115990686D01*
X150542665Y-115959943D01*
X150688256Y-115899637D01*
X150819284Y-115812087D01*
X150930715Y-115700656D01*
X151018265Y-115569628D01*
X151078571Y-115424037D01*
X151109314Y-115269479D01*
X151109314Y-115239213D01*
X151489214Y-114859314D01*
X151519479Y-114859314D01*
X151674037Y-114828571D01*
X151819628Y-114768265D01*
X151950656Y-114680715D01*
X152062087Y-114569284D01*
X152149637Y-114438256D01*
X152209943Y-114292665D01*
X152240686Y-114138107D01*
X152240686Y-113980521D01*
X152209943Y-113825963D01*
X152149637Y-113680372D01*
X152062087Y-113549344D01*
X151950656Y-113437913D01*
X151819628Y-113350363D01*
X151674037Y-113290057D01*
X151519479Y-113259314D01*
X151361893Y-113259314D01*
X151207335Y-113290057D01*
X151061744Y-113350363D01*
X150930716Y-113437913D01*
X150819285Y-113549344D01*
X150731735Y-113680372D01*
X150671429Y-113825963D01*
X150640686Y-113980521D01*
X150640686Y-114010786D01*
X150260787Y-114390686D01*
X150230521Y-114390686D01*
X150075963Y-114421429D01*
X149930372Y-114481735D01*
X149799344Y-114569285D01*
X149687913Y-114680716D01*
X149600363Y-114811744D01*
X149540057Y-114957335D01*
X149509314Y-115111893D01*
X141083674Y-115111893D01*
X141009776Y-115001298D01*
X140828702Y-114820224D01*
X140615781Y-114677955D01*
X140379196Y-114579958D01*
X140278860Y-114560000D01*
X140379196Y-114540042D01*
X140615781Y-114442045D01*
X140828702Y-114299776D01*
X141009776Y-114118702D01*
X141152045Y-113905781D01*
X141250042Y-113669196D01*
X141300000Y-113418039D01*
X141300000Y-113161961D01*
X141250042Y-112910804D01*
X141152045Y-112674219D01*
X141009776Y-112461298D01*
X140828702Y-112280224D01*
X140615781Y-112137955D01*
X140408695Y-112052177D01*
X140850000Y-112052177D01*
X140938215Y-112043489D01*
X141023041Y-112017757D01*
X141101216Y-111975971D01*
X141169737Y-111919737D01*
X141225971Y-111851216D01*
X141267757Y-111773041D01*
X141293489Y-111688215D01*
X141302177Y-111600000D01*
X141302177Y-109900000D01*
X141293489Y-109811785D01*
X141267757Y-109726959D01*
X141225971Y-109648784D01*
X141169737Y-109580263D01*
X141101216Y-109524029D01*
X141023041Y-109482243D01*
X140938215Y-109456511D01*
X140850000Y-109447823D01*
X139150000Y-109447823D01*
X139061785Y-109456511D01*
X138976959Y-109482243D01*
X138898784Y-109524029D01*
X138830263Y-109580263D01*
X138774029Y-109648784D01*
X138732243Y-109726959D01*
X138706511Y-109811785D01*
X138697823Y-109900000D01*
X101302177Y-109900000D01*
X101293489Y-109811785D01*
X101267757Y-109726959D01*
X101225971Y-109648784D01*
X101169737Y-109580263D01*
X101101216Y-109524029D01*
X101023041Y-109482243D01*
X100938215Y-109456511D01*
X100850000Y-109447823D01*
X99150000Y-109447823D01*
X99061785Y-109456511D01*
X98976959Y-109482243D01*
X98898784Y-109524029D01*
X98830263Y-109580263D01*
X98774029Y-109648784D01*
X98732243Y-109726959D01*
X98706511Y-109811785D01*
X98697823Y-109900000D01*
X90475000Y-109900000D01*
X90475000Y-105958427D01*
X90681835Y-106267978D01*
X91232022Y-106818165D01*
X91878974Y-107250444D01*
X92597828Y-107548203D01*
X93360959Y-107700000D01*
X94139041Y-107700000D01*
X94902172Y-107548203D01*
X95621026Y-107250444D01*
X95650842Y-107230521D01*
X124009314Y-107230521D01*
X124009314Y-107388107D01*
X124040057Y-107542665D01*
X124100363Y-107688256D01*
X124187913Y-107819284D01*
X124299344Y-107930715D01*
X124430372Y-108018265D01*
X124575963Y-108078571D01*
X124730521Y-108109314D01*
X124760787Y-108109314D01*
X125140686Y-108489214D01*
X125140686Y-108519479D01*
X125171429Y-108674037D01*
X125231735Y-108819628D01*
X125319285Y-108950656D01*
X125430716Y-109062087D01*
X125561744Y-109149637D01*
X125707335Y-109209943D01*
X125861893Y-109240686D01*
X126019479Y-109240686D01*
X126174037Y-109209943D01*
X126319628Y-109149637D01*
X126450656Y-109062087D01*
X126562087Y-108950656D01*
X126649637Y-108819628D01*
X126709943Y-108674037D01*
X126740686Y-108519479D01*
X126740686Y-108361893D01*
X126709943Y-108207335D01*
X126649637Y-108061744D01*
X126562087Y-107930716D01*
X126450656Y-107819285D01*
X126319628Y-107731735D01*
X126174037Y-107671429D01*
X126019479Y-107640686D01*
X125989214Y-107640686D01*
X125609314Y-107260787D01*
X125609314Y-107230521D01*
X125578571Y-107075963D01*
X125518265Y-106930372D01*
X125430715Y-106799344D01*
X125319284Y-106687913D01*
X125188256Y-106600363D01*
X125042665Y-106540057D01*
X124888107Y-106509314D01*
X124730521Y-106509314D01*
X124575963Y-106540057D01*
X124430372Y-106600363D01*
X124299344Y-106687913D01*
X124187913Y-106799344D01*
X124100363Y-106930372D01*
X124040057Y-107075963D01*
X124009314Y-107230521D01*
X95650842Y-107230521D01*
X96267978Y-106818165D01*
X96818165Y-106267978D01*
X97250444Y-105621026D01*
X97548203Y-104902172D01*
X97603174Y-104625811D01*
X100515610Y-104625811D01*
X100608138Y-104897674D01*
X100897947Y-105044812D01*
X101210892Y-105132584D01*
X101534949Y-105157616D01*
X101857662Y-105118947D01*
X102166631Y-105018063D01*
X102391862Y-104897674D01*
X102484390Y-104625811D01*
X101500000Y-103641421D01*
X100515610Y-104625811D01*
X97603174Y-104625811D01*
X97700000Y-104139041D01*
X97700000Y-103534949D01*
X99842384Y-103534949D01*
X99881053Y-103857662D01*
X99981937Y-104166631D01*
X100102326Y-104391862D01*
X100374189Y-104484390D01*
X101358579Y-103500000D01*
X101641421Y-103500000D01*
X102625811Y-104484390D01*
X102897674Y-104391862D01*
X103044812Y-104102053D01*
X103132584Y-103789108D01*
X103157616Y-103465051D01*
X103144692Y-103357187D01*
X103550000Y-103357187D01*
X103550000Y-103642813D01*
X103605723Y-103922949D01*
X103715027Y-104186833D01*
X103873711Y-104424321D01*
X104075679Y-104626289D01*
X104313167Y-104784973D01*
X104577051Y-104894277D01*
X104857187Y-104950000D01*
X105142813Y-104950000D01*
X105422949Y-104894277D01*
X105686833Y-104784973D01*
X105924321Y-104626289D01*
X106126289Y-104424321D01*
X106284973Y-104186833D01*
X106394277Y-103922949D01*
X106450000Y-103642813D01*
X106450000Y-103357187D01*
X107050000Y-103357187D01*
X107050000Y-103642813D01*
X107105723Y-103922949D01*
X107215027Y-104186833D01*
X107373711Y-104424321D01*
X107575679Y-104626289D01*
X107813167Y-104784973D01*
X108077051Y-104894277D01*
X108357187Y-104950000D01*
X108642813Y-104950000D01*
X108922949Y-104894277D01*
X109186833Y-104784973D01*
X109424321Y-104626289D01*
X109626289Y-104424321D01*
X109784973Y-104186833D01*
X109894277Y-103922949D01*
X109950000Y-103642813D01*
X109950000Y-103357187D01*
X121800000Y-103357187D01*
X121800000Y-103642813D01*
X121855723Y-103922949D01*
X121965027Y-104186833D01*
X122123711Y-104424321D01*
X122325679Y-104626289D01*
X122563167Y-104784973D01*
X122827051Y-104894277D01*
X123107187Y-104950000D01*
X123392813Y-104950000D01*
X123672949Y-104894277D01*
X123936833Y-104784973D01*
X124174321Y-104626289D01*
X124376289Y-104424321D01*
X124534973Y-104186833D01*
X124644277Y-103922949D01*
X124700000Y-103642813D01*
X124700000Y-103357187D01*
X125300000Y-103357187D01*
X125300000Y-103642813D01*
X125355723Y-103922949D01*
X125465027Y-104186833D01*
X125623711Y-104424321D01*
X125825679Y-104626289D01*
X126063167Y-104784973D01*
X126327051Y-104894277D01*
X126607187Y-104950000D01*
X126892813Y-104950000D01*
X127172949Y-104894277D01*
X127436833Y-104784973D01*
X127674321Y-104626289D01*
X127674799Y-104625811D01*
X140515610Y-104625811D01*
X140608138Y-104897674D01*
X140897947Y-105044812D01*
X141210892Y-105132584D01*
X141534949Y-105157616D01*
X141857662Y-105118947D01*
X142166631Y-105018063D01*
X142391862Y-104897674D01*
X142484390Y-104625811D01*
X141500000Y-103641421D01*
X140515610Y-104625811D01*
X127674799Y-104625811D01*
X127876289Y-104424321D01*
X128034973Y-104186833D01*
X128144277Y-103922949D01*
X128200000Y-103642813D01*
X128200000Y-103534949D01*
X139842384Y-103534949D01*
X139881053Y-103857662D01*
X139981937Y-104166631D01*
X140102326Y-104391862D01*
X140374189Y-104484390D01*
X141358579Y-103500000D01*
X141641421Y-103500000D01*
X142625811Y-104484390D01*
X142897674Y-104391862D01*
X143044812Y-104102053D01*
X143132584Y-103789108D01*
X143157616Y-103465051D01*
X143144692Y-103357187D01*
X143550000Y-103357187D01*
X143550000Y-103642813D01*
X143605723Y-103922949D01*
X143715027Y-104186833D01*
X143873711Y-104424321D01*
X144075679Y-104626289D01*
X144313167Y-104784973D01*
X144577051Y-104894277D01*
X144857187Y-104950000D01*
X145142813Y-104950000D01*
X145422949Y-104894277D01*
X145686833Y-104784973D01*
X145924321Y-104626289D01*
X146126289Y-104424321D01*
X146284973Y-104186833D01*
X146394277Y-103922949D01*
X146450000Y-103642813D01*
X146450000Y-103357187D01*
X147050000Y-103357187D01*
X147050000Y-103642813D01*
X147105723Y-103922949D01*
X147215027Y-104186833D01*
X147373711Y-104424321D01*
X147575679Y-104626289D01*
X147813167Y-104784973D01*
X148077051Y-104894277D01*
X148357187Y-104950000D01*
X148642813Y-104950000D01*
X148922949Y-104894277D01*
X149186833Y-104784973D01*
X149424321Y-104626289D01*
X149626289Y-104424321D01*
X149784973Y-104186833D01*
X149894277Y-103922949D01*
X149950000Y-103642813D01*
X149950000Y-103357187D01*
X149894277Y-103077051D01*
X149784973Y-102813167D01*
X149626289Y-102575679D01*
X149424321Y-102373711D01*
X149186833Y-102215027D01*
X148922949Y-102105723D01*
X148642813Y-102050000D01*
X148357187Y-102050000D01*
X148077051Y-102105723D01*
X147813167Y-102215027D01*
X147575679Y-102373711D01*
X147373711Y-102575679D01*
X147215027Y-102813167D01*
X147105723Y-103077051D01*
X147050000Y-103357187D01*
X146450000Y-103357187D01*
X146394277Y-103077051D01*
X146284973Y-102813167D01*
X146126289Y-102575679D01*
X145924321Y-102373711D01*
X145686833Y-102215027D01*
X145422949Y-102105723D01*
X145142813Y-102050000D01*
X144857187Y-102050000D01*
X144577051Y-102105723D01*
X144313167Y-102215027D01*
X144075679Y-102373711D01*
X143873711Y-102575679D01*
X143715027Y-102813167D01*
X143605723Y-103077051D01*
X143550000Y-103357187D01*
X143144692Y-103357187D01*
X143118947Y-103142338D01*
X143018063Y-102833369D01*
X142897674Y-102608138D01*
X142625811Y-102515610D01*
X141641421Y-103500000D01*
X141358579Y-103500000D01*
X140374189Y-102515610D01*
X140102326Y-102608138D01*
X139955188Y-102897947D01*
X139867416Y-103210892D01*
X139842384Y-103534949D01*
X128200000Y-103534949D01*
X128200000Y-103357187D01*
X128144277Y-103077051D01*
X128034973Y-102813167D01*
X127876289Y-102575679D01*
X127674799Y-102374189D01*
X140515610Y-102374189D01*
X141500000Y-103358579D01*
X142484390Y-102374189D01*
X142391862Y-102102326D01*
X142102053Y-101955188D01*
X141789108Y-101867416D01*
X141465051Y-101842384D01*
X141142338Y-101881053D01*
X140833369Y-101981937D01*
X140608138Y-102102326D01*
X140515610Y-102374189D01*
X127674799Y-102374189D01*
X127674321Y-102373711D01*
X127436833Y-102215027D01*
X127172949Y-102105723D01*
X126892813Y-102050000D01*
X126607187Y-102050000D01*
X126327051Y-102105723D01*
X126063167Y-102215027D01*
X125825679Y-102373711D01*
X125623711Y-102575679D01*
X125465027Y-102813167D01*
X125355723Y-103077051D01*
X125300000Y-103357187D01*
X124700000Y-103357187D01*
X124644277Y-103077051D01*
X124534973Y-102813167D01*
X124376289Y-102575679D01*
X124174321Y-102373711D01*
X123936833Y-102215027D01*
X123672949Y-102105723D01*
X123392813Y-102050000D01*
X123107187Y-102050000D01*
X122827051Y-102105723D01*
X122563167Y-102215027D01*
X122325679Y-102373711D01*
X122123711Y-102575679D01*
X121965027Y-102813167D01*
X121855723Y-103077051D01*
X121800000Y-103357187D01*
X109950000Y-103357187D01*
X109894277Y-103077051D01*
X109784973Y-102813167D01*
X109626289Y-102575679D01*
X109424321Y-102373711D01*
X109186833Y-102215027D01*
X108922949Y-102105723D01*
X108642813Y-102050000D01*
X108357187Y-102050000D01*
X108077051Y-102105723D01*
X107813167Y-102215027D01*
X107575679Y-102373711D01*
X107373711Y-102575679D01*
X107215027Y-102813167D01*
X107105723Y-103077051D01*
X107050000Y-103357187D01*
X106450000Y-103357187D01*
X106394277Y-103077051D01*
X106284973Y-102813167D01*
X106126289Y-102575679D01*
X105924321Y-102373711D01*
X105686833Y-102215027D01*
X105422949Y-102105723D01*
X105142813Y-102050000D01*
X104857187Y-102050000D01*
X104577051Y-102105723D01*
X104313167Y-102215027D01*
X104075679Y-102373711D01*
X103873711Y-102575679D01*
X103715027Y-102813167D01*
X103605723Y-103077051D01*
X103550000Y-103357187D01*
X103144692Y-103357187D01*
X103118947Y-103142338D01*
X103018063Y-102833369D01*
X102897674Y-102608138D01*
X102625811Y-102515610D01*
X101641421Y-103500000D01*
X101358579Y-103500000D01*
X100374189Y-102515610D01*
X100102326Y-102608138D01*
X99955188Y-102897947D01*
X99867416Y-103210892D01*
X99842384Y-103534949D01*
X97700000Y-103534949D01*
X97700000Y-103360959D01*
X97548203Y-102597828D01*
X97455569Y-102374189D01*
X100515610Y-102374189D01*
X101500000Y-103358579D01*
X102484390Y-102374189D01*
X102391862Y-102102326D01*
X102102053Y-101955188D01*
X101789108Y-101867416D01*
X101465051Y-101842384D01*
X101142338Y-101881053D01*
X100833369Y-101981937D01*
X100608138Y-102102326D01*
X100515610Y-102374189D01*
X97455569Y-102374189D01*
X97250444Y-101878974D01*
X96818165Y-101232022D01*
X96267978Y-100681835D01*
X95958427Y-100475000D01*
X154041573Y-100475000D01*
X153732022Y-100681835D01*
G37*
X153732022Y-100681835D02*
X153181835Y-101232022D01*
X152749556Y-101878974D01*
X152451797Y-102597828D01*
X152300000Y-103360959D01*
X152300000Y-104139041D01*
X152451797Y-104902172D01*
X152749556Y-105621026D01*
X153181835Y-106267978D01*
X153732022Y-106818165D01*
X154378974Y-107250444D01*
X155097828Y-107548203D01*
X155860959Y-107700000D01*
X156639041Y-107700000D01*
X157402172Y-107548203D01*
X158121026Y-107250444D01*
X158767978Y-106818165D01*
X159318165Y-106267978D01*
X159525001Y-105958426D01*
X159525000Y-152226769D01*
X159484200Y-152642881D01*
X159370099Y-153020801D01*
X159184769Y-153369356D01*
X158935263Y-153675281D01*
X158631093Y-153926912D01*
X158283834Y-154114674D01*
X157906727Y-154231408D01*
X157491978Y-154275000D01*
X92523231Y-154275000D01*
X92107119Y-154234200D01*
X91729199Y-154120099D01*
X91380644Y-153934769D01*
X91074719Y-153685263D01*
X90823088Y-153381093D01*
X90635326Y-153033834D01*
X90518592Y-152656727D01*
X90475000Y-152241978D01*
X90475000Y-151056886D01*
X107560000Y-151056886D01*
X107560000Y-151303114D01*
X107608037Y-151544611D01*
X107702265Y-151772097D01*
X107839062Y-151976828D01*
X108013172Y-152150938D01*
X108217903Y-152287735D01*
X108445389Y-152381963D01*
X108686886Y-152430000D01*
X108933114Y-152430000D01*
X109174611Y-152381963D01*
X109402097Y-152287735D01*
X109606828Y-152150938D01*
X109780938Y-151976828D01*
X109917735Y-151772097D01*
X110011963Y-151544611D01*
X110060000Y-151303114D01*
X110060000Y-151056886D01*
X147560000Y-151056886D01*
X147560000Y-151303114D01*
X147608037Y-151544611D01*
X147702265Y-151772097D01*
X147839062Y-151976828D01*
X148013172Y-152150938D01*
X148217903Y-152287735D01*
X148445389Y-152381963D01*
X148686886Y-152430000D01*
X148933114Y-152430000D01*
X149174611Y-152381963D01*
X149402097Y-152287735D01*
X149606828Y-152150938D01*
X149780938Y-151976828D01*
X149917735Y-151772097D01*
X150011963Y-151544611D01*
X150060000Y-151303114D01*
X150060000Y-151056886D01*
X150011963Y-150815389D01*
X149917735Y-150587903D01*
X149780938Y-150383172D01*
X149606828Y-150209062D01*
X149402097Y-150072265D01*
X149174611Y-149978037D01*
X148933114Y-149930000D01*
X148686886Y-149930000D01*
X148445389Y-149978037D01*
X148217903Y-150072265D01*
X148013172Y-150209062D01*
X147839062Y-150383172D01*
X147702265Y-150587903D01*
X147608037Y-150815389D01*
X147560000Y-151056886D01*
X110060000Y-151056886D01*
X110011963Y-150815389D01*
X109917735Y-150587903D01*
X109780938Y-150383172D01*
X109606828Y-150209062D01*
X109402097Y-150072265D01*
X109174611Y-149978037D01*
X108933114Y-149930000D01*
X108686886Y-149930000D01*
X108445389Y-149978037D01*
X108217903Y-150072265D01*
X108013172Y-150209062D01*
X107839062Y-150383172D01*
X107702265Y-150587903D01*
X107608037Y-150815389D01*
X107560000Y-151056886D01*
X90475000Y-151056886D01*
X90475000Y-149456098D01*
X111945323Y-149456098D01*
X112091974Y-149774016D01*
X112458368Y-149966040D01*
X112855183Y-150082896D01*
X113267171Y-150120090D01*
X113678500Y-150076196D01*
X114073361Y-149952898D01*
X114408026Y-149774016D01*
X114554677Y-149456098D01*
X151945323Y-149456098D01*
X152091974Y-149774016D01*
X152458368Y-149966040D01*
X152855183Y-150082896D01*
X153267171Y-150120090D01*
X153678500Y-150076196D01*
X154073361Y-149952898D01*
X154408026Y-149774016D01*
X154554677Y-149456098D01*
X153250000Y-148151421D01*
X151945323Y-149456098D01*
X114554677Y-149456098D01*
X113250000Y-148151421D01*
X111945323Y-149456098D01*
X90475000Y-149456098D01*
X90475000Y-148027171D01*
X111139910Y-148027171D01*
X111183804Y-148438500D01*
X111307102Y-148833361D01*
X111485984Y-149168026D01*
X111803902Y-149314677D01*
X113108579Y-148010000D01*
X113391421Y-148010000D01*
X114696098Y-149314677D01*
X115014016Y-149168026D01*
X115206040Y-148801632D01*
X115322896Y-148404817D01*
X115356989Y-148027171D01*
X151139910Y-148027171D01*
X151183804Y-148438500D01*
X151307102Y-148833361D01*
X151485984Y-149168026D01*
X151803902Y-149314677D01*
X153108579Y-148010000D01*
X153391421Y-148010000D01*
X154696098Y-149314677D01*
X155014016Y-149168026D01*
X155206040Y-148801632D01*
X155322896Y-148404817D01*
X155360090Y-147992829D01*
X155316196Y-147581500D01*
X155192898Y-147186639D01*
X155014016Y-146851974D01*
X154696098Y-146705323D01*
X153391421Y-148010000D01*
X153108579Y-148010000D01*
X151803902Y-146705323D01*
X151485984Y-146851974D01*
X151293960Y-147218368D01*
X151177104Y-147615183D01*
X151139910Y-148027171D01*
X115356989Y-148027171D01*
X115360090Y-147992829D01*
X115316196Y-147581500D01*
X115192898Y-147186639D01*
X115014016Y-146851974D01*
X114696098Y-146705323D01*
X113391421Y-148010000D01*
X113108579Y-148010000D01*
X111803902Y-146705323D01*
X111485984Y-146851974D01*
X111293960Y-147218368D01*
X111177104Y-147615183D01*
X111139910Y-148027171D01*
X90475000Y-148027171D01*
X90475000Y-145976886D01*
X99940000Y-145976886D01*
X99940000Y-146223114D01*
X99988037Y-146464611D01*
X100082265Y-146692097D01*
X100219062Y-146896828D01*
X100393172Y-147070938D01*
X100597903Y-147207735D01*
X100825389Y-147301963D01*
X101066886Y-147350000D01*
X101313114Y-147350000D01*
X101554611Y-147301963D01*
X101782097Y-147207735D01*
X101986828Y-147070938D01*
X102160938Y-146896828D01*
X102297735Y-146692097D01*
X102350835Y-146563902D01*
X111945323Y-146563902D01*
X113250000Y-147868579D01*
X114554677Y-146563902D01*
X114408026Y-146245984D01*
X114041632Y-146053960D01*
X113779908Y-145976886D01*
X139940000Y-145976886D01*
X139940000Y-146223114D01*
X139988037Y-146464611D01*
X140082265Y-146692097D01*
X140219062Y-146896828D01*
X140393172Y-147070938D01*
X140597903Y-147207735D01*
X140825389Y-147301963D01*
X141066886Y-147350000D01*
X141313114Y-147350000D01*
X141554611Y-147301963D01*
X141782097Y-147207735D01*
X141986828Y-147070938D01*
X142160938Y-146896828D01*
X142297735Y-146692097D01*
X142350835Y-146563902D01*
X151945323Y-146563902D01*
X153250000Y-147868579D01*
X154554677Y-146563902D01*
X154408026Y-146245984D01*
X154041632Y-146053960D01*
X153644817Y-145937104D01*
X153232829Y-145899910D01*
X152821500Y-145943804D01*
X152426639Y-146067102D01*
X152091974Y-146245984D01*
X151945323Y-146563902D01*
X142350835Y-146563902D01*
X142391963Y-146464611D01*
X142440000Y-146223114D01*
X142440000Y-145976886D01*
X142391963Y-145735389D01*
X142297735Y-145507903D01*
X142160938Y-145303172D01*
X141986828Y-145129062D01*
X141782097Y-144992265D01*
X141554611Y-144898037D01*
X141313114Y-144850000D01*
X141066886Y-144850000D01*
X140825389Y-144898037D01*
X140597903Y-144992265D01*
X140393172Y-145129062D01*
X140219062Y-145303172D01*
X140082265Y-145507903D01*
X139988037Y-145735389D01*
X139940000Y-145976886D01*
X113779908Y-145976886D01*
X113644817Y-145937104D01*
X113232829Y-145899910D01*
X112821500Y-145943804D01*
X112426639Y-146067102D01*
X112091974Y-146245984D01*
X111945323Y-146563902D01*
X102350835Y-146563902D01*
X102391963Y-146464611D01*
X102440000Y-146223114D01*
X102440000Y-145976886D01*
X102391963Y-145735389D01*
X102297735Y-145507903D01*
X102160938Y-145303172D01*
X101986828Y-145129062D01*
X101782097Y-144992265D01*
X101554611Y-144898037D01*
X101313114Y-144850000D01*
X101066886Y-144850000D01*
X100825389Y-144898037D01*
X100597903Y-144992265D01*
X100393172Y-145129062D01*
X100219062Y-145303172D01*
X100082265Y-145507903D01*
X99988037Y-145735389D01*
X99940000Y-145976886D01*
X90475000Y-145976886D01*
X90475000Y-143913939D01*
X107327483Y-143913939D01*
X107504168Y-144257454D01*
X107913089Y-144474405D01*
X108356479Y-144607410D01*
X108817298Y-144651360D01*
X109277836Y-144604563D01*
X109720395Y-144468819D01*
X110115832Y-144257454D01*
X110292517Y-143913939D01*
X147327483Y-143913939D01*
X147504168Y-144257454D01*
X147913089Y-144474405D01*
X148356479Y-144607410D01*
X148817298Y-144651360D01*
X149277836Y-144604563D01*
X149720395Y-144468819D01*
X150115832Y-144257454D01*
X150292517Y-143913939D01*
X148810000Y-142431421D01*
X147327483Y-143913939D01*
X110292517Y-143913939D01*
X108810000Y-142431421D01*
X107327483Y-143913939D01*
X90475000Y-143913939D01*
X90475000Y-141443243D01*
X99040000Y-141443243D01*
X99040000Y-141866757D01*
X99122623Y-142282132D01*
X99284695Y-142673407D01*
X99519986Y-143025545D01*
X99819455Y-143325014D01*
X100171593Y-143560305D01*
X100562868Y-143722377D01*
X100978243Y-143805000D01*
X101401757Y-143805000D01*
X101817132Y-143722377D01*
X102208407Y-143560305D01*
X102560545Y-143325014D01*
X102860014Y-143025545D01*
X103095305Y-142673407D01*
X103251095Y-142297298D01*
X106448640Y-142297298D01*
X106495437Y-142757836D01*
X106631181Y-143200395D01*
X106842546Y-143595832D01*
X107186061Y-143772517D01*
X108668579Y-142290000D01*
X108951421Y-142290000D01*
X110433939Y-143772517D01*
X110777454Y-143595832D01*
X110994405Y-143186911D01*
X111127410Y-142743521D01*
X111171360Y-142282702D01*
X111124563Y-141822164D01*
X111008339Y-141443243D01*
X139040000Y-141443243D01*
X139040000Y-141866757D01*
X139122623Y-142282132D01*
X139284695Y-142673407D01*
X139519986Y-143025545D01*
X139819455Y-143325014D01*
X140171593Y-143560305D01*
X140562868Y-143722377D01*
X140978243Y-143805000D01*
X141401757Y-143805000D01*
X141817132Y-143722377D01*
X142208407Y-143560305D01*
X142560545Y-143325014D01*
X142860014Y-143025545D01*
X143095305Y-142673407D01*
X143251095Y-142297298D01*
X146448640Y-142297298D01*
X146495437Y-142757836D01*
X146631181Y-143200395D01*
X146842546Y-143595832D01*
X147186061Y-143772517D01*
X148668579Y-142290000D01*
X148951421Y-142290000D01*
X150433939Y-143772517D01*
X150777454Y-143595832D01*
X150994405Y-143186911D01*
X151127410Y-142743521D01*
X151171360Y-142282702D01*
X151124563Y-141822164D01*
X150988819Y-141379605D01*
X150777454Y-140984168D01*
X150433939Y-140807483D01*
X148951421Y-142290000D01*
X148668579Y-142290000D01*
X147186061Y-140807483D01*
X146842546Y-140984168D01*
X146625595Y-141393089D01*
X146492590Y-141836479D01*
X146448640Y-142297298D01*
X143251095Y-142297298D01*
X143257377Y-142282132D01*
X143340000Y-141866757D01*
X143340000Y-141443243D01*
X143257377Y-141027868D01*
X143107512Y-140666061D01*
X147327483Y-140666061D01*
X148810000Y-142148579D01*
X150292517Y-140666061D01*
X150115832Y-140322546D01*
X149706911Y-140105595D01*
X149263521Y-139972590D01*
X148802702Y-139928640D01*
X148342164Y-139975437D01*
X147899605Y-140111181D01*
X147504168Y-140322546D01*
X147327483Y-140666061D01*
X143107512Y-140666061D01*
X143095305Y-140636593D01*
X142860014Y-140284455D01*
X142560545Y-139984986D01*
X142208407Y-139749695D01*
X141817132Y-139587623D01*
X141401757Y-139505000D01*
X140978243Y-139505000D01*
X140562868Y-139587623D01*
X140171593Y-139749695D01*
X139819455Y-139984986D01*
X139519986Y-140284455D01*
X139284695Y-140636593D01*
X139122623Y-141027868D01*
X139040000Y-141443243D01*
X111008339Y-141443243D01*
X110988819Y-141379605D01*
X110777454Y-140984168D01*
X110433939Y-140807483D01*
X108951421Y-142290000D01*
X108668579Y-142290000D01*
X107186061Y-140807483D01*
X106842546Y-140984168D01*
X106625595Y-141393089D01*
X106492590Y-141836479D01*
X106448640Y-142297298D01*
X103251095Y-142297298D01*
X103257377Y-142282132D01*
X103340000Y-141866757D01*
X103340000Y-141443243D01*
X103257377Y-141027868D01*
X103107512Y-140666061D01*
X107327483Y-140666061D01*
X108810000Y-142148579D01*
X110292517Y-140666061D01*
X110115832Y-140322546D01*
X109706911Y-140105595D01*
X109263521Y-139972590D01*
X108802702Y-139928640D01*
X108342164Y-139975437D01*
X107899605Y-140111181D01*
X107504168Y-140322546D01*
X107327483Y-140666061D01*
X103107512Y-140666061D01*
X103095305Y-140636593D01*
X102860014Y-140284455D01*
X102560545Y-139984986D01*
X102208407Y-139749695D01*
X101817132Y-139587623D01*
X101401757Y-139505000D01*
X100978243Y-139505000D01*
X100562868Y-139587623D01*
X100171593Y-139749695D01*
X99819455Y-139984986D01*
X99519986Y-140284455D01*
X99284695Y-140636593D01*
X99122623Y-141027868D01*
X99040000Y-141443243D01*
X90475000Y-141443243D01*
X90475000Y-137652866D01*
X103100000Y-137652866D01*
X103100000Y-138027134D01*
X103173016Y-138394209D01*
X103316242Y-138739987D01*
X103524174Y-139051179D01*
X103788821Y-139315826D01*
X104100013Y-139523758D01*
X104445791Y-139666984D01*
X104812866Y-139740000D01*
X105187134Y-139740000D01*
X105554209Y-139666984D01*
X105899987Y-139523758D01*
X106211179Y-139315826D01*
X106475826Y-139051179D01*
X106683758Y-138739987D01*
X106826984Y-138394209D01*
X106900000Y-138027134D01*
X106900000Y-137652866D01*
X143100000Y-137652866D01*
X143100000Y-138027134D01*
X143173016Y-138394209D01*
X143316242Y-138739987D01*
X143524174Y-139051179D01*
X143788821Y-139315826D01*
X144100013Y-139523758D01*
X144445791Y-139666984D01*
X144812866Y-139740000D01*
X145187134Y-139740000D01*
X145554209Y-139666984D01*
X145899987Y-139523758D01*
X146211179Y-139315826D01*
X146475826Y-139051179D01*
X146683758Y-138739987D01*
X146826984Y-138394209D01*
X146900000Y-138027134D01*
X146900000Y-137652866D01*
X146826984Y-137285791D01*
X146683758Y-136940013D01*
X146475826Y-136628821D01*
X146211179Y-136364174D01*
X145899987Y-136156242D01*
X145554209Y-136013016D01*
X145187134Y-135940000D01*
X144812866Y-135940000D01*
X144445791Y-136013016D01*
X144100013Y-136156242D01*
X143788821Y-136364174D01*
X143524174Y-136628821D01*
X143316242Y-136940013D01*
X143173016Y-137285791D01*
X143100000Y-137652866D01*
X106900000Y-137652866D01*
X106826984Y-137285791D01*
X106683758Y-136940013D01*
X106475826Y-136628821D01*
X106211179Y-136364174D01*
X105899987Y-136156242D01*
X105554209Y-136013016D01*
X105187134Y-135940000D01*
X104812866Y-135940000D01*
X104445791Y-136013016D01*
X104100013Y-136156242D01*
X103788821Y-136364174D01*
X103524174Y-136628821D01*
X103316242Y-136940013D01*
X103173016Y-137285791D01*
X103100000Y-137652866D01*
X90475000Y-137652866D01*
X90475000Y-131421207D01*
X93750000Y-131421207D01*
X93750000Y-131578793D01*
X93780743Y-131733351D01*
X93841049Y-131878942D01*
X93928599Y-132009970D01*
X94040030Y-132121401D01*
X94171058Y-132208951D01*
X94316649Y-132269257D01*
X94471207Y-132300000D01*
X94628793Y-132300000D01*
X94783351Y-132269257D01*
X94928942Y-132208951D01*
X95059970Y-132121401D01*
X95081371Y-132100000D01*
X95618629Y-132100000D01*
X95640030Y-132121401D01*
X95771058Y-132208951D01*
X95916649Y-132269257D01*
X96071207Y-132300000D01*
X96228793Y-132300000D01*
X96383351Y-132269257D01*
X96528942Y-132208951D01*
X96659970Y-132121401D01*
X96771401Y-132009970D01*
X96858951Y-131878942D01*
X96919257Y-131733351D01*
X96950000Y-131578793D01*
X96950000Y-131421207D01*
X96919257Y-131266649D01*
X96858951Y-131121058D01*
X96771401Y-130990030D01*
X96659970Y-130878599D01*
X96528942Y-130791049D01*
X96383351Y-130730743D01*
X96228793Y-130700000D01*
X96071207Y-130700000D01*
X95916649Y-130730743D01*
X95771058Y-130791049D01*
X95640030Y-130878599D01*
X95618629Y-130900000D01*
X95081371Y-130900000D01*
X95059970Y-130878599D01*
X94928942Y-130791049D01*
X94783351Y-130730743D01*
X94628793Y-130700000D01*
X94471207Y-130700000D01*
X94316649Y-130730743D01*
X94171058Y-130791049D01*
X94040030Y-130878599D01*
X93928599Y-130990030D01*
X93841049Y-131121058D01*
X93780743Y-131266649D01*
X93750000Y-131421207D01*
X90475000Y-131421207D01*
X90475000Y-130361893D01*
X97509314Y-130361893D01*
X97509314Y-130519479D01*
X97540057Y-130674037D01*
X97600363Y-130819628D01*
X97687913Y-130950656D01*
X97799344Y-131062087D01*
X97930372Y-131149637D01*
X98075963Y-131209943D01*
X98230521Y-131240686D01*
X98388107Y-131240686D01*
X98542665Y-131209943D01*
X98636181Y-131171207D01*
X133750000Y-131171207D01*
X133750000Y-131328793D01*
X133780743Y-131483351D01*
X133841049Y-131628942D01*
X133928599Y-131759970D01*
X134040030Y-131871401D01*
X134171058Y-131958951D01*
X134316649Y-132019257D01*
X134471207Y-132050000D01*
X134628793Y-132050000D01*
X134783351Y-132019257D01*
X134928942Y-131958951D01*
X135059970Y-131871401D01*
X135081371Y-131850000D01*
X135618629Y-131850000D01*
X135640030Y-131871401D01*
X135771058Y-131958951D01*
X135916649Y-132019257D01*
X136071207Y-132050000D01*
X136228793Y-132050000D01*
X136383351Y-132019257D01*
X136528942Y-131958951D01*
X136659970Y-131871401D01*
X136771401Y-131759970D01*
X136858951Y-131628942D01*
X136919257Y-131483351D01*
X136950000Y-131328793D01*
X136950000Y-131171207D01*
X136919257Y-131016649D01*
X136858951Y-130871058D01*
X136771401Y-130740030D01*
X136659970Y-130628599D01*
X136528942Y-130541049D01*
X136383351Y-130480743D01*
X136228793Y-130450000D01*
X136071207Y-130450000D01*
X135916649Y-130480743D01*
X135771058Y-130541049D01*
X135640030Y-130628599D01*
X135618629Y-130650000D01*
X135081371Y-130650000D01*
X135059970Y-130628599D01*
X134928942Y-130541049D01*
X134783351Y-130480743D01*
X134628793Y-130450000D01*
X134471207Y-130450000D01*
X134316649Y-130480743D01*
X134171058Y-130541049D01*
X134040030Y-130628599D01*
X133928599Y-130740030D01*
X133841049Y-130871058D01*
X133780743Y-131016649D01*
X133750000Y-131171207D01*
X98636181Y-131171207D01*
X98688256Y-131149637D01*
X98819284Y-131062087D01*
X98930715Y-130950656D01*
X99018265Y-130819628D01*
X99078571Y-130674037D01*
X99109314Y-130519479D01*
X99109314Y-130489213D01*
X99236634Y-130361893D01*
X137509314Y-130361893D01*
X137509314Y-130519479D01*
X137540057Y-130674037D01*
X137600363Y-130819628D01*
X137687913Y-130950656D01*
X137799344Y-131062087D01*
X137930372Y-131149637D01*
X138075963Y-131209943D01*
X138230521Y-131240686D01*
X138388107Y-131240686D01*
X138542665Y-131209943D01*
X138688256Y-131149637D01*
X138819284Y-131062087D01*
X138930715Y-130950656D01*
X139018265Y-130819628D01*
X139078571Y-130674037D01*
X139109314Y-130519479D01*
X139109314Y-130489213D01*
X139489214Y-130109314D01*
X139519479Y-130109314D01*
X139674037Y-130078571D01*
X139819628Y-130018265D01*
X139950656Y-129930715D01*
X140062087Y-129819284D01*
X140149637Y-129688256D01*
X140209943Y-129542665D01*
X140240686Y-129388107D01*
X140240686Y-129230521D01*
X140209943Y-129075963D01*
X140149637Y-128930372D01*
X140062087Y-128799344D01*
X139950656Y-128687913D01*
X139819628Y-128600363D01*
X139674037Y-128540057D01*
X139519479Y-128509314D01*
X139361893Y-128509314D01*
X139207335Y-128540057D01*
X139061744Y-128600363D01*
X138930716Y-128687913D01*
X138819285Y-128799344D01*
X138731735Y-128930372D01*
X138671429Y-129075963D01*
X138640686Y-129230521D01*
X138640686Y-129260786D01*
X138260787Y-129640686D01*
X138230521Y-129640686D01*
X138075963Y-129671429D01*
X137930372Y-129731735D01*
X137799344Y-129819285D01*
X137687913Y-129930716D01*
X137600363Y-130061744D01*
X137540057Y-130207335D01*
X137509314Y-130361893D01*
X99236634Y-130361893D01*
X99489214Y-130109314D01*
X99519479Y-130109314D01*
X99674037Y-130078571D01*
X99819628Y-130018265D01*
X99950656Y-129930715D01*
X100062087Y-129819284D01*
X100149637Y-129688256D01*
X100209943Y-129542665D01*
X100240686Y-129388107D01*
X100240686Y-129230521D01*
X100209943Y-129075963D01*
X100149637Y-128930372D01*
X100062087Y-128799344D01*
X99950656Y-128687913D01*
X99819628Y-128600363D01*
X99674037Y-128540057D01*
X99519479Y-128509314D01*
X99361893Y-128509314D01*
X99207335Y-128540057D01*
X99061744Y-128600363D01*
X98930716Y-128687913D01*
X98819285Y-128799344D01*
X98731735Y-128930372D01*
X98671429Y-129075963D01*
X98640686Y-129230521D01*
X98640686Y-129260786D01*
X98260787Y-129640686D01*
X98230521Y-129640686D01*
X98075963Y-129671429D01*
X97930372Y-129731735D01*
X97799344Y-129819285D01*
X97687913Y-129930716D01*
X97600363Y-130061744D01*
X97540057Y-130207335D01*
X97509314Y-130361893D01*
X90475000Y-130361893D01*
X90475000Y-109900000D01*
X98697823Y-109900000D01*
X98697823Y-111600000D01*
X98706511Y-111688215D01*
X98732243Y-111773041D01*
X98774029Y-111851216D01*
X98830263Y-111919737D01*
X98898784Y-111975971D01*
X98976959Y-112017757D01*
X99061785Y-112043489D01*
X99150000Y-112052177D01*
X99591305Y-112052177D01*
X99384219Y-112137955D01*
X99171298Y-112280224D01*
X98990224Y-112461298D01*
X98847955Y-112674219D01*
X98749958Y-112910804D01*
X98700000Y-113161961D01*
X98700000Y-113418039D01*
X98749958Y-113669196D01*
X98847955Y-113905781D01*
X98990224Y-114118702D01*
X99171298Y-114299776D01*
X99384219Y-114442045D01*
X99620804Y-114540042D01*
X99721140Y-114560000D01*
X99620804Y-114579958D01*
X99384219Y-114677955D01*
X99171298Y-114820224D01*
X98990224Y-115001298D01*
X98847955Y-115214219D01*
X98749958Y-115450804D01*
X98700000Y-115701961D01*
X98700000Y-115958039D01*
X98749958Y-116209196D01*
X98847955Y-116445781D01*
X98990224Y-116658702D01*
X99171298Y-116839776D01*
X99384219Y-116982045D01*
X99620804Y-117080042D01*
X99871961Y-117130000D01*
X100128039Y-117130000D01*
X100379196Y-117080042D01*
X100615781Y-116982045D01*
X100828702Y-116839776D01*
X101009776Y-116658702D01*
X101152045Y-116445781D01*
X101250042Y-116209196D01*
X101257598Y-116171207D01*
X110250000Y-116171207D01*
X110250000Y-116328793D01*
X110280743Y-116483351D01*
X110341049Y-116628942D01*
X110428599Y-116759970D01*
X110540030Y-116871401D01*
X110671058Y-116958951D01*
X110816649Y-117019257D01*
X110971207Y-117050000D01*
X111128793Y-117050000D01*
X111283351Y-117019257D01*
X111428942Y-116958951D01*
X111559970Y-116871401D01*
X111581371Y-116850000D01*
X112118629Y-116850000D01*
X112140030Y-116871401D01*
X112271058Y-116958951D01*
X112416649Y-117019257D01*
X112571207Y-117050000D01*
X112728793Y-117050000D01*
X112883351Y-117019257D01*
X113028942Y-116958951D01*
X113159970Y-116871401D01*
X113271401Y-116759970D01*
X113358951Y-116628942D01*
X113419257Y-116483351D01*
X113450000Y-116328793D01*
X113450000Y-116171207D01*
X113419257Y-116016649D01*
X113358951Y-115871058D01*
X113271401Y-115740030D01*
X113159970Y-115628599D01*
X113028942Y-115541049D01*
X112883351Y-115480743D01*
X112728793Y-115450000D01*
X112571207Y-115450000D01*
X112416649Y-115480743D01*
X112271058Y-115541049D01*
X112140030Y-115628599D01*
X112118629Y-115650000D01*
X111581371Y-115650000D01*
X111559970Y-115628599D01*
X111428942Y-115541049D01*
X111283351Y-115480743D01*
X111128793Y-115450000D01*
X110971207Y-115450000D01*
X110816649Y-115480743D01*
X110671058Y-115541049D01*
X110540030Y-115628599D01*
X110428599Y-115740030D01*
X110341049Y-115871058D01*
X110280743Y-116016649D01*
X110250000Y-116171207D01*
X101257598Y-116171207D01*
X101300000Y-115958039D01*
X101300000Y-115701961D01*
X101250042Y-115450804D01*
X101152045Y-115214219D01*
X101009776Y-115001298D01*
X100828702Y-114820224D01*
X100615781Y-114677955D01*
X100379196Y-114579958D01*
X100278860Y-114560000D01*
X100379196Y-114540042D01*
X100615781Y-114442045D01*
X100828702Y-114299776D01*
X101009776Y-114118702D01*
X101152045Y-113905781D01*
X101250042Y-113669196D01*
X101300000Y-113418039D01*
X101300000Y-113161961D01*
X101250042Y-112910804D01*
X101152045Y-112674219D01*
X101009776Y-112461298D01*
X100828702Y-112280224D01*
X100615781Y-112137955D01*
X100408695Y-112052177D01*
X100850000Y-112052177D01*
X100938215Y-112043489D01*
X101023041Y-112017757D01*
X101101216Y-111975971D01*
X101169737Y-111919737D01*
X101225971Y-111851216D01*
X101267757Y-111773041D01*
X101293489Y-111688215D01*
X101302177Y-111600000D01*
X101302177Y-109900000D01*
X138697823Y-109900000D01*
X138697823Y-111600000D01*
X138706511Y-111688215D01*
X138732243Y-111773041D01*
X138774029Y-111851216D01*
X138830263Y-111919737D01*
X138898784Y-111975971D01*
X138976959Y-112017757D01*
X139061785Y-112043489D01*
X139150000Y-112052177D01*
X139591305Y-112052177D01*
X139384219Y-112137955D01*
X139171298Y-112280224D01*
X138990224Y-112461298D01*
X138847955Y-112674219D01*
X138749958Y-112910804D01*
X138700000Y-113161961D01*
X138700000Y-113418039D01*
X138749958Y-113669196D01*
X138847955Y-113905781D01*
X138990224Y-114118702D01*
X139171298Y-114299776D01*
X139384219Y-114442045D01*
X139620804Y-114540042D01*
X139721140Y-114560000D01*
X139620804Y-114579958D01*
X139384219Y-114677955D01*
X139171298Y-114820224D01*
X138990224Y-115001298D01*
X138847955Y-115214219D01*
X138749958Y-115450804D01*
X138700000Y-115701961D01*
X138700000Y-115958039D01*
X138749958Y-116209196D01*
X138847955Y-116445781D01*
X138990224Y-116658702D01*
X139171298Y-116839776D01*
X139384219Y-116982045D01*
X139620804Y-117080042D01*
X139871961Y-117130000D01*
X140128039Y-117130000D01*
X140379196Y-117080042D01*
X140615781Y-116982045D01*
X140828702Y-116839776D01*
X141009776Y-116658702D01*
X141152045Y-116445781D01*
X141250042Y-116209196D01*
X141300000Y-115958039D01*
X141300000Y-115701961D01*
X141250042Y-115450804D01*
X141152045Y-115214219D01*
X141083674Y-115111893D01*
X149509314Y-115111893D01*
X149509314Y-115269479D01*
X149540057Y-115424037D01*
X149600363Y-115569628D01*
X149687913Y-115700656D01*
X149799344Y-115812087D01*
X149930372Y-115899637D01*
X150075963Y-115959943D01*
X150230521Y-115990686D01*
X150388107Y-115990686D01*
X150542665Y-115959943D01*
X150688256Y-115899637D01*
X150819284Y-115812087D01*
X150930715Y-115700656D01*
X151018265Y-115569628D01*
X151078571Y-115424037D01*
X151109314Y-115269479D01*
X151109314Y-115239213D01*
X151489214Y-114859314D01*
X151519479Y-114859314D01*
X151674037Y-114828571D01*
X151819628Y-114768265D01*
X151950656Y-114680715D01*
X152062087Y-114569284D01*
X152149637Y-114438256D01*
X152209943Y-114292665D01*
X152240686Y-114138107D01*
X152240686Y-113980521D01*
X152209943Y-113825963D01*
X152149637Y-113680372D01*
X152062087Y-113549344D01*
X151950656Y-113437913D01*
X151819628Y-113350363D01*
X151674037Y-113290057D01*
X151519479Y-113259314D01*
X151361893Y-113259314D01*
X151207335Y-113290057D01*
X151061744Y-113350363D01*
X150930716Y-113437913D01*
X150819285Y-113549344D01*
X150731735Y-113680372D01*
X150671429Y-113825963D01*
X150640686Y-113980521D01*
X150640686Y-114010786D01*
X150260787Y-114390686D01*
X150230521Y-114390686D01*
X150075963Y-114421429D01*
X149930372Y-114481735D01*
X149799344Y-114569285D01*
X149687913Y-114680716D01*
X149600363Y-114811744D01*
X149540057Y-114957335D01*
X149509314Y-115111893D01*
X141083674Y-115111893D01*
X141009776Y-115001298D01*
X140828702Y-114820224D01*
X140615781Y-114677955D01*
X140379196Y-114579958D01*
X140278860Y-114560000D01*
X140379196Y-114540042D01*
X140615781Y-114442045D01*
X140828702Y-114299776D01*
X141009776Y-114118702D01*
X141152045Y-113905781D01*
X141250042Y-113669196D01*
X141300000Y-113418039D01*
X141300000Y-113161961D01*
X141250042Y-112910804D01*
X141152045Y-112674219D01*
X141009776Y-112461298D01*
X140828702Y-112280224D01*
X140615781Y-112137955D01*
X140408695Y-112052177D01*
X140850000Y-112052177D01*
X140938215Y-112043489D01*
X141023041Y-112017757D01*
X141101216Y-111975971D01*
X141169737Y-111919737D01*
X141225971Y-111851216D01*
X141267757Y-111773041D01*
X141293489Y-111688215D01*
X141302177Y-111600000D01*
X141302177Y-109900000D01*
X141293489Y-109811785D01*
X141267757Y-109726959D01*
X141225971Y-109648784D01*
X141169737Y-109580263D01*
X141101216Y-109524029D01*
X141023041Y-109482243D01*
X140938215Y-109456511D01*
X140850000Y-109447823D01*
X139150000Y-109447823D01*
X139061785Y-109456511D01*
X138976959Y-109482243D01*
X138898784Y-109524029D01*
X138830263Y-109580263D01*
X138774029Y-109648784D01*
X138732243Y-109726959D01*
X138706511Y-109811785D01*
X138697823Y-109900000D01*
X101302177Y-109900000D01*
X101293489Y-109811785D01*
X101267757Y-109726959D01*
X101225971Y-109648784D01*
X101169737Y-109580263D01*
X101101216Y-109524029D01*
X101023041Y-109482243D01*
X100938215Y-109456511D01*
X100850000Y-109447823D01*
X99150000Y-109447823D01*
X99061785Y-109456511D01*
X98976959Y-109482243D01*
X98898784Y-109524029D01*
X98830263Y-109580263D01*
X98774029Y-109648784D01*
X98732243Y-109726959D01*
X98706511Y-109811785D01*
X98697823Y-109900000D01*
X90475000Y-109900000D01*
X90475000Y-105958427D01*
X90681835Y-106267978D01*
X91232022Y-106818165D01*
X91878974Y-107250444D01*
X92597828Y-107548203D01*
X93360959Y-107700000D01*
X94139041Y-107700000D01*
X94902172Y-107548203D01*
X95621026Y-107250444D01*
X95650842Y-107230521D01*
X124009314Y-107230521D01*
X124009314Y-107388107D01*
X124040057Y-107542665D01*
X124100363Y-107688256D01*
X124187913Y-107819284D01*
X124299344Y-107930715D01*
X124430372Y-108018265D01*
X124575963Y-108078571D01*
X124730521Y-108109314D01*
X124760787Y-108109314D01*
X125140686Y-108489214D01*
X125140686Y-108519479D01*
X125171429Y-108674037D01*
X125231735Y-108819628D01*
X125319285Y-108950656D01*
X125430716Y-109062087D01*
X125561744Y-109149637D01*
X125707335Y-109209943D01*
X125861893Y-109240686D01*
X126019479Y-109240686D01*
X126174037Y-109209943D01*
X126319628Y-109149637D01*
X126450656Y-109062087D01*
X126562087Y-108950656D01*
X126649637Y-108819628D01*
X126709943Y-108674037D01*
X126740686Y-108519479D01*
X126740686Y-108361893D01*
X126709943Y-108207335D01*
X126649637Y-108061744D01*
X126562087Y-107930716D01*
X126450656Y-107819285D01*
X126319628Y-107731735D01*
X126174037Y-107671429D01*
X126019479Y-107640686D01*
X125989214Y-107640686D01*
X125609314Y-107260787D01*
X125609314Y-107230521D01*
X125578571Y-107075963D01*
X125518265Y-106930372D01*
X125430715Y-106799344D01*
X125319284Y-106687913D01*
X125188256Y-106600363D01*
X125042665Y-106540057D01*
X124888107Y-106509314D01*
X124730521Y-106509314D01*
X124575963Y-106540057D01*
X124430372Y-106600363D01*
X124299344Y-106687913D01*
X124187913Y-106799344D01*
X124100363Y-106930372D01*
X124040057Y-107075963D01*
X124009314Y-107230521D01*
X95650842Y-107230521D01*
X96267978Y-106818165D01*
X96818165Y-106267978D01*
X97250444Y-105621026D01*
X97548203Y-104902172D01*
X97603174Y-104625811D01*
X100515610Y-104625811D01*
X100608138Y-104897674D01*
X100897947Y-105044812D01*
X101210892Y-105132584D01*
X101534949Y-105157616D01*
X101857662Y-105118947D01*
X102166631Y-105018063D01*
X102391862Y-104897674D01*
X102484390Y-104625811D01*
X101500000Y-103641421D01*
X100515610Y-104625811D01*
X97603174Y-104625811D01*
X97700000Y-104139041D01*
X97700000Y-103534949D01*
X99842384Y-103534949D01*
X99881053Y-103857662D01*
X99981937Y-104166631D01*
X100102326Y-104391862D01*
X100374189Y-104484390D01*
X101358579Y-103500000D01*
X101641421Y-103500000D01*
X102625811Y-104484390D01*
X102897674Y-104391862D01*
X103044812Y-104102053D01*
X103132584Y-103789108D01*
X103157616Y-103465051D01*
X103144692Y-103357187D01*
X103550000Y-103357187D01*
X103550000Y-103642813D01*
X103605723Y-103922949D01*
X103715027Y-104186833D01*
X103873711Y-104424321D01*
X104075679Y-104626289D01*
X104313167Y-104784973D01*
X104577051Y-104894277D01*
X104857187Y-104950000D01*
X105142813Y-104950000D01*
X105422949Y-104894277D01*
X105686833Y-104784973D01*
X105924321Y-104626289D01*
X106126289Y-104424321D01*
X106284973Y-104186833D01*
X106394277Y-103922949D01*
X106450000Y-103642813D01*
X106450000Y-103357187D01*
X107050000Y-103357187D01*
X107050000Y-103642813D01*
X107105723Y-103922949D01*
X107215027Y-104186833D01*
X107373711Y-104424321D01*
X107575679Y-104626289D01*
X107813167Y-104784973D01*
X108077051Y-104894277D01*
X108357187Y-104950000D01*
X108642813Y-104950000D01*
X108922949Y-104894277D01*
X109186833Y-104784973D01*
X109424321Y-104626289D01*
X109626289Y-104424321D01*
X109784973Y-104186833D01*
X109894277Y-103922949D01*
X109950000Y-103642813D01*
X109950000Y-103357187D01*
X121800000Y-103357187D01*
X121800000Y-103642813D01*
X121855723Y-103922949D01*
X121965027Y-104186833D01*
X122123711Y-104424321D01*
X122325679Y-104626289D01*
X122563167Y-104784973D01*
X122827051Y-104894277D01*
X123107187Y-104950000D01*
X123392813Y-104950000D01*
X123672949Y-104894277D01*
X123936833Y-104784973D01*
X124174321Y-104626289D01*
X124376289Y-104424321D01*
X124534973Y-104186833D01*
X124644277Y-103922949D01*
X124700000Y-103642813D01*
X124700000Y-103357187D01*
X125300000Y-103357187D01*
X125300000Y-103642813D01*
X125355723Y-103922949D01*
X125465027Y-104186833D01*
X125623711Y-104424321D01*
X125825679Y-104626289D01*
X126063167Y-104784973D01*
X126327051Y-104894277D01*
X126607187Y-104950000D01*
X126892813Y-104950000D01*
X127172949Y-104894277D01*
X127436833Y-104784973D01*
X127674321Y-104626289D01*
X127674799Y-104625811D01*
X140515610Y-104625811D01*
X140608138Y-104897674D01*
X140897947Y-105044812D01*
X141210892Y-105132584D01*
X141534949Y-105157616D01*
X141857662Y-105118947D01*
X142166631Y-105018063D01*
X142391862Y-104897674D01*
X142484390Y-104625811D01*
X141500000Y-103641421D01*
X140515610Y-104625811D01*
X127674799Y-104625811D01*
X127876289Y-104424321D01*
X128034973Y-104186833D01*
X128144277Y-103922949D01*
X128200000Y-103642813D01*
X128200000Y-103534949D01*
X139842384Y-103534949D01*
X139881053Y-103857662D01*
X139981937Y-104166631D01*
X140102326Y-104391862D01*
X140374189Y-104484390D01*
X141358579Y-103500000D01*
X141641421Y-103500000D01*
X142625811Y-104484390D01*
X142897674Y-104391862D01*
X143044812Y-104102053D01*
X143132584Y-103789108D01*
X143157616Y-103465051D01*
X143144692Y-103357187D01*
X143550000Y-103357187D01*
X143550000Y-103642813D01*
X143605723Y-103922949D01*
X143715027Y-104186833D01*
X143873711Y-104424321D01*
X144075679Y-104626289D01*
X144313167Y-104784973D01*
X144577051Y-104894277D01*
X144857187Y-104950000D01*
X145142813Y-104950000D01*
X145422949Y-104894277D01*
X145686833Y-104784973D01*
X145924321Y-104626289D01*
X146126289Y-104424321D01*
X146284973Y-104186833D01*
X146394277Y-103922949D01*
X146450000Y-103642813D01*
X146450000Y-103357187D01*
X147050000Y-103357187D01*
X147050000Y-103642813D01*
X147105723Y-103922949D01*
X147215027Y-104186833D01*
X147373711Y-104424321D01*
X147575679Y-104626289D01*
X147813167Y-104784973D01*
X148077051Y-104894277D01*
X148357187Y-104950000D01*
X148642813Y-104950000D01*
X148922949Y-104894277D01*
X149186833Y-104784973D01*
X149424321Y-104626289D01*
X149626289Y-104424321D01*
X149784973Y-104186833D01*
X149894277Y-103922949D01*
X149950000Y-103642813D01*
X149950000Y-103357187D01*
X149894277Y-103077051D01*
X149784973Y-102813167D01*
X149626289Y-102575679D01*
X149424321Y-102373711D01*
X149186833Y-102215027D01*
X148922949Y-102105723D01*
X148642813Y-102050000D01*
X148357187Y-102050000D01*
X148077051Y-102105723D01*
X147813167Y-102215027D01*
X147575679Y-102373711D01*
X147373711Y-102575679D01*
X147215027Y-102813167D01*
X147105723Y-103077051D01*
X147050000Y-103357187D01*
X146450000Y-103357187D01*
X146394277Y-103077051D01*
X146284973Y-102813167D01*
X146126289Y-102575679D01*
X145924321Y-102373711D01*
X145686833Y-102215027D01*
X145422949Y-102105723D01*
X145142813Y-102050000D01*
X144857187Y-102050000D01*
X144577051Y-102105723D01*
X144313167Y-102215027D01*
X144075679Y-102373711D01*
X143873711Y-102575679D01*
X143715027Y-102813167D01*
X143605723Y-103077051D01*
X143550000Y-103357187D01*
X143144692Y-103357187D01*
X143118947Y-103142338D01*
X143018063Y-102833369D01*
X142897674Y-102608138D01*
X142625811Y-102515610D01*
X141641421Y-103500000D01*
X141358579Y-103500000D01*
X140374189Y-102515610D01*
X140102326Y-102608138D01*
X139955188Y-102897947D01*
X139867416Y-103210892D01*
X139842384Y-103534949D01*
X128200000Y-103534949D01*
X128200000Y-103357187D01*
X128144277Y-103077051D01*
X128034973Y-102813167D01*
X127876289Y-102575679D01*
X127674799Y-102374189D01*
X140515610Y-102374189D01*
X141500000Y-103358579D01*
X142484390Y-102374189D01*
X142391862Y-102102326D01*
X142102053Y-101955188D01*
X141789108Y-101867416D01*
X141465051Y-101842384D01*
X141142338Y-101881053D01*
X140833369Y-101981937D01*
X140608138Y-102102326D01*
X140515610Y-102374189D01*
X127674799Y-102374189D01*
X127674321Y-102373711D01*
X127436833Y-102215027D01*
X127172949Y-102105723D01*
X126892813Y-102050000D01*
X126607187Y-102050000D01*
X126327051Y-102105723D01*
X126063167Y-102215027D01*
X125825679Y-102373711D01*
X125623711Y-102575679D01*
X125465027Y-102813167D01*
X125355723Y-103077051D01*
X125300000Y-103357187D01*
X124700000Y-103357187D01*
X124644277Y-103077051D01*
X124534973Y-102813167D01*
X124376289Y-102575679D01*
X124174321Y-102373711D01*
X123936833Y-102215027D01*
X123672949Y-102105723D01*
X123392813Y-102050000D01*
X123107187Y-102050000D01*
X122827051Y-102105723D01*
X122563167Y-102215027D01*
X122325679Y-102373711D01*
X122123711Y-102575679D01*
X121965027Y-102813167D01*
X121855723Y-103077051D01*
X121800000Y-103357187D01*
X109950000Y-103357187D01*
X109894277Y-103077051D01*
X109784973Y-102813167D01*
X109626289Y-102575679D01*
X109424321Y-102373711D01*
X109186833Y-102215027D01*
X108922949Y-102105723D01*
X108642813Y-102050000D01*
X108357187Y-102050000D01*
X108077051Y-102105723D01*
X107813167Y-102215027D01*
X107575679Y-102373711D01*
X107373711Y-102575679D01*
X107215027Y-102813167D01*
X107105723Y-103077051D01*
X107050000Y-103357187D01*
X106450000Y-103357187D01*
X106394277Y-103077051D01*
X106284973Y-102813167D01*
X106126289Y-102575679D01*
X105924321Y-102373711D01*
X105686833Y-102215027D01*
X105422949Y-102105723D01*
X105142813Y-102050000D01*
X104857187Y-102050000D01*
X104577051Y-102105723D01*
X104313167Y-102215027D01*
X104075679Y-102373711D01*
X103873711Y-102575679D01*
X103715027Y-102813167D01*
X103605723Y-103077051D01*
X103550000Y-103357187D01*
X103144692Y-103357187D01*
X103118947Y-103142338D01*
X103018063Y-102833369D01*
X102897674Y-102608138D01*
X102625811Y-102515610D01*
X101641421Y-103500000D01*
X101358579Y-103500000D01*
X100374189Y-102515610D01*
X100102326Y-102608138D01*
X99955188Y-102897947D01*
X99867416Y-103210892D01*
X99842384Y-103534949D01*
X97700000Y-103534949D01*
X97700000Y-103360959D01*
X97548203Y-102597828D01*
X97455569Y-102374189D01*
X100515610Y-102374189D01*
X101500000Y-103358579D01*
X102484390Y-102374189D01*
X102391862Y-102102326D01*
X102102053Y-101955188D01*
X101789108Y-101867416D01*
X101465051Y-101842384D01*
X101142338Y-101881053D01*
X100833369Y-101981937D01*
X100608138Y-102102326D01*
X100515610Y-102374189D01*
X97455569Y-102374189D01*
X97250444Y-101878974D01*
X96818165Y-101232022D01*
X96267978Y-100681835D01*
X95958427Y-100475000D01*
X154041573Y-100475000D01*
X153732022Y-100681835D01*
%TD*%
M02*
