%TF.GenerationSoftware,KiCad,Pcbnew,(5.1.6-0)*%
%TF.CreationDate,2023-06-01T15:50:37-07:00*%
%TF.ProjectId,input_buffer_bal_XLR_SMD_1206,696e7075-745f-4627-9566-6665725f6261,rev?*%
%TF.SameCoordinates,Original*%
%TF.FileFunction,Legend,Bot*%
%TF.FilePolarity,Positive*%
%FSLAX46Y46*%
G04 Gerber Fmt 4.6, Leading zero omitted, Abs format (unit mm)*
G04 Created by KiCad (PCBNEW (5.1.6-0)) date 2023-06-01 15:50:37*
%MOMM*%
%LPD*%
G01*
G04 APERTURE LIST*
%ADD10C,0.150000*%
G04 APERTURE END LIST*
D10*
X124321428Y-132952380D02*
X124654761Y-132476190D01*
X124892857Y-132952380D02*
X124892857Y-131952380D01*
X124511904Y-131952380D01*
X124416666Y-132000000D01*
X124369047Y-132047619D01*
X124321428Y-132142857D01*
X124321428Y-132285714D01*
X124369047Y-132380952D01*
X124416666Y-132428571D01*
X124511904Y-132476190D01*
X124892857Y-132476190D01*
X123511904Y-132904761D02*
X123607142Y-132952380D01*
X123797619Y-132952380D01*
X123892857Y-132904761D01*
X123940476Y-132809523D01*
X123940476Y-132428571D01*
X123892857Y-132333333D01*
X123797619Y-132285714D01*
X123607142Y-132285714D01*
X123511904Y-132333333D01*
X123464285Y-132428571D01*
X123464285Y-132523809D01*
X123940476Y-132619047D01*
X123130952Y-132285714D02*
X122892857Y-132952380D01*
X122654761Y-132285714D01*
X120988095Y-132952380D02*
X121559523Y-132952380D01*
X121273809Y-132952380D02*
X121273809Y-131952380D01*
X121369047Y-132095238D01*
X121464285Y-132190476D01*
X121559523Y-132238095D01*
X120559523Y-132857142D02*
X120511904Y-132904761D01*
X120559523Y-132952380D01*
X120607142Y-132904761D01*
X120559523Y-132857142D01*
X120559523Y-132952380D01*
X120130952Y-132047619D02*
X120083333Y-132000000D01*
X119988095Y-131952380D01*
X119750000Y-131952380D01*
X119654761Y-132000000D01*
X119607142Y-132047619D01*
X119559523Y-132142857D01*
X119559523Y-132238095D01*
X119607142Y-132380952D01*
X120178571Y-132952380D01*
X119559523Y-132952380D01*
X124976190Y-130202380D02*
X124976190Y-130916666D01*
X125023809Y-131059523D01*
X125119047Y-131154761D01*
X125261904Y-131202380D01*
X125357142Y-131202380D01*
X124071428Y-130535714D02*
X124071428Y-131202380D01*
X124500000Y-130535714D02*
X124500000Y-131059523D01*
X124452380Y-131154761D01*
X124357142Y-131202380D01*
X124214285Y-131202380D01*
X124119047Y-131154761D01*
X124071428Y-131107142D01*
X123595238Y-130535714D02*
X123595238Y-131202380D01*
X123595238Y-130630952D02*
X123547619Y-130583333D01*
X123452380Y-130535714D01*
X123309523Y-130535714D01*
X123214285Y-130583333D01*
X123166666Y-130678571D01*
X123166666Y-131202380D01*
X122309523Y-131154761D02*
X122404761Y-131202380D01*
X122595238Y-131202380D01*
X122690476Y-131154761D01*
X122738095Y-131059523D01*
X122738095Y-130678571D01*
X122690476Y-130583333D01*
X122595238Y-130535714D01*
X122404761Y-130535714D01*
X122309523Y-130583333D01*
X122261904Y-130678571D01*
X122261904Y-130773809D01*
X122738095Y-130869047D01*
X121119047Y-130297619D02*
X121071428Y-130250000D01*
X120976190Y-130202380D01*
X120738095Y-130202380D01*
X120642857Y-130250000D01*
X120595238Y-130297619D01*
X120547619Y-130392857D01*
X120547619Y-130488095D01*
X120595238Y-130630952D01*
X121166666Y-131202380D01*
X120547619Y-131202380D01*
X119928571Y-130202380D02*
X119833333Y-130202380D01*
X119738095Y-130250000D01*
X119690476Y-130297619D01*
X119642857Y-130392857D01*
X119595238Y-130583333D01*
X119595238Y-130821428D01*
X119642857Y-131011904D01*
X119690476Y-131107142D01*
X119738095Y-131154761D01*
X119833333Y-131202380D01*
X119928571Y-131202380D01*
X120023809Y-131154761D01*
X120071428Y-131107142D01*
X120119047Y-131011904D01*
X120166666Y-130821428D01*
X120166666Y-130583333D01*
X120119047Y-130392857D01*
X120071428Y-130297619D01*
X120023809Y-130250000D01*
X119928571Y-130202380D01*
X119214285Y-130297619D02*
X119166666Y-130250000D01*
X119071428Y-130202380D01*
X118833333Y-130202380D01*
X118738095Y-130250000D01*
X118690476Y-130297619D01*
X118642857Y-130392857D01*
X118642857Y-130488095D01*
X118690476Y-130630952D01*
X119261904Y-131202380D01*
X118642857Y-131202380D01*
X118309523Y-130202380D02*
X117690476Y-130202380D01*
X118023809Y-130583333D01*
X117880952Y-130583333D01*
X117785714Y-130630952D01*
X117738095Y-130678571D01*
X117690476Y-130773809D01*
X117690476Y-131011904D01*
X117738095Y-131107142D01*
X117785714Y-131154761D01*
X117880952Y-131202380D01*
X118166666Y-131202380D01*
X118261904Y-131154761D01*
X118309523Y-131107142D01*
M02*
