%TF.GenerationSoftware,KiCad,Pcbnew,(5.1.6-0)*%
%TF.CreationDate,2023-05-06T12:18:03-07:00*%
%TF.ProjectId,input_buffer_bal_XLR_SMD_1206,696e7075-745f-4627-9566-6665725f6261,rev?*%
%TF.SameCoordinates,Original*%
%TF.FileFunction,Legend,Top*%
%TF.FilePolarity,Positive*%
%FSLAX46Y46*%
G04 Gerber Fmt 4.6, Leading zero omitted, Abs format (unit mm)*
G04 Created by KiCad (PCBNEW (5.1.6-0)) date 2023-05-06 12:18:03*
%MOMM*%
%LPD*%
G01*
G04 APERTURE LIST*
%ADD10C,0.150000*%
%ADD11C,0.120000*%
G04 APERTURE END LIST*
D10*
X122678571Y-152689270D02*
X122726190Y-152552366D01*
X122773809Y-152510699D01*
X122869047Y-152474985D01*
X123011904Y-152492842D01*
X123107142Y-152552366D01*
X123154761Y-152605937D01*
X123202380Y-152707127D01*
X123202380Y-153088080D01*
X122202380Y-152963080D01*
X122202380Y-152629747D01*
X122250000Y-152540461D01*
X122297619Y-152498794D01*
X122392857Y-152463080D01*
X122488095Y-152474985D01*
X122583333Y-152534508D01*
X122630952Y-152588080D01*
X122678571Y-152689270D01*
X122678571Y-153022604D01*
X123202380Y-152088080D02*
X122535714Y-152004747D01*
X122202380Y-151963080D02*
X122250000Y-152016651D01*
X122297619Y-151974985D01*
X122250000Y-151921413D01*
X122202380Y-151963080D01*
X122297619Y-151974985D01*
X123202380Y-151469032D02*
X123154761Y-151558318D01*
X123059523Y-151594032D01*
X122202380Y-151486889D01*
X123202380Y-150945223D02*
X123154761Y-151034508D01*
X123107142Y-151076175D01*
X123011904Y-151111889D01*
X122726190Y-151076175D01*
X122630952Y-151016651D01*
X122583333Y-150963080D01*
X122535714Y-150861889D01*
X122535714Y-150719032D01*
X122583333Y-150629747D01*
X122630952Y-150588080D01*
X122726190Y-150552366D01*
X123011904Y-150588080D01*
X123107142Y-150647604D01*
X123154761Y-150701175D01*
X123202380Y-150802366D01*
X123202380Y-150945223D01*
X122535714Y-149671413D02*
X123202380Y-149754747D01*
X122535714Y-150099985D02*
X123059523Y-150165461D01*
X123154761Y-150129747D01*
X123202380Y-150040461D01*
X123202380Y-149897604D01*
X123154761Y-149796413D01*
X123107142Y-149742842D01*
X123154761Y-149320223D02*
X123202380Y-149230937D01*
X123202380Y-149040461D01*
X123154761Y-148939270D01*
X123059523Y-148879747D01*
X123011904Y-148873794D01*
X122916666Y-148909508D01*
X122869047Y-148998794D01*
X122869047Y-149141651D01*
X122821428Y-149230937D01*
X122726190Y-149266651D01*
X122678571Y-149260699D01*
X122583333Y-149201175D01*
X122535714Y-149099985D01*
X122535714Y-148957127D01*
X122583333Y-148867842D01*
X123154761Y-147748794D02*
X123202380Y-147611889D01*
X123202380Y-147373794D01*
X123154761Y-147272604D01*
X123107142Y-147219032D01*
X123011904Y-147159508D01*
X122916666Y-147147604D01*
X122821428Y-147183318D01*
X122773809Y-147224985D01*
X122726190Y-147314270D01*
X122678571Y-147498794D01*
X122630952Y-147588080D01*
X122583333Y-147629747D01*
X122488095Y-147665461D01*
X122392857Y-147653556D01*
X122297619Y-147594032D01*
X122250000Y-147540461D01*
X122202380Y-147439270D01*
X122202380Y-147201175D01*
X122250000Y-147064270D01*
X123202380Y-146611889D02*
X123154761Y-146701175D01*
X123107142Y-146742842D01*
X123011904Y-146778556D01*
X122726190Y-146742842D01*
X122630952Y-146683318D01*
X122583333Y-146629747D01*
X122535714Y-146528556D01*
X122535714Y-146385699D01*
X122583333Y-146296413D01*
X122630952Y-146254747D01*
X122726190Y-146219032D01*
X123011904Y-146254747D01*
X123107142Y-146314270D01*
X123154761Y-146367842D01*
X123202380Y-146469032D01*
X123202380Y-146611889D01*
X122535714Y-145338080D02*
X123202380Y-145421413D01*
X122535714Y-145766651D02*
X123059523Y-145832127D01*
X123154761Y-145796413D01*
X123202380Y-145707127D01*
X123202380Y-145564270D01*
X123154761Y-145463080D01*
X123107142Y-145409508D01*
X122535714Y-144861889D02*
X123202380Y-144945223D01*
X122630952Y-144873794D02*
X122583333Y-144820223D01*
X122535714Y-144719032D01*
X122535714Y-144576175D01*
X122583333Y-144486889D01*
X122678571Y-144451175D01*
X123202380Y-144516651D01*
X123202380Y-143611889D02*
X122202380Y-143486889D01*
X123154761Y-143605937D02*
X123202380Y-143707127D01*
X123202380Y-143897604D01*
X123154761Y-143986889D01*
X123107142Y-144028556D01*
X123011904Y-144064270D01*
X122726190Y-144028556D01*
X122630952Y-143969032D01*
X122583333Y-143915461D01*
X122535714Y-143814270D01*
X122535714Y-143623794D01*
X122583333Y-143534508D01*
X91952380Y-144321428D02*
X90952380Y-144321428D01*
X91952380Y-143750000D01*
X90952380Y-143750000D01*
X91904761Y-142892857D02*
X91952380Y-142988095D01*
X91952380Y-143178571D01*
X91904761Y-143273809D01*
X91809523Y-143321428D01*
X91428571Y-143321428D01*
X91333333Y-143273809D01*
X91285714Y-143178571D01*
X91285714Y-142988095D01*
X91333333Y-142892857D01*
X91428571Y-142845238D01*
X91523809Y-142845238D01*
X91619047Y-143321428D01*
X91285714Y-141988095D02*
X91952380Y-141988095D01*
X91285714Y-142416666D02*
X91809523Y-142416666D01*
X91904761Y-142369047D01*
X91952380Y-142273809D01*
X91952380Y-142130952D01*
X91904761Y-142035714D01*
X91857142Y-141988095D01*
X91285714Y-141654761D02*
X91285714Y-141273809D01*
X90952380Y-141511904D02*
X91809523Y-141511904D01*
X91904761Y-141464285D01*
X91952380Y-141369047D01*
X91952380Y-141273809D01*
X91952380Y-140940476D02*
X91285714Y-140940476D01*
X91476190Y-140940476D02*
X91380952Y-140892857D01*
X91333333Y-140845238D01*
X91285714Y-140750000D01*
X91285714Y-140654761D01*
X91952380Y-140321428D02*
X91285714Y-140321428D01*
X90952380Y-140321428D02*
X91000000Y-140369047D01*
X91047619Y-140321428D01*
X91000000Y-140273809D01*
X90952380Y-140321428D01*
X91047619Y-140321428D01*
X91952380Y-139845238D02*
X90952380Y-139845238D01*
X91571428Y-139750000D02*
X91952380Y-139464285D01*
X91285714Y-139464285D02*
X91666666Y-139845238D01*
X91952380Y-138273809D02*
X90952380Y-138273809D01*
X91952380Y-137702380D01*
X90952380Y-137702380D01*
X91857142Y-136654761D02*
X91904761Y-136702380D01*
X91952380Y-136845238D01*
X91952380Y-136940476D01*
X91904761Y-137083333D01*
X91809523Y-137178571D01*
X91714285Y-137226190D01*
X91523809Y-137273809D01*
X91380952Y-137273809D01*
X91190476Y-137226190D01*
X91095238Y-137178571D01*
X91000000Y-137083333D01*
X90952380Y-136940476D01*
X90952380Y-136845238D01*
X91000000Y-136702380D01*
X91047619Y-136654761D01*
X90952380Y-136321428D02*
X90952380Y-135702380D01*
X91333333Y-136035714D01*
X91333333Y-135892857D01*
X91380952Y-135797619D01*
X91428571Y-135750000D01*
X91523809Y-135702380D01*
X91761904Y-135702380D01*
X91857142Y-135750000D01*
X91904761Y-135797619D01*
X91952380Y-135892857D01*
X91952380Y-136178571D01*
X91904761Y-136273809D01*
X91857142Y-136321428D01*
X91428571Y-134940476D02*
X91428571Y-135273809D01*
X91952380Y-135273809D02*
X90952380Y-135273809D01*
X90952380Y-134797619D01*
X91666666Y-134464285D02*
X91666666Y-133988095D01*
X91952380Y-134559523D02*
X90952380Y-134226190D01*
X91952380Y-133892857D01*
X91666666Y-133607142D02*
X91666666Y-133130952D01*
X91952380Y-133702380D02*
X90952380Y-133369047D01*
X91952380Y-133035714D01*
X91952380Y-132702380D02*
X90952380Y-132702380D01*
X91428571Y-132702380D02*
X91428571Y-132130952D01*
X91952380Y-132130952D02*
X90952380Y-132130952D01*
X91047619Y-131702380D02*
X91000000Y-131654761D01*
X90952380Y-131559523D01*
X90952380Y-131321428D01*
X91000000Y-131226190D01*
X91047619Y-131178571D01*
X91142857Y-131130952D01*
X91238095Y-131130952D01*
X91380952Y-131178571D01*
X91952380Y-131750000D01*
X91952380Y-131130952D01*
X150952380Y-144321428D02*
X149952380Y-144321428D01*
X150952380Y-143750000D01*
X149952380Y-143750000D01*
X150904761Y-142892857D02*
X150952380Y-142988095D01*
X150952380Y-143178571D01*
X150904761Y-143273809D01*
X150809523Y-143321428D01*
X150428571Y-143321428D01*
X150333333Y-143273809D01*
X150285714Y-143178571D01*
X150285714Y-142988095D01*
X150333333Y-142892857D01*
X150428571Y-142845238D01*
X150523809Y-142845238D01*
X150619047Y-143321428D01*
X150285714Y-141988095D02*
X150952380Y-141988095D01*
X150285714Y-142416666D02*
X150809523Y-142416666D01*
X150904761Y-142369047D01*
X150952380Y-142273809D01*
X150952380Y-142130952D01*
X150904761Y-142035714D01*
X150857142Y-141988095D01*
X150285714Y-141654761D02*
X150285714Y-141273809D01*
X149952380Y-141511904D02*
X150809523Y-141511904D01*
X150904761Y-141464285D01*
X150952380Y-141369047D01*
X150952380Y-141273809D01*
X150952380Y-140940476D02*
X150285714Y-140940476D01*
X150476190Y-140940476D02*
X150380952Y-140892857D01*
X150333333Y-140845238D01*
X150285714Y-140750000D01*
X150285714Y-140654761D01*
X150952380Y-140321428D02*
X150285714Y-140321428D01*
X149952380Y-140321428D02*
X150000000Y-140369047D01*
X150047619Y-140321428D01*
X150000000Y-140273809D01*
X149952380Y-140321428D01*
X150047619Y-140321428D01*
X150952380Y-139845238D02*
X149952380Y-139845238D01*
X150571428Y-139750000D02*
X150952380Y-139464285D01*
X150285714Y-139464285D02*
X150666666Y-139845238D01*
X150952380Y-138273809D02*
X149952380Y-138273809D01*
X150952380Y-137702380D01*
X149952380Y-137702380D01*
X150857142Y-136654761D02*
X150904761Y-136702380D01*
X150952380Y-136845238D01*
X150952380Y-136940476D01*
X150904761Y-137083333D01*
X150809523Y-137178571D01*
X150714285Y-137226190D01*
X150523809Y-137273809D01*
X150380952Y-137273809D01*
X150190476Y-137226190D01*
X150095238Y-137178571D01*
X150000000Y-137083333D01*
X149952380Y-136940476D01*
X149952380Y-136845238D01*
X150000000Y-136702380D01*
X150047619Y-136654761D01*
X149952380Y-136321428D02*
X149952380Y-135702380D01*
X150333333Y-136035714D01*
X150333333Y-135892857D01*
X150380952Y-135797619D01*
X150428571Y-135750000D01*
X150523809Y-135702380D01*
X150761904Y-135702380D01*
X150857142Y-135750000D01*
X150904761Y-135797619D01*
X150952380Y-135892857D01*
X150952380Y-136178571D01*
X150904761Y-136273809D01*
X150857142Y-136321428D01*
X150428571Y-134940476D02*
X150428571Y-135273809D01*
X150952380Y-135273809D02*
X149952380Y-135273809D01*
X149952380Y-134797619D01*
X150666666Y-134464285D02*
X150666666Y-133988095D01*
X150952380Y-134559523D02*
X149952380Y-134226190D01*
X150952380Y-133892857D01*
X150666666Y-133607142D02*
X150666666Y-133130952D01*
X150952380Y-133702380D02*
X149952380Y-133369047D01*
X150952380Y-133035714D01*
X150952380Y-132702380D02*
X149952380Y-132702380D01*
X150428571Y-132702380D02*
X150428571Y-132130952D01*
X150952380Y-132130952D02*
X149952380Y-132130952D01*
X150047619Y-131702380D02*
X150000000Y-131654761D01*
X149952380Y-131559523D01*
X149952380Y-131321428D01*
X150000000Y-131226190D01*
X150047619Y-131178571D01*
X150142857Y-131130952D01*
X150238095Y-131130952D01*
X150380952Y-131178571D01*
X150952380Y-131750000D01*
X150952380Y-131130952D01*
X117059523Y-137902380D02*
X117678571Y-137902380D01*
X117345238Y-138283333D01*
X117488095Y-138283333D01*
X117583333Y-138330952D01*
X117630952Y-138378571D01*
X117678571Y-138473809D01*
X117678571Y-138711904D01*
X117630952Y-138807142D01*
X117583333Y-138854761D01*
X117488095Y-138902380D01*
X117202380Y-138902380D01*
X117107142Y-138854761D01*
X117059523Y-138807142D01*
X118583333Y-137902380D02*
X118107142Y-137902380D01*
X118059523Y-138378571D01*
X118107142Y-138330952D01*
X118202380Y-138283333D01*
X118440476Y-138283333D01*
X118535714Y-138330952D01*
X118583333Y-138378571D01*
X118630952Y-138473809D01*
X118630952Y-138711904D01*
X118583333Y-138807142D01*
X118535714Y-138854761D01*
X118440476Y-138902380D01*
X118202380Y-138902380D01*
X118107142Y-138854761D01*
X118059523Y-138807142D01*
X119059523Y-138807142D02*
X119107142Y-138854761D01*
X119059523Y-138902380D01*
X119011904Y-138854761D01*
X119059523Y-138807142D01*
X119059523Y-138902380D01*
X119726190Y-137902380D02*
X119821428Y-137902380D01*
X119916666Y-137950000D01*
X119964285Y-137997619D01*
X120011904Y-138092857D01*
X120059523Y-138283333D01*
X120059523Y-138521428D01*
X120011904Y-138711904D01*
X119964285Y-138807142D01*
X119916666Y-138854761D01*
X119821428Y-138902380D01*
X119726190Y-138902380D01*
X119630952Y-138854761D01*
X119583333Y-138807142D01*
X119535714Y-138711904D01*
X119488095Y-138521428D01*
X119488095Y-138283333D01*
X119535714Y-138092857D01*
X119583333Y-137997619D01*
X119630952Y-137950000D01*
X119726190Y-137902380D01*
X120678571Y-137902380D02*
X120773809Y-137902380D01*
X120869047Y-137950000D01*
X120916666Y-137997619D01*
X120964285Y-138092857D01*
X121011904Y-138283333D01*
X121011904Y-138521428D01*
X120964285Y-138711904D01*
X120916666Y-138807142D01*
X120869047Y-138854761D01*
X120773809Y-138902380D01*
X120678571Y-138902380D01*
X120583333Y-138854761D01*
X120535714Y-138807142D01*
X120488095Y-138711904D01*
X120440476Y-138521428D01*
X120440476Y-138283333D01*
X120488095Y-138092857D01*
X120535714Y-137997619D01*
X120583333Y-137950000D01*
X120678571Y-137902380D01*
X121630952Y-137902380D02*
X121726190Y-137902380D01*
X121821428Y-137950000D01*
X121869047Y-137997619D01*
X121916666Y-138092857D01*
X121964285Y-138283333D01*
X121964285Y-138521428D01*
X121916666Y-138711904D01*
X121869047Y-138807142D01*
X121821428Y-138854761D01*
X121726190Y-138902380D01*
X121630952Y-138902380D01*
X121535714Y-138854761D01*
X121488095Y-138807142D01*
X121440476Y-138711904D01*
X121392857Y-138521428D01*
X121392857Y-138283333D01*
X121440476Y-138092857D01*
X121488095Y-137997619D01*
X121535714Y-137950000D01*
X121630952Y-137902380D01*
X123154761Y-138902380D02*
X123154761Y-138235714D01*
X123154761Y-138330952D02*
X123202380Y-138283333D01*
X123297619Y-138235714D01*
X123440476Y-138235714D01*
X123535714Y-138283333D01*
X123583333Y-138378571D01*
X123583333Y-138902380D01*
X123583333Y-138378571D02*
X123630952Y-138283333D01*
X123726190Y-138235714D01*
X123869047Y-138235714D01*
X123964285Y-138283333D01*
X124011904Y-138378571D01*
X124011904Y-138902380D01*
X124488095Y-138902380D02*
X124488095Y-138235714D01*
X124488095Y-138330952D02*
X124535714Y-138283333D01*
X124630952Y-138235714D01*
X124773809Y-138235714D01*
X124869047Y-138283333D01*
X124916666Y-138378571D01*
X124916666Y-138902380D01*
X124916666Y-138378571D02*
X124964285Y-138283333D01*
X125059523Y-138235714D01*
X125202380Y-138235714D01*
X125297619Y-138283333D01*
X125345238Y-138378571D01*
X125345238Y-138902380D01*
X103750000Y-139750000D02*
X138750000Y-139750000D01*
X103750000Y-148250000D02*
X103750000Y-139163579D01*
X138750000Y-148250000D02*
X138750000Y-139163579D01*
X138750000Y-139750000D02*
X137623496Y-140336421D01*
X138750000Y-139750000D02*
X137623496Y-139163579D01*
X103750000Y-139750000D02*
X104876504Y-140336421D01*
X103750000Y-139750000D02*
X104876504Y-139163579D01*
D11*
X138750000Y-152750000D02*
X138750000Y-154250000D01*
X103750000Y-153000000D02*
X103750000Y-154500000D01*
D10*
X123988095Y-114071428D02*
X124750000Y-114071428D01*
X125750000Y-114452380D02*
X125178571Y-114452380D01*
X125464285Y-114452380D02*
X125464285Y-113452380D01*
X125369047Y-113595238D01*
X125273809Y-113690476D01*
X125178571Y-113738095D01*
X126654761Y-113452380D02*
X126178571Y-113452380D01*
X126130952Y-113928571D01*
X126178571Y-113880952D01*
X126273809Y-113833333D01*
X126511904Y-113833333D01*
X126607142Y-113880952D01*
X126654761Y-113928571D01*
X126702380Y-114023809D01*
X126702380Y-114261904D01*
X126654761Y-114357142D01*
X126607142Y-114404761D01*
X126511904Y-114452380D01*
X126273809Y-114452380D01*
X126178571Y-114404761D01*
X126130952Y-114357142D01*
X126988095Y-113452380D02*
X127321428Y-114452380D01*
X127654761Y-113452380D01*
X114738095Y-114071428D02*
X115500000Y-114071428D01*
X115119047Y-114452380D02*
X115119047Y-113690476D01*
X116500000Y-114452380D02*
X115928571Y-114452380D01*
X116214285Y-114452380D02*
X116214285Y-113452380D01*
X116119047Y-113595238D01*
X116023809Y-113690476D01*
X115928571Y-113738095D01*
X117404761Y-113452380D02*
X116928571Y-113452380D01*
X116880952Y-113928571D01*
X116928571Y-113880952D01*
X117023809Y-113833333D01*
X117261904Y-113833333D01*
X117357142Y-113880952D01*
X117404761Y-113928571D01*
X117452380Y-114023809D01*
X117452380Y-114261904D01*
X117404761Y-114357142D01*
X117357142Y-114404761D01*
X117261904Y-114452380D01*
X117023809Y-114452380D01*
X116928571Y-114404761D01*
X116880952Y-114357142D01*
X117738095Y-113452380D02*
X118071428Y-114452380D01*
X118404761Y-113452380D01*
X108880952Y-113452380D02*
X109071428Y-113452380D01*
X109166666Y-113500000D01*
X109261904Y-113595238D01*
X109309523Y-113785714D01*
X109309523Y-114119047D01*
X109261904Y-114309523D01*
X109166666Y-114404761D01*
X109071428Y-114452380D01*
X108880952Y-114452380D01*
X108785714Y-114404761D01*
X108690476Y-114309523D01*
X108642857Y-114119047D01*
X108642857Y-113785714D01*
X108690476Y-113595238D01*
X108785714Y-113500000D01*
X108880952Y-113452380D01*
X109738095Y-113452380D02*
X109738095Y-114261904D01*
X109785714Y-114357142D01*
X109833333Y-114404761D01*
X109928571Y-114452380D01*
X110119047Y-114452380D01*
X110214285Y-114404761D01*
X110261904Y-114357142D01*
X110309523Y-114261904D01*
X110309523Y-113452380D01*
X110642857Y-113452380D02*
X111214285Y-113452380D01*
X110928571Y-114452380D02*
X110928571Y-113452380D01*
X111547619Y-114071428D02*
X112309523Y-114071428D01*
X141380952Y-113452380D02*
X141571428Y-113452380D01*
X141666666Y-113500000D01*
X141761904Y-113595238D01*
X141809523Y-113785714D01*
X141809523Y-114119047D01*
X141761904Y-114309523D01*
X141666666Y-114404761D01*
X141571428Y-114452380D01*
X141380952Y-114452380D01*
X141285714Y-114404761D01*
X141190476Y-114309523D01*
X141142857Y-114119047D01*
X141142857Y-113785714D01*
X141190476Y-113595238D01*
X141285714Y-113500000D01*
X141380952Y-113452380D01*
X142238095Y-113452380D02*
X142238095Y-114261904D01*
X142285714Y-114357142D01*
X142333333Y-114404761D01*
X142428571Y-114452380D01*
X142619047Y-114452380D01*
X142714285Y-114404761D01*
X142761904Y-114357142D01*
X142809523Y-114261904D01*
X142809523Y-113452380D01*
X143142857Y-113452380D02*
X143714285Y-113452380D01*
X143428571Y-114452380D02*
X143428571Y-113452380D01*
X144047619Y-114071428D02*
X144809523Y-114071428D01*
X136380952Y-113452380D02*
X136571428Y-113452380D01*
X136666666Y-113500000D01*
X136761904Y-113595238D01*
X136809523Y-113785714D01*
X136809523Y-114119047D01*
X136761904Y-114309523D01*
X136666666Y-114404761D01*
X136571428Y-114452380D01*
X136380952Y-114452380D01*
X136285714Y-114404761D01*
X136190476Y-114309523D01*
X136142857Y-114119047D01*
X136142857Y-113785714D01*
X136190476Y-113595238D01*
X136285714Y-113500000D01*
X136380952Y-113452380D01*
X137238095Y-113452380D02*
X137238095Y-114261904D01*
X137285714Y-114357142D01*
X137333333Y-114404761D01*
X137428571Y-114452380D01*
X137619047Y-114452380D01*
X137714285Y-114404761D01*
X137761904Y-114357142D01*
X137809523Y-114261904D01*
X137809523Y-113452380D01*
X138142857Y-113452380D02*
X138714285Y-113452380D01*
X138428571Y-114452380D02*
X138428571Y-113452380D01*
X139047619Y-114071428D02*
X139809523Y-114071428D01*
X139428571Y-114452380D02*
X139428571Y-113690476D01*
X103880952Y-113452380D02*
X104071428Y-113452380D01*
X104166666Y-113500000D01*
X104261904Y-113595238D01*
X104309523Y-113785714D01*
X104309523Y-114119047D01*
X104261904Y-114309523D01*
X104166666Y-114404761D01*
X104071428Y-114452380D01*
X103880952Y-114452380D01*
X103785714Y-114404761D01*
X103690476Y-114309523D01*
X103642857Y-114119047D01*
X103642857Y-113785714D01*
X103690476Y-113595238D01*
X103785714Y-113500000D01*
X103880952Y-113452380D01*
X104738095Y-113452380D02*
X104738095Y-114261904D01*
X104785714Y-114357142D01*
X104833333Y-114404761D01*
X104928571Y-114452380D01*
X105119047Y-114452380D01*
X105214285Y-114404761D01*
X105261904Y-114357142D01*
X105309523Y-114261904D01*
X105309523Y-113452380D01*
X105642857Y-113452380D02*
X106214285Y-113452380D01*
X105928571Y-114452380D02*
X105928571Y-113452380D01*
X106547619Y-114071428D02*
X107309523Y-114071428D01*
X106928571Y-114452380D02*
X106928571Y-113690476D01*
X132238095Y-113500000D02*
X132142857Y-113452380D01*
X132000000Y-113452380D01*
X131857142Y-113500000D01*
X131761904Y-113595238D01*
X131714285Y-113690476D01*
X131666666Y-113880952D01*
X131666666Y-114023809D01*
X131714285Y-114214285D01*
X131761904Y-114309523D01*
X131857142Y-114404761D01*
X132000000Y-114452380D01*
X132095238Y-114452380D01*
X132238095Y-114404761D01*
X132285714Y-114357142D01*
X132285714Y-114023809D01*
X132095238Y-114023809D01*
X132714285Y-114452380D02*
X132714285Y-113452380D01*
X133285714Y-114452380D01*
X133285714Y-113452380D01*
X133761904Y-114452380D02*
X133761904Y-113452380D01*
X134000000Y-113452380D01*
X134142857Y-113500000D01*
X134238095Y-113595238D01*
X134285714Y-113690476D01*
X134333333Y-113880952D01*
X134333333Y-114023809D01*
X134285714Y-114214285D01*
X134238095Y-114309523D01*
X134142857Y-114404761D01*
X134000000Y-114452380D01*
X133761904Y-114452380D01*
X120488095Y-113500000D02*
X120392857Y-113452380D01*
X120250000Y-113452380D01*
X120107142Y-113500000D01*
X120011904Y-113595238D01*
X119964285Y-113690476D01*
X119916666Y-113880952D01*
X119916666Y-114023809D01*
X119964285Y-114214285D01*
X120011904Y-114309523D01*
X120107142Y-114404761D01*
X120250000Y-114452380D01*
X120345238Y-114452380D01*
X120488095Y-114404761D01*
X120535714Y-114357142D01*
X120535714Y-114023809D01*
X120345238Y-114023809D01*
X120964285Y-114452380D02*
X120964285Y-113452380D01*
X121535714Y-114452380D01*
X121535714Y-113452380D01*
X122011904Y-114452380D02*
X122011904Y-113452380D01*
X122250000Y-113452380D01*
X122392857Y-113500000D01*
X122488095Y-113595238D01*
X122535714Y-113690476D01*
X122583333Y-113880952D01*
X122583333Y-114023809D01*
X122535714Y-114214285D01*
X122488095Y-114309523D01*
X122392857Y-114404761D01*
X122250000Y-114452380D01*
X122011904Y-114452380D01*
X99488095Y-113500000D02*
X99392857Y-113452380D01*
X99250000Y-113452380D01*
X99107142Y-113500000D01*
X99011904Y-113595238D01*
X98964285Y-113690476D01*
X98916666Y-113880952D01*
X98916666Y-114023809D01*
X98964285Y-114214285D01*
X99011904Y-114309523D01*
X99107142Y-114404761D01*
X99250000Y-114452380D01*
X99345238Y-114452380D01*
X99488095Y-114404761D01*
X99535714Y-114357142D01*
X99535714Y-114023809D01*
X99345238Y-114023809D01*
X99964285Y-114452380D02*
X99964285Y-113452380D01*
X100535714Y-114452380D01*
X100535714Y-113452380D01*
X101011904Y-114452380D02*
X101011904Y-113452380D01*
X101250000Y-113452380D01*
X101392857Y-113500000D01*
X101488095Y-113595238D01*
X101535714Y-113690476D01*
X101583333Y-113880952D01*
X101583333Y-114023809D01*
X101535714Y-114214285D01*
X101488095Y-114309523D01*
X101392857Y-114404761D01*
X101250000Y-114452380D01*
X101011904Y-114452380D01*
D11*
%TO.C,C8*%
X146102064Y-121340000D02*
X144897936Y-121340000D01*
X146102064Y-123160000D02*
X144897936Y-123160000D01*
%TO.C,C7*%
X130102064Y-121340000D02*
X128897936Y-121340000D01*
X130102064Y-123160000D02*
X128897936Y-123160000D01*
%TO.C,C6*%
X113602064Y-121340000D02*
X112397936Y-121340000D01*
X113602064Y-123160000D02*
X112397936Y-123160000D01*
%TO.C,C5*%
X97602064Y-121340000D02*
X96397936Y-121340000D01*
X97602064Y-123160000D02*
X96397936Y-123160000D01*
%TO.C,C4*%
X137102064Y-124840000D02*
X135897936Y-124840000D01*
X137102064Y-126660000D02*
X135897936Y-126660000D01*
%TO.C,C3*%
X104602064Y-124840000D02*
X103397936Y-124840000D01*
X104602064Y-126660000D02*
X103397936Y-126660000D01*
%TO.C,C2*%
X139102064Y-116340000D02*
X137897936Y-116340000D01*
X139102064Y-118160000D02*
X137897936Y-118160000D01*
%TO.C,C1*%
X106602064Y-116340000D02*
X105397936Y-116340000D01*
X106602064Y-118160000D02*
X105397936Y-118160000D01*
%TO.C,D4*%
X143300000Y-127250000D02*
X143300000Y-129250000D01*
X143300000Y-129250000D02*
X147150000Y-129250000D01*
X143300000Y-127250000D02*
X147150000Y-127250000D01*
%TO.C,D3*%
X127300000Y-127250000D02*
X127300000Y-129250000D01*
X127300000Y-129250000D02*
X131150000Y-129250000D01*
X127300000Y-127250000D02*
X131150000Y-127250000D01*
%TO.C,D2*%
X110800000Y-127250000D02*
X110800000Y-129250000D01*
X110800000Y-129250000D02*
X114650000Y-129250000D01*
X110800000Y-127250000D02*
X114650000Y-127250000D01*
%TO.C,D1*%
X94800000Y-127250000D02*
X94800000Y-129250000D01*
X94800000Y-129250000D02*
X98650000Y-129250000D01*
X94800000Y-127250000D02*
X98650000Y-127250000D01*
%TO.C,U2*%
X137500000Y-118940000D02*
X134050000Y-118940000D01*
X137500000Y-118940000D02*
X139450000Y-118940000D01*
X137500000Y-124060000D02*
X135550000Y-124060000D01*
X137500000Y-124060000D02*
X139450000Y-124060000D01*
%TO.C,U1*%
X105000000Y-118940000D02*
X101550000Y-118940000D01*
X105000000Y-118940000D02*
X106950000Y-118940000D01*
X105000000Y-124060000D02*
X103050000Y-124060000D01*
X105000000Y-124060000D02*
X106950000Y-124060000D01*
%TO.C,R10*%
X141410000Y-132102064D02*
X141410000Y-130897936D01*
X139590000Y-132102064D02*
X139590000Y-130897936D01*
%TO.C,R9*%
X133590000Y-130897936D02*
X133590000Y-132102064D01*
X135410000Y-130897936D02*
X135410000Y-132102064D01*
%TO.C,R8*%
X108910000Y-132102064D02*
X108910000Y-130897936D01*
X107090000Y-132102064D02*
X107090000Y-130897936D01*
%TO.C,R7*%
X101090000Y-130897936D02*
X101090000Y-132102064D01*
X102910000Y-130897936D02*
X102910000Y-132102064D01*
%TO.C,R6*%
X138410000Y-132102064D02*
X138410000Y-130897936D01*
X136590000Y-132102064D02*
X136590000Y-130897936D01*
%TO.C,R5*%
X105910000Y-132102064D02*
X105910000Y-130897936D01*
X104090000Y-132102064D02*
X104090000Y-130897936D01*
%TO.C,R4*%
X144897936Y-126160000D02*
X146102064Y-126160000D01*
X144897936Y-124340000D02*
X146102064Y-124340000D01*
%TO.C,R3*%
X130102064Y-124340000D02*
X128897936Y-124340000D01*
X130102064Y-126160000D02*
X128897936Y-126160000D01*
%TO.C,R2*%
X112397936Y-126160000D02*
X113602064Y-126160000D01*
X112397936Y-124340000D02*
X113602064Y-124340000D01*
%TO.C,R1*%
X97602064Y-124340000D02*
X96397936Y-124340000D01*
X97602064Y-126160000D02*
X96397936Y-126160000D01*
%TO.C,J2*%
X149620000Y-142870000D02*
X146870000Y-142870000D01*
X127880000Y-148370000D02*
X127880000Y-142870000D01*
X130630000Y-142870000D02*
X127880000Y-142870000D01*
X146870000Y-142870000D02*
X146870000Y-135370000D01*
X149620000Y-148370000D02*
X149620000Y-142870000D01*
X146870000Y-135370000D02*
X130630000Y-135370000D01*
X130630000Y-142870000D02*
X130630000Y-135370000D01*
X149870000Y-157810000D02*
X127630000Y-157810000D01*
X151370000Y-155110000D02*
X149870000Y-155110000D01*
X127630000Y-155110000D02*
X126130000Y-155110000D01*
X127630000Y-155110000D02*
X127630000Y-157810000D01*
X149870000Y-155110000D02*
X149870000Y-157810000D01*
X126130000Y-148370000D02*
X127880000Y-148370000D01*
X149620000Y-148370000D02*
X151370000Y-148370000D01*
X151370000Y-155110000D02*
X151370000Y-148370000D01*
X126130000Y-155110000D02*
X126130000Y-148370000D01*
%TO.C,J1*%
X114620000Y-142870000D02*
X111870000Y-142870000D01*
X92880000Y-148370000D02*
X92880000Y-142870000D01*
X95630000Y-142870000D02*
X92880000Y-142870000D01*
X111870000Y-142870000D02*
X111870000Y-135370000D01*
X114620000Y-148370000D02*
X114620000Y-142870000D01*
X111870000Y-135370000D02*
X95630000Y-135370000D01*
X95630000Y-142870000D02*
X95630000Y-135370000D01*
X114870000Y-157810000D02*
X92630000Y-157810000D01*
X116370000Y-155110000D02*
X114870000Y-155110000D01*
X92630000Y-155110000D02*
X91130000Y-155110000D01*
X92630000Y-155110000D02*
X92630000Y-157810000D01*
X114870000Y-155110000D02*
X114870000Y-157810000D01*
X91130000Y-148370000D02*
X92880000Y-148370000D01*
X114620000Y-148370000D02*
X116370000Y-148370000D01*
X116370000Y-155110000D02*
X116370000Y-148370000D01*
X91130000Y-155110000D02*
X91130000Y-148370000D01*
%TO.C,J5*%
X133500000Y-107500000D02*
X133500000Y-105750000D01*
X134500000Y-107500000D02*
X133500000Y-107500000D01*
X134500000Y-105750000D02*
X134500000Y-107500000D01*
X137000000Y-107500000D02*
X137000000Y-105750000D01*
X138000000Y-107500000D02*
X137000000Y-107500000D01*
X138000000Y-105750000D02*
X138000000Y-107500000D01*
X141500000Y-107500000D02*
X141500000Y-105750000D01*
X140500000Y-107500000D02*
X140500000Y-105750000D01*
X141500000Y-107500000D02*
X140500000Y-107500000D01*
X142250000Y-109250000D02*
G75*
G03*
X142250000Y-109250000I-1250000J0D01*
G01*
X138750000Y-109250000D02*
G75*
G03*
X138750000Y-109250000I-1250000J0D01*
G01*
X135250000Y-109250000D02*
G75*
G03*
X135250000Y-109250000I-1250000J0D01*
G01*
X131500000Y-112750000D02*
X143500000Y-112750000D01*
X131500000Y-105750000D02*
X143500000Y-105750000D01*
X143500000Y-112750000D02*
X143500000Y-105750000D01*
X131500000Y-112750000D02*
X131500000Y-105750000D01*
%TO.C,J4*%
X101000000Y-107500000D02*
X101000000Y-105750000D01*
X102000000Y-107500000D02*
X101000000Y-107500000D01*
X102000000Y-105750000D02*
X102000000Y-107500000D01*
X104500000Y-107500000D02*
X104500000Y-105750000D01*
X105500000Y-107500000D02*
X104500000Y-107500000D01*
X105500000Y-105750000D02*
X105500000Y-107500000D01*
X109000000Y-107500000D02*
X109000000Y-105750000D01*
X108000000Y-107500000D02*
X108000000Y-105750000D01*
X109000000Y-107500000D02*
X108000000Y-107500000D01*
X109750000Y-109250000D02*
G75*
G03*
X109750000Y-109250000I-1250000J0D01*
G01*
X106250000Y-109250000D02*
G75*
G03*
X106250000Y-109250000I-1250000J0D01*
G01*
X102750000Y-109250000D02*
G75*
G03*
X102750000Y-109250000I-1250000J0D01*
G01*
X99000000Y-112750000D02*
X111000000Y-112750000D01*
X99000000Y-105750000D02*
X111000000Y-105750000D01*
X111000000Y-112750000D02*
X111000000Y-105750000D01*
X99000000Y-112750000D02*
X99000000Y-105750000D01*
%TO.C,J3*%
X117250000Y-107500000D02*
X117250000Y-105750000D01*
X118250000Y-107500000D02*
X117250000Y-107500000D01*
X118250000Y-105750000D02*
X118250000Y-107500000D01*
X120750000Y-107500000D02*
X120750000Y-105750000D01*
X121750000Y-107500000D02*
X120750000Y-107500000D01*
X121750000Y-105750000D02*
X121750000Y-107500000D01*
X125250000Y-107500000D02*
X125250000Y-105750000D01*
X124250000Y-107500000D02*
X124250000Y-105750000D01*
X125250000Y-107500000D02*
X124250000Y-107500000D01*
X126000000Y-109250000D02*
G75*
G03*
X126000000Y-109250000I-1250000J0D01*
G01*
X122500000Y-109250000D02*
G75*
G03*
X122500000Y-109250000I-1250000J0D01*
G01*
X119000000Y-109250000D02*
G75*
G03*
X119000000Y-109250000I-1250000J0D01*
G01*
X115250000Y-112750000D02*
X127250000Y-112750000D01*
X115250000Y-105750000D02*
X127250000Y-105750000D01*
X127250000Y-112750000D02*
X127250000Y-105750000D01*
X115250000Y-112750000D02*
X115250000Y-105750000D01*
%TO.C,C8*%
D10*
X149583333Y-122607142D02*
X149535714Y-122654761D01*
X149392857Y-122702380D01*
X149297619Y-122702380D01*
X149154761Y-122654761D01*
X149059523Y-122559523D01*
X149011904Y-122464285D01*
X148964285Y-122273809D01*
X148964285Y-122130952D01*
X149011904Y-121940476D01*
X149059523Y-121845238D01*
X149154761Y-121750000D01*
X149297619Y-121702380D01*
X149392857Y-121702380D01*
X149535714Y-121750000D01*
X149583333Y-121797619D01*
X150154761Y-122130952D02*
X150059523Y-122083333D01*
X150011904Y-122035714D01*
X149964285Y-121940476D01*
X149964285Y-121892857D01*
X150011904Y-121797619D01*
X150059523Y-121750000D01*
X150154761Y-121702380D01*
X150345238Y-121702380D01*
X150440476Y-121750000D01*
X150488095Y-121797619D01*
X150535714Y-121892857D01*
X150535714Y-121940476D01*
X150488095Y-122035714D01*
X150440476Y-122083333D01*
X150345238Y-122130952D01*
X150154761Y-122130952D01*
X150059523Y-122178571D01*
X150011904Y-122226190D01*
X149964285Y-122321428D01*
X149964285Y-122511904D01*
X150011904Y-122607142D01*
X150059523Y-122654761D01*
X150154761Y-122702380D01*
X150345238Y-122702380D01*
X150440476Y-122654761D01*
X150488095Y-122607142D01*
X150535714Y-122511904D01*
X150535714Y-122321428D01*
X150488095Y-122226190D01*
X150440476Y-122178571D01*
X150345238Y-122130952D01*
%TO.C,C7*%
X125083333Y-122607142D02*
X125035714Y-122654761D01*
X124892857Y-122702380D01*
X124797619Y-122702380D01*
X124654761Y-122654761D01*
X124559523Y-122559523D01*
X124511904Y-122464285D01*
X124464285Y-122273809D01*
X124464285Y-122130952D01*
X124511904Y-121940476D01*
X124559523Y-121845238D01*
X124654761Y-121750000D01*
X124797619Y-121702380D01*
X124892857Y-121702380D01*
X125035714Y-121750000D01*
X125083333Y-121797619D01*
X125416666Y-121702380D02*
X126083333Y-121702380D01*
X125654761Y-122702380D01*
%TO.C,C6*%
X117083333Y-122607142D02*
X117035714Y-122654761D01*
X116892857Y-122702380D01*
X116797619Y-122702380D01*
X116654761Y-122654761D01*
X116559523Y-122559523D01*
X116511904Y-122464285D01*
X116464285Y-122273809D01*
X116464285Y-122130952D01*
X116511904Y-121940476D01*
X116559523Y-121845238D01*
X116654761Y-121750000D01*
X116797619Y-121702380D01*
X116892857Y-121702380D01*
X117035714Y-121750000D01*
X117083333Y-121797619D01*
X117940476Y-121702380D02*
X117750000Y-121702380D01*
X117654761Y-121750000D01*
X117607142Y-121797619D01*
X117511904Y-121940476D01*
X117464285Y-122130952D01*
X117464285Y-122511904D01*
X117511904Y-122607142D01*
X117559523Y-122654761D01*
X117654761Y-122702380D01*
X117845238Y-122702380D01*
X117940476Y-122654761D01*
X117988095Y-122607142D01*
X118035714Y-122511904D01*
X118035714Y-122273809D01*
X117988095Y-122178571D01*
X117940476Y-122130952D01*
X117845238Y-122083333D01*
X117654761Y-122083333D01*
X117559523Y-122130952D01*
X117511904Y-122178571D01*
X117464285Y-122273809D01*
%TO.C,C5*%
X92583333Y-122607142D02*
X92535714Y-122654761D01*
X92392857Y-122702380D01*
X92297619Y-122702380D01*
X92154761Y-122654761D01*
X92059523Y-122559523D01*
X92011904Y-122464285D01*
X91964285Y-122273809D01*
X91964285Y-122130952D01*
X92011904Y-121940476D01*
X92059523Y-121845238D01*
X92154761Y-121750000D01*
X92297619Y-121702380D01*
X92392857Y-121702380D01*
X92535714Y-121750000D01*
X92583333Y-121797619D01*
X93488095Y-121702380D02*
X93011904Y-121702380D01*
X92964285Y-122178571D01*
X93011904Y-122130952D01*
X93107142Y-122083333D01*
X93345238Y-122083333D01*
X93440476Y-122130952D01*
X93488095Y-122178571D01*
X93535714Y-122273809D01*
X93535714Y-122511904D01*
X93488095Y-122607142D01*
X93440476Y-122654761D01*
X93345238Y-122702380D01*
X93107142Y-122702380D01*
X93011904Y-122654761D01*
X92964285Y-122607142D01*
%TO.C,C4*%
X133083333Y-126107142D02*
X133035714Y-126154761D01*
X132892857Y-126202380D01*
X132797619Y-126202380D01*
X132654761Y-126154761D01*
X132559523Y-126059523D01*
X132511904Y-125964285D01*
X132464285Y-125773809D01*
X132464285Y-125630952D01*
X132511904Y-125440476D01*
X132559523Y-125345238D01*
X132654761Y-125250000D01*
X132797619Y-125202380D01*
X132892857Y-125202380D01*
X133035714Y-125250000D01*
X133083333Y-125297619D01*
X133940476Y-125535714D02*
X133940476Y-126202380D01*
X133702380Y-125154761D02*
X133464285Y-125869047D01*
X134083333Y-125869047D01*
%TO.C,C3*%
X100333333Y-126107142D02*
X100285714Y-126154761D01*
X100142857Y-126202380D01*
X100047619Y-126202380D01*
X99904761Y-126154761D01*
X99809523Y-126059523D01*
X99761904Y-125964285D01*
X99714285Y-125773809D01*
X99714285Y-125630952D01*
X99761904Y-125440476D01*
X99809523Y-125345238D01*
X99904761Y-125250000D01*
X100047619Y-125202380D01*
X100142857Y-125202380D01*
X100285714Y-125250000D01*
X100333333Y-125297619D01*
X100666666Y-125202380D02*
X101285714Y-125202380D01*
X100952380Y-125583333D01*
X101095238Y-125583333D01*
X101190476Y-125630952D01*
X101238095Y-125678571D01*
X101285714Y-125773809D01*
X101285714Y-126011904D01*
X101238095Y-126107142D01*
X101190476Y-126154761D01*
X101095238Y-126202380D01*
X100809523Y-126202380D01*
X100714285Y-126154761D01*
X100666666Y-126107142D01*
%TO.C,C2*%
X141833333Y-117607142D02*
X141785714Y-117654761D01*
X141642857Y-117702380D01*
X141547619Y-117702380D01*
X141404761Y-117654761D01*
X141309523Y-117559523D01*
X141261904Y-117464285D01*
X141214285Y-117273809D01*
X141214285Y-117130952D01*
X141261904Y-116940476D01*
X141309523Y-116845238D01*
X141404761Y-116750000D01*
X141547619Y-116702380D01*
X141642857Y-116702380D01*
X141785714Y-116750000D01*
X141833333Y-116797619D01*
X142214285Y-116797619D02*
X142261904Y-116750000D01*
X142357142Y-116702380D01*
X142595238Y-116702380D01*
X142690476Y-116750000D01*
X142738095Y-116797619D01*
X142785714Y-116892857D01*
X142785714Y-116988095D01*
X142738095Y-117130952D01*
X142166666Y-117702380D01*
X142785714Y-117702380D01*
%TO.C,C1*%
X102333333Y-117607142D02*
X102285714Y-117654761D01*
X102142857Y-117702380D01*
X102047619Y-117702380D01*
X101904761Y-117654761D01*
X101809523Y-117559523D01*
X101761904Y-117464285D01*
X101714285Y-117273809D01*
X101714285Y-117130952D01*
X101761904Y-116940476D01*
X101809523Y-116845238D01*
X101904761Y-116750000D01*
X102047619Y-116702380D01*
X102142857Y-116702380D01*
X102285714Y-116750000D01*
X102333333Y-116797619D01*
X103285714Y-117702380D02*
X102714285Y-117702380D01*
X103000000Y-117702380D02*
X103000000Y-116702380D01*
X102904761Y-116845238D01*
X102809523Y-116940476D01*
X102714285Y-116988095D01*
%TO.C,D4*%
X148261904Y-128702380D02*
X148261904Y-127702380D01*
X148500000Y-127702380D01*
X148642857Y-127750000D01*
X148738095Y-127845238D01*
X148785714Y-127940476D01*
X148833333Y-128130952D01*
X148833333Y-128273809D01*
X148785714Y-128464285D01*
X148738095Y-128559523D01*
X148642857Y-128654761D01*
X148500000Y-128702380D01*
X148261904Y-128702380D01*
X149690476Y-128035714D02*
X149690476Y-128702380D01*
X149452380Y-127654761D02*
X149214285Y-128369047D01*
X149833333Y-128369047D01*
%TO.C,D3*%
X125261904Y-128702380D02*
X125261904Y-127702380D01*
X125500000Y-127702380D01*
X125642857Y-127750000D01*
X125738095Y-127845238D01*
X125785714Y-127940476D01*
X125833333Y-128130952D01*
X125833333Y-128273809D01*
X125785714Y-128464285D01*
X125738095Y-128559523D01*
X125642857Y-128654761D01*
X125500000Y-128702380D01*
X125261904Y-128702380D01*
X126166666Y-127702380D02*
X126785714Y-127702380D01*
X126452380Y-128083333D01*
X126595238Y-128083333D01*
X126690476Y-128130952D01*
X126738095Y-128178571D01*
X126785714Y-128273809D01*
X126785714Y-128511904D01*
X126738095Y-128607142D01*
X126690476Y-128654761D01*
X126595238Y-128702380D01*
X126309523Y-128702380D01*
X126214285Y-128654761D01*
X126166666Y-128607142D01*
%TO.C,D2*%
X115761904Y-128702380D02*
X115761904Y-127702380D01*
X116000000Y-127702380D01*
X116142857Y-127750000D01*
X116238095Y-127845238D01*
X116285714Y-127940476D01*
X116333333Y-128130952D01*
X116333333Y-128273809D01*
X116285714Y-128464285D01*
X116238095Y-128559523D01*
X116142857Y-128654761D01*
X116000000Y-128702380D01*
X115761904Y-128702380D01*
X116714285Y-127797619D02*
X116761904Y-127750000D01*
X116857142Y-127702380D01*
X117095238Y-127702380D01*
X117190476Y-127750000D01*
X117238095Y-127797619D01*
X117285714Y-127892857D01*
X117285714Y-127988095D01*
X117238095Y-128130952D01*
X116666666Y-128702380D01*
X117285714Y-128702380D01*
%TO.C,D1*%
X92761904Y-128702380D02*
X92761904Y-127702380D01*
X93000000Y-127702380D01*
X93142857Y-127750000D01*
X93238095Y-127845238D01*
X93285714Y-127940476D01*
X93333333Y-128130952D01*
X93333333Y-128273809D01*
X93285714Y-128464285D01*
X93238095Y-128559523D01*
X93142857Y-128654761D01*
X93000000Y-128702380D01*
X92761904Y-128702380D01*
X94285714Y-128702380D02*
X93714285Y-128702380D01*
X94000000Y-128702380D02*
X94000000Y-127702380D01*
X93904761Y-127845238D01*
X93809523Y-127940476D01*
X93714285Y-127988095D01*
%TO.C,U2*%
X131488095Y-117952380D02*
X131488095Y-118761904D01*
X131535714Y-118857142D01*
X131583333Y-118904761D01*
X131678571Y-118952380D01*
X131869047Y-118952380D01*
X131964285Y-118904761D01*
X132011904Y-118857142D01*
X132059523Y-118761904D01*
X132059523Y-117952380D01*
X132488095Y-118047619D02*
X132535714Y-118000000D01*
X132630952Y-117952380D01*
X132869047Y-117952380D01*
X132964285Y-118000000D01*
X133011904Y-118047619D01*
X133059523Y-118142857D01*
X133059523Y-118238095D01*
X133011904Y-118380952D01*
X132440476Y-118952380D01*
X133059523Y-118952380D01*
%TO.C,U1*%
X99238095Y-118702380D02*
X99238095Y-119511904D01*
X99285714Y-119607142D01*
X99333333Y-119654761D01*
X99428571Y-119702380D01*
X99619047Y-119702380D01*
X99714285Y-119654761D01*
X99761904Y-119607142D01*
X99809523Y-119511904D01*
X99809523Y-118702380D01*
X100809523Y-119702380D02*
X100238095Y-119702380D01*
X100523809Y-119702380D02*
X100523809Y-118702380D01*
X100428571Y-118845238D01*
X100333333Y-118940476D01*
X100238095Y-118988095D01*
%TO.C,R10*%
X140952380Y-128392857D02*
X140476190Y-128726190D01*
X140952380Y-128964285D02*
X139952380Y-128964285D01*
X139952380Y-128583333D01*
X140000000Y-128488095D01*
X140047619Y-128440476D01*
X140142857Y-128392857D01*
X140285714Y-128392857D01*
X140380952Y-128440476D01*
X140428571Y-128488095D01*
X140476190Y-128583333D01*
X140476190Y-128964285D01*
X140952380Y-127440476D02*
X140952380Y-128011904D01*
X140952380Y-127726190D02*
X139952380Y-127726190D01*
X140095238Y-127821428D01*
X140190476Y-127916666D01*
X140238095Y-128011904D01*
X139952380Y-126821428D02*
X139952380Y-126726190D01*
X140000000Y-126630952D01*
X140047619Y-126583333D01*
X140142857Y-126535714D01*
X140333333Y-126488095D01*
X140571428Y-126488095D01*
X140761904Y-126535714D01*
X140857142Y-126583333D01*
X140904761Y-126630952D01*
X140952380Y-126726190D01*
X140952380Y-126821428D01*
X140904761Y-126916666D01*
X140857142Y-126964285D01*
X140761904Y-127011904D01*
X140571428Y-127059523D01*
X140333333Y-127059523D01*
X140142857Y-127011904D01*
X140047619Y-126964285D01*
X140000000Y-126916666D01*
X139952380Y-126821428D01*
%TO.C,R9*%
X134952380Y-128416666D02*
X134476190Y-128750000D01*
X134952380Y-128988095D02*
X133952380Y-128988095D01*
X133952380Y-128607142D01*
X134000000Y-128511904D01*
X134047619Y-128464285D01*
X134142857Y-128416666D01*
X134285714Y-128416666D01*
X134380952Y-128464285D01*
X134428571Y-128511904D01*
X134476190Y-128607142D01*
X134476190Y-128988095D01*
X134952380Y-127940476D02*
X134952380Y-127750000D01*
X134904761Y-127654761D01*
X134857142Y-127607142D01*
X134714285Y-127511904D01*
X134523809Y-127464285D01*
X134142857Y-127464285D01*
X134047619Y-127511904D01*
X134000000Y-127559523D01*
X133952380Y-127654761D01*
X133952380Y-127845238D01*
X134000000Y-127940476D01*
X134047619Y-127988095D01*
X134142857Y-128035714D01*
X134380952Y-128035714D01*
X134476190Y-127988095D01*
X134523809Y-127940476D01*
X134571428Y-127845238D01*
X134571428Y-127654761D01*
X134523809Y-127559523D01*
X134476190Y-127511904D01*
X134380952Y-127464285D01*
%TO.C,R8*%
X108452380Y-128416666D02*
X107976190Y-128750000D01*
X108452380Y-128988095D02*
X107452380Y-128988095D01*
X107452380Y-128607142D01*
X107500000Y-128511904D01*
X107547619Y-128464285D01*
X107642857Y-128416666D01*
X107785714Y-128416666D01*
X107880952Y-128464285D01*
X107928571Y-128511904D01*
X107976190Y-128607142D01*
X107976190Y-128988095D01*
X107880952Y-127845238D02*
X107833333Y-127940476D01*
X107785714Y-127988095D01*
X107690476Y-128035714D01*
X107642857Y-128035714D01*
X107547619Y-127988095D01*
X107500000Y-127940476D01*
X107452380Y-127845238D01*
X107452380Y-127654761D01*
X107500000Y-127559523D01*
X107547619Y-127511904D01*
X107642857Y-127464285D01*
X107690476Y-127464285D01*
X107785714Y-127511904D01*
X107833333Y-127559523D01*
X107880952Y-127654761D01*
X107880952Y-127845238D01*
X107928571Y-127940476D01*
X107976190Y-127988095D01*
X108071428Y-128035714D01*
X108261904Y-128035714D01*
X108357142Y-127988095D01*
X108404761Y-127940476D01*
X108452380Y-127845238D01*
X108452380Y-127654761D01*
X108404761Y-127559523D01*
X108357142Y-127511904D01*
X108261904Y-127464285D01*
X108071428Y-127464285D01*
X107976190Y-127511904D01*
X107928571Y-127559523D01*
X107880952Y-127654761D01*
%TO.C,R7*%
X102452380Y-128416666D02*
X101976190Y-128750000D01*
X102452380Y-128988095D02*
X101452380Y-128988095D01*
X101452380Y-128607142D01*
X101500000Y-128511904D01*
X101547619Y-128464285D01*
X101642857Y-128416666D01*
X101785714Y-128416666D01*
X101880952Y-128464285D01*
X101928571Y-128511904D01*
X101976190Y-128607142D01*
X101976190Y-128988095D01*
X101452380Y-128083333D02*
X101452380Y-127416666D01*
X102452380Y-127845238D01*
%TO.C,R6*%
X137952380Y-128416666D02*
X137476190Y-128750000D01*
X137952380Y-128988095D02*
X136952380Y-128988095D01*
X136952380Y-128607142D01*
X137000000Y-128511904D01*
X137047619Y-128464285D01*
X137142857Y-128416666D01*
X137285714Y-128416666D01*
X137380952Y-128464285D01*
X137428571Y-128511904D01*
X137476190Y-128607142D01*
X137476190Y-128988095D01*
X136952380Y-127559523D02*
X136952380Y-127750000D01*
X137000000Y-127845238D01*
X137047619Y-127892857D01*
X137190476Y-127988095D01*
X137380952Y-128035714D01*
X137761904Y-128035714D01*
X137857142Y-127988095D01*
X137904761Y-127940476D01*
X137952380Y-127845238D01*
X137952380Y-127654761D01*
X137904761Y-127559523D01*
X137857142Y-127511904D01*
X137761904Y-127464285D01*
X137523809Y-127464285D01*
X137428571Y-127511904D01*
X137380952Y-127559523D01*
X137333333Y-127654761D01*
X137333333Y-127845238D01*
X137380952Y-127940476D01*
X137428571Y-127988095D01*
X137523809Y-128035714D01*
%TO.C,R5*%
X105452380Y-128416666D02*
X104976190Y-128750000D01*
X105452380Y-128988095D02*
X104452380Y-128988095D01*
X104452380Y-128607142D01*
X104500000Y-128511904D01*
X104547619Y-128464285D01*
X104642857Y-128416666D01*
X104785714Y-128416666D01*
X104880952Y-128464285D01*
X104928571Y-128511904D01*
X104976190Y-128607142D01*
X104976190Y-128988095D01*
X104452380Y-127511904D02*
X104452380Y-127988095D01*
X104928571Y-128035714D01*
X104880952Y-127988095D01*
X104833333Y-127892857D01*
X104833333Y-127654761D01*
X104880952Y-127559523D01*
X104928571Y-127511904D01*
X105023809Y-127464285D01*
X105261904Y-127464285D01*
X105357142Y-127511904D01*
X105404761Y-127559523D01*
X105452380Y-127654761D01*
X105452380Y-127892857D01*
X105404761Y-127988095D01*
X105357142Y-128035714D01*
%TO.C,R4*%
X148833333Y-125702380D02*
X148500000Y-125226190D01*
X148261904Y-125702380D02*
X148261904Y-124702380D01*
X148642857Y-124702380D01*
X148738095Y-124750000D01*
X148785714Y-124797619D01*
X148833333Y-124892857D01*
X148833333Y-125035714D01*
X148785714Y-125130952D01*
X148738095Y-125178571D01*
X148642857Y-125226190D01*
X148261904Y-125226190D01*
X149690476Y-125035714D02*
X149690476Y-125702380D01*
X149452380Y-124654761D02*
X149214285Y-125369047D01*
X149833333Y-125369047D01*
%TO.C,R3*%
X125833333Y-125702380D02*
X125500000Y-125226190D01*
X125261904Y-125702380D02*
X125261904Y-124702380D01*
X125642857Y-124702380D01*
X125738095Y-124750000D01*
X125785714Y-124797619D01*
X125833333Y-124892857D01*
X125833333Y-125035714D01*
X125785714Y-125130952D01*
X125738095Y-125178571D01*
X125642857Y-125226190D01*
X125261904Y-125226190D01*
X126166666Y-124702380D02*
X126785714Y-124702380D01*
X126452380Y-125083333D01*
X126595238Y-125083333D01*
X126690476Y-125130952D01*
X126738095Y-125178571D01*
X126785714Y-125273809D01*
X126785714Y-125511904D01*
X126738095Y-125607142D01*
X126690476Y-125654761D01*
X126595238Y-125702380D01*
X126309523Y-125702380D01*
X126214285Y-125654761D01*
X126166666Y-125607142D01*
%TO.C,R2*%
X116583333Y-125702380D02*
X116250000Y-125226190D01*
X116011904Y-125702380D02*
X116011904Y-124702380D01*
X116392857Y-124702380D01*
X116488095Y-124750000D01*
X116535714Y-124797619D01*
X116583333Y-124892857D01*
X116583333Y-125035714D01*
X116535714Y-125130952D01*
X116488095Y-125178571D01*
X116392857Y-125226190D01*
X116011904Y-125226190D01*
X116964285Y-124797619D02*
X117011904Y-124750000D01*
X117107142Y-124702380D01*
X117345238Y-124702380D01*
X117440476Y-124750000D01*
X117488095Y-124797619D01*
X117535714Y-124892857D01*
X117535714Y-124988095D01*
X117488095Y-125130952D01*
X116916666Y-125702380D01*
X117535714Y-125702380D01*
%TO.C,R1*%
X93333333Y-125702380D02*
X93000000Y-125226190D01*
X92761904Y-125702380D02*
X92761904Y-124702380D01*
X93142857Y-124702380D01*
X93238095Y-124750000D01*
X93285714Y-124797619D01*
X93333333Y-124892857D01*
X93333333Y-125035714D01*
X93285714Y-125130952D01*
X93238095Y-125178571D01*
X93142857Y-125226190D01*
X92761904Y-125226190D01*
X94285714Y-125702380D02*
X93714285Y-125702380D01*
X94000000Y-125702380D02*
X94000000Y-124702380D01*
X93904761Y-124845238D01*
X93809523Y-124940476D01*
X93714285Y-124988095D01*
%TO.C,J2*%
X138212380Y-146423333D02*
X138926666Y-146423333D01*
X139069523Y-146470952D01*
X139164761Y-146566190D01*
X139212380Y-146709047D01*
X139212380Y-146804285D01*
X138307619Y-145994761D02*
X138260000Y-145947142D01*
X138212380Y-145851904D01*
X138212380Y-145613809D01*
X138260000Y-145518571D01*
X138307619Y-145470952D01*
X138402857Y-145423333D01*
X138498095Y-145423333D01*
X138640952Y-145470952D01*
X139212380Y-146042380D01*
X139212380Y-145423333D01*
%TO.C,J1*%
X103212380Y-146423333D02*
X103926666Y-146423333D01*
X104069523Y-146470952D01*
X104164761Y-146566190D01*
X104212380Y-146709047D01*
X104212380Y-146804285D01*
X104212380Y-145423333D02*
X104212380Y-145994761D01*
X104212380Y-145709047D02*
X103212380Y-145709047D01*
X103355238Y-145804285D01*
X103450476Y-145899523D01*
X103498095Y-145994761D01*
%TO.C,J5*%
X137166666Y-111202380D02*
X137166666Y-111916666D01*
X137119047Y-112059523D01*
X137023809Y-112154761D01*
X136880952Y-112202380D01*
X136785714Y-112202380D01*
X138119047Y-111202380D02*
X137642857Y-111202380D01*
X137595238Y-111678571D01*
X137642857Y-111630952D01*
X137738095Y-111583333D01*
X137976190Y-111583333D01*
X138071428Y-111630952D01*
X138119047Y-111678571D01*
X138166666Y-111773809D01*
X138166666Y-112011904D01*
X138119047Y-112107142D01*
X138071428Y-112154761D01*
X137976190Y-112202380D01*
X137738095Y-112202380D01*
X137642857Y-112154761D01*
X137595238Y-112107142D01*
%TO.C,J4*%
X104666666Y-111202380D02*
X104666666Y-111916666D01*
X104619047Y-112059523D01*
X104523809Y-112154761D01*
X104380952Y-112202380D01*
X104285714Y-112202380D01*
X105571428Y-111535714D02*
X105571428Y-112202380D01*
X105333333Y-111154761D02*
X105095238Y-111869047D01*
X105714285Y-111869047D01*
%TO.C,J3*%
X120916666Y-111202380D02*
X120916666Y-111916666D01*
X120869047Y-112059523D01*
X120773809Y-112154761D01*
X120630952Y-112202380D01*
X120535714Y-112202380D01*
X121297619Y-111202380D02*
X121916666Y-111202380D01*
X121583333Y-111583333D01*
X121726190Y-111583333D01*
X121821428Y-111630952D01*
X121869047Y-111678571D01*
X121916666Y-111773809D01*
X121916666Y-112011904D01*
X121869047Y-112107142D01*
X121821428Y-112154761D01*
X121726190Y-112202380D01*
X121440476Y-112202380D01*
X121345238Y-112154761D01*
X121297619Y-112107142D01*
%TD*%
M02*
