%TF.GenerationSoftware,KiCad,Pcbnew,(5.1.6-0)*%
%TF.CreationDate,2024-01-05T21:51:17-08:00*%
%TF.ProjectId,input_buffer_bal_XLR_SMD_1206,696e7075-745f-4627-9566-6665725f6261,rev?*%
%TF.SameCoordinates,Original*%
%TF.FileFunction,Legend,Top*%
%TF.FilePolarity,Positive*%
%FSLAX46Y46*%
G04 Gerber Fmt 4.6, Leading zero omitted, Abs format (unit mm)*
G04 Created by KiCad (PCBNEW (5.1.6-0)) date 2024-01-05 21:51:17*
%MOMM*%
%LPD*%
G01*
G04 APERTURE LIST*
%ADD10C,0.150000*%
%ADD11C,0.120000*%
G04 APERTURE END LIST*
D10*
X120809523Y-92182380D02*
X121476190Y-92182380D01*
X121047619Y-93182380D01*
X122047619Y-92182380D02*
X122142857Y-92182380D01*
X122238095Y-92230000D01*
X122285714Y-92277619D01*
X122333333Y-92372857D01*
X122380952Y-92563333D01*
X122380952Y-92801428D01*
X122333333Y-92991904D01*
X122285714Y-93087142D01*
X122238095Y-93134761D01*
X122142857Y-93182380D01*
X122047619Y-93182380D01*
X121952380Y-93134761D01*
X121904761Y-93087142D01*
X121857142Y-92991904D01*
X121809523Y-92801428D01*
X121809523Y-92563333D01*
X121857142Y-92372857D01*
X121904761Y-92277619D01*
X121952380Y-92230000D01*
X122047619Y-92182380D01*
X122809523Y-93087142D02*
X122857142Y-93134761D01*
X122809523Y-93182380D01*
X122761904Y-93134761D01*
X122809523Y-93087142D01*
X122809523Y-93182380D01*
X123476190Y-92182380D02*
X123571428Y-92182380D01*
X123666666Y-92230000D01*
X123714285Y-92277619D01*
X123761904Y-92372857D01*
X123809523Y-92563333D01*
X123809523Y-92801428D01*
X123761904Y-92991904D01*
X123714285Y-93087142D01*
X123666666Y-93134761D01*
X123571428Y-93182380D01*
X123476190Y-93182380D01*
X123380952Y-93134761D01*
X123333333Y-93087142D01*
X123285714Y-92991904D01*
X123238095Y-92801428D01*
X123238095Y-92563333D01*
X123285714Y-92372857D01*
X123333333Y-92277619D01*
X123380952Y-92230000D01*
X123476190Y-92182380D01*
X124428571Y-92182380D02*
X124523809Y-92182380D01*
X124619047Y-92230000D01*
X124666666Y-92277619D01*
X124714285Y-92372857D01*
X124761904Y-92563333D01*
X124761904Y-92801428D01*
X124714285Y-92991904D01*
X124666666Y-93087142D01*
X124619047Y-93134761D01*
X124523809Y-93182380D01*
X124428571Y-93182380D01*
X124333333Y-93134761D01*
X124285714Y-93087142D01*
X124238095Y-92991904D01*
X124190476Y-92801428D01*
X124190476Y-92563333D01*
X124238095Y-92372857D01*
X124285714Y-92277619D01*
X124333333Y-92230000D01*
X124428571Y-92182380D01*
X125380952Y-92182380D02*
X125476190Y-92182380D01*
X125571428Y-92230000D01*
X125619047Y-92277619D01*
X125666666Y-92372857D01*
X125714285Y-92563333D01*
X125714285Y-92801428D01*
X125666666Y-92991904D01*
X125619047Y-93087142D01*
X125571428Y-93134761D01*
X125476190Y-93182380D01*
X125380952Y-93182380D01*
X125285714Y-93134761D01*
X125238095Y-93087142D01*
X125190476Y-92991904D01*
X125142857Y-92801428D01*
X125142857Y-92563333D01*
X125190476Y-92372857D01*
X125238095Y-92277619D01*
X125285714Y-92230000D01*
X125380952Y-92182380D01*
X126904761Y-93182380D02*
X126904761Y-92515714D01*
X126904761Y-92610952D02*
X126952380Y-92563333D01*
X127047619Y-92515714D01*
X127190476Y-92515714D01*
X127285714Y-92563333D01*
X127333333Y-92658571D01*
X127333333Y-93182380D01*
X127333333Y-92658571D02*
X127380952Y-92563333D01*
X127476190Y-92515714D01*
X127619047Y-92515714D01*
X127714285Y-92563333D01*
X127761904Y-92658571D01*
X127761904Y-93182380D01*
X128238095Y-93182380D02*
X128238095Y-92515714D01*
X128238095Y-92610952D02*
X128285714Y-92563333D01*
X128380952Y-92515714D01*
X128523809Y-92515714D01*
X128619047Y-92563333D01*
X128666666Y-92658571D01*
X128666666Y-93182380D01*
X128666666Y-92658571D02*
X128714285Y-92563333D01*
X128809523Y-92515714D01*
X128952380Y-92515714D01*
X129047619Y-92563333D01*
X129095238Y-92658571D01*
X129095238Y-93182380D01*
D11*
X160000000Y-94000000D02*
X90000000Y-94000000D01*
X160000000Y-97500000D02*
X160000000Y-93413579D01*
X90000000Y-97500000D02*
X90000000Y-93413579D01*
X90000000Y-94000000D02*
X91126504Y-93413579D01*
X90000000Y-94000000D02*
X91126504Y-94586421D01*
X160000000Y-94000000D02*
X158873496Y-93413579D01*
X160000000Y-94000000D02*
X158873496Y-94586421D01*
D10*
X170567619Y-123880952D02*
X170567619Y-123404761D01*
X170091428Y-123357142D01*
X170139047Y-123404761D01*
X170186666Y-123500000D01*
X170186666Y-123738095D01*
X170139047Y-123833333D01*
X170091428Y-123880952D01*
X169996190Y-123928571D01*
X169758095Y-123928571D01*
X169662857Y-123880952D01*
X169615238Y-123833333D01*
X169567619Y-123738095D01*
X169567619Y-123500000D01*
X169615238Y-123404761D01*
X169662857Y-123357142D01*
X170567619Y-124833333D02*
X170567619Y-124357142D01*
X170091428Y-124309523D01*
X170139047Y-124357142D01*
X170186666Y-124452380D01*
X170186666Y-124690476D01*
X170139047Y-124785714D01*
X170091428Y-124833333D01*
X169996190Y-124880952D01*
X169758095Y-124880952D01*
X169662857Y-124833333D01*
X169615238Y-124785714D01*
X169567619Y-124690476D01*
X169567619Y-124452380D01*
X169615238Y-124357142D01*
X169662857Y-124309523D01*
X169662857Y-125309523D02*
X169615238Y-125357142D01*
X169567619Y-125309523D01*
X169615238Y-125261904D01*
X169662857Y-125309523D01*
X169567619Y-125309523D01*
X170567619Y-125976190D02*
X170567619Y-126071428D01*
X170520000Y-126166666D01*
X170472380Y-126214285D01*
X170377142Y-126261904D01*
X170186666Y-126309523D01*
X169948571Y-126309523D01*
X169758095Y-126261904D01*
X169662857Y-126214285D01*
X169615238Y-126166666D01*
X169567619Y-126071428D01*
X169567619Y-125976190D01*
X169615238Y-125880952D01*
X169662857Y-125833333D01*
X169758095Y-125785714D01*
X169948571Y-125738095D01*
X170186666Y-125738095D01*
X170377142Y-125785714D01*
X170472380Y-125833333D01*
X170520000Y-125880952D01*
X170567619Y-125976190D01*
X170567619Y-126928571D02*
X170567619Y-127023809D01*
X170520000Y-127119047D01*
X170472380Y-127166666D01*
X170377142Y-127214285D01*
X170186666Y-127261904D01*
X169948571Y-127261904D01*
X169758095Y-127214285D01*
X169662857Y-127166666D01*
X169615238Y-127119047D01*
X169567619Y-127023809D01*
X169567619Y-126928571D01*
X169615238Y-126833333D01*
X169662857Y-126785714D01*
X169758095Y-126738095D01*
X169948571Y-126690476D01*
X170186666Y-126690476D01*
X170377142Y-126738095D01*
X170472380Y-126785714D01*
X170520000Y-126833333D01*
X170567619Y-126928571D01*
X170567619Y-127880952D02*
X170567619Y-127976190D01*
X170520000Y-128071428D01*
X170472380Y-128119047D01*
X170377142Y-128166666D01*
X170186666Y-128214285D01*
X169948571Y-128214285D01*
X169758095Y-128166666D01*
X169662857Y-128119047D01*
X169615238Y-128071428D01*
X169567619Y-127976190D01*
X169567619Y-127880952D01*
X169615238Y-127785714D01*
X169662857Y-127738095D01*
X169758095Y-127690476D01*
X169948571Y-127642857D01*
X170186666Y-127642857D01*
X170377142Y-127690476D01*
X170472380Y-127738095D01*
X170520000Y-127785714D01*
X170567619Y-127880952D01*
X169567619Y-129404761D02*
X170234285Y-129404761D01*
X170139047Y-129404761D02*
X170186666Y-129452380D01*
X170234285Y-129547619D01*
X170234285Y-129690476D01*
X170186666Y-129785714D01*
X170091428Y-129833333D01*
X169567619Y-129833333D01*
X170091428Y-129833333D02*
X170186666Y-129880952D01*
X170234285Y-129976190D01*
X170234285Y-130119047D01*
X170186666Y-130214285D01*
X170091428Y-130261904D01*
X169567619Y-130261904D01*
X169567619Y-130738095D02*
X170234285Y-130738095D01*
X170139047Y-130738095D02*
X170186666Y-130785714D01*
X170234285Y-130880952D01*
X170234285Y-131023809D01*
X170186666Y-131119047D01*
X170091428Y-131166666D01*
X169567619Y-131166666D01*
X170091428Y-131166666D02*
X170186666Y-131214285D01*
X170234285Y-131309523D01*
X170234285Y-131452380D01*
X170186666Y-131547619D01*
X170091428Y-131595238D01*
X169567619Y-131595238D01*
D11*
X168750000Y-100000000D02*
X168750000Y-155000000D01*
X165000000Y-100000000D02*
X169336421Y-100000000D01*
X165000000Y-155000000D02*
X169336421Y-155000000D01*
X168750000Y-155000000D02*
X168163579Y-153873496D01*
X168750000Y-155000000D02*
X169336421Y-153873496D01*
X168750000Y-100000000D02*
X168163579Y-101126504D01*
X168750000Y-100000000D02*
X169336421Y-101126504D01*
D10*
X137416666Y-115452380D02*
X138035714Y-115452380D01*
X137702380Y-115833333D01*
X137845238Y-115833333D01*
X137940476Y-115880952D01*
X137988095Y-115928571D01*
X138035714Y-116023809D01*
X138035714Y-116261904D01*
X137988095Y-116357142D01*
X137940476Y-116404761D01*
X137845238Y-116452380D01*
X137559523Y-116452380D01*
X137464285Y-116404761D01*
X137416666Y-116357142D01*
X137464285Y-112797619D02*
X137511904Y-112750000D01*
X137607142Y-112702380D01*
X137845238Y-112702380D01*
X137940476Y-112750000D01*
X137988095Y-112797619D01*
X138035714Y-112892857D01*
X138035714Y-112988095D01*
X137988095Y-113130952D01*
X137416666Y-113702380D01*
X138035714Y-113702380D01*
X138035714Y-111202380D02*
X137464285Y-111202380D01*
X137750000Y-111202380D02*
X137750000Y-110202380D01*
X137654761Y-110345238D01*
X137559523Y-110440476D01*
X137464285Y-110488095D01*
X130928571Y-112297619D02*
X130976190Y-112250000D01*
X131071428Y-112202380D01*
X131309523Y-112202380D01*
X131404761Y-112250000D01*
X131452380Y-112297619D01*
X131500000Y-112392857D01*
X131500000Y-112488095D01*
X131452380Y-112630952D01*
X130880952Y-113202380D01*
X131500000Y-113202380D01*
X132642857Y-112297619D02*
X132690476Y-112250000D01*
X132785714Y-112202380D01*
X133023809Y-112202380D01*
X133119047Y-112250000D01*
X133166666Y-112297619D01*
X133214285Y-112392857D01*
X133214285Y-112488095D01*
X133166666Y-112630952D01*
X132595238Y-113202380D01*
X133214285Y-113202380D01*
X134166666Y-113202380D02*
X133595238Y-113202380D01*
X133880952Y-113202380D02*
X133880952Y-112202380D01*
X133785714Y-112345238D01*
X133690476Y-112440476D01*
X133595238Y-112488095D01*
X135023809Y-113202380D02*
X135023809Y-112202380D01*
X135023809Y-113154761D02*
X134928571Y-113202380D01*
X134738095Y-113202380D01*
X134642857Y-113154761D01*
X134595238Y-113107142D01*
X134547619Y-113011904D01*
X134547619Y-112726190D01*
X134595238Y-112630952D01*
X134642857Y-112583333D01*
X134738095Y-112535714D01*
X134928571Y-112535714D01*
X135023809Y-112583333D01*
X135833333Y-112678571D02*
X135976190Y-112726190D01*
X136023809Y-112773809D01*
X136071428Y-112869047D01*
X136071428Y-113011904D01*
X136023809Y-113107142D01*
X135976190Y-113154761D01*
X135880952Y-113202380D01*
X135500000Y-113202380D01*
X135500000Y-112202380D01*
X135833333Y-112202380D01*
X135928571Y-112250000D01*
X135976190Y-112297619D01*
X136023809Y-112392857D01*
X136023809Y-112488095D01*
X135976190Y-112583333D01*
X135928571Y-112630952D01*
X135833333Y-112678571D01*
X135500000Y-112678571D01*
X128833333Y-116297619D02*
X128880952Y-116250000D01*
X128976190Y-116202380D01*
X129214285Y-116202380D01*
X129309523Y-116250000D01*
X129357142Y-116297619D01*
X129404761Y-116392857D01*
X129404761Y-116488095D01*
X129357142Y-116630952D01*
X128785714Y-117202380D01*
X129404761Y-117202380D01*
X129833333Y-116821428D02*
X130595238Y-116821428D01*
X130976190Y-116202380D02*
X131595238Y-116202380D01*
X131261904Y-116583333D01*
X131404761Y-116583333D01*
X131500000Y-116630952D01*
X131547619Y-116678571D01*
X131595238Y-116773809D01*
X131595238Y-117011904D01*
X131547619Y-117107142D01*
X131500000Y-117154761D01*
X131404761Y-117202380D01*
X131119047Y-117202380D01*
X131023809Y-117154761D01*
X130976190Y-117107142D01*
X132738095Y-116297619D02*
X132785714Y-116250000D01*
X132880952Y-116202380D01*
X133119047Y-116202380D01*
X133214285Y-116250000D01*
X133261904Y-116297619D01*
X133309523Y-116392857D01*
X133309523Y-116488095D01*
X133261904Y-116630952D01*
X132690476Y-117202380D01*
X133309523Y-117202380D01*
X133785714Y-117202380D02*
X133976190Y-117202380D01*
X134071428Y-117154761D01*
X134119047Y-117107142D01*
X134214285Y-116964285D01*
X134261904Y-116773809D01*
X134261904Y-116392857D01*
X134214285Y-116297619D01*
X134166666Y-116250000D01*
X134071428Y-116202380D01*
X133880952Y-116202380D01*
X133785714Y-116250000D01*
X133738095Y-116297619D01*
X133690476Y-116392857D01*
X133690476Y-116630952D01*
X133738095Y-116726190D01*
X133785714Y-116773809D01*
X133880952Y-116821428D01*
X134071428Y-116821428D01*
X134166666Y-116773809D01*
X134214285Y-116726190D01*
X134261904Y-116630952D01*
X135119047Y-117202380D02*
X135119047Y-116202380D01*
X135119047Y-117154761D02*
X135023809Y-117202380D01*
X134833333Y-117202380D01*
X134738095Y-117154761D01*
X134690476Y-117107142D01*
X134642857Y-117011904D01*
X134642857Y-116726190D01*
X134690476Y-116630952D01*
X134738095Y-116583333D01*
X134833333Y-116535714D01*
X135023809Y-116535714D01*
X135119047Y-116583333D01*
X135928571Y-116678571D02*
X136071428Y-116726190D01*
X136119047Y-116773809D01*
X136166666Y-116869047D01*
X136166666Y-117011904D01*
X136119047Y-117107142D01*
X136071428Y-117154761D01*
X135976190Y-117202380D01*
X135595238Y-117202380D01*
X135595238Y-116202380D01*
X135928571Y-116202380D01*
X136023809Y-116250000D01*
X136071428Y-116297619D01*
X136119047Y-116392857D01*
X136119047Y-116488095D01*
X136071428Y-116583333D01*
X136023809Y-116630952D01*
X135928571Y-116678571D01*
X135595238Y-116678571D01*
X129404761Y-115202380D02*
X128833333Y-115202380D01*
X129119047Y-115202380D02*
X129119047Y-114202380D01*
X129023809Y-114345238D01*
X128928571Y-114440476D01*
X128833333Y-114488095D01*
X129833333Y-114821428D02*
X130595238Y-114821428D01*
X131023809Y-114297619D02*
X131071428Y-114250000D01*
X131166666Y-114202380D01*
X131404761Y-114202380D01*
X131500000Y-114250000D01*
X131547619Y-114297619D01*
X131595238Y-114392857D01*
X131595238Y-114488095D01*
X131547619Y-114630952D01*
X130976190Y-115202380D01*
X131595238Y-115202380D01*
X132738095Y-114297619D02*
X132785714Y-114250000D01*
X132880952Y-114202380D01*
X133119047Y-114202380D01*
X133214285Y-114250000D01*
X133261904Y-114297619D01*
X133309523Y-114392857D01*
X133309523Y-114488095D01*
X133261904Y-114630952D01*
X132690476Y-115202380D01*
X133309523Y-115202380D01*
X134166666Y-114202380D02*
X133976190Y-114202380D01*
X133880952Y-114250000D01*
X133833333Y-114297619D01*
X133738095Y-114440476D01*
X133690476Y-114630952D01*
X133690476Y-115011904D01*
X133738095Y-115107142D01*
X133785714Y-115154761D01*
X133880952Y-115202380D01*
X134071428Y-115202380D01*
X134166666Y-115154761D01*
X134214285Y-115107142D01*
X134261904Y-115011904D01*
X134261904Y-114773809D01*
X134214285Y-114678571D01*
X134166666Y-114630952D01*
X134071428Y-114583333D01*
X133880952Y-114583333D01*
X133785714Y-114630952D01*
X133738095Y-114678571D01*
X133690476Y-114773809D01*
X135119047Y-115202380D02*
X135119047Y-114202380D01*
X135119047Y-115154761D02*
X135023809Y-115202380D01*
X134833333Y-115202380D01*
X134738095Y-115154761D01*
X134690476Y-115107142D01*
X134642857Y-115011904D01*
X134642857Y-114726190D01*
X134690476Y-114630952D01*
X134738095Y-114583333D01*
X134833333Y-114535714D01*
X135023809Y-114535714D01*
X135119047Y-114583333D01*
X135928571Y-114678571D02*
X136071428Y-114726190D01*
X136119047Y-114773809D01*
X136166666Y-114869047D01*
X136166666Y-115011904D01*
X136119047Y-115107142D01*
X136071428Y-115154761D01*
X135976190Y-115202380D01*
X135595238Y-115202380D01*
X135595238Y-114202380D01*
X135928571Y-114202380D01*
X136023809Y-114250000D01*
X136071428Y-114297619D01*
X136119047Y-114392857D01*
X136119047Y-114488095D01*
X136071428Y-114583333D01*
X136023809Y-114630952D01*
X135928571Y-114678571D01*
X135595238Y-114678571D01*
X121333333Y-152055714D02*
X121333333Y-152722380D01*
X121095238Y-151674761D02*
X120857142Y-152389047D01*
X121476190Y-152389047D01*
X122047619Y-151722380D02*
X122142857Y-151722380D01*
X122238095Y-151770000D01*
X122285714Y-151817619D01*
X122333333Y-151912857D01*
X122380952Y-152103333D01*
X122380952Y-152341428D01*
X122333333Y-152531904D01*
X122285714Y-152627142D01*
X122238095Y-152674761D01*
X122142857Y-152722380D01*
X122047619Y-152722380D01*
X121952380Y-152674761D01*
X121904761Y-152627142D01*
X121857142Y-152531904D01*
X121809523Y-152341428D01*
X121809523Y-152103333D01*
X121857142Y-151912857D01*
X121904761Y-151817619D01*
X121952380Y-151770000D01*
X122047619Y-151722380D01*
X122809523Y-152627142D02*
X122857142Y-152674761D01*
X122809523Y-152722380D01*
X122761904Y-152674761D01*
X122809523Y-152627142D01*
X122809523Y-152722380D01*
X123476190Y-151722380D02*
X123571428Y-151722380D01*
X123666666Y-151770000D01*
X123714285Y-151817619D01*
X123761904Y-151912857D01*
X123809523Y-152103333D01*
X123809523Y-152341428D01*
X123761904Y-152531904D01*
X123714285Y-152627142D01*
X123666666Y-152674761D01*
X123571428Y-152722380D01*
X123476190Y-152722380D01*
X123380952Y-152674761D01*
X123333333Y-152627142D01*
X123285714Y-152531904D01*
X123238095Y-152341428D01*
X123238095Y-152103333D01*
X123285714Y-151912857D01*
X123333333Y-151817619D01*
X123380952Y-151770000D01*
X123476190Y-151722380D01*
X124428571Y-151722380D02*
X124523809Y-151722380D01*
X124619047Y-151770000D01*
X124666666Y-151817619D01*
X124714285Y-151912857D01*
X124761904Y-152103333D01*
X124761904Y-152341428D01*
X124714285Y-152531904D01*
X124666666Y-152627142D01*
X124619047Y-152674761D01*
X124523809Y-152722380D01*
X124428571Y-152722380D01*
X124333333Y-152674761D01*
X124285714Y-152627142D01*
X124238095Y-152531904D01*
X124190476Y-152341428D01*
X124190476Y-152103333D01*
X124238095Y-151912857D01*
X124285714Y-151817619D01*
X124333333Y-151770000D01*
X124428571Y-151722380D01*
X125380952Y-151722380D02*
X125476190Y-151722380D01*
X125571428Y-151770000D01*
X125619047Y-151817619D01*
X125666666Y-151912857D01*
X125714285Y-152103333D01*
X125714285Y-152341428D01*
X125666666Y-152531904D01*
X125619047Y-152627142D01*
X125571428Y-152674761D01*
X125476190Y-152722380D01*
X125380952Y-152722380D01*
X125285714Y-152674761D01*
X125238095Y-152627142D01*
X125190476Y-152531904D01*
X125142857Y-152341428D01*
X125142857Y-152103333D01*
X125190476Y-151912857D01*
X125238095Y-151817619D01*
X125285714Y-151770000D01*
X125380952Y-151722380D01*
X126904761Y-152722380D02*
X126904761Y-152055714D01*
X126904761Y-152150952D02*
X126952380Y-152103333D01*
X127047619Y-152055714D01*
X127190476Y-152055714D01*
X127285714Y-152103333D01*
X127333333Y-152198571D01*
X127333333Y-152722380D01*
X127333333Y-152198571D02*
X127380952Y-152103333D01*
X127476190Y-152055714D01*
X127619047Y-152055714D01*
X127714285Y-152103333D01*
X127761904Y-152198571D01*
X127761904Y-152722380D01*
X128238095Y-152722380D02*
X128238095Y-152055714D01*
X128238095Y-152150952D02*
X128285714Y-152103333D01*
X128380952Y-152055714D01*
X128523809Y-152055714D01*
X128619047Y-152103333D01*
X128666666Y-152198571D01*
X128666666Y-152722380D01*
X128666666Y-152198571D02*
X128714285Y-152103333D01*
X128809523Y-152055714D01*
X128952380Y-152055714D01*
X129047619Y-152103333D01*
X129095238Y-152198571D01*
X129095238Y-152722380D01*
D11*
X105000000Y-151000000D02*
X145000000Y-151000000D01*
X105000000Y-147750000D02*
X105000000Y-151586421D01*
X145000000Y-147750000D02*
X145000000Y-151586421D01*
X145000000Y-151000000D02*
X143873496Y-151586421D01*
X145000000Y-151000000D02*
X143873496Y-150413579D01*
X105000000Y-151000000D02*
X106126504Y-151586421D01*
X105000000Y-151000000D02*
X106126504Y-150413579D01*
D10*
X158452380Y-142492842D02*
X157452380Y-142367842D01*
X157452380Y-141986889D01*
X157500000Y-141897604D01*
X157547619Y-141855937D01*
X157642857Y-141820223D01*
X157785714Y-141838080D01*
X157880952Y-141897604D01*
X157928571Y-141951175D01*
X157976190Y-142052366D01*
X157976190Y-142433318D01*
X158452380Y-141064270D02*
X157928571Y-140998794D01*
X157833333Y-141034508D01*
X157785714Y-141123794D01*
X157785714Y-141314270D01*
X157833333Y-141415461D01*
X158404761Y-141058318D02*
X158452380Y-141159508D01*
X158452380Y-141397604D01*
X158404761Y-141486889D01*
X158309523Y-141522604D01*
X158214285Y-141510699D01*
X158119047Y-141451175D01*
X158071428Y-141349985D01*
X158071428Y-141111889D01*
X158023809Y-141010699D01*
X157785714Y-140599985D02*
X158452380Y-140445223D01*
X157785714Y-140123794D01*
X158452380Y-139683318D02*
X158404761Y-139772604D01*
X158309523Y-139808318D01*
X157452380Y-139701175D01*
X158452380Y-139159508D02*
X158404761Y-139248794D01*
X158357142Y-139290461D01*
X158261904Y-139326175D01*
X157976190Y-139290461D01*
X157880952Y-139230937D01*
X157833333Y-139177366D01*
X157785714Y-139076175D01*
X157785714Y-138933318D01*
X157833333Y-138844032D01*
X157880952Y-138802366D01*
X157976190Y-138766651D01*
X158261904Y-138802366D01*
X158357142Y-138861889D01*
X158404761Y-138915461D01*
X158452380Y-139016651D01*
X158452380Y-139159508D01*
X157452380Y-138224985D02*
X157500000Y-138230937D01*
X157595238Y-138290461D01*
X157642857Y-138344032D01*
X158404761Y-137963080D02*
X158452380Y-137873794D01*
X158452380Y-137683318D01*
X158404761Y-137582127D01*
X158309523Y-137522604D01*
X158261904Y-137516651D01*
X158166666Y-137552366D01*
X158119047Y-137641651D01*
X158119047Y-137784508D01*
X158071428Y-137873794D01*
X157976190Y-137909508D01*
X157928571Y-137903556D01*
X157833333Y-137844032D01*
X157785714Y-137742842D01*
X157785714Y-137599985D01*
X157833333Y-137510699D01*
X158452380Y-135873794D02*
X158452380Y-136349985D01*
X157452380Y-136224985D01*
X158452380Y-135111889D02*
X157928571Y-135046413D01*
X157833333Y-135082127D01*
X157785714Y-135171413D01*
X157785714Y-135361889D01*
X157833333Y-135463080D01*
X158404761Y-135105937D02*
X158452380Y-135207127D01*
X158452380Y-135445223D01*
X158404761Y-135534508D01*
X158309523Y-135570223D01*
X158214285Y-135558318D01*
X158119047Y-135498794D01*
X158071428Y-135397604D01*
X158071428Y-135159508D01*
X158023809Y-135058318D01*
X158452380Y-134635699D02*
X157452380Y-134510699D01*
X157833333Y-134558318D02*
X157785714Y-134457127D01*
X157785714Y-134266651D01*
X157833333Y-134177366D01*
X157880952Y-134135699D01*
X157976190Y-134099985D01*
X158261904Y-134135699D01*
X158357142Y-134195223D01*
X158404761Y-134248794D01*
X158452380Y-134349985D01*
X158452380Y-134540461D01*
X158404761Y-134629747D01*
X92452380Y-145821428D02*
X91452380Y-145821428D01*
X92452380Y-145250000D01*
X91452380Y-145250000D01*
X92404761Y-144392857D02*
X92452380Y-144488095D01*
X92452380Y-144678571D01*
X92404761Y-144773809D01*
X92309523Y-144821428D01*
X91928571Y-144821428D01*
X91833333Y-144773809D01*
X91785714Y-144678571D01*
X91785714Y-144488095D01*
X91833333Y-144392857D01*
X91928571Y-144345238D01*
X92023809Y-144345238D01*
X92119047Y-144821428D01*
X91785714Y-143488095D02*
X92452380Y-143488095D01*
X91785714Y-143916666D02*
X92309523Y-143916666D01*
X92404761Y-143869047D01*
X92452380Y-143773809D01*
X92452380Y-143630952D01*
X92404761Y-143535714D01*
X92357142Y-143488095D01*
X91785714Y-143154761D02*
X91785714Y-142773809D01*
X91452380Y-143011904D02*
X92309523Y-143011904D01*
X92404761Y-142964285D01*
X92452380Y-142869047D01*
X92452380Y-142773809D01*
X92452380Y-142440476D02*
X91785714Y-142440476D01*
X91976190Y-142440476D02*
X91880952Y-142392857D01*
X91833333Y-142345238D01*
X91785714Y-142250000D01*
X91785714Y-142154761D01*
X92452380Y-141821428D02*
X91785714Y-141821428D01*
X91452380Y-141821428D02*
X91500000Y-141869047D01*
X91547619Y-141821428D01*
X91500000Y-141773809D01*
X91452380Y-141821428D01*
X91547619Y-141821428D01*
X92452380Y-141345238D02*
X91452380Y-141345238D01*
X92071428Y-141250000D02*
X92452380Y-140964285D01*
X91785714Y-140964285D02*
X92166666Y-141345238D01*
X92452380Y-139773809D02*
X91452380Y-139773809D01*
X92452380Y-139202380D01*
X91452380Y-139202380D01*
X92357142Y-138154761D02*
X92404761Y-138202380D01*
X92452380Y-138345238D01*
X92452380Y-138440476D01*
X92404761Y-138583333D01*
X92309523Y-138678571D01*
X92214285Y-138726190D01*
X92023809Y-138773809D01*
X91880952Y-138773809D01*
X91690476Y-138726190D01*
X91595238Y-138678571D01*
X91500000Y-138583333D01*
X91452380Y-138440476D01*
X91452380Y-138345238D01*
X91500000Y-138202380D01*
X91547619Y-138154761D01*
X91452380Y-137821428D02*
X91452380Y-137202380D01*
X91833333Y-137535714D01*
X91833333Y-137392857D01*
X91880952Y-137297619D01*
X91928571Y-137250000D01*
X92023809Y-137202380D01*
X92261904Y-137202380D01*
X92357142Y-137250000D01*
X92404761Y-137297619D01*
X92452380Y-137392857D01*
X92452380Y-137678571D01*
X92404761Y-137773809D01*
X92357142Y-137821428D01*
X91928571Y-136440476D02*
X91928571Y-136773809D01*
X92452380Y-136773809D02*
X91452380Y-136773809D01*
X91452380Y-136297619D01*
X92166666Y-135964285D02*
X92166666Y-135488095D01*
X92452380Y-136059523D02*
X91452380Y-135726190D01*
X92452380Y-135392857D01*
X92166666Y-135107142D02*
X92166666Y-134630952D01*
X92452380Y-135202380D02*
X91452380Y-134869047D01*
X92452380Y-134535714D01*
X92452380Y-134202380D02*
X91452380Y-134202380D01*
X91928571Y-134202380D02*
X91928571Y-133630952D01*
X92452380Y-133630952D02*
X91452380Y-133630952D01*
X91547619Y-133202380D02*
X91500000Y-133154761D01*
X91452380Y-133059523D01*
X91452380Y-132821428D01*
X91500000Y-132726190D01*
X91547619Y-132678571D01*
X91642857Y-132630952D01*
X91738095Y-132630952D01*
X91880952Y-132678571D01*
X92452380Y-133250000D01*
X92452380Y-132630952D01*
D11*
X145000000Y-153000000D02*
X145000000Y-154500000D01*
X105000000Y-153000000D02*
X105000000Y-154500000D01*
D10*
X119988095Y-108321428D02*
X120750000Y-108321428D01*
X121750000Y-108702380D02*
X121178571Y-108702380D01*
X121464285Y-108702380D02*
X121464285Y-107702380D01*
X121369047Y-107845238D01*
X121273809Y-107940476D01*
X121178571Y-107988095D01*
X122654761Y-107702380D02*
X122178571Y-107702380D01*
X122130952Y-108178571D01*
X122178571Y-108130952D01*
X122273809Y-108083333D01*
X122511904Y-108083333D01*
X122607142Y-108130952D01*
X122654761Y-108178571D01*
X122702380Y-108273809D01*
X122702380Y-108511904D01*
X122654761Y-108607142D01*
X122607142Y-108654761D01*
X122511904Y-108702380D01*
X122273809Y-108702380D01*
X122178571Y-108654761D01*
X122130952Y-108607142D01*
X122988095Y-107702380D02*
X123321428Y-108702380D01*
X123654761Y-107702380D01*
X126488095Y-108321428D02*
X127250000Y-108321428D01*
X126869047Y-108702380D02*
X126869047Y-107940476D01*
X128250000Y-108702380D02*
X127678571Y-108702380D01*
X127964285Y-108702380D02*
X127964285Y-107702380D01*
X127869047Y-107845238D01*
X127773809Y-107940476D01*
X127678571Y-107988095D01*
X129154761Y-107702380D02*
X128678571Y-107702380D01*
X128630952Y-108178571D01*
X128678571Y-108130952D01*
X128773809Y-108083333D01*
X129011904Y-108083333D01*
X129107142Y-108130952D01*
X129154761Y-108178571D01*
X129202380Y-108273809D01*
X129202380Y-108511904D01*
X129154761Y-108607142D01*
X129107142Y-108654761D01*
X129011904Y-108702380D01*
X128773809Y-108702380D01*
X128678571Y-108654761D01*
X128630952Y-108607142D01*
X129488095Y-107702380D02*
X129821428Y-108702380D01*
X130154761Y-107702380D01*
X108630952Y-107452380D02*
X108821428Y-107452380D01*
X108916666Y-107500000D01*
X109011904Y-107595238D01*
X109059523Y-107785714D01*
X109059523Y-108119047D01*
X109011904Y-108309523D01*
X108916666Y-108404761D01*
X108821428Y-108452380D01*
X108630952Y-108452380D01*
X108535714Y-108404761D01*
X108440476Y-108309523D01*
X108392857Y-108119047D01*
X108392857Y-107785714D01*
X108440476Y-107595238D01*
X108535714Y-107500000D01*
X108630952Y-107452380D01*
X109488095Y-107452380D02*
X109488095Y-108261904D01*
X109535714Y-108357142D01*
X109583333Y-108404761D01*
X109678571Y-108452380D01*
X109869047Y-108452380D01*
X109964285Y-108404761D01*
X110011904Y-108357142D01*
X110059523Y-108261904D01*
X110059523Y-107452380D01*
X110392857Y-107452380D02*
X110964285Y-107452380D01*
X110678571Y-108452380D02*
X110678571Y-107452380D01*
X111297619Y-108071428D02*
X112059523Y-108071428D01*
X148880952Y-107452380D02*
X149071428Y-107452380D01*
X149166666Y-107500000D01*
X149261904Y-107595238D01*
X149309523Y-107785714D01*
X149309523Y-108119047D01*
X149261904Y-108309523D01*
X149166666Y-108404761D01*
X149071428Y-108452380D01*
X148880952Y-108452380D01*
X148785714Y-108404761D01*
X148690476Y-108309523D01*
X148642857Y-108119047D01*
X148642857Y-107785714D01*
X148690476Y-107595238D01*
X148785714Y-107500000D01*
X148880952Y-107452380D01*
X149738095Y-107452380D02*
X149738095Y-108261904D01*
X149785714Y-108357142D01*
X149833333Y-108404761D01*
X149928571Y-108452380D01*
X150119047Y-108452380D01*
X150214285Y-108404761D01*
X150261904Y-108357142D01*
X150309523Y-108261904D01*
X150309523Y-107452380D01*
X150642857Y-107452380D02*
X151214285Y-107452380D01*
X150928571Y-108452380D02*
X150928571Y-107452380D01*
X151547619Y-108071428D02*
X152309523Y-108071428D01*
X143880952Y-107452380D02*
X144071428Y-107452380D01*
X144166666Y-107500000D01*
X144261904Y-107595238D01*
X144309523Y-107785714D01*
X144309523Y-108119047D01*
X144261904Y-108309523D01*
X144166666Y-108404761D01*
X144071428Y-108452380D01*
X143880952Y-108452380D01*
X143785714Y-108404761D01*
X143690476Y-108309523D01*
X143642857Y-108119047D01*
X143642857Y-107785714D01*
X143690476Y-107595238D01*
X143785714Y-107500000D01*
X143880952Y-107452380D01*
X144738095Y-107452380D02*
X144738095Y-108261904D01*
X144785714Y-108357142D01*
X144833333Y-108404761D01*
X144928571Y-108452380D01*
X145119047Y-108452380D01*
X145214285Y-108404761D01*
X145261904Y-108357142D01*
X145309523Y-108261904D01*
X145309523Y-107452380D01*
X145642857Y-107452380D02*
X146214285Y-107452380D01*
X145928571Y-108452380D02*
X145928571Y-107452380D01*
X146547619Y-108071428D02*
X147309523Y-108071428D01*
X146928571Y-108452380D02*
X146928571Y-107690476D01*
X103630952Y-107452380D02*
X103821428Y-107452380D01*
X103916666Y-107500000D01*
X104011904Y-107595238D01*
X104059523Y-107785714D01*
X104059523Y-108119047D01*
X104011904Y-108309523D01*
X103916666Y-108404761D01*
X103821428Y-108452380D01*
X103630952Y-108452380D01*
X103535714Y-108404761D01*
X103440476Y-108309523D01*
X103392857Y-108119047D01*
X103392857Y-107785714D01*
X103440476Y-107595238D01*
X103535714Y-107500000D01*
X103630952Y-107452380D01*
X104488095Y-107452380D02*
X104488095Y-108261904D01*
X104535714Y-108357142D01*
X104583333Y-108404761D01*
X104678571Y-108452380D01*
X104869047Y-108452380D01*
X104964285Y-108404761D01*
X105011904Y-108357142D01*
X105059523Y-108261904D01*
X105059523Y-107452380D01*
X105392857Y-107452380D02*
X105964285Y-107452380D01*
X105678571Y-108452380D02*
X105678571Y-107452380D01*
X106297619Y-108071428D02*
X107059523Y-108071428D01*
X106678571Y-108452380D02*
X106678571Y-107690476D01*
X139738095Y-107500000D02*
X139642857Y-107452380D01*
X139500000Y-107452380D01*
X139357142Y-107500000D01*
X139261904Y-107595238D01*
X139214285Y-107690476D01*
X139166666Y-107880952D01*
X139166666Y-108023809D01*
X139214285Y-108214285D01*
X139261904Y-108309523D01*
X139357142Y-108404761D01*
X139500000Y-108452380D01*
X139595238Y-108452380D01*
X139738095Y-108404761D01*
X139785714Y-108357142D01*
X139785714Y-108023809D01*
X139595238Y-108023809D01*
X140214285Y-108452380D02*
X140214285Y-107452380D01*
X140785714Y-108452380D01*
X140785714Y-107452380D01*
X141261904Y-108452380D02*
X141261904Y-107452380D01*
X141500000Y-107452380D01*
X141642857Y-107500000D01*
X141738095Y-107595238D01*
X141785714Y-107690476D01*
X141833333Y-107880952D01*
X141833333Y-108023809D01*
X141785714Y-108214285D01*
X141738095Y-108309523D01*
X141642857Y-108404761D01*
X141500000Y-108452380D01*
X141261904Y-108452380D01*
X99238095Y-107500000D02*
X99142857Y-107452380D01*
X99000000Y-107452380D01*
X98857142Y-107500000D01*
X98761904Y-107595238D01*
X98714285Y-107690476D01*
X98666666Y-107880952D01*
X98666666Y-108023809D01*
X98714285Y-108214285D01*
X98761904Y-108309523D01*
X98857142Y-108404761D01*
X99000000Y-108452380D01*
X99095238Y-108452380D01*
X99238095Y-108404761D01*
X99285714Y-108357142D01*
X99285714Y-108023809D01*
X99095238Y-108023809D01*
X99714285Y-108452380D02*
X99714285Y-107452380D01*
X100285714Y-108452380D01*
X100285714Y-107452380D01*
X100761904Y-108452380D02*
X100761904Y-107452380D01*
X101000000Y-107452380D01*
X101142857Y-107500000D01*
X101238095Y-107595238D01*
X101285714Y-107690476D01*
X101333333Y-107880952D01*
X101333333Y-108023809D01*
X101285714Y-108214285D01*
X101238095Y-108309523D01*
X101142857Y-108404761D01*
X101000000Y-108452380D01*
X100761904Y-108452380D01*
D11*
%TO.C,U2*%
X145000000Y-118690000D02*
X141550000Y-118690000D01*
X145000000Y-118690000D02*
X146950000Y-118690000D01*
X145000000Y-123810000D02*
X143050000Y-123810000D01*
X145000000Y-123810000D02*
X146950000Y-123810000D01*
%TO.C,R18*%
X145397936Y-111160000D02*
X146602064Y-111160000D01*
X145397936Y-109340000D02*
X146602064Y-109340000D01*
%TO.C,R17*%
X105397936Y-111160000D02*
X106602064Y-111160000D01*
X105397936Y-109340000D02*
X106602064Y-109340000D01*
%TO.C,R16*%
X145397936Y-114160000D02*
X146602064Y-114160000D01*
X145397936Y-112340000D02*
X146602064Y-112340000D01*
%TO.C,R15*%
X105397936Y-114160000D02*
X106602064Y-114160000D01*
X105397936Y-112340000D02*
X106602064Y-112340000D01*
%TO.C,R14*%
X152647936Y-121660000D02*
X153852064Y-121660000D01*
X152647936Y-119840000D02*
X153852064Y-119840000D01*
%TO.C,R13*%
X137352064Y-119840000D02*
X136147936Y-119840000D01*
X137352064Y-121660000D02*
X136147936Y-121660000D01*
%TO.C,R12*%
X112647936Y-121660000D02*
X113852064Y-121660000D01*
X112647936Y-119840000D02*
X113852064Y-119840000D01*
%TO.C,R11*%
X97352064Y-119840000D02*
X96147936Y-119840000D01*
X97352064Y-121660000D02*
X96147936Y-121660000D01*
%TO.C,R10*%
X149160000Y-132352064D02*
X149160000Y-131147936D01*
X147340000Y-132352064D02*
X147340000Y-131147936D01*
%TO.C,R9*%
X140840000Y-131147936D02*
X140840000Y-132352064D01*
X142660000Y-131147936D02*
X142660000Y-132352064D01*
%TO.C,R6*%
X145910000Y-132352064D02*
X145910000Y-131147936D01*
X144090000Y-132352064D02*
X144090000Y-131147936D01*
%TO.C,R4*%
X152647936Y-127660000D02*
X153852064Y-127660000D01*
X152647936Y-125840000D02*
X153852064Y-125840000D01*
%TO.C,R3*%
X137352064Y-125840000D02*
X136147936Y-125840000D01*
X137352064Y-127660000D02*
X136147936Y-127660000D01*
%TO.C,J7*%
X139000000Y-107000000D02*
X139000000Y-100000000D01*
X151000000Y-107000000D02*
X151000000Y-100000000D01*
X139000000Y-100000000D02*
X151000000Y-100000000D01*
X139000000Y-107000000D02*
X151000000Y-107000000D01*
X142750000Y-103500000D02*
G75*
G03*
X142750000Y-103500000I-1250000J0D01*
G01*
X146250000Y-103500000D02*
G75*
G03*
X146250000Y-103500000I-1250000J0D01*
G01*
X149750000Y-103500000D02*
G75*
G03*
X149750000Y-103500000I-1250000J0D01*
G01*
X149000000Y-101750000D02*
X148000000Y-101750000D01*
X148000000Y-101750000D02*
X148000000Y-100000000D01*
X149000000Y-101750000D02*
X149000000Y-100000000D01*
X145500000Y-100000000D02*
X145500000Y-101750000D01*
X145500000Y-101750000D02*
X144500000Y-101750000D01*
X144500000Y-101750000D02*
X144500000Y-100000000D01*
X142000000Y-100000000D02*
X142000000Y-101750000D01*
X142000000Y-101750000D02*
X141000000Y-101750000D01*
X141000000Y-101750000D02*
X141000000Y-100000000D01*
%TO.C,J6*%
X99000000Y-107000000D02*
X99000000Y-100000000D01*
X111000000Y-107000000D02*
X111000000Y-100000000D01*
X99000000Y-100000000D02*
X111000000Y-100000000D01*
X99000000Y-107000000D02*
X111000000Y-107000000D01*
X102750000Y-103500000D02*
G75*
G03*
X102750000Y-103500000I-1250000J0D01*
G01*
X106250000Y-103500000D02*
G75*
G03*
X106250000Y-103500000I-1250000J0D01*
G01*
X109750000Y-103500000D02*
G75*
G03*
X109750000Y-103500000I-1250000J0D01*
G01*
X109000000Y-101750000D02*
X108000000Y-101750000D01*
X108000000Y-101750000D02*
X108000000Y-100000000D01*
X109000000Y-101750000D02*
X109000000Y-100000000D01*
X105500000Y-100000000D02*
X105500000Y-101750000D01*
X105500000Y-101750000D02*
X104500000Y-101750000D01*
X104500000Y-101750000D02*
X104500000Y-100000000D01*
X102000000Y-100000000D02*
X102000000Y-101750000D01*
X102000000Y-101750000D02*
X101000000Y-101750000D01*
X101000000Y-101750000D02*
X101000000Y-100000000D01*
%TO.C,J5*%
X138670000Y-109420000D02*
X140000000Y-109420000D01*
X138670000Y-110750000D02*
X138670000Y-109420000D01*
X138670000Y-112020000D02*
X141330000Y-112020000D01*
X141330000Y-112020000D02*
X141330000Y-117160000D01*
X138670000Y-112020000D02*
X138670000Y-117160000D01*
X138670000Y-117160000D02*
X141330000Y-117160000D01*
%TO.C,J4*%
X98670000Y-109420000D02*
X100000000Y-109420000D01*
X98670000Y-110750000D02*
X98670000Y-109420000D01*
X98670000Y-112020000D02*
X101330000Y-112020000D01*
X101330000Y-112020000D02*
X101330000Y-117160000D01*
X98670000Y-112020000D02*
X98670000Y-117160000D01*
X98670000Y-117160000D02*
X101330000Y-117160000D01*
%TO.C,J2*%
X132380000Y-155110000D02*
X132380000Y-148370000D01*
X157620000Y-155110000D02*
X157620000Y-148370000D01*
X155870000Y-148370000D02*
X157620000Y-148370000D01*
X132380000Y-148370000D02*
X134130000Y-148370000D01*
X156120000Y-155110000D02*
X156120000Y-157810000D01*
X133880000Y-155110000D02*
X133880000Y-157810000D01*
X133880000Y-155110000D02*
X132380000Y-155110000D01*
X157620000Y-155110000D02*
X156120000Y-155110000D01*
X156120000Y-157810000D02*
X133880000Y-157810000D01*
X136880000Y-142870000D02*
X136880000Y-135370000D01*
X153120000Y-135370000D02*
X136880000Y-135370000D01*
X155870000Y-148370000D02*
X155870000Y-142870000D01*
X153120000Y-142870000D02*
X153120000Y-135370000D01*
X136880000Y-142870000D02*
X134130000Y-142870000D01*
X134130000Y-148370000D02*
X134130000Y-142870000D01*
X155870000Y-142870000D02*
X153120000Y-142870000D01*
%TO.C,C6*%
X153852064Y-122840000D02*
X152647936Y-122840000D01*
X153852064Y-124660000D02*
X152647936Y-124660000D01*
%TO.C,C5*%
X137352064Y-122840000D02*
X136147936Y-122840000D01*
X137352064Y-124660000D02*
X136147936Y-124660000D01*
%TO.C,J3*%
X122750000Y-101750000D02*
X122750000Y-100000000D01*
X123750000Y-101750000D02*
X122750000Y-101750000D01*
X123750000Y-100000000D02*
X123750000Y-101750000D01*
X127250000Y-101750000D02*
X127250000Y-100000000D01*
X126250000Y-101750000D02*
X126250000Y-100000000D01*
X127250000Y-101750000D02*
X126250000Y-101750000D01*
X128000000Y-103500000D02*
G75*
G03*
X128000000Y-103500000I-1250000J0D01*
G01*
X124500000Y-103500000D02*
G75*
G03*
X124500000Y-103500000I-1250000J0D01*
G01*
X120750000Y-107000000D02*
X129250000Y-107000000D01*
X120750000Y-100000000D02*
X129250000Y-100000000D01*
X129250000Y-107000000D02*
X129250000Y-100000000D01*
X120750000Y-107000000D02*
X120750000Y-100000000D01*
%TO.C,C4*%
X113852064Y-122840000D02*
X112647936Y-122840000D01*
X113852064Y-124660000D02*
X112647936Y-124660000D01*
%TO.C,C3*%
X97352064Y-122840000D02*
X96147936Y-122840000D01*
X97352064Y-124660000D02*
X96147936Y-124660000D01*
%TO.C,C8*%
X144602064Y-125340000D02*
X143397936Y-125340000D01*
X144602064Y-127160000D02*
X143397936Y-127160000D01*
%TO.C,C7*%
X104602064Y-125340000D02*
X103397936Y-125340000D01*
X104602064Y-127160000D02*
X103397936Y-127160000D01*
%TO.C,C2*%
X146602064Y-115340000D02*
X145397936Y-115340000D01*
X146602064Y-117160000D02*
X145397936Y-117160000D01*
%TO.C,C1*%
X106602064Y-115340000D02*
X105397936Y-115340000D01*
X106602064Y-117160000D02*
X105397936Y-117160000D01*
%TO.C,U1*%
X105000000Y-118690000D02*
X101550000Y-118690000D01*
X105000000Y-118690000D02*
X106950000Y-118690000D01*
X105000000Y-123810000D02*
X103050000Y-123810000D01*
X105000000Y-123810000D02*
X106950000Y-123810000D01*
%TO.C,R8*%
X109160000Y-132352064D02*
X109160000Y-131147936D01*
X107340000Y-132352064D02*
X107340000Y-131147936D01*
%TO.C,R7*%
X100840000Y-131147936D02*
X100840000Y-132352064D01*
X102660000Y-131147936D02*
X102660000Y-132352064D01*
%TO.C,R5*%
X105910000Y-132352064D02*
X105910000Y-131147936D01*
X104090000Y-132352064D02*
X104090000Y-131147936D01*
%TO.C,R2*%
X112647936Y-127660000D02*
X113852064Y-127660000D01*
X112647936Y-125840000D02*
X113852064Y-125840000D01*
%TO.C,R1*%
X97352064Y-125840000D02*
X96147936Y-125840000D01*
X97352064Y-127660000D02*
X96147936Y-127660000D01*
%TO.C,J1*%
X115870000Y-142870000D02*
X113120000Y-142870000D01*
X94130000Y-148370000D02*
X94130000Y-142870000D01*
X96880000Y-142870000D02*
X94130000Y-142870000D01*
X113120000Y-142870000D02*
X113120000Y-135370000D01*
X115870000Y-148370000D02*
X115870000Y-142870000D01*
X113120000Y-135370000D02*
X96880000Y-135370000D01*
X96880000Y-142870000D02*
X96880000Y-135370000D01*
X116120000Y-157810000D02*
X93880000Y-157810000D01*
X117620000Y-155110000D02*
X116120000Y-155110000D01*
X93880000Y-155110000D02*
X92380000Y-155110000D01*
X93880000Y-155110000D02*
X93880000Y-157810000D01*
X116120000Y-155110000D02*
X116120000Y-157810000D01*
X92380000Y-148370000D02*
X94130000Y-148370000D01*
X115870000Y-148370000D02*
X117620000Y-148370000D01*
X117620000Y-155110000D02*
X117620000Y-148370000D01*
X92380000Y-155110000D02*
X92380000Y-148370000D01*
%TO.C,U2*%
D10*
X139238095Y-118202380D02*
X139238095Y-119011904D01*
X139285714Y-119107142D01*
X139333333Y-119154761D01*
X139428571Y-119202380D01*
X139619047Y-119202380D01*
X139714285Y-119154761D01*
X139761904Y-119107142D01*
X139809523Y-119011904D01*
X139809523Y-118202380D01*
X140238095Y-118297619D02*
X140285714Y-118250000D01*
X140380952Y-118202380D01*
X140619047Y-118202380D01*
X140714285Y-118250000D01*
X140761904Y-118297619D01*
X140809523Y-118392857D01*
X140809523Y-118488095D01*
X140761904Y-118630952D01*
X140190476Y-119202380D01*
X140809523Y-119202380D01*
%TO.C,R18*%
X149357142Y-110702380D02*
X149023809Y-110226190D01*
X148785714Y-110702380D02*
X148785714Y-109702380D01*
X149166666Y-109702380D01*
X149261904Y-109750000D01*
X149309523Y-109797619D01*
X149357142Y-109892857D01*
X149357142Y-110035714D01*
X149309523Y-110130952D01*
X149261904Y-110178571D01*
X149166666Y-110226190D01*
X148785714Y-110226190D01*
X150309523Y-110702380D02*
X149738095Y-110702380D01*
X150023809Y-110702380D02*
X150023809Y-109702380D01*
X149928571Y-109845238D01*
X149833333Y-109940476D01*
X149738095Y-109988095D01*
X150880952Y-110130952D02*
X150785714Y-110083333D01*
X150738095Y-110035714D01*
X150690476Y-109940476D01*
X150690476Y-109892857D01*
X150738095Y-109797619D01*
X150785714Y-109750000D01*
X150880952Y-109702380D01*
X151071428Y-109702380D01*
X151166666Y-109750000D01*
X151214285Y-109797619D01*
X151261904Y-109892857D01*
X151261904Y-109940476D01*
X151214285Y-110035714D01*
X151166666Y-110083333D01*
X151071428Y-110130952D01*
X150880952Y-110130952D01*
X150785714Y-110178571D01*
X150738095Y-110226190D01*
X150690476Y-110321428D01*
X150690476Y-110511904D01*
X150738095Y-110607142D01*
X150785714Y-110654761D01*
X150880952Y-110702380D01*
X151071428Y-110702380D01*
X151166666Y-110654761D01*
X151214285Y-110607142D01*
X151261904Y-110511904D01*
X151261904Y-110321428D01*
X151214285Y-110226190D01*
X151166666Y-110178571D01*
X151071428Y-110130952D01*
%TO.C,R17*%
X109357142Y-110702380D02*
X109023809Y-110226190D01*
X108785714Y-110702380D02*
X108785714Y-109702380D01*
X109166666Y-109702380D01*
X109261904Y-109750000D01*
X109309523Y-109797619D01*
X109357142Y-109892857D01*
X109357142Y-110035714D01*
X109309523Y-110130952D01*
X109261904Y-110178571D01*
X109166666Y-110226190D01*
X108785714Y-110226190D01*
X110309523Y-110702380D02*
X109738095Y-110702380D01*
X110023809Y-110702380D02*
X110023809Y-109702380D01*
X109928571Y-109845238D01*
X109833333Y-109940476D01*
X109738095Y-109988095D01*
X110642857Y-109702380D02*
X111309523Y-109702380D01*
X110880952Y-110702380D01*
%TO.C,R16*%
X149357142Y-113702380D02*
X149023809Y-113226190D01*
X148785714Y-113702380D02*
X148785714Y-112702380D01*
X149166666Y-112702380D01*
X149261904Y-112750000D01*
X149309523Y-112797619D01*
X149357142Y-112892857D01*
X149357142Y-113035714D01*
X149309523Y-113130952D01*
X149261904Y-113178571D01*
X149166666Y-113226190D01*
X148785714Y-113226190D01*
X150309523Y-113702380D02*
X149738095Y-113702380D01*
X150023809Y-113702380D02*
X150023809Y-112702380D01*
X149928571Y-112845238D01*
X149833333Y-112940476D01*
X149738095Y-112988095D01*
X151166666Y-112702380D02*
X150976190Y-112702380D01*
X150880952Y-112750000D01*
X150833333Y-112797619D01*
X150738095Y-112940476D01*
X150690476Y-113130952D01*
X150690476Y-113511904D01*
X150738095Y-113607142D01*
X150785714Y-113654761D01*
X150880952Y-113702380D01*
X151071428Y-113702380D01*
X151166666Y-113654761D01*
X151214285Y-113607142D01*
X151261904Y-113511904D01*
X151261904Y-113273809D01*
X151214285Y-113178571D01*
X151166666Y-113130952D01*
X151071428Y-113083333D01*
X150880952Y-113083333D01*
X150785714Y-113130952D01*
X150738095Y-113178571D01*
X150690476Y-113273809D01*
%TO.C,R15*%
X109357142Y-113702380D02*
X109023809Y-113226190D01*
X108785714Y-113702380D02*
X108785714Y-112702380D01*
X109166666Y-112702380D01*
X109261904Y-112750000D01*
X109309523Y-112797619D01*
X109357142Y-112892857D01*
X109357142Y-113035714D01*
X109309523Y-113130952D01*
X109261904Y-113178571D01*
X109166666Y-113226190D01*
X108785714Y-113226190D01*
X110309523Y-113702380D02*
X109738095Y-113702380D01*
X110023809Y-113702380D02*
X110023809Y-112702380D01*
X109928571Y-112845238D01*
X109833333Y-112940476D01*
X109738095Y-112988095D01*
X111214285Y-112702380D02*
X110738095Y-112702380D01*
X110690476Y-113178571D01*
X110738095Y-113130952D01*
X110833333Y-113083333D01*
X111071428Y-113083333D01*
X111166666Y-113130952D01*
X111214285Y-113178571D01*
X111261904Y-113273809D01*
X111261904Y-113511904D01*
X111214285Y-113607142D01*
X111166666Y-113654761D01*
X111071428Y-113702380D01*
X110833333Y-113702380D01*
X110738095Y-113654761D01*
X110690476Y-113607142D01*
%TO.C,R14*%
X156607142Y-121202380D02*
X156273809Y-120726190D01*
X156035714Y-121202380D02*
X156035714Y-120202380D01*
X156416666Y-120202380D01*
X156511904Y-120250000D01*
X156559523Y-120297619D01*
X156607142Y-120392857D01*
X156607142Y-120535714D01*
X156559523Y-120630952D01*
X156511904Y-120678571D01*
X156416666Y-120726190D01*
X156035714Y-120726190D01*
X157559523Y-121202380D02*
X156988095Y-121202380D01*
X157273809Y-121202380D02*
X157273809Y-120202380D01*
X157178571Y-120345238D01*
X157083333Y-120440476D01*
X156988095Y-120488095D01*
X158416666Y-120535714D02*
X158416666Y-121202380D01*
X158178571Y-120154761D02*
X157940476Y-120869047D01*
X158559523Y-120869047D01*
%TO.C,R13*%
X132107142Y-121202380D02*
X131773809Y-120726190D01*
X131535714Y-121202380D02*
X131535714Y-120202380D01*
X131916666Y-120202380D01*
X132011904Y-120250000D01*
X132059523Y-120297619D01*
X132107142Y-120392857D01*
X132107142Y-120535714D01*
X132059523Y-120630952D01*
X132011904Y-120678571D01*
X131916666Y-120726190D01*
X131535714Y-120726190D01*
X133059523Y-121202380D02*
X132488095Y-121202380D01*
X132773809Y-121202380D02*
X132773809Y-120202380D01*
X132678571Y-120345238D01*
X132583333Y-120440476D01*
X132488095Y-120488095D01*
X133392857Y-120202380D02*
X134011904Y-120202380D01*
X133678571Y-120583333D01*
X133821428Y-120583333D01*
X133916666Y-120630952D01*
X133964285Y-120678571D01*
X134011904Y-120773809D01*
X134011904Y-121011904D01*
X133964285Y-121107142D01*
X133916666Y-121154761D01*
X133821428Y-121202380D01*
X133535714Y-121202380D01*
X133440476Y-121154761D01*
X133392857Y-121107142D01*
%TO.C,R12*%
X116607142Y-121202380D02*
X116273809Y-120726190D01*
X116035714Y-121202380D02*
X116035714Y-120202380D01*
X116416666Y-120202380D01*
X116511904Y-120250000D01*
X116559523Y-120297619D01*
X116607142Y-120392857D01*
X116607142Y-120535714D01*
X116559523Y-120630952D01*
X116511904Y-120678571D01*
X116416666Y-120726190D01*
X116035714Y-120726190D01*
X117559523Y-121202380D02*
X116988095Y-121202380D01*
X117273809Y-121202380D02*
X117273809Y-120202380D01*
X117178571Y-120345238D01*
X117083333Y-120440476D01*
X116988095Y-120488095D01*
X117940476Y-120297619D02*
X117988095Y-120250000D01*
X118083333Y-120202380D01*
X118321428Y-120202380D01*
X118416666Y-120250000D01*
X118464285Y-120297619D01*
X118511904Y-120392857D01*
X118511904Y-120488095D01*
X118464285Y-120630952D01*
X117892857Y-121202380D01*
X118511904Y-121202380D01*
%TO.C,R11*%
X92107142Y-121202380D02*
X91773809Y-120726190D01*
X91535714Y-121202380D02*
X91535714Y-120202380D01*
X91916666Y-120202380D01*
X92011904Y-120250000D01*
X92059523Y-120297619D01*
X92107142Y-120392857D01*
X92107142Y-120535714D01*
X92059523Y-120630952D01*
X92011904Y-120678571D01*
X91916666Y-120726190D01*
X91535714Y-120726190D01*
X93059523Y-121202380D02*
X92488095Y-121202380D01*
X92773809Y-121202380D02*
X92773809Y-120202380D01*
X92678571Y-120345238D01*
X92583333Y-120440476D01*
X92488095Y-120488095D01*
X94011904Y-121202380D02*
X93440476Y-121202380D01*
X93726190Y-121202380D02*
X93726190Y-120202380D01*
X93630952Y-120345238D01*
X93535714Y-120440476D01*
X93440476Y-120488095D01*
%TO.C,R10*%
X148702380Y-128642857D02*
X148226190Y-128976190D01*
X148702380Y-129214285D02*
X147702380Y-129214285D01*
X147702380Y-128833333D01*
X147750000Y-128738095D01*
X147797619Y-128690476D01*
X147892857Y-128642857D01*
X148035714Y-128642857D01*
X148130952Y-128690476D01*
X148178571Y-128738095D01*
X148226190Y-128833333D01*
X148226190Y-129214285D01*
X148702380Y-127690476D02*
X148702380Y-128261904D01*
X148702380Y-127976190D02*
X147702380Y-127976190D01*
X147845238Y-128071428D01*
X147940476Y-128166666D01*
X147988095Y-128261904D01*
X147702380Y-127071428D02*
X147702380Y-126976190D01*
X147750000Y-126880952D01*
X147797619Y-126833333D01*
X147892857Y-126785714D01*
X148083333Y-126738095D01*
X148321428Y-126738095D01*
X148511904Y-126785714D01*
X148607142Y-126833333D01*
X148654761Y-126880952D01*
X148702380Y-126976190D01*
X148702380Y-127071428D01*
X148654761Y-127166666D01*
X148607142Y-127214285D01*
X148511904Y-127261904D01*
X148321428Y-127309523D01*
X148083333Y-127309523D01*
X147892857Y-127261904D01*
X147797619Y-127214285D01*
X147750000Y-127166666D01*
X147702380Y-127071428D01*
%TO.C,R9*%
X142202380Y-128666666D02*
X141726190Y-129000000D01*
X142202380Y-129238095D02*
X141202380Y-129238095D01*
X141202380Y-128857142D01*
X141250000Y-128761904D01*
X141297619Y-128714285D01*
X141392857Y-128666666D01*
X141535714Y-128666666D01*
X141630952Y-128714285D01*
X141678571Y-128761904D01*
X141726190Y-128857142D01*
X141726190Y-129238095D01*
X142202380Y-128190476D02*
X142202380Y-128000000D01*
X142154761Y-127904761D01*
X142107142Y-127857142D01*
X141964285Y-127761904D01*
X141773809Y-127714285D01*
X141392857Y-127714285D01*
X141297619Y-127761904D01*
X141250000Y-127809523D01*
X141202380Y-127904761D01*
X141202380Y-128095238D01*
X141250000Y-128190476D01*
X141297619Y-128238095D01*
X141392857Y-128285714D01*
X141630952Y-128285714D01*
X141726190Y-128238095D01*
X141773809Y-128190476D01*
X141821428Y-128095238D01*
X141821428Y-127904761D01*
X141773809Y-127809523D01*
X141726190Y-127761904D01*
X141630952Y-127714285D01*
%TO.C,R6*%
X145452380Y-128666666D02*
X144976190Y-129000000D01*
X145452380Y-129238095D02*
X144452380Y-129238095D01*
X144452380Y-128857142D01*
X144500000Y-128761904D01*
X144547619Y-128714285D01*
X144642857Y-128666666D01*
X144785714Y-128666666D01*
X144880952Y-128714285D01*
X144928571Y-128761904D01*
X144976190Y-128857142D01*
X144976190Y-129238095D01*
X144452380Y-127809523D02*
X144452380Y-128000000D01*
X144500000Y-128095238D01*
X144547619Y-128142857D01*
X144690476Y-128238095D01*
X144880952Y-128285714D01*
X145261904Y-128285714D01*
X145357142Y-128238095D01*
X145404761Y-128190476D01*
X145452380Y-128095238D01*
X145452380Y-127904761D01*
X145404761Y-127809523D01*
X145357142Y-127761904D01*
X145261904Y-127714285D01*
X145023809Y-127714285D01*
X144928571Y-127761904D01*
X144880952Y-127809523D01*
X144833333Y-127904761D01*
X144833333Y-128095238D01*
X144880952Y-128190476D01*
X144928571Y-128238095D01*
X145023809Y-128285714D01*
%TO.C,R4*%
X156583333Y-127452380D02*
X156250000Y-126976190D01*
X156011904Y-127452380D02*
X156011904Y-126452380D01*
X156392857Y-126452380D01*
X156488095Y-126500000D01*
X156535714Y-126547619D01*
X156583333Y-126642857D01*
X156583333Y-126785714D01*
X156535714Y-126880952D01*
X156488095Y-126928571D01*
X156392857Y-126976190D01*
X156011904Y-126976190D01*
X157440476Y-126785714D02*
X157440476Y-127452380D01*
X157202380Y-126404761D02*
X156964285Y-127119047D01*
X157583333Y-127119047D01*
%TO.C,R3*%
X133083333Y-127202380D02*
X132750000Y-126726190D01*
X132511904Y-127202380D02*
X132511904Y-126202380D01*
X132892857Y-126202380D01*
X132988095Y-126250000D01*
X133035714Y-126297619D01*
X133083333Y-126392857D01*
X133083333Y-126535714D01*
X133035714Y-126630952D01*
X132988095Y-126678571D01*
X132892857Y-126726190D01*
X132511904Y-126726190D01*
X133416666Y-126202380D02*
X134035714Y-126202380D01*
X133702380Y-126583333D01*
X133845238Y-126583333D01*
X133940476Y-126630952D01*
X133988095Y-126678571D01*
X134035714Y-126773809D01*
X134035714Y-127011904D01*
X133988095Y-127107142D01*
X133940476Y-127154761D01*
X133845238Y-127202380D01*
X133559523Y-127202380D01*
X133464285Y-127154761D01*
X133416666Y-127107142D01*
%TO.C,J7*%
X144666666Y-105702380D02*
X144666666Y-106416666D01*
X144619047Y-106559523D01*
X144523809Y-106654761D01*
X144380952Y-106702380D01*
X144285714Y-106702380D01*
X145047619Y-105702380D02*
X145714285Y-105702380D01*
X145285714Y-106702380D01*
%TO.C,J6*%
X104666666Y-105702380D02*
X104666666Y-106416666D01*
X104619047Y-106559523D01*
X104523809Y-106654761D01*
X104380952Y-106702380D01*
X104285714Y-106702380D01*
X105571428Y-105702380D02*
X105380952Y-105702380D01*
X105285714Y-105750000D01*
X105238095Y-105797619D01*
X105142857Y-105940476D01*
X105095238Y-106130952D01*
X105095238Y-106511904D01*
X105142857Y-106607142D01*
X105190476Y-106654761D01*
X105285714Y-106702380D01*
X105476190Y-106702380D01*
X105571428Y-106654761D01*
X105619047Y-106607142D01*
X105666666Y-106511904D01*
X105666666Y-106273809D01*
X105619047Y-106178571D01*
X105571428Y-106130952D01*
X105476190Y-106083333D01*
X105285714Y-106083333D01*
X105190476Y-106130952D01*
X105142857Y-106178571D01*
X105095238Y-106273809D01*
%TO.C,J4*%
X97166666Y-110202380D02*
X97166666Y-110916666D01*
X97119047Y-111059523D01*
X97023809Y-111154761D01*
X96880952Y-111202380D01*
X96785714Y-111202380D01*
X98071428Y-110535714D02*
X98071428Y-111202380D01*
X97833333Y-110154761D02*
X97595238Y-110869047D01*
X98214285Y-110869047D01*
%TO.C,J2*%
X144462380Y-146423333D02*
X145176666Y-146423333D01*
X145319523Y-146470952D01*
X145414761Y-146566190D01*
X145462380Y-146709047D01*
X145462380Y-146804285D01*
X144557619Y-145994761D02*
X144510000Y-145947142D01*
X144462380Y-145851904D01*
X144462380Y-145613809D01*
X144510000Y-145518571D01*
X144557619Y-145470952D01*
X144652857Y-145423333D01*
X144748095Y-145423333D01*
X144890952Y-145470952D01*
X145462380Y-146042380D01*
X145462380Y-145423333D01*
%TO.C,C6*%
X156833333Y-124107142D02*
X156785714Y-124154761D01*
X156642857Y-124202380D01*
X156547619Y-124202380D01*
X156404761Y-124154761D01*
X156309523Y-124059523D01*
X156261904Y-123964285D01*
X156214285Y-123773809D01*
X156214285Y-123630952D01*
X156261904Y-123440476D01*
X156309523Y-123345238D01*
X156404761Y-123250000D01*
X156547619Y-123202380D01*
X156642857Y-123202380D01*
X156785714Y-123250000D01*
X156833333Y-123297619D01*
X157690476Y-123202380D02*
X157500000Y-123202380D01*
X157404761Y-123250000D01*
X157357142Y-123297619D01*
X157261904Y-123440476D01*
X157214285Y-123630952D01*
X157214285Y-124011904D01*
X157261904Y-124107142D01*
X157309523Y-124154761D01*
X157404761Y-124202380D01*
X157595238Y-124202380D01*
X157690476Y-124154761D01*
X157738095Y-124107142D01*
X157785714Y-124011904D01*
X157785714Y-123773809D01*
X157738095Y-123678571D01*
X157690476Y-123630952D01*
X157595238Y-123583333D01*
X157404761Y-123583333D01*
X157309523Y-123630952D01*
X157261904Y-123678571D01*
X157214285Y-123773809D01*
%TO.C,C5*%
X132833333Y-124107142D02*
X132785714Y-124154761D01*
X132642857Y-124202380D01*
X132547619Y-124202380D01*
X132404761Y-124154761D01*
X132309523Y-124059523D01*
X132261904Y-123964285D01*
X132214285Y-123773809D01*
X132214285Y-123630952D01*
X132261904Y-123440476D01*
X132309523Y-123345238D01*
X132404761Y-123250000D01*
X132547619Y-123202380D01*
X132642857Y-123202380D01*
X132785714Y-123250000D01*
X132833333Y-123297619D01*
X133738095Y-123202380D02*
X133261904Y-123202380D01*
X133214285Y-123678571D01*
X133261904Y-123630952D01*
X133357142Y-123583333D01*
X133595238Y-123583333D01*
X133690476Y-123630952D01*
X133738095Y-123678571D01*
X133785714Y-123773809D01*
X133785714Y-124011904D01*
X133738095Y-124107142D01*
X133690476Y-124154761D01*
X133595238Y-124202380D01*
X133357142Y-124202380D01*
X133261904Y-124154761D01*
X133214285Y-124107142D01*
%TO.C,C4*%
X117333333Y-124107142D02*
X117285714Y-124154761D01*
X117142857Y-124202380D01*
X117047619Y-124202380D01*
X116904761Y-124154761D01*
X116809523Y-124059523D01*
X116761904Y-123964285D01*
X116714285Y-123773809D01*
X116714285Y-123630952D01*
X116761904Y-123440476D01*
X116809523Y-123345238D01*
X116904761Y-123250000D01*
X117047619Y-123202380D01*
X117142857Y-123202380D01*
X117285714Y-123250000D01*
X117333333Y-123297619D01*
X118190476Y-123535714D02*
X118190476Y-124202380D01*
X117952380Y-123154761D02*
X117714285Y-123869047D01*
X118333333Y-123869047D01*
%TO.C,C3*%
X92833333Y-124107142D02*
X92785714Y-124154761D01*
X92642857Y-124202380D01*
X92547619Y-124202380D01*
X92404761Y-124154761D01*
X92309523Y-124059523D01*
X92261904Y-123964285D01*
X92214285Y-123773809D01*
X92214285Y-123630952D01*
X92261904Y-123440476D01*
X92309523Y-123345238D01*
X92404761Y-123250000D01*
X92547619Y-123202380D01*
X92642857Y-123202380D01*
X92785714Y-123250000D01*
X92833333Y-123297619D01*
X93166666Y-123202380D02*
X93785714Y-123202380D01*
X93452380Y-123583333D01*
X93595238Y-123583333D01*
X93690476Y-123630952D01*
X93738095Y-123678571D01*
X93785714Y-123773809D01*
X93785714Y-124011904D01*
X93738095Y-124107142D01*
X93690476Y-124154761D01*
X93595238Y-124202380D01*
X93309523Y-124202380D01*
X93214285Y-124154761D01*
X93166666Y-124107142D01*
%TO.C,C8*%
X140333333Y-126607142D02*
X140285714Y-126654761D01*
X140142857Y-126702380D01*
X140047619Y-126702380D01*
X139904761Y-126654761D01*
X139809523Y-126559523D01*
X139761904Y-126464285D01*
X139714285Y-126273809D01*
X139714285Y-126130952D01*
X139761904Y-125940476D01*
X139809523Y-125845238D01*
X139904761Y-125750000D01*
X140047619Y-125702380D01*
X140142857Y-125702380D01*
X140285714Y-125750000D01*
X140333333Y-125797619D01*
X140904761Y-126130952D02*
X140809523Y-126083333D01*
X140761904Y-126035714D01*
X140714285Y-125940476D01*
X140714285Y-125892857D01*
X140761904Y-125797619D01*
X140809523Y-125750000D01*
X140904761Y-125702380D01*
X141095238Y-125702380D01*
X141190476Y-125750000D01*
X141238095Y-125797619D01*
X141285714Y-125892857D01*
X141285714Y-125940476D01*
X141238095Y-126035714D01*
X141190476Y-126083333D01*
X141095238Y-126130952D01*
X140904761Y-126130952D01*
X140809523Y-126178571D01*
X140761904Y-126226190D01*
X140714285Y-126321428D01*
X140714285Y-126511904D01*
X140761904Y-126607142D01*
X140809523Y-126654761D01*
X140904761Y-126702380D01*
X141095238Y-126702380D01*
X141190476Y-126654761D01*
X141238095Y-126607142D01*
X141285714Y-126511904D01*
X141285714Y-126321428D01*
X141238095Y-126226190D01*
X141190476Y-126178571D01*
X141095238Y-126130952D01*
%TO.C,C7*%
X100333333Y-126607142D02*
X100285714Y-126654761D01*
X100142857Y-126702380D01*
X100047619Y-126702380D01*
X99904761Y-126654761D01*
X99809523Y-126559523D01*
X99761904Y-126464285D01*
X99714285Y-126273809D01*
X99714285Y-126130952D01*
X99761904Y-125940476D01*
X99809523Y-125845238D01*
X99904761Y-125750000D01*
X100047619Y-125702380D01*
X100142857Y-125702380D01*
X100285714Y-125750000D01*
X100333333Y-125797619D01*
X100666666Y-125702380D02*
X101333333Y-125702380D01*
X100904761Y-126702380D01*
%TO.C,C2*%
X149583333Y-116607142D02*
X149535714Y-116654761D01*
X149392857Y-116702380D01*
X149297619Y-116702380D01*
X149154761Y-116654761D01*
X149059523Y-116559523D01*
X149011904Y-116464285D01*
X148964285Y-116273809D01*
X148964285Y-116130952D01*
X149011904Y-115940476D01*
X149059523Y-115845238D01*
X149154761Y-115750000D01*
X149297619Y-115702380D01*
X149392857Y-115702380D01*
X149535714Y-115750000D01*
X149583333Y-115797619D01*
X149964285Y-115797619D02*
X150011904Y-115750000D01*
X150107142Y-115702380D01*
X150345238Y-115702380D01*
X150440476Y-115750000D01*
X150488095Y-115797619D01*
X150535714Y-115892857D01*
X150535714Y-115988095D01*
X150488095Y-116130952D01*
X149916666Y-116702380D01*
X150535714Y-116702380D01*
%TO.C,C1*%
X109583333Y-116607142D02*
X109535714Y-116654761D01*
X109392857Y-116702380D01*
X109297619Y-116702380D01*
X109154761Y-116654761D01*
X109059523Y-116559523D01*
X109011904Y-116464285D01*
X108964285Y-116273809D01*
X108964285Y-116130952D01*
X109011904Y-115940476D01*
X109059523Y-115845238D01*
X109154761Y-115750000D01*
X109297619Y-115702380D01*
X109392857Y-115702380D01*
X109535714Y-115750000D01*
X109583333Y-115797619D01*
X110535714Y-116702380D02*
X109964285Y-116702380D01*
X110250000Y-116702380D02*
X110250000Y-115702380D01*
X110154761Y-115845238D01*
X110059523Y-115940476D01*
X109964285Y-115988095D01*
%TO.C,U1*%
X99238095Y-118452380D02*
X99238095Y-119261904D01*
X99285714Y-119357142D01*
X99333333Y-119404761D01*
X99428571Y-119452380D01*
X99619047Y-119452380D01*
X99714285Y-119404761D01*
X99761904Y-119357142D01*
X99809523Y-119261904D01*
X99809523Y-118452380D01*
X100809523Y-119452380D02*
X100238095Y-119452380D01*
X100523809Y-119452380D02*
X100523809Y-118452380D01*
X100428571Y-118595238D01*
X100333333Y-118690476D01*
X100238095Y-118738095D01*
%TO.C,R8*%
X108702380Y-128666666D02*
X108226190Y-129000000D01*
X108702380Y-129238095D02*
X107702380Y-129238095D01*
X107702380Y-128857142D01*
X107750000Y-128761904D01*
X107797619Y-128714285D01*
X107892857Y-128666666D01*
X108035714Y-128666666D01*
X108130952Y-128714285D01*
X108178571Y-128761904D01*
X108226190Y-128857142D01*
X108226190Y-129238095D01*
X108130952Y-128095238D02*
X108083333Y-128190476D01*
X108035714Y-128238095D01*
X107940476Y-128285714D01*
X107892857Y-128285714D01*
X107797619Y-128238095D01*
X107750000Y-128190476D01*
X107702380Y-128095238D01*
X107702380Y-127904761D01*
X107750000Y-127809523D01*
X107797619Y-127761904D01*
X107892857Y-127714285D01*
X107940476Y-127714285D01*
X108035714Y-127761904D01*
X108083333Y-127809523D01*
X108130952Y-127904761D01*
X108130952Y-128095238D01*
X108178571Y-128190476D01*
X108226190Y-128238095D01*
X108321428Y-128285714D01*
X108511904Y-128285714D01*
X108607142Y-128238095D01*
X108654761Y-128190476D01*
X108702380Y-128095238D01*
X108702380Y-127904761D01*
X108654761Y-127809523D01*
X108607142Y-127761904D01*
X108511904Y-127714285D01*
X108321428Y-127714285D01*
X108226190Y-127761904D01*
X108178571Y-127809523D01*
X108130952Y-127904761D01*
%TO.C,R7*%
X102202380Y-128666666D02*
X101726190Y-129000000D01*
X102202380Y-129238095D02*
X101202380Y-129238095D01*
X101202380Y-128857142D01*
X101250000Y-128761904D01*
X101297619Y-128714285D01*
X101392857Y-128666666D01*
X101535714Y-128666666D01*
X101630952Y-128714285D01*
X101678571Y-128761904D01*
X101726190Y-128857142D01*
X101726190Y-129238095D01*
X101202380Y-128333333D02*
X101202380Y-127666666D01*
X102202380Y-128095238D01*
%TO.C,R5*%
X105452380Y-128666666D02*
X104976190Y-129000000D01*
X105452380Y-129238095D02*
X104452380Y-129238095D01*
X104452380Y-128857142D01*
X104500000Y-128761904D01*
X104547619Y-128714285D01*
X104642857Y-128666666D01*
X104785714Y-128666666D01*
X104880952Y-128714285D01*
X104928571Y-128761904D01*
X104976190Y-128857142D01*
X104976190Y-129238095D01*
X104452380Y-127761904D02*
X104452380Y-128238095D01*
X104928571Y-128285714D01*
X104880952Y-128238095D01*
X104833333Y-128142857D01*
X104833333Y-127904761D01*
X104880952Y-127809523D01*
X104928571Y-127761904D01*
X105023809Y-127714285D01*
X105261904Y-127714285D01*
X105357142Y-127761904D01*
X105404761Y-127809523D01*
X105452380Y-127904761D01*
X105452380Y-128142857D01*
X105404761Y-128238095D01*
X105357142Y-128285714D01*
%TO.C,R2*%
X116833333Y-127202380D02*
X116500000Y-126726190D01*
X116261904Y-127202380D02*
X116261904Y-126202380D01*
X116642857Y-126202380D01*
X116738095Y-126250000D01*
X116785714Y-126297619D01*
X116833333Y-126392857D01*
X116833333Y-126535714D01*
X116785714Y-126630952D01*
X116738095Y-126678571D01*
X116642857Y-126726190D01*
X116261904Y-126726190D01*
X117214285Y-126297619D02*
X117261904Y-126250000D01*
X117357142Y-126202380D01*
X117595238Y-126202380D01*
X117690476Y-126250000D01*
X117738095Y-126297619D01*
X117785714Y-126392857D01*
X117785714Y-126488095D01*
X117738095Y-126630952D01*
X117166666Y-127202380D01*
X117785714Y-127202380D01*
%TO.C,R1*%
X93083333Y-127202380D02*
X92750000Y-126726190D01*
X92511904Y-127202380D02*
X92511904Y-126202380D01*
X92892857Y-126202380D01*
X92988095Y-126250000D01*
X93035714Y-126297619D01*
X93083333Y-126392857D01*
X93083333Y-126535714D01*
X93035714Y-126630952D01*
X92988095Y-126678571D01*
X92892857Y-126726190D01*
X92511904Y-126726190D01*
X94035714Y-127202380D02*
X93464285Y-127202380D01*
X93750000Y-127202380D02*
X93750000Y-126202380D01*
X93654761Y-126345238D01*
X93559523Y-126440476D01*
X93464285Y-126488095D01*
%TO.C,J1*%
X104462380Y-146423333D02*
X105176666Y-146423333D01*
X105319523Y-146470952D01*
X105414761Y-146566190D01*
X105462380Y-146709047D01*
X105462380Y-146804285D01*
X105462380Y-145423333D02*
X105462380Y-145994761D01*
X105462380Y-145709047D02*
X104462380Y-145709047D01*
X104605238Y-145804285D01*
X104700476Y-145899523D01*
X104748095Y-145994761D01*
%TD*%
M02*
