%TF.GenerationSoftware,KiCad,Pcbnew,(5.1.6-0)*%
%TF.CreationDate,2024-01-05T21:58:38-08:00*%
%TF.ProjectId,input_buffer_bal_XLR_SMD_1206,696e7075-745f-4627-9566-6665725f6261,rev?*%
%TF.SameCoordinates,Original*%
%TF.FileFunction,Legend,Bot*%
%TF.FilePolarity,Positive*%
%FSLAX46Y46*%
G04 Gerber Fmt 4.6, Leading zero omitted, Abs format (unit mm)*
G04 Created by KiCad (PCBNEW (5.1.6-0)) date 2024-01-05 21:58:38*
%MOMM*%
%LPD*%
G01*
G04 APERTURE LIST*
%ADD10C,0.150000*%
G04 APERTURE END LIST*
D10*
X126821428Y-146702380D02*
X127154761Y-146226190D01*
X127392857Y-146702380D02*
X127392857Y-145702380D01*
X127011904Y-145702380D01*
X126916666Y-145750000D01*
X126869047Y-145797619D01*
X126821428Y-145892857D01*
X126821428Y-146035714D01*
X126869047Y-146130952D01*
X126916666Y-146178571D01*
X127011904Y-146226190D01*
X127392857Y-146226190D01*
X126011904Y-146654761D02*
X126107142Y-146702380D01*
X126297619Y-146702380D01*
X126392857Y-146654761D01*
X126440476Y-146559523D01*
X126440476Y-146178571D01*
X126392857Y-146083333D01*
X126297619Y-146035714D01*
X126107142Y-146035714D01*
X126011904Y-146083333D01*
X125964285Y-146178571D01*
X125964285Y-146273809D01*
X126440476Y-146369047D01*
X125630952Y-146035714D02*
X125392857Y-146702380D01*
X125154761Y-146035714D01*
X124059523Y-145797619D02*
X124011904Y-145750000D01*
X123916666Y-145702380D01*
X123678571Y-145702380D01*
X123583333Y-145750000D01*
X123535714Y-145797619D01*
X123488095Y-145892857D01*
X123488095Y-145988095D01*
X123535714Y-146130952D01*
X124107142Y-146702380D01*
X123488095Y-146702380D01*
X123059523Y-146607142D02*
X123011904Y-146654761D01*
X123059523Y-146702380D01*
X123107142Y-146654761D01*
X123059523Y-146607142D01*
X123059523Y-146702380D01*
X122392857Y-145702380D02*
X122297619Y-145702380D01*
X122202380Y-145750000D01*
X122154761Y-145797619D01*
X122107142Y-145892857D01*
X122059523Y-146083333D01*
X122059523Y-146321428D01*
X122107142Y-146511904D01*
X122154761Y-146607142D01*
X122202380Y-146654761D01*
X122297619Y-146702380D01*
X122392857Y-146702380D01*
X122488095Y-146654761D01*
X122535714Y-146607142D01*
X122583333Y-146511904D01*
X122630952Y-146321428D01*
X122630952Y-146083333D01*
X122583333Y-145892857D01*
X122535714Y-145797619D01*
X122488095Y-145750000D01*
X122392857Y-145702380D01*
X129142857Y-143452380D02*
X129142857Y-144166666D01*
X129190476Y-144309523D01*
X129285714Y-144404761D01*
X129428571Y-144452380D01*
X129523809Y-144452380D01*
X128238095Y-144452380D02*
X128238095Y-143928571D01*
X128285714Y-143833333D01*
X128380952Y-143785714D01*
X128571428Y-143785714D01*
X128666666Y-143833333D01*
X128238095Y-144404761D02*
X128333333Y-144452380D01*
X128571428Y-144452380D01*
X128666666Y-144404761D01*
X128714285Y-144309523D01*
X128714285Y-144214285D01*
X128666666Y-144119047D01*
X128571428Y-144071428D01*
X128333333Y-144071428D01*
X128238095Y-144023809D01*
X127761904Y-143785714D02*
X127761904Y-144452380D01*
X127761904Y-143880952D02*
X127714285Y-143833333D01*
X127619047Y-143785714D01*
X127476190Y-143785714D01*
X127380952Y-143833333D01*
X127333333Y-143928571D01*
X127333333Y-144452380D01*
X126428571Y-143785714D02*
X126428571Y-144452380D01*
X126857142Y-143785714D02*
X126857142Y-144309523D01*
X126809523Y-144404761D01*
X126714285Y-144452380D01*
X126571428Y-144452380D01*
X126476190Y-144404761D01*
X126428571Y-144357142D01*
X125523809Y-144452380D02*
X125523809Y-143928571D01*
X125571428Y-143833333D01*
X125666666Y-143785714D01*
X125857142Y-143785714D01*
X125952380Y-143833333D01*
X125523809Y-144404761D02*
X125619047Y-144452380D01*
X125857142Y-144452380D01*
X125952380Y-144404761D01*
X126000000Y-144309523D01*
X126000000Y-144214285D01*
X125952380Y-144119047D01*
X125857142Y-144071428D01*
X125619047Y-144071428D01*
X125523809Y-144023809D01*
X125047619Y-144452380D02*
X125047619Y-143785714D01*
X125047619Y-143976190D02*
X125000000Y-143880952D01*
X124952380Y-143833333D01*
X124857142Y-143785714D01*
X124761904Y-143785714D01*
X124523809Y-143785714D02*
X124285714Y-144452380D01*
X124047619Y-143785714D02*
X124285714Y-144452380D01*
X124380952Y-144690476D01*
X124428571Y-144738095D01*
X124523809Y-144785714D01*
X122952380Y-143547619D02*
X122904761Y-143500000D01*
X122809523Y-143452380D01*
X122571428Y-143452380D01*
X122476190Y-143500000D01*
X122428571Y-143547619D01*
X122380952Y-143642857D01*
X122380952Y-143738095D01*
X122428571Y-143880952D01*
X123000000Y-144452380D01*
X122380952Y-144452380D01*
X121761904Y-143452380D02*
X121666666Y-143452380D01*
X121571428Y-143500000D01*
X121523809Y-143547619D01*
X121476190Y-143642857D01*
X121428571Y-143833333D01*
X121428571Y-144071428D01*
X121476190Y-144261904D01*
X121523809Y-144357142D01*
X121571428Y-144404761D01*
X121666666Y-144452380D01*
X121761904Y-144452380D01*
X121857142Y-144404761D01*
X121904761Y-144357142D01*
X121952380Y-144261904D01*
X122000000Y-144071428D01*
X122000000Y-143833333D01*
X121952380Y-143642857D01*
X121904761Y-143547619D01*
X121857142Y-143500000D01*
X121761904Y-143452380D01*
X121047619Y-143547619D02*
X121000000Y-143500000D01*
X120904761Y-143452380D01*
X120666666Y-143452380D01*
X120571428Y-143500000D01*
X120523809Y-143547619D01*
X120476190Y-143642857D01*
X120476190Y-143738095D01*
X120523809Y-143880952D01*
X121095238Y-144452380D01*
X120476190Y-144452380D01*
X119619047Y-143785714D02*
X119619047Y-144452380D01*
X119857142Y-143404761D02*
X120095238Y-144119047D01*
X119476190Y-144119047D01*
M02*
