%TF.GenerationSoftware,KiCad,Pcbnew,(5.1.6-0)*%
%TF.CreationDate,2023-06-01T15:37:19-07:00*%
%TF.ProjectId,input_buffer_bal_XLR,696e7075-745f-4627-9566-6665725f6261,rev?*%
%TF.SameCoordinates,Original*%
%TF.FileFunction,Soldermask,Top*%
%TF.FilePolarity,Negative*%
%FSLAX46Y46*%
G04 Gerber Fmt 4.6, Leading zero omitted, Abs format (unit mm)*
G04 Created by KiCad (PCBNEW (5.1.6-0)) date 2023-06-01 15:37:19*
%MOMM*%
%LPD*%
G01*
G04 APERTURE LIST*
%ADD10C,2.100000*%
%ADD11O,1.700000X1.700000*%
%ADD12R,1.700000X1.700000*%
%ADD13C,1.700000*%
%ADD14C,0.900000*%
%ADD15C,7.100000*%
%ADD16C,3.000000*%
%ADD17C,3.500000*%
%ADD18O,2.500000X2.500000*%
%ADD19C,2.500000*%
%ADD20C,1.500000*%
G04 APERTURE END LIST*
D10*
%TO.C,J3*%
X120750000Y-106250000D03*
X124250000Y-106250000D03*
%TD*%
D11*
%TO.C,U2*%
X144060000Y-118190000D03*
X136440000Y-125810000D03*
X144060000Y-120730000D03*
X136440000Y-123270000D03*
X144060000Y-123270000D03*
X136440000Y-120730000D03*
X144060000Y-125810000D03*
D12*
X136440000Y-118190000D03*
%TD*%
D13*
%TO.C,C8*%
X152750000Y-114000000D03*
X147750000Y-114000000D03*
%TD*%
%TO.C,C7*%
X133000000Y-114000000D03*
X128000000Y-114000000D03*
%TD*%
%TO.C,C6*%
X117750000Y-114000000D03*
X112750000Y-114000000D03*
%TD*%
%TO.C,C5*%
X98000000Y-114000000D03*
X93000000Y-114000000D03*
%TD*%
D11*
%TO.C,R6*%
X148580000Y-132500000D03*
D13*
X138420000Y-132500000D03*
%TD*%
D14*
%TO.C,H2*%
X156856155Y-105643845D03*
X155000000Y-104875000D03*
X153143845Y-105643845D03*
X152375000Y-107500000D03*
X153143845Y-109356155D03*
X155000000Y-110125000D03*
X156856155Y-109356155D03*
X157625000Y-107500000D03*
D15*
X155000000Y-107500000D03*
%TD*%
D14*
%TO.C,H1*%
X91856155Y-105643845D03*
X90000000Y-104875000D03*
X88143845Y-105643845D03*
X87375000Y-107500000D03*
X88143845Y-109356155D03*
X90000000Y-110125000D03*
X91856155Y-109356155D03*
X92625000Y-107500000D03*
D15*
X90000000Y-107500000D03*
%TD*%
D11*
%TO.C,U1*%
X108560000Y-118440000D03*
X100940000Y-126060000D03*
X108560000Y-120980000D03*
X100940000Y-123520000D03*
X108560000Y-123520000D03*
X100940000Y-120980000D03*
X108560000Y-126060000D03*
D12*
X100940000Y-118440000D03*
%TD*%
D11*
%TO.C,R10*%
X149500000Y-117920000D03*
D13*
X149500000Y-128080000D03*
%TD*%
D11*
%TO.C,R9*%
X131250000Y-128080000D03*
D13*
X131250000Y-117920000D03*
%TD*%
D11*
%TO.C,R8*%
X114500000Y-117920000D03*
D13*
X114500000Y-128080000D03*
%TD*%
D11*
%TO.C,R7*%
X96250000Y-128080000D03*
D13*
X96250000Y-117920000D03*
%TD*%
D11*
%TO.C,R5*%
X112580000Y-132750000D03*
D13*
X102420000Y-132750000D03*
%TD*%
D11*
%TO.C,R4*%
X152750000Y-128080000D03*
D13*
X152750000Y-117920000D03*
%TD*%
D11*
%TO.C,R3*%
X128000000Y-128080000D03*
D13*
X128000000Y-117920000D03*
%TD*%
D11*
%TO.C,R2*%
X117750000Y-128080000D03*
D13*
X117750000Y-117920000D03*
%TD*%
D11*
%TO.C,R1*%
X93000000Y-128080000D03*
D13*
X93000000Y-117920000D03*
%TD*%
D16*
%TO.C,J2*%
X148500000Y-147760000D03*
D13*
X136440000Y-145850000D03*
X144060000Y-150930000D03*
D16*
X140250000Y-137590000D03*
D17*
X136440000Y-141405000D03*
X144060000Y-142040000D03*
%TD*%
D16*
%TO.C,J1*%
X113000000Y-147760000D03*
D13*
X100940000Y-145850000D03*
X108560000Y-150930000D03*
D16*
X104750000Y-137590000D03*
D17*
X100940000Y-141405000D03*
X108560000Y-142040000D03*
%TD*%
D18*
%TO.C,D4*%
X155750000Y-136400000D03*
D19*
X155750000Y-149100000D03*
%TD*%
D18*
%TO.C,D3*%
X124750000Y-149100000D03*
D19*
X124750000Y-136400000D03*
%TD*%
D18*
%TO.C,D2*%
X120250000Y-136400000D03*
D19*
X120250000Y-149100000D03*
%TD*%
D18*
%TO.C,D1*%
X89250000Y-149100000D03*
D19*
X89250000Y-136400000D03*
%TD*%
D20*
%TO.C,C4*%
X139000000Y-129000000D03*
X141500000Y-129000000D03*
%TD*%
%TO.C,C3*%
X103500000Y-129250000D03*
X106000000Y-129250000D03*
%TD*%
%TO.C,C2*%
X139000000Y-115000000D03*
X141500000Y-115000000D03*
%TD*%
%TO.C,C1*%
X103500000Y-115250000D03*
X106000000Y-115250000D03*
%TD*%
D10*
%TO.C,J5*%
X136750000Y-106250000D03*
X140250000Y-106250000D03*
X143750000Y-106250000D03*
%TD*%
%TO.C,J4*%
X101250000Y-106250000D03*
X104750000Y-106250000D03*
X108250000Y-106250000D03*
%TD*%
M02*
