M48
; DRILL file {KiCad (5.1.6-0)} date Friday, January 05, 2024 at 10:26:58 PM
; FORMAT={-:-/ absolute / inch / decimal}
; #@! TF.CreationDate,2024-01-05T22:26:58-08:00
; #@! TF.GenerationSoftware,Kicad,Pcbnew,(5.1.6-0)
; #@! TF.FileFunction,Plated,1,2,PTH
FMAT,2
INCH
T1C0.0118
T2C0.0197
T3C0.0315
T4C0.0394
T5C0.0472
T6C0.0630
T7C0.1378
%
G90
G05
T1
X3.4154Y-4.6158
X3.4154Y-4.9308
X3.4154Y-5.167
X3.4154Y-5.4032
X3.4154Y-5.6395
X3.4154Y-5.8757
X3.4449Y-4.4488
X3.5335Y-5.0489
X3.5335Y-5.2851
X3.5335Y-5.5214
X3.5335Y-5.7576
X3.5335Y-5.9938
X3.5531Y-4.4488
X3.6516Y-4.734
X3.6516Y-5.167
X3.6516Y-5.4032
X3.6516Y-5.6395
X3.6516Y-5.8757
X3.6909Y-4.5276
X3.6909Y-4.9308
X3.7303Y-4.1043
X3.7303Y-4.2421
X3.7303Y-6.0332
X3.7697Y-5.2851
X3.7992Y-4.4193
X3.8484Y-4.3009
X3.8484Y-5.4426
X3.8484Y-5.8363
X3.8878Y-4.734
X3.9272Y-4.104
X3.9272Y-5.0489
X3.9272Y-5.6788
X3.9272Y-5.9938
X4.0059Y-5.2851
X4.0059Y-5.5214
X4.0453Y-4.3403
X4.0453Y-5.7969
X4.0846Y-4.6158
X4.0846Y-4.8521
X4.124Y-5.167
X4.124Y-6.0332
X4.1634Y-5.3639
X4.2028Y-4.104
X4.2028Y-4.734
X4.2028Y-4.9702
X4.2028Y-5.7182
X4.2421Y-4.3009
X4.2421Y-5.5214
X4.2421Y-5.9151
X4.2815Y-4.4977
X4.3189Y-4.4193
X4.3602Y-4.1828
X4.3602Y-4.8127
X4.3602Y-5.1277
X4.3602Y-5.6395
X4.3602Y-6.0332
X4.3819Y-4.4193
X4.3996Y-5.3245
X4.439Y-4.3403
X4.439Y-4.5765
X4.439Y-4.9702
X4.439Y-5.7969
X4.4783Y-5.482
X4.5177Y-4.104
X4.5177Y-5.9544
X4.5571Y-4.4584
X4.5571Y-4.7733
X4.5571Y-5.6788
X4.5965Y-4.2615
X4.5965Y-5.167
X4.6358Y-4.6158
X4.6358Y-4.9308
X4.6358Y-5.3639
X4.6358Y-5.8363
X4.6752Y-5.5607
X4.6752Y-6.0332
X4.7146Y-4.3796
X4.7539Y-4.104
X4.7539Y-5.0489
X4.7539Y-5.7182
X4.7933Y-4.8521
X4.7933Y-5.2458
X4.7933Y-5.9151
X4.8031Y-4.3878
X4.8031Y-4.4508
X4.8327Y-5.4426
X4.872Y-4.4584
X4.872Y-4.6946
X4.9114Y-5.1277
X4.9114Y-5.6001
X4.9114Y-6.0332
X4.9508Y-4.2615
X4.9508Y-5.3245
X4.9508Y-5.7969
X4.9902Y-4.5765
X5.0295Y-4.104
X5.0295Y-4.7733
X5.0295Y-5.0095
X5.0295Y-5.482
X5.0689Y-4.3796
X5.0689Y-5.6788
X5.0689Y-5.9151
X5.1476Y-4.2221
X5.1476Y-5.167
X5.187Y-4.4977
X5.187Y-4.8521
X5.187Y-5.5607
X5.187Y-5.7969
X5.187Y-6.0332
X5.2657Y-4.104
X5.2657Y-4.3403
X5.2657Y-5.3245
X5.3051Y-5.0489
X5.3051Y-5.6788
X5.3051Y-5.9151
X5.3303Y-4.3898
X5.3839Y-5.4426
X5.3933Y-4.3898
X5.4232Y-4.4584
X5.4232Y-5.167
X5.4232Y-6.0332
X5.4626Y-4.6552
X5.4626Y-4.8914
X5.4626Y-5.8363
X5.502Y-4.3009
X5.5413Y-5.2851
X5.5413Y-5.5214
X5.5807Y-4.104
X5.5807Y-4.7733
X5.5807Y-5.7182
X5.5807Y-5.9544
X5.6201Y-4.419
X5.6594Y-5.0489
X5.6988Y-4.5765
X5.6988Y-5.3639
X5.6988Y-5.8363
X5.7382Y-4.1828
X5.7382Y-4.8521
X5.7382Y-6.0332
X5.7776Y-5.167
X5.8169Y-4.3403
X5.8169Y-5.482
X5.8563Y-4.734
X5.8563Y-4.9702
X5.8957Y-4.104
X5.8957Y-4.4977
X5.935Y-5.3639
X5.935Y-5.6001
X5.9744Y-4.8521
X6.0138Y-4.6158
X6.0138Y-5.0489
X6.0138Y-5.7576
X6.0531Y-4.419
X6.0531Y-5.2458
X6.0531Y-5.482
X6.0531Y-6.0332
X6.1319Y-5.6395
X6.1319Y-5.8757
X6.1713Y-4.5371
X6.1713Y-4.7733
X6.1713Y-5.1277
X6.1713Y-5.3639
X6.25Y-4.3796
X6.25Y-4.9308
X6.25Y-5.5214
X6.25Y-5.7576
T2
X5.999Y-4.2323
X6.0293Y-4.1592
X6.0293Y-4.3054
X6.1024Y-4.1289
X6.1024Y-4.3356
X6.1754Y-4.1592
X6.1754Y-4.3054
X6.2057Y-4.2323
X3.44Y-4.2323
X3.4702Y-4.1592
X3.4702Y-4.3054
X3.5433Y-4.1289
X3.5433Y-4.3356
X3.6164Y-4.1592
X3.6164Y-4.3054
X3.6467Y-4.2323
T3
X4.0846Y-5.0886
X4.1831Y-5.0886
X3.9839Y-4.663
X3.9839Y-4.763
X3.9839Y-4.863
X3.9839Y-4.963
X4.2839Y-4.663
X4.2839Y-4.763
X4.2839Y-4.863
X4.2839Y-4.963
X5.8071Y-4.6622
X5.8071Y-5.0622
X5.0984Y-4.6622
X5.0984Y-5.0622
X5.2264Y-4.6622
X5.2264Y-5.0622
X6.1024Y-4.7736
X6.1024Y-4.9705
X5.935Y-4.6622
X5.935Y-5.0622
X5.3118Y-5.2264
X5.7118Y-5.2264
X4.7146Y-4.7638
X4.7146Y-4.9606
X3.9339Y-5.2264
X4.3339Y-5.2264
X5.4626Y-5.0886
X5.561Y-5.0886
X5.3618Y-4.663
X5.3618Y-4.763
X5.3618Y-4.863
X5.3618Y-4.963
X5.6618Y-4.663
X5.6618Y-4.763
X5.6618Y-4.863
X5.6618Y-4.963
X4.0846Y-4.5374
X4.1831Y-4.5374
X3.8386Y-4.6622
X3.8386Y-5.0622
X4.9311Y-4.7638
X4.9311Y-4.9606
X4.4193Y-4.6622
X4.4193Y-5.0622
X3.7106Y-4.6622
X3.7106Y-5.0622
X3.5433Y-4.7638
X3.5433Y-4.9606
X5.4626Y-4.5374
X5.561Y-4.5374
X4.5472Y-4.6622
X4.5472Y-5.0622
T4
X5.3839Y-4.1831
X5.5217Y-4.1831
X5.6594Y-4.1831
X3.9862Y-4.1831
X4.124Y-4.1831
X4.2618Y-4.1831
X4.7539Y-4.1831
X4.8917Y-4.1831
T5
X3.9862Y-5.4169
X4.311Y-5.8173
X5.561Y-5.4169
X5.8858Y-5.8173
T6
X3.8362Y-5.5671
X4.1362Y-5.5921
X5.411Y-5.5671
X5.711Y-5.5921
T7
X6.1024Y-4.2323
X3.5433Y-4.2323
T0
M30
