M48
; DRILL file {KiCad (5.1.6-0)} date Saturday, January 20, 2024 at 01:00:54 PM
; FORMAT={-:-/ absolute / inch / decimal}
; #@! TF.CreationDate,2024-01-20T13:00:54-08:00
; #@! TF.GenerationSoftware,Kicad,Pcbnew,(5.1.6-0)
; #@! TF.FileFunction,Plated,1,2,PTH
FMAT,2
INCH
T1C0.0118
T2C0.0157
T3C0.0197
T4C0.0276
T5C0.0315
T6C0.0394
T7C0.0472
T8C0.0630
T9C0.1378
%
G90
G05
T1
X3.0276Y-4.2903
X3.0276Y-4.5658
X3.0276Y-4.8414
X3.0276Y-5.117
X3.0276Y-5.3926
X3.0276Y-5.6682
X3.0276Y-5.9438
X3.1594Y-4.684
X3.1851Y-4.4084
X3.1851Y-5.5107
X3.1851Y-5.7863
X3.2245Y-5.1958
X3.2245Y-6.0225
X3.2638Y-4.2115
X3.3426Y-4.0147
X3.3426Y-5.3532
X3.3661Y-4.9508
X3.3819Y-5.8651
X3.4744Y-4.4272
X3.4744Y-4.4902
X3.5Y-5.6682
X3.5Y-6.0225
X3.5394Y-4.0934
X3.5394Y-5.3051
X3.5433Y-4.7539
X3.6093Y-4.882
X3.6182Y-4.2903
X3.6182Y-5.8257
X3.6909Y-4.8819
X3.7008Y-5.0197
X3.7303Y-4.5965
X3.7363Y-4.0147
X3.7598Y-5.187
X3.7756Y-5.7076
X3.7756Y-5.9832
X3.815Y-4.2115
X3.8544Y-5.3532
X3.9331Y-4.369
X3.9331Y-5.5501
X3.9725Y-4.054
X3.9725Y-4.6052
X3.9725Y-5.1564
X3.9725Y-5.7863
X4.0119Y-6.0225
X4.0906Y-4.2509
X4.0906Y-5.3139
X4.13Y-4.4871
X4.13Y-5.6288
X4.1634Y-4.9902
X4.1693Y-4.7233
X4.1693Y-5.8651
X4.2087Y-4.0147
X4.2087Y-5.117
X4.2481Y-5.4714
X4.2874Y-4.3296
X4.2874Y-4.8808
X4.2874Y-6.0225
X4.3268Y-4.5658
X4.3268Y-5.2745
X4.3268Y-5.7076
X4.4449Y-4.054
X4.4449Y-5.0777
X4.4449Y-5.5501
X4.4449Y-5.8651
X4.4843Y-4.4084
X4.4843Y-4.684
X4.563Y-4.2115
X4.563Y-5.3926
X4.563Y-6.0225
X4.6024Y-4.8414
X4.6024Y-5.6682
X4.6418Y-4.5265
X4.6811Y-4.0147
X4.7205Y-4.3296
X4.7205Y-5.5107
X4.7205Y-5.8257
X4.7599Y-4.684
X4.7599Y-4.9595
X4.7933Y-5.1181
X4.7993Y-5.3139
X4.8386Y-5.9832
X4.878Y-5.6288
X4.9174Y-4.054
X4.9174Y-4.4084
X4.9174Y-4.8021
X4.9567Y-5.432
X4.9961Y-4.6052
X4.9961Y-5.7863
X5.0355Y-4.2509
X5.0355Y-4.9595
X5.0749Y-6.0225
X5.1142Y-5.5501
X5.1536Y-4.0147
X5.1536Y-4.4477
X5.193Y-4.684
X5.193Y-5.8651
X5.2323Y-5.2745
X5.2717Y-4.1721
X5.2717Y-5.6682
X5.3111Y-4.8414
X5.3504Y-4.369
X5.3504Y-5.9832
X5.3898Y-4.6052
X5.3898Y-5.0383
X5.3898Y-5.3926
X5.4292Y-4.0147
X5.4292Y-5.7863
X5.5079Y-4.2509
X5.5079Y-5.5501
X5.5473Y-4.4871
X5.5473Y-4.8808
X5.5867Y-5.117
X5.5867Y-5.9044
X5.626Y-4.684
X5.6654Y-5.432
X5.6654Y-5.7076
X5.7048Y-4.0147
X5.7048Y-4.3296
X5.7441Y-4.9595
X5.7441Y-5.2351
X5.7441Y-6.0225
X5.7776Y-4.4882
X5.8229Y-5.5501
X5.8623Y-4.1721
X5.8623Y-5.7776
X5.9016Y-5.3532
X5.9804Y-4.0147
X5.9804Y-5.9438
X5.9941Y-4.5571
X6.0197Y-5.1564
X6.0197Y-5.6288
X6.0236Y-4.8524
X6.0925Y-4.8819
X6.0985Y-4.2115
X6.0985Y-5.4232
X6.122Y-5.0197
X6.1516Y-4.8819
X6.1772Y-6.0225
X6.2166Y-4.054
X6.2166Y-5.7076
X6.2303Y-4.3307
X6.2303Y-5.2745
X6.2992Y-4.7539
X6.3347Y-5.8651
X6.378Y-4.4173
X6.378Y-4.4803
X6.4469Y-4.1328
X6.4528Y-4.5658
X6.4665Y-5.0197
X6.4922Y-4.8808
X6.4922Y-5.1958
X6.4922Y-5.4714
X6.4922Y-5.7469
X6.5315Y-4.2903
X6.5315Y-5.9832
X6.5748Y-4.5571
X6.6497Y-4.4477
X6.6497Y-5.3139
X6.6497Y-5.5895
X6.6732Y-4.7233
X6.7284Y-5.7863
X6.7678Y-4.8808
X6.7678Y-5.1564
X6.7678Y-6.0225
X6.8071Y-4.2903
X6.8071Y-4.5658
X6.8071Y-5.432
T2
X3.1004Y-4.9508
X3.4646Y-4.5571
X3.5433Y-5.0591
X3.622Y-4.9508
X3.9862Y-4.9508
X5.8465Y-4.9508
X6.2205Y-4.5571
X6.2992Y-5.0591
X6.378Y-4.9508
X6.7421Y-4.9508
T3
X3.0069Y-4.0945
X3.0372Y-4.0214
X3.0372Y-4.1676
X3.1102Y-3.9911
X3.1102Y-4.1978
X3.1833Y-4.0214
X3.1833Y-4.1676
X3.2136Y-4.0945
X6.6289Y-4.0945
X6.6592Y-4.0214
X6.6592Y-4.1676
X6.7323Y-3.9911
X6.7323Y-4.1978
X6.8054Y-4.0214
X6.8054Y-4.1676
X6.8356Y-4.0945
T5
X3.3933Y-4.3807
X3.6933Y-4.2807
X3.6933Y-4.3807
X6.1492Y-4.2807
X6.1492Y-4.3807
X6.4492Y-4.2807
X6.4492Y-4.3807
X3.3933Y-4.2807
T6
X5.4724Y-4.1339
X5.6102Y-4.1339
X5.748Y-4.1339
X4.0945Y-4.1339
X4.2323Y-4.1339
X4.3701Y-4.1339
X4.8524Y-4.1339
X4.9902Y-4.1339
T7
X3.5433Y-5.4366
X3.8681Y-5.837
X6.2992Y-5.4366
X6.624Y-5.837
T8
X3.3933Y-5.5868
X3.6933Y-5.6118
X6.1492Y-5.5868
X6.4492Y-5.6118
T9
X3.1102Y-4.0945
X6.7323Y-4.0945
T4
G00X4.6201Y-5.0394
M15
G01X4.6319Y-5.0394
M16
G05
G00X4.6201Y-5.1969
M15
G01X4.6319Y-5.1969
M16
G05
G00X4.7382Y-5.0394
M15
G01X4.75Y-5.0394
M16
G05
G00X4.7382Y-5.1969
M15
G01X4.75Y-5.1969
M16
G05
G00X4.8563Y-5.0394
M15
G01X4.8681Y-5.0394
M16
G05
G00X4.8563Y-5.1969
M15
G01X4.8681Y-5.1969
M16
G05
G00X4.9744Y-5.0394
M15
G01X4.9862Y-5.0394
M16
G05
G00X4.9744Y-5.1969
M15
G01X4.9862Y-5.1969
M16
G05
G00X5.0925Y-5.0394
M15
G01X5.1043Y-5.0394
M16
G05
G00X5.0925Y-5.1969
M15
G01X5.1043Y-5.1969
M16
G05
G00X5.2106Y-5.0394
M15
G01X5.2224Y-5.0394
M16
G05
G00X5.2106Y-5.1969
M15
G01X5.2224Y-5.1969
M16
G05
T5
G00X4.5Y-4.9331
M15
G01X4.5157Y-4.9331
M16
G05
G00X4.5Y-5.3031
M15
G01X4.5157Y-5.3031
M16
G05
G00X5.3268Y-4.9331
M15
G01X5.3425Y-4.9331
M16
G05
G00X5.3268Y-5.3031
M15
G01X5.3425Y-5.3031
M16
G05
T0
M30
