%TF.GenerationSoftware,KiCad,Pcbnew,(5.1.6-0)*%
%TF.CreationDate,2023-06-01T15:37:19-07:00*%
%TF.ProjectId,input_buffer_bal_XLR,696e7075-745f-4627-9566-6665725f6261,rev?*%
%TF.SameCoordinates,Original*%
%TF.FileFunction,Legend,Bot*%
%TF.FilePolarity,Positive*%
%FSLAX46Y46*%
G04 Gerber Fmt 4.6, Leading zero omitted, Abs format (unit mm)*
G04 Created by KiCad (PCBNEW (5.1.6-0)) date 2023-06-01 15:37:19*
%MOMM*%
%LPD*%
G01*
G04 APERTURE LIST*
%ADD10C,0.150000*%
G04 APERTURE END LIST*
D10*
X126226190Y-112702380D02*
X126559523Y-112226190D01*
X126797619Y-112702380D02*
X126797619Y-111702380D01*
X126416666Y-111702380D01*
X126321428Y-111750000D01*
X126273809Y-111797619D01*
X126226190Y-111892857D01*
X126226190Y-112035714D01*
X126273809Y-112130952D01*
X126321428Y-112178571D01*
X126416666Y-112226190D01*
X126797619Y-112226190D01*
X125416666Y-112654761D02*
X125511904Y-112702380D01*
X125702380Y-112702380D01*
X125797619Y-112654761D01*
X125845238Y-112559523D01*
X125845238Y-112178571D01*
X125797619Y-112083333D01*
X125702380Y-112035714D01*
X125511904Y-112035714D01*
X125416666Y-112083333D01*
X125369047Y-112178571D01*
X125369047Y-112273809D01*
X125845238Y-112369047D01*
X125035714Y-112035714D02*
X124797619Y-112702380D01*
X124559523Y-112035714D01*
X123654761Y-112702380D02*
X124226190Y-112702380D01*
X123940476Y-112702380D02*
X123940476Y-111702380D01*
X124035714Y-111845238D01*
X124130952Y-111940476D01*
X124226190Y-111988095D01*
X123226190Y-112607142D02*
X123178571Y-112654761D01*
X123226190Y-112702380D01*
X123273809Y-112654761D01*
X123226190Y-112607142D01*
X123226190Y-112702380D01*
X122226190Y-112702380D02*
X122797619Y-112702380D01*
X122511904Y-112702380D02*
X122511904Y-111702380D01*
X122607142Y-111845238D01*
X122702380Y-111940476D01*
X122797619Y-111988095D01*
X121940476Y-112035714D02*
X121559523Y-112035714D01*
X121797619Y-112702380D02*
X121797619Y-111845238D01*
X121750000Y-111750000D01*
X121654761Y-111702380D01*
X121559523Y-111702380D01*
X128702380Y-110702380D02*
X128702380Y-109702380D01*
X128369047Y-110416666D01*
X128035714Y-109702380D01*
X128035714Y-110702380D01*
X127130952Y-110702380D02*
X127130952Y-110178571D01*
X127178571Y-110083333D01*
X127273809Y-110035714D01*
X127464285Y-110035714D01*
X127559523Y-110083333D01*
X127130952Y-110654761D02*
X127226190Y-110702380D01*
X127464285Y-110702380D01*
X127559523Y-110654761D01*
X127607142Y-110559523D01*
X127607142Y-110464285D01*
X127559523Y-110369047D01*
X127464285Y-110321428D01*
X127226190Y-110321428D01*
X127130952Y-110273809D01*
X126750000Y-110035714D02*
X126511904Y-110702380D01*
X126273809Y-110035714D02*
X126511904Y-110702380D01*
X126607142Y-110940476D01*
X126654761Y-110988095D01*
X126750000Y-111035714D01*
X125178571Y-109797619D02*
X125130952Y-109750000D01*
X125035714Y-109702380D01*
X124797619Y-109702380D01*
X124702380Y-109750000D01*
X124654761Y-109797619D01*
X124607142Y-109892857D01*
X124607142Y-109988095D01*
X124654761Y-110130952D01*
X125226190Y-110702380D01*
X124607142Y-110702380D01*
X123988095Y-109702380D02*
X123892857Y-109702380D01*
X123797619Y-109750000D01*
X123750000Y-109797619D01*
X123702380Y-109892857D01*
X123654761Y-110083333D01*
X123654761Y-110321428D01*
X123702380Y-110511904D01*
X123750000Y-110607142D01*
X123797619Y-110654761D01*
X123892857Y-110702380D01*
X123988095Y-110702380D01*
X124083333Y-110654761D01*
X124130952Y-110607142D01*
X124178571Y-110511904D01*
X124226190Y-110321428D01*
X124226190Y-110083333D01*
X124178571Y-109892857D01*
X124130952Y-109797619D01*
X124083333Y-109750000D01*
X123988095Y-109702380D01*
X123273809Y-109797619D02*
X123226190Y-109750000D01*
X123130952Y-109702380D01*
X122892857Y-109702380D01*
X122797619Y-109750000D01*
X122750000Y-109797619D01*
X122702380Y-109892857D01*
X122702380Y-109988095D01*
X122750000Y-110130952D01*
X123321428Y-110702380D01*
X122702380Y-110702380D01*
X122369047Y-109702380D02*
X121750000Y-109702380D01*
X122083333Y-110083333D01*
X121940476Y-110083333D01*
X121845238Y-110130952D01*
X121797619Y-110178571D01*
X121750000Y-110273809D01*
X121750000Y-110511904D01*
X121797619Y-110607142D01*
X121845238Y-110654761D01*
X121940476Y-110702380D01*
X122226190Y-110702380D01*
X122321428Y-110654761D01*
X122369047Y-110607142D01*
M02*
