%TF.GenerationSoftware,KiCad,Pcbnew,(5.1.6-0)*%
%TF.CreationDate,2024-01-20T12:46:16-08:00*%
%TF.ProjectId,input_buffer_bal_XLR_SMD_1206,696e7075-745f-4627-9566-6665725f6261,rev?*%
%TF.SameCoordinates,Original*%
%TF.FileFunction,Paste,Top*%
%TF.FilePolarity,Positive*%
%FSLAX46Y46*%
G04 Gerber Fmt 4.6, Leading zero omitted, Abs format (unit mm)*
G04 Created by KiCad (PCBNEW (5.1.6-0)) date 2024-01-20 12:46:16*
%MOMM*%
%LPD*%
G01*
G04 APERTURE LIST*
G04 APERTURE END LIST*
%TO.C,R18*%
G36*
G01*
X148375000Y-118725000D02*
X147125000Y-118725000D01*
G75*
G02*
X146875000Y-118475000I0J250000D01*
G01*
X146875000Y-117725000D01*
G75*
G02*
X147125000Y-117475000I250000J0D01*
G01*
X148375000Y-117475000D01*
G75*
G02*
X148625000Y-117725000I0J-250000D01*
G01*
X148625000Y-118475000D01*
G75*
G02*
X148375000Y-118725000I-250000J0D01*
G01*
G37*
G36*
G01*
X148375000Y-121525000D02*
X147125000Y-121525000D01*
G75*
G02*
X146875000Y-121275000I0J250000D01*
G01*
X146875000Y-120525000D01*
G75*
G02*
X147125000Y-120275000I250000J0D01*
G01*
X148375000Y-120275000D01*
G75*
G02*
X148625000Y-120525000I0J-250000D01*
G01*
X148625000Y-121275000D01*
G75*
G02*
X148375000Y-121525000I-250000J0D01*
G01*
G37*
%TD*%
%TO.C,R17*%
G36*
G01*
X151375000Y-118725000D02*
X150125000Y-118725000D01*
G75*
G02*
X149875000Y-118475000I0J250000D01*
G01*
X149875000Y-117725000D01*
G75*
G02*
X150125000Y-117475000I250000J0D01*
G01*
X151375000Y-117475000D01*
G75*
G02*
X151625000Y-117725000I0J-250000D01*
G01*
X151625000Y-118475000D01*
G75*
G02*
X151375000Y-118725000I-250000J0D01*
G01*
G37*
G36*
G01*
X151375000Y-121525000D02*
X150125000Y-121525000D01*
G75*
G02*
X149875000Y-121275000I0J250000D01*
G01*
X149875000Y-120525000D01*
G75*
G02*
X150125000Y-120275000I250000J0D01*
G01*
X151375000Y-120275000D01*
G75*
G02*
X151625000Y-120525000I0J-250000D01*
G01*
X151625000Y-121275000D01*
G75*
G02*
X151375000Y-121525000I-250000J0D01*
G01*
G37*
%TD*%
%TO.C,R16*%
G36*
G01*
X99875000Y-119975000D02*
X98625000Y-119975000D01*
G75*
G02*
X98375000Y-119725000I0J250000D01*
G01*
X98375000Y-118975000D01*
G75*
G02*
X98625000Y-118725000I250000J0D01*
G01*
X99875000Y-118725000D01*
G75*
G02*
X100125000Y-118975000I0J-250000D01*
G01*
X100125000Y-119725000D01*
G75*
G02*
X99875000Y-119975000I-250000J0D01*
G01*
G37*
G36*
G01*
X99875000Y-122775000D02*
X98625000Y-122775000D01*
G75*
G02*
X98375000Y-122525000I0J250000D01*
G01*
X98375000Y-121775000D01*
G75*
G02*
X98625000Y-121525000I250000J0D01*
G01*
X99875000Y-121525000D01*
G75*
G02*
X100125000Y-121775000I0J-250000D01*
G01*
X100125000Y-122525000D01*
G75*
G02*
X99875000Y-122775000I-250000J0D01*
G01*
G37*
%TD*%
%TO.C,R15*%
G36*
G01*
X102875000Y-119975000D02*
X101625000Y-119975000D01*
G75*
G02*
X101375000Y-119725000I0J250000D01*
G01*
X101375000Y-118975000D01*
G75*
G02*
X101625000Y-118725000I250000J0D01*
G01*
X102875000Y-118725000D01*
G75*
G02*
X103125000Y-118975000I0J-250000D01*
G01*
X103125000Y-119725000D01*
G75*
G02*
X102875000Y-119975000I-250000J0D01*
G01*
G37*
G36*
G01*
X102875000Y-122775000D02*
X101625000Y-122775000D01*
G75*
G02*
X101375000Y-122525000I0J250000D01*
G01*
X101375000Y-121775000D01*
G75*
G02*
X101625000Y-121525000I250000J0D01*
G01*
X102875000Y-121525000D01*
G75*
G02*
X103125000Y-121775000I0J-250000D01*
G01*
X103125000Y-122525000D01*
G75*
G02*
X102875000Y-122775000I-250000J0D01*
G01*
G37*
%TD*%
%TO.C,U2*%
G36*
G01*
X161500000Y-118995000D02*
X161500000Y-118695000D01*
G75*
G02*
X161650000Y-118545000I150000J0D01*
G01*
X163300000Y-118545000D01*
G75*
G02*
X163450000Y-118695000I0J-150000D01*
G01*
X163450000Y-118995000D01*
G75*
G02*
X163300000Y-119145000I-150000J0D01*
G01*
X161650000Y-119145000D01*
G75*
G02*
X161500000Y-118995000I0J150000D01*
G01*
G37*
G36*
G01*
X161500000Y-120265000D02*
X161500000Y-119965000D01*
G75*
G02*
X161650000Y-119815000I150000J0D01*
G01*
X163300000Y-119815000D01*
G75*
G02*
X163450000Y-119965000I0J-150000D01*
G01*
X163450000Y-120265000D01*
G75*
G02*
X163300000Y-120415000I-150000J0D01*
G01*
X161650000Y-120415000D01*
G75*
G02*
X161500000Y-120265000I0J150000D01*
G01*
G37*
G36*
G01*
X161500000Y-121535000D02*
X161500000Y-121235000D01*
G75*
G02*
X161650000Y-121085000I150000J0D01*
G01*
X163300000Y-121085000D01*
G75*
G02*
X163450000Y-121235000I0J-150000D01*
G01*
X163450000Y-121535000D01*
G75*
G02*
X163300000Y-121685000I-150000J0D01*
G01*
X161650000Y-121685000D01*
G75*
G02*
X161500000Y-121535000I0J150000D01*
G01*
G37*
G36*
G01*
X161500000Y-122805000D02*
X161500000Y-122505000D01*
G75*
G02*
X161650000Y-122355000I150000J0D01*
G01*
X163300000Y-122355000D01*
G75*
G02*
X163450000Y-122505000I0J-150000D01*
G01*
X163450000Y-122805000D01*
G75*
G02*
X163300000Y-122955000I-150000J0D01*
G01*
X161650000Y-122955000D01*
G75*
G02*
X161500000Y-122805000I0J150000D01*
G01*
G37*
G36*
G01*
X156550000Y-122805000D02*
X156550000Y-122505000D01*
G75*
G02*
X156700000Y-122355000I150000J0D01*
G01*
X158350000Y-122355000D01*
G75*
G02*
X158500000Y-122505000I0J-150000D01*
G01*
X158500000Y-122805000D01*
G75*
G02*
X158350000Y-122955000I-150000J0D01*
G01*
X156700000Y-122955000D01*
G75*
G02*
X156550000Y-122805000I0J150000D01*
G01*
G37*
G36*
G01*
X156550000Y-121535000D02*
X156550000Y-121235000D01*
G75*
G02*
X156700000Y-121085000I150000J0D01*
G01*
X158350000Y-121085000D01*
G75*
G02*
X158500000Y-121235000I0J-150000D01*
G01*
X158500000Y-121535000D01*
G75*
G02*
X158350000Y-121685000I-150000J0D01*
G01*
X156700000Y-121685000D01*
G75*
G02*
X156550000Y-121535000I0J150000D01*
G01*
G37*
G36*
G01*
X156550000Y-120265000D02*
X156550000Y-119965000D01*
G75*
G02*
X156700000Y-119815000I150000J0D01*
G01*
X158350000Y-119815000D01*
G75*
G02*
X158500000Y-119965000I0J-150000D01*
G01*
X158500000Y-120265000D01*
G75*
G02*
X158350000Y-120415000I-150000J0D01*
G01*
X156700000Y-120415000D01*
G75*
G02*
X156550000Y-120265000I0J150000D01*
G01*
G37*
G36*
G01*
X156550000Y-118995000D02*
X156550000Y-118695000D01*
G75*
G02*
X156700000Y-118545000I150000J0D01*
G01*
X158350000Y-118545000D01*
G75*
G02*
X158500000Y-118695000I0J-150000D01*
G01*
X158500000Y-118995000D01*
G75*
G02*
X158350000Y-119145000I-150000J0D01*
G01*
X156700000Y-119145000D01*
G75*
G02*
X156550000Y-118995000I0J150000D01*
G01*
G37*
%TD*%
%TO.C,R14*%
G36*
G01*
X153125000Y-120275000D02*
X154375000Y-120275000D01*
G75*
G02*
X154625000Y-120525000I0J-250000D01*
G01*
X154625000Y-121275000D01*
G75*
G02*
X154375000Y-121525000I-250000J0D01*
G01*
X153125000Y-121525000D01*
G75*
G02*
X152875000Y-121275000I0J250000D01*
G01*
X152875000Y-120525000D01*
G75*
G02*
X153125000Y-120275000I250000J0D01*
G01*
G37*
G36*
G01*
X153125000Y-117475000D02*
X154375000Y-117475000D01*
G75*
G02*
X154625000Y-117725000I0J-250000D01*
G01*
X154625000Y-118475000D01*
G75*
G02*
X154375000Y-118725000I-250000J0D01*
G01*
X153125000Y-118725000D01*
G75*
G02*
X152875000Y-118475000I0J250000D01*
G01*
X152875000Y-117725000D01*
G75*
G02*
X153125000Y-117475000I250000J0D01*
G01*
G37*
%TD*%
%TO.C,R13*%
G36*
G01*
X165625000Y-121525000D02*
X166875000Y-121525000D01*
G75*
G02*
X167125000Y-121775000I0J-250000D01*
G01*
X167125000Y-122525000D01*
G75*
G02*
X166875000Y-122775000I-250000J0D01*
G01*
X165625000Y-122775000D01*
G75*
G02*
X165375000Y-122525000I0J250000D01*
G01*
X165375000Y-121775000D01*
G75*
G02*
X165625000Y-121525000I250000J0D01*
G01*
G37*
G36*
G01*
X165625000Y-118725000D02*
X166875000Y-118725000D01*
G75*
G02*
X167125000Y-118975000I0J-250000D01*
G01*
X167125000Y-119725000D01*
G75*
G02*
X166875000Y-119975000I-250000J0D01*
G01*
X165625000Y-119975000D01*
G75*
G02*
X165375000Y-119725000I0J250000D01*
G01*
X165375000Y-118975000D01*
G75*
G02*
X165625000Y-118725000I250000J0D01*
G01*
G37*
%TD*%
%TO.C,R12*%
G36*
G01*
X95625000Y-121525000D02*
X96875000Y-121525000D01*
G75*
G02*
X97125000Y-121775000I0J-250000D01*
G01*
X97125000Y-122525000D01*
G75*
G02*
X96875000Y-122775000I-250000J0D01*
G01*
X95625000Y-122775000D01*
G75*
G02*
X95375000Y-122525000I0J250000D01*
G01*
X95375000Y-121775000D01*
G75*
G02*
X95625000Y-121525000I250000J0D01*
G01*
G37*
G36*
G01*
X95625000Y-118725000D02*
X96875000Y-118725000D01*
G75*
G02*
X97125000Y-118975000I0J-250000D01*
G01*
X97125000Y-119725000D01*
G75*
G02*
X96875000Y-119975000I-250000J0D01*
G01*
X95625000Y-119975000D01*
G75*
G02*
X95375000Y-119725000I0J250000D01*
G01*
X95375000Y-118975000D01*
G75*
G02*
X95625000Y-118725000I250000J0D01*
G01*
G37*
%TD*%
%TO.C,R11*%
G36*
G01*
X83125000Y-120275000D02*
X84375000Y-120275000D01*
G75*
G02*
X84625000Y-120525000I0J-250000D01*
G01*
X84625000Y-121275000D01*
G75*
G02*
X84375000Y-121525000I-250000J0D01*
G01*
X83125000Y-121525000D01*
G75*
G02*
X82875000Y-121275000I0J250000D01*
G01*
X82875000Y-120525000D01*
G75*
G02*
X83125000Y-120275000I250000J0D01*
G01*
G37*
G36*
G01*
X83125000Y-117475000D02*
X84375000Y-117475000D01*
G75*
G02*
X84625000Y-117725000I0J-250000D01*
G01*
X84625000Y-118475000D01*
G75*
G02*
X84375000Y-118725000I-250000J0D01*
G01*
X83125000Y-118725000D01*
G75*
G02*
X82875000Y-118475000I0J250000D01*
G01*
X82875000Y-117725000D01*
G75*
G02*
X83125000Y-117475000I250000J0D01*
G01*
G37*
%TD*%
%TO.C,R10*%
G36*
G01*
X157375000Y-130475000D02*
X156125000Y-130475000D01*
G75*
G02*
X155875000Y-130225000I0J250000D01*
G01*
X155875000Y-129475000D01*
G75*
G02*
X156125000Y-129225000I250000J0D01*
G01*
X157375000Y-129225000D01*
G75*
G02*
X157625000Y-129475000I0J-250000D01*
G01*
X157625000Y-130225000D01*
G75*
G02*
X157375000Y-130475000I-250000J0D01*
G01*
G37*
G36*
G01*
X157375000Y-133275000D02*
X156125000Y-133275000D01*
G75*
G02*
X155875000Y-133025000I0J250000D01*
G01*
X155875000Y-132275000D01*
G75*
G02*
X156125000Y-132025000I250000J0D01*
G01*
X157375000Y-132025000D01*
G75*
G02*
X157625000Y-132275000I0J-250000D01*
G01*
X157625000Y-133025000D01*
G75*
G02*
X157375000Y-133275000I-250000J0D01*
G01*
G37*
%TD*%
%TO.C,R9*%
G36*
G01*
X162625000Y-132025000D02*
X163875000Y-132025000D01*
G75*
G02*
X164125000Y-132275000I0J-250000D01*
G01*
X164125000Y-133025000D01*
G75*
G02*
X163875000Y-133275000I-250000J0D01*
G01*
X162625000Y-133275000D01*
G75*
G02*
X162375000Y-133025000I0J250000D01*
G01*
X162375000Y-132275000D01*
G75*
G02*
X162625000Y-132025000I250000J0D01*
G01*
G37*
G36*
G01*
X162625000Y-129225000D02*
X163875000Y-129225000D01*
G75*
G02*
X164125000Y-129475000I0J-250000D01*
G01*
X164125000Y-130225000D01*
G75*
G02*
X163875000Y-130475000I-250000J0D01*
G01*
X162625000Y-130475000D01*
G75*
G02*
X162375000Y-130225000I0J250000D01*
G01*
X162375000Y-129475000D01*
G75*
G02*
X162625000Y-129225000I250000J0D01*
G01*
G37*
%TD*%
%TO.C,R6*%
G36*
G01*
X160625000Y-130475000D02*
X159375000Y-130475000D01*
G75*
G02*
X159125000Y-130225000I0J250000D01*
G01*
X159125000Y-129475000D01*
G75*
G02*
X159375000Y-129225000I250000J0D01*
G01*
X160625000Y-129225000D01*
G75*
G02*
X160875000Y-129475000I0J-250000D01*
G01*
X160875000Y-130225000D01*
G75*
G02*
X160625000Y-130475000I-250000J0D01*
G01*
G37*
G36*
G01*
X160625000Y-133275000D02*
X159375000Y-133275000D01*
G75*
G02*
X159125000Y-133025000I0J250000D01*
G01*
X159125000Y-132275000D01*
G75*
G02*
X159375000Y-132025000I250000J0D01*
G01*
X160625000Y-132025000D01*
G75*
G02*
X160875000Y-132275000I0J-250000D01*
G01*
X160875000Y-133025000D01*
G75*
G02*
X160625000Y-133275000I-250000J0D01*
G01*
G37*
%TD*%
%TO.C,R4*%
G36*
G01*
X150725000Y-128125000D02*
X150725000Y-129375000D01*
G75*
G02*
X150475000Y-129625000I-250000J0D01*
G01*
X149725000Y-129625000D01*
G75*
G02*
X149475000Y-129375000I0J250000D01*
G01*
X149475000Y-128125000D01*
G75*
G02*
X149725000Y-127875000I250000J0D01*
G01*
X150475000Y-127875000D01*
G75*
G02*
X150725000Y-128125000I0J-250000D01*
G01*
G37*
G36*
G01*
X153525000Y-128125000D02*
X153525000Y-129375000D01*
G75*
G02*
X153275000Y-129625000I-250000J0D01*
G01*
X152525000Y-129625000D01*
G75*
G02*
X152275000Y-129375000I0J250000D01*
G01*
X152275000Y-128125000D01*
G75*
G02*
X152525000Y-127875000I250000J0D01*
G01*
X153275000Y-127875000D01*
G75*
G02*
X153525000Y-128125000I0J-250000D01*
G01*
G37*
%TD*%
%TO.C,R3*%
G36*
G01*
X169025000Y-129375000D02*
X169025000Y-128125000D01*
G75*
G02*
X169275000Y-127875000I250000J0D01*
G01*
X170025000Y-127875000D01*
G75*
G02*
X170275000Y-128125000I0J-250000D01*
G01*
X170275000Y-129375000D01*
G75*
G02*
X170025000Y-129625000I-250000J0D01*
G01*
X169275000Y-129625000D01*
G75*
G02*
X169025000Y-129375000I0J250000D01*
G01*
G37*
G36*
G01*
X166225000Y-129375000D02*
X166225000Y-128125000D01*
G75*
G02*
X166475000Y-127875000I250000J0D01*
G01*
X167225000Y-127875000D01*
G75*
G02*
X167475000Y-128125000I0J-250000D01*
G01*
X167475000Y-129375000D01*
G75*
G02*
X167225000Y-129625000I-250000J0D01*
G01*
X166475000Y-129625000D01*
G75*
G02*
X166225000Y-129375000I0J250000D01*
G01*
G37*
%TD*%
%TO.C,C8*%
G36*
G01*
X152275000Y-126375000D02*
X152275000Y-125125000D01*
G75*
G02*
X152525000Y-124875000I250000J0D01*
G01*
X153450000Y-124875000D01*
G75*
G02*
X153700000Y-125125000I0J-250000D01*
G01*
X153700000Y-126375000D01*
G75*
G02*
X153450000Y-126625000I-250000J0D01*
G01*
X152525000Y-126625000D01*
G75*
G02*
X152275000Y-126375000I0J250000D01*
G01*
G37*
G36*
G01*
X149300000Y-126375000D02*
X149300000Y-125125000D01*
G75*
G02*
X149550000Y-124875000I250000J0D01*
G01*
X150475000Y-124875000D01*
G75*
G02*
X150725000Y-125125000I0J-250000D01*
G01*
X150725000Y-126375000D01*
G75*
G02*
X150475000Y-126625000I-250000J0D01*
G01*
X149550000Y-126625000D01*
G75*
G02*
X149300000Y-126375000I0J250000D01*
G01*
G37*
%TD*%
%TO.C,C7*%
G36*
G01*
X169025000Y-126375000D02*
X169025000Y-125125000D01*
G75*
G02*
X169275000Y-124875000I250000J0D01*
G01*
X170200000Y-124875000D01*
G75*
G02*
X170450000Y-125125000I0J-250000D01*
G01*
X170450000Y-126375000D01*
G75*
G02*
X170200000Y-126625000I-250000J0D01*
G01*
X169275000Y-126625000D01*
G75*
G02*
X169025000Y-126375000I0J250000D01*
G01*
G37*
G36*
G01*
X166050000Y-126375000D02*
X166050000Y-125125000D01*
G75*
G02*
X166300000Y-124875000I250000J0D01*
G01*
X167225000Y-124875000D01*
G75*
G02*
X167475000Y-125125000I0J-250000D01*
G01*
X167475000Y-126375000D01*
G75*
G02*
X167225000Y-126625000I-250000J0D01*
G01*
X166300000Y-126625000D01*
G75*
G02*
X166050000Y-126375000I0J250000D01*
G01*
G37*
%TD*%
%TO.C,C6*%
G36*
G01*
X97475000Y-125125000D02*
X97475000Y-126375000D01*
G75*
G02*
X97225000Y-126625000I-250000J0D01*
G01*
X96300000Y-126625000D01*
G75*
G02*
X96050000Y-126375000I0J250000D01*
G01*
X96050000Y-125125000D01*
G75*
G02*
X96300000Y-124875000I250000J0D01*
G01*
X97225000Y-124875000D01*
G75*
G02*
X97475000Y-125125000I0J-250000D01*
G01*
G37*
G36*
G01*
X100450000Y-125125000D02*
X100450000Y-126375000D01*
G75*
G02*
X100200000Y-126625000I-250000J0D01*
G01*
X99275000Y-126625000D01*
G75*
G02*
X99025000Y-126375000I0J250000D01*
G01*
X99025000Y-125125000D01*
G75*
G02*
X99275000Y-124875000I250000J0D01*
G01*
X100200000Y-124875000D01*
G75*
G02*
X100450000Y-125125000I0J-250000D01*
G01*
G37*
%TD*%
%TO.C,C5*%
G36*
G01*
X80975000Y-125125000D02*
X80975000Y-126375000D01*
G75*
G02*
X80725000Y-126625000I-250000J0D01*
G01*
X79800000Y-126625000D01*
G75*
G02*
X79550000Y-126375000I0J250000D01*
G01*
X79550000Y-125125000D01*
G75*
G02*
X79800000Y-124875000I250000J0D01*
G01*
X80725000Y-124875000D01*
G75*
G02*
X80975000Y-125125000I0J-250000D01*
G01*
G37*
G36*
G01*
X83950000Y-125125000D02*
X83950000Y-126375000D01*
G75*
G02*
X83700000Y-126625000I-250000J0D01*
G01*
X82775000Y-126625000D01*
G75*
G02*
X82525000Y-126375000I0J250000D01*
G01*
X82525000Y-125125000D01*
G75*
G02*
X82775000Y-124875000I250000J0D01*
G01*
X83700000Y-124875000D01*
G75*
G02*
X83950000Y-125125000I0J-250000D01*
G01*
G37*
%TD*%
%TO.C,C4*%
G36*
G01*
X158225000Y-125125000D02*
X158225000Y-126375000D01*
G75*
G02*
X157975000Y-126625000I-250000J0D01*
G01*
X157050000Y-126625000D01*
G75*
G02*
X156800000Y-126375000I0J250000D01*
G01*
X156800000Y-125125000D01*
G75*
G02*
X157050000Y-124875000I250000J0D01*
G01*
X157975000Y-124875000D01*
G75*
G02*
X158225000Y-125125000I0J-250000D01*
G01*
G37*
G36*
G01*
X161200000Y-125125000D02*
X161200000Y-126375000D01*
G75*
G02*
X160950000Y-126625000I-250000J0D01*
G01*
X160025000Y-126625000D01*
G75*
G02*
X159775000Y-126375000I0J250000D01*
G01*
X159775000Y-125125000D01*
G75*
G02*
X160025000Y-124875000I250000J0D01*
G01*
X160950000Y-124875000D01*
G75*
G02*
X161200000Y-125125000I0J-250000D01*
G01*
G37*
%TD*%
%TO.C,C3*%
G36*
G01*
X88225000Y-125125000D02*
X88225000Y-126375000D01*
G75*
G02*
X87975000Y-126625000I-250000J0D01*
G01*
X87050000Y-126625000D01*
G75*
G02*
X86800000Y-126375000I0J250000D01*
G01*
X86800000Y-125125000D01*
G75*
G02*
X87050000Y-124875000I250000J0D01*
G01*
X87975000Y-124875000D01*
G75*
G02*
X88225000Y-125125000I0J-250000D01*
G01*
G37*
G36*
G01*
X91200000Y-125125000D02*
X91200000Y-126375000D01*
G75*
G02*
X90950000Y-126625000I-250000J0D01*
G01*
X90025000Y-126625000D01*
G75*
G02*
X89775000Y-126375000I0J250000D01*
G01*
X89775000Y-125125000D01*
G75*
G02*
X90025000Y-124875000I250000J0D01*
G01*
X90950000Y-124875000D01*
G75*
G02*
X91200000Y-125125000I0J-250000D01*
G01*
G37*
%TD*%
%TO.C,C2*%
G36*
G01*
X160225000Y-115125000D02*
X160225000Y-116375000D01*
G75*
G02*
X159975000Y-116625000I-250000J0D01*
G01*
X159050000Y-116625000D01*
G75*
G02*
X158800000Y-116375000I0J250000D01*
G01*
X158800000Y-115125000D01*
G75*
G02*
X159050000Y-114875000I250000J0D01*
G01*
X159975000Y-114875000D01*
G75*
G02*
X160225000Y-115125000I0J-250000D01*
G01*
G37*
G36*
G01*
X163200000Y-115125000D02*
X163200000Y-116375000D01*
G75*
G02*
X162950000Y-116625000I-250000J0D01*
G01*
X162025000Y-116625000D01*
G75*
G02*
X161775000Y-116375000I0J250000D01*
G01*
X161775000Y-115125000D01*
G75*
G02*
X162025000Y-114875000I250000J0D01*
G01*
X162950000Y-114875000D01*
G75*
G02*
X163200000Y-115125000I0J-250000D01*
G01*
G37*
%TD*%
%TO.C,C1*%
G36*
G01*
X90225000Y-115125000D02*
X90225000Y-116375000D01*
G75*
G02*
X89975000Y-116625000I-250000J0D01*
G01*
X89050000Y-116625000D01*
G75*
G02*
X88800000Y-116375000I0J250000D01*
G01*
X88800000Y-115125000D01*
G75*
G02*
X89050000Y-114875000I250000J0D01*
G01*
X89975000Y-114875000D01*
G75*
G02*
X90225000Y-115125000I0J-250000D01*
G01*
G37*
G36*
G01*
X93200000Y-115125000D02*
X93200000Y-116375000D01*
G75*
G02*
X92950000Y-116625000I-250000J0D01*
G01*
X92025000Y-116625000D01*
G75*
G02*
X91775000Y-116375000I0J250000D01*
G01*
X91775000Y-115125000D01*
G75*
G02*
X92025000Y-114875000I250000J0D01*
G01*
X92950000Y-114875000D01*
G75*
G02*
X93200000Y-115125000I0J-250000D01*
G01*
G37*
%TD*%
%TO.C,U1*%
G36*
G01*
X91500000Y-118995000D02*
X91500000Y-118695000D01*
G75*
G02*
X91650000Y-118545000I150000J0D01*
G01*
X93300000Y-118545000D01*
G75*
G02*
X93450000Y-118695000I0J-150000D01*
G01*
X93450000Y-118995000D01*
G75*
G02*
X93300000Y-119145000I-150000J0D01*
G01*
X91650000Y-119145000D01*
G75*
G02*
X91500000Y-118995000I0J150000D01*
G01*
G37*
G36*
G01*
X91500000Y-120265000D02*
X91500000Y-119965000D01*
G75*
G02*
X91650000Y-119815000I150000J0D01*
G01*
X93300000Y-119815000D01*
G75*
G02*
X93450000Y-119965000I0J-150000D01*
G01*
X93450000Y-120265000D01*
G75*
G02*
X93300000Y-120415000I-150000J0D01*
G01*
X91650000Y-120415000D01*
G75*
G02*
X91500000Y-120265000I0J150000D01*
G01*
G37*
G36*
G01*
X91500000Y-121535000D02*
X91500000Y-121235000D01*
G75*
G02*
X91650000Y-121085000I150000J0D01*
G01*
X93300000Y-121085000D01*
G75*
G02*
X93450000Y-121235000I0J-150000D01*
G01*
X93450000Y-121535000D01*
G75*
G02*
X93300000Y-121685000I-150000J0D01*
G01*
X91650000Y-121685000D01*
G75*
G02*
X91500000Y-121535000I0J150000D01*
G01*
G37*
G36*
G01*
X91500000Y-122805000D02*
X91500000Y-122505000D01*
G75*
G02*
X91650000Y-122355000I150000J0D01*
G01*
X93300000Y-122355000D01*
G75*
G02*
X93450000Y-122505000I0J-150000D01*
G01*
X93450000Y-122805000D01*
G75*
G02*
X93300000Y-122955000I-150000J0D01*
G01*
X91650000Y-122955000D01*
G75*
G02*
X91500000Y-122805000I0J150000D01*
G01*
G37*
G36*
G01*
X86550000Y-122805000D02*
X86550000Y-122505000D01*
G75*
G02*
X86700000Y-122355000I150000J0D01*
G01*
X88350000Y-122355000D01*
G75*
G02*
X88500000Y-122505000I0J-150000D01*
G01*
X88500000Y-122805000D01*
G75*
G02*
X88350000Y-122955000I-150000J0D01*
G01*
X86700000Y-122955000D01*
G75*
G02*
X86550000Y-122805000I0J150000D01*
G01*
G37*
G36*
G01*
X86550000Y-121535000D02*
X86550000Y-121235000D01*
G75*
G02*
X86700000Y-121085000I150000J0D01*
G01*
X88350000Y-121085000D01*
G75*
G02*
X88500000Y-121235000I0J-150000D01*
G01*
X88500000Y-121535000D01*
G75*
G02*
X88350000Y-121685000I-150000J0D01*
G01*
X86700000Y-121685000D01*
G75*
G02*
X86550000Y-121535000I0J150000D01*
G01*
G37*
G36*
G01*
X86550000Y-120265000D02*
X86550000Y-119965000D01*
G75*
G02*
X86700000Y-119815000I150000J0D01*
G01*
X88350000Y-119815000D01*
G75*
G02*
X88500000Y-119965000I0J-150000D01*
G01*
X88500000Y-120265000D01*
G75*
G02*
X88350000Y-120415000I-150000J0D01*
G01*
X86700000Y-120415000D01*
G75*
G02*
X86550000Y-120265000I0J150000D01*
G01*
G37*
G36*
G01*
X86550000Y-118995000D02*
X86550000Y-118695000D01*
G75*
G02*
X86700000Y-118545000I150000J0D01*
G01*
X88350000Y-118545000D01*
G75*
G02*
X88500000Y-118695000I0J-150000D01*
G01*
X88500000Y-118995000D01*
G75*
G02*
X88350000Y-119145000I-150000J0D01*
G01*
X86700000Y-119145000D01*
G75*
G02*
X86550000Y-118995000I0J150000D01*
G01*
G37*
%TD*%
%TO.C,R8*%
G36*
G01*
X93875000Y-130475000D02*
X92625000Y-130475000D01*
G75*
G02*
X92375000Y-130225000I0J250000D01*
G01*
X92375000Y-129475000D01*
G75*
G02*
X92625000Y-129225000I250000J0D01*
G01*
X93875000Y-129225000D01*
G75*
G02*
X94125000Y-129475000I0J-250000D01*
G01*
X94125000Y-130225000D01*
G75*
G02*
X93875000Y-130475000I-250000J0D01*
G01*
G37*
G36*
G01*
X93875000Y-133275000D02*
X92625000Y-133275000D01*
G75*
G02*
X92375000Y-133025000I0J250000D01*
G01*
X92375000Y-132275000D01*
G75*
G02*
X92625000Y-132025000I250000J0D01*
G01*
X93875000Y-132025000D01*
G75*
G02*
X94125000Y-132275000I0J-250000D01*
G01*
X94125000Y-133025000D01*
G75*
G02*
X93875000Y-133275000I-250000J0D01*
G01*
G37*
%TD*%
%TO.C,R7*%
G36*
G01*
X86125000Y-132025000D02*
X87375000Y-132025000D01*
G75*
G02*
X87625000Y-132275000I0J-250000D01*
G01*
X87625000Y-133025000D01*
G75*
G02*
X87375000Y-133275000I-250000J0D01*
G01*
X86125000Y-133275000D01*
G75*
G02*
X85875000Y-133025000I0J250000D01*
G01*
X85875000Y-132275000D01*
G75*
G02*
X86125000Y-132025000I250000J0D01*
G01*
G37*
G36*
G01*
X86125000Y-129225000D02*
X87375000Y-129225000D01*
G75*
G02*
X87625000Y-129475000I0J-250000D01*
G01*
X87625000Y-130225000D01*
G75*
G02*
X87375000Y-130475000I-250000J0D01*
G01*
X86125000Y-130475000D01*
G75*
G02*
X85875000Y-130225000I0J250000D01*
G01*
X85875000Y-129475000D01*
G75*
G02*
X86125000Y-129225000I250000J0D01*
G01*
G37*
%TD*%
%TO.C,R5*%
G36*
G01*
X90625000Y-130475000D02*
X89375000Y-130475000D01*
G75*
G02*
X89125000Y-130225000I0J250000D01*
G01*
X89125000Y-129475000D01*
G75*
G02*
X89375000Y-129225000I250000J0D01*
G01*
X90625000Y-129225000D01*
G75*
G02*
X90875000Y-129475000I0J-250000D01*
G01*
X90875000Y-130225000D01*
G75*
G02*
X90625000Y-130475000I-250000J0D01*
G01*
G37*
G36*
G01*
X90625000Y-133275000D02*
X89375000Y-133275000D01*
G75*
G02*
X89125000Y-133025000I0J250000D01*
G01*
X89125000Y-132275000D01*
G75*
G02*
X89375000Y-132025000I250000J0D01*
G01*
X90625000Y-132025000D01*
G75*
G02*
X90875000Y-132275000I0J-250000D01*
G01*
X90875000Y-133025000D01*
G75*
G02*
X90625000Y-133275000I-250000J0D01*
G01*
G37*
%TD*%
%TO.C,R2*%
G36*
G01*
X99025000Y-129375000D02*
X99025000Y-128125000D01*
G75*
G02*
X99275000Y-127875000I250000J0D01*
G01*
X100025000Y-127875000D01*
G75*
G02*
X100275000Y-128125000I0J-250000D01*
G01*
X100275000Y-129375000D01*
G75*
G02*
X100025000Y-129625000I-250000J0D01*
G01*
X99275000Y-129625000D01*
G75*
G02*
X99025000Y-129375000I0J250000D01*
G01*
G37*
G36*
G01*
X96225000Y-129375000D02*
X96225000Y-128125000D01*
G75*
G02*
X96475000Y-127875000I250000J0D01*
G01*
X97225000Y-127875000D01*
G75*
G02*
X97475000Y-128125000I0J-250000D01*
G01*
X97475000Y-129375000D01*
G75*
G02*
X97225000Y-129625000I-250000J0D01*
G01*
X96475000Y-129625000D01*
G75*
G02*
X96225000Y-129375000I0J250000D01*
G01*
G37*
%TD*%
%TO.C,R1*%
G36*
G01*
X80975000Y-128125000D02*
X80975000Y-129375000D01*
G75*
G02*
X80725000Y-129625000I-250000J0D01*
G01*
X79975000Y-129625000D01*
G75*
G02*
X79725000Y-129375000I0J250000D01*
G01*
X79725000Y-128125000D01*
G75*
G02*
X79975000Y-127875000I250000J0D01*
G01*
X80725000Y-127875000D01*
G75*
G02*
X80975000Y-128125000I0J-250000D01*
G01*
G37*
G36*
G01*
X83775000Y-128125000D02*
X83775000Y-129375000D01*
G75*
G02*
X83525000Y-129625000I-250000J0D01*
G01*
X82775000Y-129625000D01*
G75*
G02*
X82525000Y-129375000I0J250000D01*
G01*
X82525000Y-128125000D01*
G75*
G02*
X82775000Y-127875000I250000J0D01*
G01*
X83525000Y-127875000D01*
G75*
G02*
X83775000Y-128125000I0J-250000D01*
G01*
G37*
%TD*%
M02*
